<svg width="388" height="681" viewBox="0 0 388 681" fill="none" xmlns="http://www.w3.org/2000/svg">
<g filter="url(#filter0_d_302_23030)">
<path d="M50.8897 172.503C28.2501 168.701 -1.68415 153.361 -7.58497 150.255C-8.23459 149.913 -8.61963 149.248 -8.61963 148.513V2C-8.61963 0.895431 -7.72419 0 -6.61962 0H385.951C387.055 0 387.951 0.895415 387.951 1.99998V669.392C387.951 670.497 387.055 671.392 385.951 671.392H75.0201C60.3484 672.557 46.2035 672.972 33.7683 672.999C31.2179 673.004 31.2943 671.392 33.8447 671.392H75.0201C113.959 668.3 156.609 659.921 180.858 639.476C196.242 626.504 182.733 606.148 212.755 601.479C238.695 597.445 181.453 588.132 207.042 582.861C221.8 579.822 244.486 551.554 237.511 529.287C224.657 488.251 184.667 525.107 168.48 499.65C153.493 476.079 127.538 466.213 127.538 440.376C127.538 412.835 149.196 395.092 180.858 384.141C195.14 379.202 234.969 375.69 246.556 363.623C261.711 347.842 237.987 325.608 225.133 316.888C204.575 302.942 210.267 283.969 190.856 269.013C174.844 256.676 151.552 261.81 141.82 245.835C126.623 220.889 194.135 214.176 190.856 186.561C188.949 170.508 186.117 156.024 167.528 149.705C141.82 140.966 96.7813 180.208 50.8897 172.503Z" fill="#2BCB9A"/>
</g>
<defs>
<filter id="filter0_d_302_23030" x="-8.61963" y="0" width="396.57" height="680.998" filterUnits="userSpaceOnUse" color-interpolation-filters="sRGB">
<feFlood flood-opacity="0" result="BackgroundImageFix"/>
<feColorMatrix in="SourceAlpha" type="matrix" values="0 0 0 0 0 0 0 0 0 0 0 0 0 0 0 0 0 0 127 0" result="hardAlpha"/>
<feOffset dy="8"/>
<feComposite in2="hardAlpha" operator="out"/>
<feColorMatrix type="matrix" values="0 0 0 0 0.172622 0 0 0 0 0.679167 0 0 0 0 0.525668 0 0 0 1 0"/>
<feBlend mode="normal" in2="BackgroundImageFix" result="effect1_dropShadow_302_23030"/>
<feBlend mode="normal" in="SourceGraphic" in2="effect1_dropShadow_302_23030" result="shape"/>
</filter>
</defs>
</svg>
