<svg width="185" height="58" viewBox="0 0 185 58" fill="none" xmlns="http://www.w3.org/2000/svg">
<g filter="url(#filter0_d_302_23049)">
<path d="M154.882 22.5054C154.882 18.974 158.993 16.8907 162.476 18.6564L170.338 22.6408C173.999 24.4963 174.219 29.165 170.729 30.9339L162.868 34.9183C159.378 36.6871 154.882 34.1853 154.882 30.4742L154.882 22.5054Z" fill="#FFDF6D"/>
</g>
<g filter="url(#filter1_d_302_23049)">
<rect x="0.109619" y="0.859375" width="162.859" height="52.3043" rx="20" fill="#FFDF6D"/>
</g>
<g filter="url(#filter2_d_302_23049)">
<rect x="5.07471" y="3.47461" width="152.929" height="43.5869" rx="20" fill="#FFCF25"/>
</g>
<path d="M15.0054 15.1653C15.0054 10.1531 19.0686 6.08984 24.0808 6.08984H138.999C144.01 6.08984 148.073 10.1527 148.073 15.1646C148.073 20.5606 143.396 24.7754 138.023 24.27C124.368 22.9855 99.6098 20.9165 81.7428 20.9094C63.7383 20.9022 38.7783 22.9831 25.0527 24.2719C19.6804 24.7763 15.0054 20.5612 15.0054 15.1653Z" fill="#FFD84C"/>
<path d="M29.0267 8.06057C30.9283 10.0297 29.2699 14.0073 26.4264 16.1235C23.5828 18.2396 18.8413 19.0247 16.9397 17.0556C15.0381 15.0865 16.2023 11.4766 19.54 8.99272C22.8778 6.50881 27.1251 6.09147 29.0267 8.06057Z" fill="#FFE588"/>
<defs>
<filter id="filter0_d_302_23049" x="154.882" y="18.0156" width="18.3381" height="21.4824" filterUnits="userSpaceOnUse" color-interpolation-filters="sRGB">
<feFlood flood-opacity="0" result="BackgroundImageFix"/>
<feColorMatrix in="SourceAlpha" type="matrix" values="0 0 0 0 0 0 0 0 0 0 0 0 0 0 0 0 0 0 127 0" result="hardAlpha"/>
<feOffset dy="4"/>
<feComposite in2="hardAlpha" operator="out"/>
<feColorMatrix type="matrix" values="0 0 0 0 1 0 0 0 0 0.835982 0 0 0 0 0.251667 0 0 0 1 0"/>
<feBlend mode="normal" in2="BackgroundImageFix" result="effect1_dropShadow_302_23049"/>
<feBlend mode="normal" in="SourceGraphic" in2="effect1_dropShadow_302_23049" result="shape"/>
</filter>
<filter id="filter1_d_302_23049" x="0.109619" y="0.859375" width="162.859" height="56.3047" filterUnits="userSpaceOnUse" color-interpolation-filters="sRGB">
<feFlood flood-opacity="0" result="BackgroundImageFix"/>
<feColorMatrix in="SourceAlpha" type="matrix" values="0 0 0 0 0 0 0 0 0 0 0 0 0 0 0 0 0 0 127 0" result="hardAlpha"/>
<feOffset dy="4"/>
<feComposite in2="hardAlpha" operator="out"/>
<feColorMatrix type="matrix" values="0 0 0 0 1 0 0 0 0 0.835982 0 0 0 0 0.251667 0 0 0 1 0"/>
<feBlend mode="normal" in2="BackgroundImageFix" result="effect1_dropShadow_302_23049"/>
<feBlend mode="normal" in="SourceGraphic" in2="effect1_dropShadow_302_23049" result="shape"/>
</filter>
<filter id="filter2_d_302_23049" x="5.07471" y="3.47461" width="152.929" height="47.5879" filterUnits="userSpaceOnUse" color-interpolation-filters="sRGB">
<feFlood flood-opacity="0" result="BackgroundImageFix"/>
<feColorMatrix in="SourceAlpha" type="matrix" values="0 0 0 0 0 0 0 0 0 0 0 0 0 0 0 0 0 0 127 0" result="hardAlpha"/>
<feOffset dy="4"/>
<feComposite in2="hardAlpha" operator="out"/>
<feColorMatrix type="matrix" values="0 0 0 0 0.929167 0 0 0 0 0.72458 0 0 0 0 0 0 0 0 1 0"/>
<feBlend mode="normal" in2="BackgroundImageFix" result="effect1_dropShadow_302_23049"/>
<feBlend mode="normal" in="SourceGraphic" in2="effect1_dropShadow_302_23049" result="shape"/>
</filter>
</defs>
</svg>
