<svg width="70" height="95" viewBox="0 0 70 95" fill="none" xmlns="http://www.w3.org/2000/svg">
<path d="M21.5477 82.795C18.6864 81.9193 14.6287 80.0932 11.5332 76.4244C7.11313 71.1906 5.93886 63.6665 8.05317 54.0746C8.41558 52.3977 7.15586 50.7954 5.2552 50.4791C3.33396 50.1627 1.4966 51.2623 1.13419 52.9199C-1.34253 64.2619 0.236876 73.4076 5.87398 80.0752C11.576 86.8368 19.6898 88.9032 22.8707 89.4806L21.5477 82.795Z" fill="#FFCC68"/>
<path d="M8.84279 77.1891C9.41885 76.4073 10.1452 75.8672 10.8068 75.4942C10.188 74.6558 9.65465 73.7621 9.18463 72.8311C4.82782 74.9168 7.51819 78.9392 8.84279 77.1891Z" fill="#FAA54A"/>
<path d="M0.194092 66.4967L0.857187 70.1668V70.1848C0.835031 70.0177 2.39386 68.8062 4.76454 68.2661C7.11307 67.726 6.08757 63.6663 0.194092 66.4967Z" fill="#FAA54A"/>
<path d="M3.18364 58.6008C5.25522 58.1919 6.70802 59.2528 7.17646 59.681C7.26192 58.6947 7.39011 57.6877 7.56102 56.6642C1.83846 54.4845 0.706926 59.1036 3.18364 58.6008Z" fill="#FAA54A"/>
<path d="M19.5409 50.9275C19.5409 50.9275 18.4932 64.8222 14.7141 71.6017C10.9349 78.3812 8.43602 87.6941 19.4127 92.164C23.5116 93.8409 27.9317 92.4997 31.9039 91.2703C36.0455 90.0036 41.7475 89.7992 47.4051 91.9775C51.9534 93.729 56.736 93.6917 60.5579 89.5754C64.701 85.1234 64.9352 78.5304 59.0418 68.7147C56.2881 64.1329 53.8319 49.1953 53.8319 49.1953L21.4827 49.6235L19.5409 50.9275Z" fill="#F3B74E"/>
<path d="M39.1429 66.0137C36.4082 65.4736 32.1384 66.0317 30.559 73.966C29.2772 80.4292 30.8138 88.0665 31.6906 91.3444C31.776 91.325 31.8393 91.2877 31.9248 91.2698C35.4698 90.1702 40.1462 89.8719 44.9715 91.1758C45.4193 87.3952 46.5936 76.0891 45.4415 71.9921C43.7972 66.2928 41.3205 66.4419 39.1429 66.0137Z" fill="#FFE696"/>
<path d="M18.3018 90.1152C18.3018 90.1152 12.728 91.1015 14.0098 92.5919C14.7141 93.4111 22.6791 93.1514 23.9594 92.9083C25.6037 92.5919 18.3018 90.1152 18.3018 90.1152Z" fill="#F3B74E"/>
<path d="M57.2487 90.1152C57.2487 90.1152 63.5267 91.2134 62.2449 92.6859C61.5406 93.505 52.4662 93.3738 50.7364 92.8903C49.1349 92.4428 57.2487 90.1152 57.2487 90.1152Z" fill="#F3B74E"/>
<mask id="mask0_399_28997" style="mask-type:luminance" maskUnits="userSpaceOnUse" x="16" y="49" width="42" height="46">
<path d="M16.7588 49.7646H57.2725V94.221H16.7588V49.7646Z" fill="white"/>
</mask>
<g mask="url(#mask0_399_28997)">
<path d="M16.9995 49.959C15.868 78.3258 21.6539 88.0295 27.484 92.0713C28.9574 93.0948 30.9847 94.1198 32.9929 93.6915C34.5945 93.3559 35.6833 92.2757 35.8748 90.9897C36.0884 89.5006 35.2339 88.0295 34.7654 86.6316C33.2066 82.1244 31.4547 77.2815 31.9674 72.6444C32.1384 71.0614 33.099 68.6772 37.2627 68.3236C41.4264 67.97 43.5835 70.4094 43.8604 71.9178C44.6944 76.4817 43.7544 81.2113 42.9853 85.72C42.751 87.1165 42.3871 88.4757 42.3443 89.8915C42.3016 91.0643 42.3871 92.5741 43.4331 93.4305C44.3099 94.1377 45.7184 94.1943 46.8293 93.9885C47.4054 93.896 47.9814 93.7288 48.5163 93.5051C51.6973 92.2191 53.5552 89.5006 54.644 86.7062C56.6729 81.5097 56.9926 75.6612 57.0575 70.2423C57.1002 67.1495 56.972 64.0761 56.7583 61.004C56.5874 58.6944 56.3738 56.3849 56.0747 54.0933C55.9671 53.1802 55.8405 50.9452 55.6901 50.0515L16.9995 49.959Z" fill="#FFCC68"/>
</g>
<path d="M25.5404 76.3877C22.8706 76.8905 19.5836 75.9595 18.3018 75.5312C18.6436 77.2441 19.0282 78.7912 19.476 80.1877C28.7008 81.3977 28.935 75.7357 25.5404 76.3877Z" fill="#FAA54A"/>
<path d="M34.7654 86.6131C34.4236 85.6075 34.0596 84.5826 33.7178 83.5576C33.569 84.1543 32.8648 85.9611 29.4053 86.4639C25.2416 87.0786 29.2344 91.3994 35.1912 87.7112C35.0424 87.3397 34.8936 86.9847 34.7654 86.6131Z" fill="#FAA54A"/>
<path d="M56.801 76.0896C56.907 74.693 56.9719 73.2965 56.9925 71.918C55.6473 72.3655 53.7039 72.831 51.3775 72.9056C47.1062 73.0175 49.9042 77.7112 56.801 76.0896Z" fill="#FAA54A"/>
<path d="M50.4375 84.4703C46.7865 84.8806 43.604 82.2354 43.604 82.2354C43.5407 82.6636 43.1783 84.6016 43.0073 85.6251C43.0073 85.6444 43.0073 85.6817 42.9852 85.6997C42.9425 85.8862 42.9219 86.0727 42.8792 86.2771C50.9708 90.3561 54.0885 84.0421 50.4375 84.4703Z" fill="#FAA54A"/>
<path d="M22.9135 63.946C20.4162 63.8535 17.8968 62.1213 16.8918 61.3574C16.9346 63.033 16.9995 64.598 17.1055 66.0884C23.6193 68.9934 26.0533 64.0759 22.9135 63.946Z" fill="#FAA54A"/>
<path d="M51.2494 60.3889C46.3798 59.7176 50.246 65.5661 56.8865 63.5922C56.8437 62.7164 56.801 61.8407 56.7361 60.9663C56.7155 60.574 56.6728 60.2024 56.6507 59.8115C55.3704 60.3323 53.5757 60.7052 51.2494 60.3889Z" fill="#FAA54A"/>
<path d="M16.0166 50.9642C22.4656 52.9947 29.3197 54.0749 36.1738 54.1675C36.1738 54.1675 45.4618 54.5211 56.3088 50.7031C56.3088 50.7031 51.7399 57.2782 36.2592 57.2782C20.7785 57.2782 16.0166 50.9642 16.0166 50.9642Z" fill="#EA5044"/>
<path d="M36.2593 55.5264C34.4441 55.5264 32.9707 56.8124 32.9707 58.3954C32.9707 59.8665 34.2304 61.0779 35.8747 61.245C35.8747 61.2257 35.8747 61.2257 35.8747 61.2077V60.0529C35.8747 59.8665 36.0456 59.6993 36.2814 59.6993C36.5157 59.6993 36.6866 59.8485 36.6866 60.0529V61.2077C36.6866 61.2257 36.6866 61.2257 36.6866 61.245C38.3309 61.0779 39.5906 59.8665 39.5906 58.3954C39.5684 56.8124 38.0951 55.5264 36.2593 55.5264Z" fill="#F4B11B"/>
<path d="M39.3548 59.0106H33.1844C32.8647 59.0106 32.5862 58.7869 32.5862 58.4885V58.302C32.5862 58.023 32.8426 57.7812 33.1844 57.7812H39.3548C39.6761 57.7812 39.953 58.005 39.953 58.302V58.4885C39.953 58.7869 39.6761 59.0106 39.3548 59.0106Z" fill="#FFBF3E"/>
<path d="M9.16271 17.3457C9.16271 17.3457 7.15602 6.76614 8.37301 1.60691C9.59 -3.55232 23.0418 5.10855 24.5373 8.01347" fill="#FFCC68"/>
<path d="M12.1315 14.4399C12.1315 14.4399 10.1232 6.18929 11.2342 5.03451C13.0699 3.11586 19.8386 8.98232 20.3941 9.85807" fill="#FFE696"/>
<path d="M49.9673 8.27434C49.9673 8.27434 56.1171 2.57502 64.4652 1.60671C72.7499 0.638406 63.7182 21.0142 64.3797 19.5611" fill="#FFCC68"/>
<path d="M61.498 17.7544C61.498 17.7544 66.089 7.47324 63.8687 6.4856C61.6468 5.49934 52.1023 11.0495 52.1023 11.0495L61.498 17.7544Z" fill="#FFE696"/>
<path d="M9.05639 48.1698C10.8289 49.2693 12.921 50.0884 15.0781 50.815C27.2053 54.8567 40.2519 55.546 52.6798 52.1936C59.0212 50.4793 67.3265 48.6173 68.9502 42.0989C69.6117 39.397 69.1417 36.4728 68.2887 33.8469C66.7077 28.8935 65.5556 23.882 64.2104 18.872C62.8858 13.9365 58.893 10.1738 53.8968 9.05635C53.7892 9.03839 53.661 9.00109 53.555 8.98176C42.2808 6.52301 30.6015 6.52301 19.3272 8.98176C19.2196 9.00109 19.0914 9.03839 18.9854 9.05635C13.9877 10.1738 9.99485 13.9365 8.67183 18.872C7.64632 22.7093 6.42933 26.5093 5.42598 30.3452C4.50809 33.8662 3.43986 37.5903 4.0175 41.2231C4.50809 44.4084 6.45148 46.5688 9.05639 48.1698Z" fill="#FFCC68"/>
<path d="M40.4023 7.23121C38.4368 7.13728 36.4728 7.09999 34.5089 7.15662C34.167 9.37226 32.9928 18.9089 37.348 18.9089C42.0245 18.9089 40.7647 9.37226 40.4023 7.23121Z" fill="#FAA54A"/>
<path d="M29.2991 17.3086C31.9246 17.1221 31.711 9.6906 31.5622 7.28711C30.3452 7.3617 29.1061 7.45563 27.8891 7.58547C27.5267 10.1561 26.7354 17.4757 29.2991 17.3086Z" fill="#FAA54A"/>
<path d="M44.8858 16.7308C47.3419 16.5623 46.4446 9.91401 46.0822 7.71495C44.8858 7.56714 43.6894 7.45526 42.4945 7.36133C42.4297 9.5963 42.3869 16.8786 44.8858 16.7308Z" fill="#FAA54A"/>
<path d="M69.1417 37.6279C68.993 36.3253 68.6717 35.0393 68.2887 33.8293C68.2666 33.792 68.2666 33.7547 68.2666 33.7174C66.4086 33.4384 61.1355 32.8237 60.7937 34.9274C60.4091 37.1817 66.3453 36.7535 69.1417 37.6279Z" fill="#FAA54A"/>
<path d="M61.2639 39.8998C60.8366 41.8005 65.9182 42.6942 68.3949 43.588C68.6086 43.1225 68.8001 42.6197 68.9282 42.0796C69.0786 41.5022 69.1641 40.9248 69.2068 40.3474C67.007 39.5462 61.7323 37.8513 61.2639 39.8998Z" fill="#FAA54A"/>
<path d="M4.52876 33.7543C4.22966 35.0389 3.99544 36.3249 3.8894 37.6275C6.6858 36.7338 12.6426 37.162 12.2596 34.927C11.9178 32.7114 6.10975 33.5112 4.52876 33.7543Z" fill="#FAA54A"/>
<path d="M11.7674 39.9C11.2974 37.8708 6.13032 39.5091 3.8894 40.3296C3.90998 40.6266 3.95271 40.9249 3.99544 41.204C4.12362 42.0618 4.38 42.8436 4.69968 43.5508C7.19855 42.6764 12.1947 41.7814 11.7674 39.9Z" fill="#FAA54A"/>
<path d="M34.7858 40.2358C33.7176 40.2358 32.95 39.7523 32.6288 38.8765C32.5433 38.6155 32.6936 38.3364 32.9927 38.2425C33.2919 38.15 33.6115 38.2991 33.7176 38.5602C33.8885 39.0257 34.2097 39.2302 34.7858 39.2302C35.4473 39.2302 35.7686 38.9691 35.854 38.411C36.0249 37.219 35.9601 36.7907 35.9601 36.7907C35.9173 36.5103 36.131 36.2686 36.4507 36.2313C36.7498 36.194 37.0489 36.3805 37.0916 36.6416C37.0916 36.6968 37.1771 37.1996 36.9856 38.5409C36.8352 39.6031 36.0028 40.2358 34.7858 40.2358Z" fill="#3C2415"/>
<path d="M38.266 40.2349C37.0285 40.2349 36.2166 39.6022 36.0679 38.54C35.8748 37.1987 35.9602 36.6959 35.9602 36.6407C36.003 36.3616 36.3021 36.1752 36.6218 36.2304C36.9209 36.2677 37.1345 36.5288 37.0918 36.7898C37.0918 36.8078 37.0285 37.2553 37.1994 38.4101C37.2849 38.9682 37.6045 39.2293 38.266 39.2293C38.8437 39.2293 39.1634 39.0248 39.3343 38.5593C39.4197 38.2982 39.7616 38.1491 40.0607 38.2416C40.3598 38.3162 40.5307 38.6146 40.4231 38.8756C40.1034 39.7514 39.3343 40.2349 38.266 40.2349Z" fill="#3C2415"/>
<path d="M39.6112 34.4983C39.6112 35.7276 38.2233 36.7153 36.5157 36.7153C34.8081 36.7153 33.4202 35.7276 33.4202 34.4983C33.4202 33.2689 34.8081 33.0078 36.5157 33.0078C38.2233 33.0272 39.6112 33.2882 39.6112 34.4983Z" fill="#3C2415"/>
<path d="M27.5045 29.3391C27.5045 29.6679 27.4681 29.9939 27.3937 30.3171C27.3209 30.639 27.2117 30.9525 27.0677 31.2564C26.9237 31.5603 26.7464 31.849 26.5359 32.1225C26.327 32.396 26.0896 32.6488 25.8222 32.8822C25.5563 33.1143 25.2651 33.3229 24.9518 33.5052C24.6384 33.6875 24.3077 33.8422 23.9595 33.9679C23.6098 34.0936 23.2521 34.189 22.8818 34.2539C22.5115 34.3174 22.138 34.3492 21.7613 34.3492C21.3831 34.3492 21.0096 34.3174 20.6409 34.2539C20.2705 34.189 19.9113 34.0936 19.5631 33.9679C19.215 33.8422 18.8826 33.6875 18.5693 33.5052C18.2559 33.3229 17.9663 33.1143 17.6989 32.8822C17.433 32.6488 17.194 32.396 16.9851 32.1225C16.7762 31.849 16.599 31.5603 16.455 31.2564C16.3094 30.9525 16.2018 30.639 16.1274 30.3171C16.0546 29.9939 16.0166 29.6679 16.0166 29.3391C16.0166 29.0104 16.0546 28.6844 16.1274 28.3612C16.2018 28.0393 16.3094 27.7258 16.455 27.4219C16.599 27.118 16.7762 26.8293 16.9851 26.5558C17.194 26.2823 17.433 26.0295 17.6989 25.7961C17.9663 25.564 18.2559 25.3568 18.5693 25.1731C18.8826 24.9908 19.215 24.836 19.5631 24.7103C19.9113 24.5846 20.2705 24.4893 20.6409 24.4258C21.0096 24.3609 21.3831 24.3291 21.7613 24.3291C22.138 24.3291 22.5115 24.3609 22.8818 24.4258C23.2521 24.4893 23.6098 24.5846 23.9595 24.7103C24.3077 24.836 24.6384 24.9908 24.9518 25.1731C25.2651 25.3568 25.5563 25.564 25.8222 25.7961C26.0896 26.0295 26.327 26.2823 26.5359 26.5558C26.7464 26.8293 26.9237 27.118 27.0677 27.4219C27.2117 27.7258 27.3209 28.0393 27.3937 28.3612C27.4681 28.6844 27.5045 29.0104 27.5045 29.3391Z" fill="white"/>
<path d="M25.5183 29.3404C25.5183 29.5559 25.4946 29.7686 25.4471 29.9799C25.398 30.1913 25.3268 30.3957 25.2334 30.5946C25.1385 30.7935 25.023 30.9828 24.8853 31.1623C24.7492 31.3405 24.5925 31.5063 24.4184 31.6582C24.2443 31.8102 24.0544 31.9469 23.8487 32.0657C23.643 32.1859 23.4277 32.2867 23.1983 32.3696C22.9704 32.4511 22.7361 32.5133 22.494 32.5561C22.2519 32.5975 22.0082 32.6182 21.7613 32.6182C21.5144 32.6182 21.2691 32.5975 21.027 32.5561C20.7864 32.5133 20.5506 32.4511 20.3227 32.3696C20.0948 32.2867 19.878 32.1859 19.6723 32.0657C19.4681 31.9469 19.2782 31.8102 19.1042 31.6582C18.9285 31.5063 18.7734 31.3405 18.6357 31.1623C18.4996 30.9828 18.3825 30.7935 18.2891 30.5946C18.1942 30.3957 18.123 30.1913 18.0755 29.9799C18.0264 29.7686 18.0027 29.5559 18.0027 29.3404C18.0027 29.1249 18.0264 28.9122 18.0755 28.7008C18.123 28.4895 18.1942 28.285 18.2891 28.0861C18.3825 27.8872 18.4996 27.698 18.6357 27.5198C18.7734 27.3402 18.9285 27.1745 19.1042 27.0225C19.2782 26.8706 19.4681 26.7338 19.6723 26.615C19.878 26.4949 20.0948 26.394 20.3227 26.3125C20.5506 26.2296 20.7864 26.1675 21.027 26.126C21.2691 26.0832 21.5144 26.0625 21.7613 26.0625C22.0082 26.0625 22.2519 26.0832 22.494 26.126C22.7361 26.1675 22.9704 26.2296 23.1983 26.3125C23.4277 26.394 23.643 26.4949 23.8487 26.615C24.0544 26.7338 24.2443 26.8706 24.4184 27.0225C24.5925 27.1745 24.7492 27.3402 24.8853 27.5198C25.023 27.698 25.1385 27.8872 25.2334 28.0861C25.3268 28.285 25.398 28.4895 25.4471 28.7008C25.4946 28.9122 25.5183 29.1249 25.5183 29.3404Z" fill="#3C2415"/>
<path d="M25.4978 27.0116C25.4978 27.1746 25.4614 27.3307 25.3901 27.4812C25.3189 27.6318 25.2176 27.7644 25.0847 27.8805C24.9533 27.9951 24.7998 28.0849 24.6273 28.147C24.4548 28.2092 24.2744 28.241 24.0877 28.241C23.9009 28.241 23.7221 28.2092 23.5496 28.147C23.3771 28.0849 23.2236 27.9951 23.0922 27.8805C22.9593 27.7644 22.858 27.6318 22.7868 27.4812C22.714 27.3307 22.6792 27.1746 22.6792 27.0116C22.6792 26.8486 22.714 26.6911 22.7868 26.5406C22.858 26.39 22.9593 26.2574 23.0922 26.1414C23.2236 26.0267 23.3771 25.9383 23.5496 25.8748C23.7221 25.8126 23.9009 25.7822 24.0877 25.7822C24.2744 25.7822 24.4548 25.8126 24.6273 25.8748C24.7998 25.9383 24.9533 26.0267 25.0847 26.1414C25.2176 26.2574 25.3189 26.39 25.3901 26.5406C25.4614 26.6911 25.4978 26.8486 25.4978 27.0116Z" fill="white"/>
<path d="M57.1634 29.3391C57.1634 29.6679 57.127 29.9939 57.0526 30.3171C56.9798 30.639 56.8706 30.9525 56.7266 31.2564C56.5826 31.5603 56.4053 31.849 56.1949 32.1225C55.986 32.396 55.7486 32.6488 55.4811 32.8822C55.2153 33.1143 54.9241 33.3229 54.6107 33.5052C54.2974 33.6875 53.9666 33.8422 53.6184 33.9679C53.2687 34.0936 52.9095 34.189 52.5407 34.2539C52.1704 34.3174 51.7969 34.3492 51.4203 34.3492C51.042 34.3492 50.6685 34.3174 50.2998 34.2539C49.9295 34.189 49.5702 34.0936 49.2221 33.9679C48.8739 33.8422 48.5416 33.6875 48.2282 33.5052C47.9149 33.3229 47.6253 33.1143 47.3578 32.8822C47.0919 32.6488 46.853 32.396 46.6441 32.1225C46.4336 31.849 46.2579 31.5603 46.1123 31.2564C45.9683 30.9525 45.8591 30.639 45.7863 30.3171C45.7119 29.9939 45.6755 29.6679 45.6755 29.3391C45.6755 29.0104 45.7119 28.6844 45.7863 28.3612C45.8591 28.0393 45.9683 27.7258 46.1123 27.4219C46.2579 27.118 46.4336 26.8293 46.6441 26.5558C46.853 26.2823 47.0919 26.0295 47.3578 25.7961C47.6253 25.564 47.9149 25.3568 48.2282 25.1731C48.5416 24.9908 48.8739 24.836 49.2221 24.7103C49.5702 24.5846 49.9295 24.4893 50.2998 24.4258C50.6685 24.3609 51.042 24.3291 51.4203 24.3291C51.7969 24.3291 52.1704 24.3609 52.5407 24.4258C52.9095 24.4893 53.2687 24.5846 53.6184 24.7103C53.9666 24.836 54.2974 24.9908 54.6107 25.1731C54.9241 25.3568 55.2153 25.564 55.4811 25.7961C55.7486 26.0295 55.986 26.2823 56.1949 26.5558C56.4053 26.8293 56.5826 27.118 56.7266 27.4219C56.8706 27.7258 56.9798 28.0393 57.0526 28.3612C57.127 28.6844 57.1634 29.0104 57.1634 29.3391Z" fill="white"/>
<path d="M55.1772 29.3404C55.1772 29.5559 55.1535 29.7686 55.106 29.9799C55.057 30.1913 54.9857 30.3957 54.8924 30.5946C54.7974 30.7935 54.6819 30.9828 54.5442 31.1623C54.4065 31.3405 54.2514 31.5063 54.0773 31.6582C53.9017 31.8102 53.7134 31.9469 53.5076 32.0657C53.3019 32.1859 53.0851 32.2867 52.8572 32.3696C52.6293 32.4511 52.3951 32.5133 52.1529 32.5561C51.9108 32.5975 51.6671 32.6182 51.4202 32.6182C51.1733 32.6182 50.928 32.5975 50.6859 32.5561C50.4438 32.5133 50.2096 32.4511 49.9817 32.3696C49.7538 32.2867 49.537 32.1859 49.3312 32.0657C49.1271 31.9469 48.9372 31.8102 48.7615 31.6582C48.5874 31.5063 48.4323 31.3405 48.2946 31.1623C48.1585 30.9828 48.0414 30.7935 47.9481 30.5946C47.8531 30.3957 47.7819 30.1913 47.7344 29.9799C47.6854 29.7686 47.6616 29.5559 47.6616 29.3404C47.6616 29.1249 47.6854 28.9122 47.7344 28.7008C47.7819 28.4895 47.8531 28.285 47.9481 28.0861C48.0414 27.8872 48.1585 27.698 48.2946 27.5198C48.4323 27.3402 48.5874 27.1745 48.7615 27.0225C48.9372 26.8706 49.1271 26.7338 49.3312 26.615C49.537 26.4949 49.7538 26.394 49.9817 26.3125C50.2096 26.2296 50.4438 26.1675 50.6859 26.126C50.928 26.0832 51.1733 26.0625 51.4202 26.0625C51.6671 26.0625 51.9108 26.0832 52.1529 26.126C52.3951 26.1675 52.6293 26.2296 52.8572 26.3125C53.0851 26.394 53.3019 26.4949 53.5076 26.615C53.7134 26.7338 53.9017 26.8706 54.0773 27.0225C54.2514 27.1745 54.4065 27.3402 54.5442 27.5198C54.6819 27.698 54.7974 27.8872 54.8924 28.0861C54.9857 28.285 55.057 28.4895 55.106 28.7008C55.1535 28.9122 55.1772 29.1249 55.1772 29.3404Z" fill="#3C2415"/>
<path d="M55.1772 27.0116C55.1772 27.1746 55.1424 27.3307 55.0696 27.4812C54.9984 27.6318 54.8971 27.7644 54.7641 27.8805C54.6328 27.9951 54.4809 28.0849 54.3084 28.147C54.1343 28.2092 53.9555 28.241 53.7687 28.241C53.582 28.241 53.4016 28.2092 53.2291 28.147C53.0566 28.0849 52.9046 27.9951 52.7717 27.8805C52.6403 27.7644 52.5375 27.6318 52.4663 27.4812C52.395 27.3307 52.3586 27.1746 52.3586 27.0116C52.3586 26.8486 52.395 26.6911 52.4663 26.5406C52.5375 26.39 52.6403 26.2574 52.7717 26.1414C52.9046 26.0267 53.0566 25.9383 53.2291 25.8748C53.4016 25.8126 53.582 25.7822 53.7687 25.7822C53.9555 25.7822 54.1343 25.8126 54.3084 25.8748C54.4809 25.9383 54.6328 26.0267 54.7641 26.1414C54.8971 26.2574 54.9984 26.39 55.0696 26.5406C55.1424 26.6911 55.1772 26.8486 55.1772 27.0116Z" fill="white"/>
</svg>
