<svg width="231" height="275" viewBox="0 0 231 275" fill="none" xmlns="http://www.w3.org/2000/svg">
<path d="M154.276 66.1313C149.748 66.181 147.537 63.548 148.485 59.971C148.748 58.8781 149.327 57.7851 149.854 56.7915C158.12 41.341 166.439 25.9402 174.758 10.4897C175.443 9.19806 176.18 7.80703 177.233 6.71408C178.97 4.87592 182.235 4.62752 184.446 5.96887C186.657 7.31023 187.395 9.3968 186.184 12.0298C184.92 14.7622 183.393 17.3456 181.971 19.9786C174.548 33.7897 167.124 47.6007 159.752 61.4614C158.436 63.8957 157.172 66.2307 154.276 66.1313Z" fill="#523F89"/>
<path d="M226.568 36.7208C226.673 38.3106 225.515 39.5526 224.093 40.5462C214.826 47.2529 205.138 53.4629 195.398 59.5736C193.134 60.9646 190.817 61.064 188.553 59.5736C186.078 57.9341 185.604 55.4005 187.605 53.1649C188.5 52.1713 189.659 51.3764 190.817 50.6312C199.399 45.2161 207.929 39.801 216.037 33.7897C217.933 32.3987 219.934 31.6535 222.356 32.0509C224.83 32.498 226.515 34.2368 226.568 36.7208Z" fill="#523F89"/>
<path d="M223.409 168.174C222.303 167.23 222.303 165.59 223.409 164.647C228.095 160.672 230.411 155.903 229.569 149.892C228.726 143.93 225.462 139.111 220.987 135.037C220.144 134.242 219.934 133 220.565 132.057C222.566 128.976 224.304 125.896 224.146 122.17C223.777 112.036 219.354 103.938 209.824 98.9201C204.77 96.287 199.241 94.6973 193.555 93.5049C188.026 92.3126 182.393 92.561 176.812 92.2629C166.492 91.7662 156.172 91.5674 145.799 92.3126C141.166 92.6604 136.48 93.1075 131.794 92.8094C130.478 92.7101 129.425 91.6667 129.477 90.4248C129.53 89.4312 129.688 88.4376 129.846 87.4937C131.425 78.8991 133.058 70.3044 133.953 61.6104C134.953 52.0719 135.954 42.4836 136.533 32.9451C137.007 25.195 136.954 17.3953 134.69 9.84393C131.583 -0.588852 120.895 -3.22188 112.734 4.32947C110.575 6.31667 108.732 8.55224 107.469 11.1356C105.994 14.1164 104.52 17.1469 103.257 20.2271C98.3599 32.5974 94.0951 45.1167 90.0935 57.7354C87.3556 66.3797 82.459 74.3285 75.8248 80.8366C49.0776 107.167 26.016 136.18 7.21919 168.074C4.9025 171.999 2.6911 175.924 0.690322 179.948C-0.783936 182.978 0.163795 185.313 2.95436 186.655C5.63961 187.897 8.6408 187.201 10.3783 184.817C10.9575 184.022 11.326 183.028 11.7999 182.134C16.5386 173.49 21.5405 164.945 27.0164 156.648C43.865 131.162 63.3463 107.564 85.4602 85.9536C92.4629 79.0977 97.2542 71.3477 100.15 62.3059C104.257 49.5382 108.627 36.7705 113.524 24.2511C115.051 20.3761 116.63 16.501 119.105 13.0731C120 11.8311 121 10.1917 122.58 10.3904C124.475 10.6388 124.212 12.6757 124.475 14.0171C126.055 21.8665 125.739 29.8153 125.055 37.7144C123.844 51.8731 122.738 66.0816 119.895 80.0417C118.42 87.3446 118.052 94.6973 118.789 102.199C119.895 114.072 119.631 125.996 117.736 137.819C115.051 154.413 108.364 169.565 99.413 183.922C96.9383 187.897 94.2004 191.772 91.6731 195.746C90.0935 198.28 90.4095 200.267 92.5156 201.956C94.3584 203.447 97.3069 203.596 99.3603 202.354C101.045 201.31 102.098 199.77 103.099 198.23C105.257 195.001 107.416 191.821 109.417 188.493C117.789 174.632 124.633 160.175 127.792 144.427C130.372 131.46 130.952 118.395 130.162 105.031C130.109 103.739 131.057 102.646 132.426 102.497C135.164 102.199 137.796 101.901 140.482 101.801C154.698 101.305 168.861 101.305 183.077 101.752C190.027 101.951 196.503 103.491 202.822 106.173C208.666 108.657 211.404 113.228 212.668 118.792C213.563 122.667 212.246 125.896 209.193 128.678C206.56 131.063 203.401 132.404 199.978 133.249C189.869 135.733 179.549 135.932 169.23 135.087C166.702 134.888 163.964 134.59 161.7 133.199C159.91 132.106 157.962 131.013 157.857 128.827C157.699 126.443 159.858 125.499 161.7 124.605C162.911 124.008 164.333 123.71 165.649 123.263C170.019 121.872 174.548 121.624 179.076 121.276C182.445 121.028 184.341 119.239 184.288 116.755C184.235 114.47 182.603 112.979 179.497 112.334C178.654 112.185 177.759 111.936 176.917 111.986C170.651 112.383 164.438 113.178 158.436 115.314C155.066 116.507 152.17 118.246 149.801 120.779C145.799 125.052 145.378 129.424 148.327 134.441C148.485 134.739 148.695 134.988 148.959 135.236C150.012 136.379 149.696 138.117 148.327 138.863C143.588 141.446 139.586 144.824 137.112 149.643C133.216 157.195 135.638 165.789 142.904 170.708C143.325 171.006 143.799 171.204 144.273 171.403C145.642 172.049 146.115 173.688 145.22 174.881C138.797 183.525 140.376 191.772 149.801 198.926C150.854 199.721 151.065 201.211 150.222 202.205C148.011 204.987 146.431 207.918 146.168 211.544C145.694 217.605 148.59 222.126 152.907 225.952C154.803 227.641 154.645 228.783 153.539 230.572C150.064 236.136 146.695 241.7 143.272 247.314C139.271 253.921 135.216 260.479 131.32 267.136C129.425 270.365 129.846 272.402 132.373 273.992C135.006 275.681 138.27 275.234 140.324 272.75C141.482 271.309 142.324 269.67 143.325 268.08C150.064 257.051 156.804 246.022 163.438 234.944C164.544 233.105 165.649 232.311 167.966 232.758C170.493 233.255 173.179 233.652 175.758 233.453C183.604 232.907 191.449 232.311 199.136 230.522C205.454 229.032 211.615 227.094 216.722 223.12C224.567 217.009 225.409 207.62 218.775 200.366C217.67 199.174 217.933 197.336 219.407 196.64C224.83 193.958 229.99 190.828 230.885 183.972C231.675 177.265 228.305 172.446 223.409 168.174ZM147.642 153.27C149.485 150.09 152.381 148.103 155.645 146.315C159.12 144.377 162.332 143.533 166.755 144.079C180.339 145.818 193.923 145.321 207.192 141.297C210.772 140.204 212.773 140.751 214.984 143.483C216.564 145.47 217.933 147.557 218.354 150.09C218.881 153.469 217.933 156.251 214.984 158.387C211.983 160.573 208.561 161.666 204.928 162.411C194.608 164.498 184.13 164.597 173.6 164.547C167.124 164.547 160.647 164.746 154.171 164.498C147.484 164.199 144.43 158.834 147.642 153.27ZM208.877 216.413C206.981 217.953 204.77 218.996 202.453 219.742C192.976 222.822 183.13 224.113 173.126 224.064C167.755 224.014 162.806 222.524 159.331 218.152C157.278 215.618 156.119 212.836 158.067 209.955C160.121 206.974 162.28 203.794 166.86 203.894C169.282 203.943 171.757 203.894 174.179 203.894C180.971 203.844 187.711 203.099 194.45 202.453C198.715 202.006 203.19 202.652 207.244 204.391C212.931 206.775 213.563 212.538 208.877 216.413ZM216.722 186.854C213.668 188.841 210.193 190.083 206.613 190.878C195.45 193.362 184.077 194.107 171.862 194.802C171.652 194.802 171.388 194.802 171.178 194.753C167.913 194.107 163.806 194.405 159.91 193.064C157.225 192.12 154.803 190.977 153.434 188.394C152.697 187.003 152.434 185.611 152.644 184.071C153.013 181.736 154.592 179.998 156.54 179.004C159.542 177.464 160.753 173.639 165.439 173.887C174.705 174.384 183.972 174.284 193.239 173.341C197.398 172.943 201.558 172.496 205.718 171.9C211.299 171.055 218.67 175.427 219.828 180.494C220.46 183.326 219.091 185.313 216.722 186.854Z" fill="#523F89"/>
</svg>
