<svg width="31" height="20" viewBox="0 0 31 20" fill="none" xmlns="http://www.w3.org/2000/svg">
<path d="M18.9705 17.3021C20.2623 16.3799 21.3566 15.2381 22.632 14.2889C24.6098 12.8161 27.0362 11.8127 29.589 11.411C29.8298 11.3719 30.1495 11.1929 30.0034 11.0198C29.9497 10.9567 29.8524 10.9386 29.7638 10.9266C26.6412 10.4662 23.3589 10.886 20.515 12.1075C20.3872 12.1632 20.2266 12.2173 20.1121 12.1436C20.0009 12.0714 20.0088 11.9255 20.0306 11.8051C20.5899 8.73771 22.9999 5.97718 26.2296 4.70599C26.4745 4.60971 26.749 4.31334 26.513 4.20052C26.4467 4.16892 26.3658 4.17795 26.2911 4.18698C22.4306 4.68793 18.8675 6.7414 16.8107 9.65237C16.7286 9.76821 16.6043 9.9036 16.4532 9.8705C16.3115 9.83891 16.2674 9.68547 16.2486 9.5576C15.986 7.77942 15.6032 5.99975 14.8347 4.33892C14.3736 3.34302 13.7695 2.39075 13.0007 1.55131C12.6052 1.11805 12.1578 0.659218 11.646 0.328255C11.0078 -0.0824381 10.8406 0.299669 10.9734 0.904429C11.6795 4.11777 12.0159 7.39581 11.9759 10.6693C11.973 10.9055 11.8827 11.2199 11.6133 11.2169C11.4483 11.2154 11.3293 11.0845 11.2347 10.9657C10.2722 9.75918 9.15995 8.62037 7.77458 7.78996C6.38938 6.95954 4.70412 6.45257 3.03427 6.59548C2.95973 6.6015 2.88107 6.61052 2.82177 6.65114C2.63001 6.78202 2.81492 7.04378 2.9976 7.18519C5.63055 9.20858 8.35707 11.5374 8.89244 14.5732C8.91437 14.698 8.92431 14.844 8.81875 14.9297C8.6676 15.0531 8.42751 14.9508 8.25528 14.8515C6.08092 13.6059 3.22347 13.3291 0.792047 14.1294C0.684597 14.1655 0.562922 14.2181 0.542701 14.3174C0.514424 14.4558 0.698137 14.5461 0.84963 14.5912C3.27899 15.3118 6.04801 15.891 7.45394 17.7745C7.91682 18.3943 8.25511 19.1706 9.02988 19.4639C9.4021 19.6068 9.8211 19.6098 10.2267 19.6038C12.962 19.5662 15.7936 19.1961 18.0802 17.8768C18.3893 17.6993 18.6846 17.5052 18.9705 17.3021Z" fill="#3EBD17"/>
</svg>
