<svg width="31" height="20" viewBox="0 0 31 20" fill="none" xmlns="http://www.w3.org/2000/svg">
<path d="M19.3579 17.6869C20.6497 16.7647 21.7441 15.6229 23.0194 14.6736C24.9972 13.2008 27.4237 12.1974 29.9764 11.7958C30.2172 11.7566 30.537 11.5776 30.3908 11.4046C30.3372 11.3414 30.2398 11.3234 30.1512 11.3113C27.0287 10.851 23.7464 11.2707 20.9025 12.4923C20.7746 12.5479 20.6141 12.6021 20.4996 12.5284C20.3884 12.4562 20.3962 12.3102 20.418 12.1899C20.9774 9.12248 23.3874 6.36195 26.617 5.09075C26.8619 4.99447 27.1365 4.69811 26.9005 4.58528C26.8342 4.55369 26.7533 4.56272 26.6786 4.57174C22.8181 5.0727 19.2549 7.12617 17.1981 10.0371C17.116 10.153 16.9918 10.2884 16.8406 10.2553C16.6989 10.2237 16.6549 10.0702 16.636 9.94236C16.3735 8.16419 15.9906 6.38452 15.2222 4.72369C14.761 3.72779 14.1569 2.77552 13.3882 1.93608C12.9927 1.50282 12.5452 1.04399 12.0335 0.713022C11.3953 0.302328 11.228 0.684437 11.3609 1.28919C12.0669 4.50254 12.4033 7.78057 12.3634 11.0541C12.3605 11.2903 12.2701 11.6047 12.0008 11.6017C11.8357 11.6002 11.7168 11.4693 11.6222 11.3505C10.6596 10.1439 9.5474 9.00514 8.16203 8.17472C6.77683 7.34431 5.09157 6.83733 3.42172 6.98025C3.34718 6.98627 3.26852 6.99529 3.20922 7.03591C3.01746 7.16679 3.20237 7.42855 3.38505 7.56996C6.018 9.59334 8.74452 11.9221 9.27989 14.9579C9.30182 15.0828 9.31176 15.2287 9.2062 15.3145C9.05505 15.4378 8.81496 15.3355 8.64273 15.2363C6.46837 13.9906 3.61092 13.7138 1.1795 14.5142C1.07205 14.5503 0.950374 14.6029 0.930152 14.7022C0.901875 14.8406 1.08559 14.9309 1.23708 14.976C3.66644 15.6966 6.43546 16.2758 7.84139 18.1593C8.30427 18.7791 8.64256 19.5553 9.41733 19.8487C9.78955 19.9916 10.2086 19.9946 10.6142 19.9886C13.3494 19.951 16.181 19.5809 18.4676 18.2616C18.7768 18.084 19.0721 17.89 19.3579 17.6869Z" fill="#ACCE1C"/>
</svg>
