<svg width="28" height="43" viewBox="0 0 28 43" fill="none" xmlns="http://www.w3.org/2000/svg">
<path d="M18.987 9.35321C17.6345 9.14711 16.1909 9.45701 15.0991 10.1881C13.9744 10.9388 13.2577 12.0851 12.8609 13.2766C12.5648 14.1642 12.4311 15.0864 12.34 16.0101C11.8283 14.7088 11.2852 13.415 10.6842 12.1438C10.5726 11.9061 10.4583 11.6714 10.3428 11.4368C10.7894 11.0923 10.9954 10.653 11.1894 10.0964C11.8163 8.30316 12.0229 6.33995 11.3544 4.55726C10.6861 2.77458 9.03199 1.21304 6.93835 0.832436C6.32467 0.721111 5.64689 0.719601 5.11598 1.01145C4.84128 1.16339 4.62432 1.38303 4.43393 1.6132C3.50098 2.74148 3.1315 4.21728 3.43894 5.58626C3.75564 6.99436 4.74565 8.23245 5.95348 9.20277C7.07151 10.0994 8.37581 10.7944 9.68441 11.4669C9.68235 11.5075 9.69075 11.5511 9.71303 11.5962C10.1569 12.4944 10.5685 13.4045 10.9592 14.3222C10.1987 13.6196 9.40884 12.9427 8.50571 12.3905C7.34604 11.6805 5.96959 11.1825 4.55646 11.2156C3.18428 11.2472 1.83816 11.8008 0.931091 12.705C0.746181 12.8885 0.576352 13.0916 0.483297 13.3233C0.303528 13.7716 0.433256 14.2725 0.656725 14.7058C1.41933 16.1831 3.23124 17.1098 5.06988 17.2662C6.90836 17.4227 8.75335 16.8992 10.3576 16.0943C10.794 15.8762 11.1424 15.6671 11.3878 15.3497C11.7652 16.2779 12.1244 17.2106 12.4719 18.1463C13.0428 19.6838 13.5864 21.2303 14.1437 22.7707C13.3579 22.0426 12.5437 21.3371 11.6084 20.7654C10.4486 20.0553 9.07244 19.5574 7.65914 19.5905C6.28714 19.6221 4.94084 20.1757 4.03394 21.0798C3.84886 21.2633 3.67903 21.4664 3.58598 21.6981C3.40621 22.1464 3.53594 22.6474 3.75941 23.0806C4.52201 24.5564 6.33409 25.4846 8.17257 25.6411C10.011 25.7975 11.8562 25.2725 13.4602 24.4692C13.8967 24.251 14.2451 24.0419 14.4905 23.7245C14.6233 24.0871 14.7568 24.4481 14.8926 24.8092C15.5844 26.6505 16.3242 28.4783 17.1809 30.264C16.5095 29.6593 15.8075 29.0816 15.0194 28.6002C13.8597 27.8901 12.4836 27.3922 11.0701 27.4253C9.69812 27.4569 8.35199 28.0105 7.44509 28.9146C7.26001 29.0996 7.09001 29.3012 6.99713 29.5329C6.81736 29.9812 6.94709 30.4822 7.17056 30.9154C7.93316 32.3927 9.74507 33.3209 11.5837 33.4774C13.4222 33.6338 15.2672 33.1088 16.8714 32.304C17.2815 32.0994 17.6141 31.9023 17.8566 31.6165C18.8298 33.4804 19.9485 35.2901 21.2664 36.9841C22.6727 38.7938 24.3175 40.4607 26.2219 41.8793C26.4625 42.0583 26.7076 42.2328 26.9561 42.4043C27.2861 42.6315 27.6587 42.1621 27.3297 41.9365C25.3855 40.5991 23.7041 38.9924 22.2605 37.2368C21.2695 36.0303 20.3919 34.7561 19.6025 33.4413C19.9062 33.4698 20.2222 33.4413 20.5771 33.3916C22.401 33.1344 24.2133 32.5281 25.534 31.3953C26.8548 30.261 27.6039 28.5415 27.1434 26.9709C27.0085 26.5106 26.7516 26.0488 26.2915 25.7975C26.0535 25.6682 25.7767 25.605 25.5008 25.5628C24.1483 25.3567 22.7047 25.6667 21.6127 26.3978C20.4882 27.15 19.7713 28.2948 19.3746 29.4863C19.0862 30.3513 18.9522 31.2479 18.861 32.149C18.7537 31.9534 18.6478 31.7579 18.5438 31.5608C17.5118 29.6066 16.6481 27.5892 15.8586 25.5508C16.2668 25.6531 16.6801 25.6245 17.166 25.5553C18.9899 25.2996 20.8023 24.6933 22.1231 23.559C23.4437 22.4262 24.1929 20.7052 23.7324 19.1362C23.5974 18.6758 23.3407 18.214 22.8804 17.9627C22.6423 17.8334 22.3657 17.7702 22.0896 17.7281C20.7374 17.522 19.2935 17.8319 18.2017 18.5615C17.077 19.3137 16.3604 20.46 15.9636 21.65C15.6612 22.5586 15.5285 23.5004 15.4368 24.4451C14.7176 22.524 14.0465 20.5909 13.3432 18.6668C13.1624 18.1719 12.979 17.6784 12.7924 17.185C13.189 17.2768 13.592 17.2467 14.0633 17.1805C15.8872 16.9247 17.6996 16.3185 19.0202 15.1842C20.341 14.0514 21.09 12.3319 20.6297 10.7613C20.4947 10.301 20.238 9.83913 19.7777 9.5879C19.5396 9.45852 19.263 9.39533 18.987 9.35321Z" fill="#2F8621"/>
</svg>
