<svg width="43" height="44" viewBox="0 0 43 44" fill="none" xmlns="http://www.w3.org/2000/svg">
<path d="M23.9865 43.6053C23.3266 43.6231 22.6684 43.6324 22.0112 43.6316C21.9583 43.5043 21.9422 43.3564 21.9753 43.1868C22.3814 41.0353 22.3722 38.8808 22.1686 36.7315C14.8345 36.0142 7.63916 34.4013 0.811712 31.9404C-0.158524 31.5915 0.107371 30.4812 0.860829 30.2229C1.07473 30.1496 1.3262 30.1442 1.59992 30.2425C8.12257 32.5931 14.9534 34.1435 21.9476 34.866C21.8456 34.1403 21.7305 33.4143 21.6077 32.6876C21.222 30.4102 20.82 28.1336 20.4093 25.8583C14.6273 24.5232 9.13354 22.5128 3.9843 19.8335C3.16247 19.4046 3.5696 18.5415 4.28475 18.2964C4.57368 18.1973 4.91452 18.1984 5.24293 18.37C9.86963 20.7762 14.8673 22.6434 20.0538 23.8968C19.9675 23.4176 19.8797 22.939 19.7919 22.4604C19.3068 19.815 18.8022 17.1713 18.2633 14.533C16.4517 14.3401 14.6422 13.4859 13.0867 12.7643C11.1609 11.8676 9.41503 10.772 7.97256 9.32846C7.42677 8.78396 7.83559 8.148 8.4358 7.94223C8.81573 7.81199 9.27012 7.85326 9.61158 8.19486C10.8047 9.38795 12.2808 10.3241 13.8749 11.0664C14.6326 11.4172 15.4106 11.7351 16.1996 12.0282C16.7292 12.2262 17.29 12.4652 17.864 12.614C17.0957 8.96417 16.2555 5.3261 15.3009 1.70788C15.1761 1.22899 15.4585 0.904442 15.8528 0.769273C16.4099 0.578285 17.1901 0.764643 17.3659 1.43275C18.2354 4.73132 19.0093 8.04653 19.7236 11.3725C20.5264 10.3527 21.5033 9.41382 22.3296 8.44255C23.72 6.80793 25.036 5.12612 26.2903 3.40895C26.417 3.2347 26.5724 3.12491 26.74 3.06745C27.5238 2.79875 28.5522 3.69621 27.9568 4.51242C26.7757 6.13345 25.5372 7.72084 24.2329 9.2678C22.9992 10.7292 21.2861 12.1595 20.5296 13.8708C20.4749 13.9961 20.3989 14.0981 20.3119 14.1796C20.8797 16.9614 21.4109 19.7477 21.9218 22.5378C21.989 22.9039 22.0553 23.272 22.1225 23.6382C26.5943 21.3332 30.278 18.0177 32.8687 14.0691C32.992 13.8831 33.1465 13.7671 33.3141 13.7097C34.0676 13.4514 35.0785 14.3467 34.5359 15.1739C31.6681 19.5421 27.4739 23.1037 22.4731 25.5594C22.9289 28.0728 23.3777 30.587 23.7876 33.1047C23.8809 33.6784 23.9688 34.2523 24.0465 34.8281C25.1698 34.8968 26.2381 34.5935 27.2885 34.2334C27.6253 34.118 27.9597 33.9969 28.2927 33.8811C29.6595 33.4012 31.0252 32.9185 32.3748 32.4041C35.2106 31.3222 37.9668 30.0946 40.4815 28.5058C40.5663 28.4525 40.6497 28.4126 40.7359 28.3831C41.756 28.0334 42.7844 29.3071 41.775 29.9455C39.0181 31.6884 35.9867 33.0378 32.8719 34.2121C31.4779 34.7385 30.0713 35.2449 28.6586 35.7292C28.4702 35.7938 28.2834 35.8578 28.0944 35.921C26.85 36.3412 25.5753 36.6974 24.259 36.6787C24.4653 38.9207 24.4691 41.1707 24.0485 43.4015C24.0338 43.476 24.0138 43.5426 23.9865 43.6053Z" fill="#92C00B"/>
</svg>
