<svg width="52" height="59" viewBox="0 0 52 59" fill="none" xmlns="http://www.w3.org/2000/svg">
<path d="M31.2731 57.7944C27.8704 50.8232 16.7867 49.3384 8.2017 46.2589C6.80057 45.7564 5.3691 45.1321 4.82603 43.9888C3.77141 41.7698 6.81102 38.7596 10.063 37.8585C13.3149 36.9573 16.5158 37.5275 19.4977 38.1067C14.4401 34.9686 7.28658 33.6026 2.69399 30.0658C1.33073 29.0157 -0.530192 26.347 1.03803 24.6004C1.85016 23.6963 3.37862 22.6823 4.63168 22.1919C5.75245 21.7541 6.93167 21.9602 7.9856 22.1769C11.2619 22.8538 14.5382 23.5293 17.8143 24.2048C13.6162 19.9549 12.0324 14.0096 13.494 7.9876C14.2886 4.71408 17.0044 0.712437 21.1692 0.24157C23.5825 -0.0307236 25.5471 1.05092 27.024 2.27999C31.0133 5.60166 33.0297 10.3826 32.5812 15.4568C36.0994 13.0814 38.2714 8.92332 42.5015 8.14556C45.7473 7.54832 48.3381 9.59728 48.651 12.0268C48.9641 14.4564 47.5841 17.0921 46.0462 19.5367C44.5081 21.9813 42.7493 24.444 42.1974 26.9894C42.9106 24.1115 48.8258 23.3112 50.7274 25.4083C52.6291 27.5069 51.7261 30.7383 50.6708 33.6056C48.6394 39.1251 46.2505 44.6191 43.5176 50.0604C42.386 52.3125 41.1355 54.6307 38.9631 56.4841C36.5954 58.5045 32.1118 59.6208 30.7484 57.632L31.2731 57.7944Z" fill="#ACCE1C"/>
</svg>
