<svg width="55" height="44" viewBox="0 0 55 44" fill="none" xmlns="http://www.w3.org/2000/svg">
<path d="M30.7943 18.0921L35.4181 10.1492C36.7949 7.78422 34.8269 4.91758 31.3888 4.27967C27.9508 3.64176 24.8299 5.5642 24.9988 8.21595L25.5656 17.122L25.7966 21.6603L28.9257 22.0837L30.7943 18.0921Z" fill="#FFE591"/>
<path d="M32.0255 24.4846L42.8091 28.5154C46.0198 29.7156 49.6766 28.4038 50.2964 25.8296C50.9162 23.2553 48.1768 20.7569 44.6875 20.7138L32.9682 20.5694L27.2842 20.3956L26.8174 22.3343L32.0255 24.4846Z" fill="#FFE591"/>
<path d="M21.4932 22.5304L9.77385 22.3861C6.28448 22.3432 3.54517 19.8446 4.16498 17.2703C4.78479 14.6961 8.44152 13.3844 11.6523 14.5845L22.4358 18.6153L25.9607 19.9657L26.0625 22.5931L21.4932 22.5304Z" fill="#FFE591"/>
<path d="M25.4467 15.2544L22.0044 8.56299C20.7076 6.04204 16.7304 4.94254 13.8611 6.31171C10.9918 7.68088 10.722 10.8069 13.3087 12.7124L20.1747 17.7702L24.9927 21.5111L27.549 20.2281L25.4467 15.2544Z" fill="#FFE591"/>
<path d="M35.4255 20.5999L44.0356 18.4137C47.2794 17.5901 48.4737 14.6355 46.4809 12.3643C44.4882 10.093 40.3443 9.68566 37.9964 11.5303L31.764 16.4267L26.5594 20.5298L28.0871 23.0421L35.4255 20.5999Z" fill="#FFE591"/>
<path d="M34.2866 25.3299L41.1526 30.3875C43.7393 32.293 43.4696 35.4191 40.6003 36.7882C37.731 38.1574 33.7538 37.0579 32.457 34.5369L29.0146 27.8456L26.1439 23.2883L29.7507 21.7263L34.2866 25.3299Z" fill="#FFE591"/>
<path d="M22.6973 26.6735L16.4649 31.5699C14.117 33.4145 9.97312 33.0072 7.98036 30.736C5.98759 28.4647 7.18186 25.5101 10.4257 24.6865L19.0358 22.5003L26.5263 20.6666L27.9952 22.0752L22.6973 26.6735Z" fill="#FFE591"/>
<path d="M29.1854 26.2835L29.7433 35.0474C29.9094 37.6569 26.8381 39.5487 23.455 38.921C20.0718 38.2932 18.1354 35.4723 19.49 33.145L24.04 25.3288L26.1038 21.0188L28.6431 21.2772L29.1854 26.2835Z" fill="#FFE591"/>
<path d="M26.2522 25.6169C29.2516 26.1734 32.1214 24.804 32.6622 22.5582C33.2029 20.3124 31.2098 18.0407 28.2104 17.4842C25.211 16.9277 22.3412 18.2971 21.8005 20.5429C21.2597 22.7887 23.2529 25.0604 26.2522 25.6169Z" fill="#FFD500"/>
<g style="mix-blend-mode:multiply">
<path fill-rule="evenodd" clip-rule="evenodd" d="M24.9054 25.2291C25.3248 25.397 25.7757 25.5286 26.2519 25.6169C29.2512 26.1735 32.1211 24.804 32.6618 22.5582C33.2025 20.3125 31.2094 18.0408 28.21 17.4842C27.8989 17.4265 27.5892 17.3895 27.2833 17.3721C29.5053 18.2615 30.8435 20.169 30.3886 22.0582C29.904 24.0711 27.5484 25.3799 24.9054 25.2291Z" fill="#FED402" fill-opacity="0.5"/>
</g>
</svg>
