<svg width="60" height="58" viewBox="0 0 60 58" fill="none" xmlns="http://www.w3.org/2000/svg">
<path d="M13.8792 54.8453C10.7864 54.3262 7.57252 53.6869 4.87685 52.1915C2.55322 50.9008 0.649799 48.8007 0.455464 46.3937C0.261129 43.9852 2.21322 41.4157 4.94848 41.172C6.61096 41.0231 8.12537 41.697 9.50302 42.4342C10.5818 43.0103 12.6818 44.8427 14.0204 44.4636C14.7862 44.2454 11.5931 41.5315 11.3972 41.3961C9.48092 40.0768 7.19808 38.9967 5.77312 37.2125C4.61962 35.7683 4.21261 33.6817 5.42507 32.2751C6.41028 31.1318 8.15399 30.7391 9.77705 30.5842C13.3172 30.2442 16.951 30.6865 20.253 31.8569C15.3547 29.817 11.2178 26.3945 8.60589 22.2229C7.9067 21.1066 7.30484 19.9077 7.20665 18.6365C7.10862 17.3653 7.58915 16.0023 8.72843 15.214C10.0389 14.3054 11.9497 14.3339 13.4878 14.9041C15.026 15.4743 16.2765 16.4987 17.492 17.5037C15.7535 13.7653 14.9088 9.7095 15.0282 5.67326C15.0628 4.50436 15.1867 3.30537 15.7684 2.25231C16.35 1.20075 17.4757 0.313164 18.8037 0.218388C20.1712 0.119099 21.4716 0.875805 22.2628 1.86117C23.0542 2.84503 23.4324 4.03198 23.7968 5.19336C25.0221 9.09721 26.2472 13.0011 27.4725 16.9049C26.9723 14.5355 28.0768 11.9074 30.3559 10.5655C32.6351 9.22359 35.993 9.39358 37.9252 11.1041C40.1144 13.0417 40.0649 16.1828 39.3155 18.832C38.5661 21.4812 37.2585 24.0838 37.4301 26.8097C38.2717 25.2993 39.1885 23.7919 40.5118 22.5764C41.8352 21.3609 43.6264 20.4537 45.5414 20.4206C47.8961 20.3785 50.1383 21.731 51.1837 23.5828C52.2292 25.4362 52.1478 27.6928 51.2244 29.5943C50.3347 31.4266 48.7087 33.0017 48.3 34.9619C51.3228 34.2413 54.8089 34.8235 57.0417 36.7521C58.2495 37.7947 59.0505 39.1787 59.3941 40.6349C60.2989 44.4696 57.9892 48.4727 54.5727 50.9926C51.1562 53.5124 46.7942 54.8001 42.4792 55.796C32.8041 58.033 22.5692 58.6182 13.2314 54.9776L13.8792 54.8453Z" fill="#ACCE1C"/>
</svg>
