<svg width="82" height="52" viewBox="0 0 82 52" fill="none" xmlns="http://www.w3.org/2000/svg">
<path d="M74.0794 24.9709C74.0794 27.436 71.2977 29.4326 67.8654 29.4326H67.8372C67.7877 32.5297 64.39 35.0478 60.1211 35.2081C58.5578 37.4658 55.3157 39.0169 51.5653 39.0169C51.3563 39.0169 51.1512 39.0104 50.9454 39.0005C48.7159 41.4761 44.8493 43.1215 40.4445 43.1463C38.0853 44.9749 34.8574 46.2166 31.2295 46.5338C27.9457 49.1232 23.2134 50.749 17.9515 50.749C8.03736 50.749 0 44.9775 0 37.8589C0 30.7411 8.03736 24.9696 17.9515 24.9696C20.049 24.9696 22.0601 25.2293 23.9306 25.7023C25.622 25.2306 27.4603 24.9696 29.3834 24.9696C31.4542 24.9696 33.4276 25.2705 35.2234 25.8115C36.7883 25.3104 38.5213 25.0304 40.347 25.0304C42.6614 25.0304 44.8265 25.4792 46.6899 26.2603C48.1181 25.65 49.7828 25.2993 51.5653 25.2993C52.2676 25.2993 52.9534 25.3562 53.6125 25.4596C55.1051 24.2617 57.2733 23.508 59.6875 23.508C60.4542 23.508 61.195 23.5852 61.8973 23.7279C62.646 21.8673 65.035 20.5078 67.8654 20.5078C71.2961 20.5098 74.0794 22.5078 74.0794 24.9709Z" fill="#F69CAB"/>
<path d="M16.7785 36.5634C16.7754 36.689 16.6874 36.8074 16.5389 36.8944C16.3496 37.0063 16.1147 37.0534 15.8861 37.0534C15.6575 37.0534 15.4218 37.0063 15.2332 36.8944C15.1657 36.8545 15.1044 36.8035 15.0643 36.7511C15.018 36.6903 14.9944 36.6281 14.9929 36.5634C14.9866 36.3246 14.5411 36.3233 14.5474 36.5634C14.5624 37.1293 15.2843 37.4243 15.8861 37.4243C16.487 37.4243 17.2098 37.1293 17.2247 36.5634C17.231 36.3246 16.7856 36.3246 16.7785 36.5634Z" fill="black"/>
<path d="M35.6304 26.6416C35.6304 26.6416 55.1931 63.4858 71.9521 48.3511C85.901 35.7542 35.6304 26.6416 35.6304 26.6416Z" fill="#A5D5E5"/>
<path d="M35.3176 26.3408C35.3176 26.3408 66.3429 62.5432 80.4104 43.0613C92.1173 26.8459 35.3176 26.3408 35.3176 26.3408Z" fill="#D2ECF7"/>
<path d="M35.4718 26.3399C35.4718 26.3399 19.6147 -3.5257 6.03109 8.74282C-5.27668 18.9538 35.4718 26.3399 35.4718 26.3399Z" fill="#A5D5E5"/>
<path d="M35.427 26.381C35.427 26.381 25.8954 -8.78906 8.03741 2.08728C-6.82357 11.1403 35.427 26.381 35.427 26.381Z" fill="#D2ECF7"/>
<path d="M13.322 29.517C13.322 32.23 11.1529 33.4475 7.89668 33.4475C4.63963 33.4475 1.99927 32.0337 1.99927 29.3207C1.99927 26.6077 4.63963 24.4082 7.89668 24.4082C11.1529 24.4082 13.322 26.8039 13.322 29.517Z" fill="white"/>
<path d="M13.0981 29.5162C13.0933 30.3686 12.871 31.2492 12.2088 31.923C11.5992 32.5439 10.7224 32.907 9.80015 33.0902C7.7427 33.5004 5.12669 33.2792 3.5343 32.0179C1.85785 30.6892 1.89635 28.4465 3.04095 26.8718C4.24683 25.2114 6.70493 24.2556 9.00435 24.694C11.2888 25.1303 12.7587 26.9026 13.0431 28.7697C13.0816 29.0177 13.0981 29.2676 13.0981 29.5162C13.0996 29.755 13.5451 29.7563 13.5435 29.5162C13.5317 27.475 12.2913 25.373 9.94549 24.5579C7.59815 23.7421 4.76217 24.4624 3.17529 26.0744C1.65753 27.6144 1.18932 30.0572 2.65365 31.7418C4.08814 33.3911 6.79999 33.815 9.09391 33.5717C10.1694 33.4572 11.2346 33.1706 12.0658 32.574C12.8797 31.9917 13.3329 31.157 13.4791 30.2836C13.5223 30.0297 13.5403 29.7726 13.5419 29.5162C13.5466 29.2774 13.0996 29.2774 13.0981 29.5162Z" fill="#F69CAB"/>
<path d="M17.8359 29.517C17.8359 32.23 20.0042 33.4475 23.2612 33.4475C26.5175 33.4475 29.1586 32.0337 29.1586 29.3207C29.1586 26.6077 26.5175 24.4082 23.2612 24.4082C20.0042 24.4082 17.8359 26.8039 17.8359 29.517Z" fill="white"/>
<path d="M17.6121 29.5164C17.6168 30.4519 17.8752 31.3901 18.5831 32.1359C19.2359 32.8215 20.2014 33.2396 21.2085 33.4437C23.4466 33.8977 26.2677 33.6399 27.9787 32.2491C29.7596 30.8013 29.7368 28.3846 28.5003 26.6843C27.1939 24.8865 24.5527 23.8692 22.0648 24.3304C19.5902 24.7884 17.9931 26.6981 17.6765 28.7143C17.6356 28.9806 17.6136 29.2488 17.6121 29.5164C17.6105 29.7552 18.0575 29.7565 18.0575 29.5164C18.0677 27.6355 19.1895 25.6703 21.3546 24.9068C23.5307 24.1394 26.1349 24.8198 27.6212 26.2951C29.0526 27.7154 29.4713 29.9953 28.1146 31.5543C26.7964 33.0701 24.2464 33.4149 22.1559 33.2108C21.1834 33.1153 20.1817 32.8614 19.4244 32.3276C18.671 31.7964 18.2515 31.044 18.1141 30.238C18.0724 29.9992 18.0591 29.7591 18.0575 29.5177C18.0575 29.2776 17.6121 29.2776 17.6121 29.5164Z" fill="#F69CAB"/>
<path d="M7.80556 32.4288C5.68683 32.4288 3.96875 30.9974 3.96875 29.2336V28.69C3.96875 26.9249 5.68683 25.4941 7.80399 25.4941C9.92273 25.4941 11.6385 26.9249 11.6385 28.69V29.2336C11.64 30.9974 9.92273 32.4288 7.80556 32.4288Z" fill="black"/>
<path d="M23.1867 32.4288C21.0679 32.4288 19.3499 30.9974 19.3499 29.2336V28.69C19.3499 26.9249 21.0679 25.4941 23.1867 25.4941C25.3054 25.4941 27.0211 26.9249 27.0211 28.69V29.2336C27.0235 30.9974 25.3054 32.4288 23.1867 32.4288Z" fill="black"/>
<path d="M40.2873 27.7815C40.8537 27.9706 41.4248 28.1531 41.9952 28.3337C43.4996 28.8113 45.0102 29.2718 46.5256 29.7193C48.6381 30.3428 50.7615 30.9394 52.8968 31.5034C55.3235 32.1452 57.7658 32.7457 60.2271 33.2828C62.6326 33.8069 65.0577 34.2733 67.5095 34.6181C67.7962 34.6587 68.0846 34.6973 68.3729 34.7345C68.6541 34.7699 68.7751 34.4114 68.4915 34.3754C66.0632 34.0653 63.6593 33.625 61.2774 33.1239C58.7973 32.6025 56.3392 32.0104 53.8976 31.3765C51.7058 30.8079 49.5258 30.2034 47.3592 29.5702C45.7471 29.0998 44.1422 28.6137 42.5435 28.1113C42.0596 27.9595 41.5772 27.8051 41.0957 27.6494C40.8804 27.5787 40.6581 27.4839 40.4342 27.4328L40.4067 27.423C40.1396 27.3347 40.0241 27.6945 40.2873 27.7815Z" fill="white"/>
<path d="M39.7689 28.4419C40.2426 28.7703 40.7226 29.0915 41.2049 29.4134C42.4642 30.2534 43.7345 31.0803 45.015 31.8961C46.7944 33.0286 48.5934 34.1394 50.4152 35.2215C52.4876 36.4528 54.5882 37.6493 56.7337 38.7903C58.839 39.9109 60.9861 40.9806 63.2022 41.941C63.4607 42.0528 63.7207 42.1634 63.9807 42.272C64.2376 42.3786 64.4631 42.0581 64.2062 41.9508C62.0081 41.0342 59.8823 39.9993 57.8021 38.9133C55.6433 37.7874 53.5332 36.6019 51.4506 35.3792C49.5722 34.2762 47.7206 33.1418 45.8878 31.9858C44.5343 31.1301 43.1925 30.2619 41.8641 29.3787C41.2764 28.9881 40.7061 28.5727 40.1067 28.1933L40.0831 28.1769C39.8647 28.0265 39.5466 28.2881 39.7689 28.4419Z" fill="white"/>
<path d="M32.95 22.5534C31.7905 21.4203 30.6726 20.2551 29.5673 19.0834C27.1987 16.5706 24.9158 13.9969 22.8104 11.3251C21.5865 9.77262 20.4199 8.18549 19.3963 6.5349C19.2635 6.32228 18.8794 6.51004 19.0106 6.72266C20.8661 9.70916 23.1482 12.5105 25.5144 15.2294C27.4109 17.4067 29.389 19.5348 31.4362 21.6159C31.8321 22.0189 32.2297 22.4206 32.6342 22.817C32.8212 22.9976 33.1362 22.734 32.95 22.5534Z" fill="white"/>
<path d="M32.3669 22.9722C30.8444 22.1898 29.3518 21.3674 27.8694 20.5353C24.6886 18.7493 21.5643 16.8861 18.5775 14.8822C16.8421 13.7177 15.1452 12.5061 13.5615 11.1976C13.358 11.0295 13.0414 11.2919 13.2457 11.46C16.1076 13.825 19.3096 15.9047 22.5588 17.885C25.1693 19.4768 27.8396 20.9972 30.5601 22.4574C31.0848 22.7387 31.6104 23.0206 32.1414 23.2935C32.3866 23.4191 32.6104 23.0978 32.3669 22.9722Z" fill="white"/>
</svg>
