<svg width="495" height="335" viewBox="0 0 495 335" fill="none" xmlns="http://www.w3.org/2000/svg">
<mask id="mask0_251_7491" style="mask-type:luminance" maskUnits="userSpaceOnUse" x="0" y="0" width="495" height="335">
<path d="M0.510254 0.412109H494.3V334.466H0.510254V0.412109Z" fill="white"/>
</mask>
<g mask="url(#mask0_251_7491)">
<path d="M208.404 143.591C208.305 140.926 207.911 138.342 208.207 135.678C209.192 127.205 211.95 119.131 216.481 111.466C224.361 97.9066 235.388 86.6079 250.459 78.0494C252.133 77.0805 253.906 76.1116 255.778 75.2235C261.978 72.3976 268.085 69.6574 274.389 66.993C277.049 65.8626 279.905 64.8937 283.058 64.6515C284.332 64.5708 285.613 64.2478 286.696 63.9249C286.992 62.956 286.302 62.633 285.81 62.2293C282.27 59.1612 278.92 55.9366 275.965 52.5455C269.661 45.4403 265.524 37.6942 264.145 28.9743C263.751 26.3956 263.849 23.6504 263.751 20.986C263.751 20.4208 264.046 19.7749 264.44 19.2097C265.031 18.2408 267.001 17.9178 267.888 18.7252C268.38 19.1289 268.971 19.6134 269.366 20.1786C270.843 22.1971 272.419 24.1349 273.798 26.1534C277.64 31.7194 282.073 37.0483 286.696 42.2157C290.735 46.8129 295.364 50.9307 300.782 54.4832C305.412 57.5463 309.943 60.5337 314.567 63.5212C315.65 63.0367 315.355 62.3908 315.059 61.9063C311.612 55.2099 309.746 48.2662 308.367 41.1661C307.776 38.2594 306.988 35.3528 306.2 32.4461C305.806 30.912 305.018 29.4587 303.639 28.3283C302.752 27.6067 301.866 27.203 300.585 27.203C299.403 27.203 298.221 27.9297 298.123 28.8128C298.024 29.6202 298.221 30.3468 298.221 31.1543C298.221 32.6076 296.941 33.415 295.167 33.092C291.03 32.3654 286.696 29.2972 288.174 24.3771C289.947 18.483 296.645 15.1727 302.654 15.8993C304.427 16.0608 306.003 16.5452 307.382 17.3527C312.203 20.2593 316.537 23.4889 318.211 28.4898C319.196 31.3157 320.378 34.1417 321.363 36.9676C323.925 44.5522 327.963 51.5766 333.578 58.0308C336.238 61.0182 338.694 64.0863 341.649 67.5582C342.24 65.0552 341.846 63.0367 341.354 61.1797C340.664 58.596 339.581 56.0981 338.005 53.7566C336.73 51.8188 335.351 49.9618 334.07 48.024C330.327 42.7002 327.471 37.1291 326.092 31.0735C324.023 21.8741 319.787 13.4771 313.385 5.73105C312.794 4.92364 312.203 4.11624 311.71 3.30883C311.316 2.74365 311.316 2.17846 311.71 1.53254C312.301 0.805873 313.089 0.48291 314.074 0.48291C314.665 0.48291 315.158 0.725132 315.749 0.805873C320.674 1.8555 324.811 3.95476 328.259 7.0229C331.017 9.44512 333.282 12.1096 334.859 15.1727C338.497 22.4393 343.422 29.055 348.939 35.5142C349.234 35.9179 349.53 36.3217 349.924 36.6446C356.129 44.0677 360.661 51.9803 361.449 61.2604C362.926 60.453 363.222 59.4034 363.714 58.4345C366.466 53.4336 369.224 48.5084 372.081 43.5833C373.164 41.7313 374.248 39.8742 375.923 38.4209C377.302 37.2098 378.779 36.6446 381.045 37.3713C383.31 38.0979 385.773 38.3402 388.236 38.9054C389.122 39.0668 390.107 39.3091 390.895 39.632C392.662 40.2779 393.746 42.0542 392.958 43.5025C392.17 45.1173 391.283 46.6514 390.403 48.1855C386.758 54.241 383.113 60.2108 379.567 66.2663C379.173 66.9123 378.385 67.5582 378.582 67.9619C378.878 68.6886 379.173 68.7693 379.567 68.4463C384.098 64.8937 388.728 61.3412 393.352 57.7886C393.45 54.564 393.352 51.2536 393.746 48.024C394.14 44.7944 394.928 41.4891 395.913 38.3402C396.898 35.3528 398.375 32.4461 399.754 29.5394C401.232 26.4763 403.104 23.6504 405.369 21.0667C406.354 21.1475 406.847 21.5512 406.748 21.9549C405.862 26.7993 406.847 31.6387 407.044 36.4831C407.241 39.3091 408.029 41.9735 408.718 44.5522C410.097 44.8751 410.59 44.0677 411.279 43.5833C415.22 40.6009 419.055 37.5328 423.094 34.7068C427.132 31.8002 431.565 29.4587 436.786 28.0912C438.559 27.6067 440.43 27.203 442.302 26.9608C443.287 26.7993 444.075 27.2838 444.463 28.0912C444.174 29.055 443.189 29.6202 442.302 30.1854C431.073 37.452 422.306 46.4092 414.727 56.3403C413.643 57.7078 412.855 58.9997 413.742 60.6952C414.136 61.3412 414.038 62.2293 414.136 63.0367C414.234 63.7634 414.333 64.5708 414.53 65.2167C415.121 65.2167 415.515 65.2974 415.811 65.2167C425.753 61.1797 435.013 56.2595 442.401 49.3158C444.266 47.5396 445.842 45.6018 447.615 43.7447C448.305 43.0181 448.994 42.2157 449.881 41.6505C450.57 41.1661 451.555 41.0046 452.54 41.4891C453.624 42.0542 454.215 42.9373 453.919 43.8255C453.722 44.3099 453.525 44.7136 453.328 45.1173C448.108 53.9181 442.007 62.1486 433.141 68.85C429.792 71.4337 426.147 73.6894 422.503 75.9502C420.04 77.4035 417.479 78.7761 414.924 80.8753C418.169 81.0368 420.631 80.3102 423.094 79.9064C427.723 79.099 432.353 78.0494 436.884 76.9191C440.726 76.0309 444.365 74.6583 447.911 73.205C451.161 71.8374 454.412 70.5456 457.663 69.3345C461.012 68.1234 464.459 67.316 468.006 66.67C478.342 64.813 488.882 68.7693 493.709 78.2109C493.807 78.3724 493.807 78.5339 493.807 78.6953C494.3 79.9872 492.822 81.3598 491.246 81.0368C489.966 80.7139 488.685 80.3102 487.503 79.9872C485.238 79.2605 482.874 78.6953 480.411 78.2109C475.584 77.242 470.954 77.7265 466.331 78.7761C459.731 80.3102 453.624 82.8131 447.418 85.3161C441.219 87.7332 435.111 90.1555 428.905 92.5777C426.837 93.3851 424.67 94.031 422.601 94.7577C422.897 95.5651 423.685 95.888 424.571 96.2918C438.362 102.746 451.063 110.416 462.489 119.535C472.826 127.851 479.524 137.858 482.479 149.48C484.647 157.796 485.829 166.107 486.223 174.585C486.617 184.269 484.351 193.549 481.002 202.673C479.524 206.705 477.653 210.661 475.781 214.536C472.925 220.506 469.188 226.158 464.853 231.487C456.875 241.332 447.32 250.047 436.687 257.879C429.694 262.966 422.503 267.886 414.826 272.246C399.656 280.961 383.015 286.855 365.186 290.569C355.637 292.587 345.983 292.668 336.238 292.022C332.987 291.861 329.835 291.053 326.88 290.084C323.137 288.873 319.393 287.824 315.749 286.37C309.155 283.706 302.161 282.414 295.167 280.961C292.015 280.315 288.863 279.669 285.711 279.104C283.846 278.781 282.073 278.301 280.694 277.332C279.117 277.655 278.526 278.7 277.64 279.588C263.16 293.713 246.716 305.985 227.612 315.75C211.95 323.738 195.112 329.471 176.993 332.216C164.188 334.154 151.185 334.396 138.287 332.7C111.106 329.067 86.6832 320.11 64.5258 306.712C50.0457 297.911 38.4284 287.097 28.972 274.668C25.5243 270.146 22.6677 265.383 20.3036 260.463C19.5155 258.848 18.5305 257.395 16.9606 256.183C11.3458 251.581 7.60268 245.934 5.23858 239.717C1.39691 229.711 0.510374 219.537 2.38195 209.127C4.15503 199.524 7.20866 190.158 11.7399 181.201C16.6651 171.436 23.8497 162.797 32.9121 155.212C49.4547 140.765 69.4511 130.758 92.0024 123.976C102.044 120.988 112.387 118.808 122.927 117.597C128.732 116.871 134.642 116.31 140.553 116.548C154.83 116.951 167.931 120.181 179.253 127.528C186.049 131.883 192.058 136.889 197.574 142.299C198.461 143.106 199.249 143.994 200.037 144.882C200.825 145.69 201.909 146.008 203.091 145.69C204.956 145.044 206.729 144.64 208.404 143.591Z" fill="#491313"/>
</g>
<path d="M451.555 119.05C458.549 123.733 464.164 129.466 468.596 135.92C472.235 141.33 474.008 147.219 475.486 153.194C476.766 158.522 477.653 163.927 477.948 169.417C478.047 170.467 478.244 171.597 478.441 172.647C478.736 175.468 479.13 178.213 477.85 180.958C474.599 188.386 468.99 194.275 460.815 198.312C457.761 199.846 454.215 201.219 451.555 197.586C451.457 192.338 454.51 187.66 455.495 182.654C458.549 167.157 455.495 152.628 446.63 138.827C446.137 138.019 445.743 137.131 445.349 136.243C444.955 135.678 444.857 134.951 443.977 134.79C444.463 134.951 444.758 135.193 445.054 135.597C445.349 136.243 445.645 136.889 445.743 137.616C448.896 146.977 448.502 156.423 446.433 165.865C443.681 178.375 438.953 190.561 431.959 201.784C423.389 215.667 409.9 225.593 391.381 231.002C368.436 237.699 350.022 230.599 332.593 219.699C324.22 214.456 317.029 208.238 311.907 200.573C310.337 195.244 308.268 190.082 304.821 185.399C304.427 184.834 304.23 184.269 303.934 183.703C298.615 170.79 288.666 160.859 275.079 153.274C273.798 152.548 272.616 151.821 271.434 151.094C274.094 148.268 277.64 145.77 277.541 141.33C270.744 141.976 270.744 146.492 269.267 150.045C267.592 149.399 265.819 148.834 264.145 148.107C258.924 146.008 253.611 144.075 247.799 143.106C247.307 143.025 246.814 142.702 246.322 142.46C245.041 141.249 245.337 139.796 245.928 138.504C252.035 124.783 258.53 111.224 273.995 102.342C276.162 101.136 277.837 99.3597 279.807 97.9064C280.102 97.7449 280.398 97.5027 280.693 97.422C281.284 97.2605 281.383 97.099 280.89 97.1797C277.246 97.6642 273.798 98.8753 270.055 99.3597C264.243 99.4405 259.318 101.298 254.793 104.038C245.632 109.528 237.653 115.987 233.418 124.864C232.728 126.317 232.137 127.851 229.484 128.336C226.528 125.106 226.43 121.392 226.922 117.516C228.794 104.845 236.373 94.6768 247.405 85.9618C255.778 81.6826 264.342 77.7263 273.503 74.5774C277.344 73.2855 281.284 72.241 285.514 71.7565C288.174 71.4336 290.833 71.595 293.394 71.9987C296.448 72.4781 299.206 73.2855 301.472 75.1426C304.033 77.2418 307.283 78.6144 310.337 80.2292C313.68 81.9248 317.128 83.6203 320.477 85.3159C319.984 87.0922 317.522 86.527 316.734 87.7331C316.931 87.8946 317.029 88.1368 317.128 88.1368C327.175 87.0922 336.73 89.0249 346.18 91.5279C352.682 93.2234 359.183 94.919 365.678 96.6145C366.565 96.8568 367.451 97.099 368.436 97.2605C372.672 97.7449 376.415 99.1982 379.567 101.701C381.833 103.472 384.492 104.522 387.25 105.491C391.677 108.317 396.307 111.062 399.656 114.857C400.739 116.149 402.02 117.355 401.724 119.05C401.527 120.261 400.247 121.23 400.641 123.249C409.309 120.746 417.774 120.746 426.147 123.814C422.306 119.858 417.577 117.678 411.575 117.274C409.211 117.113 406.551 117.678 404.68 115.745C404.089 111.224 405.271 109.689 410.196 108.721C412.264 108.317 414.333 108.236 416.402 108.478C429.004 110.416 441.12 112.758 451.555 119.05Z" fill="#EE2525"/>
<path d="M119.577 281.445C111.106 281.768 101.354 280.961 91.7066 280.396C82.0531 279.75 72.4982 278.14 63.245 275.718C57.6302 274.264 52.4095 271.923 46.9918 269.985C45.6127 269.501 44.3383 268.693 43.4518 267.644C39.8071 263.127 34.4879 260.059 29.4642 256.587C27.9866 255.618 26.5091 254.649 25.0315 253.681C18.4317 249.321 13.9067 243.835 11.05 237.457C7.01136 228.661 6.12482 219.618 7.8979 210.257C9.76948 200.008 13.1186 190.077 18.1362 180.636C21.9779 173.455 27.1001 166.834 33.5029 160.94C43.1563 151.983 54.4781 144.64 67.1852 138.666C83.5307 131 101.058 125.994 119.577 123.088C128.239 121.715 137.006 121.392 145.773 122.038C154.14 122.684 162.217 124.783 169.309 128.578C174.235 131.237 178.858 134.306 182.995 137.777C186.246 140.442 189.497 143.026 192.649 145.771C194.619 147.461 196.983 148.834 199.446 149.964C200.234 150.368 201.12 150.529 202.105 150.368C205.054 149.883 208.108 149.561 211.063 149.238C216.776 148.592 222.391 148.107 228.104 147.461C228.498 147.461 228.892 147.381 229.286 147.381C237.751 147.138 246.026 147.623 253.906 150.449C260.598 152.79 266.903 155.697 272.714 159.249C280.989 164.17 287.582 170.467 292.409 177.81C298.713 187.418 300.388 197.505 297.433 208.158C294.281 219.3 287.385 228.661 277.935 236.892C270.153 243.674 261.189 249.159 251.444 253.923C231.644 263.531 210.275 270.066 188.019 274.749C177.091 277.01 166.059 278.539 154.928 279.588C143.606 280.88 132.278 281.526 119.577 281.445Z" fill="#EE7639"/>
<path d="M311.71 200.815C312.202 201.057 312.793 201.3 313.089 201.623C316.438 204.771 319.886 207.915 323.038 211.226C324.22 212.437 325.402 213.809 326.879 214.617C329.539 216.151 331.706 218.089 334.267 219.698C344.21 225.996 355.243 230.518 367.549 232.375C372.672 233.182 378.188 233.344 383.31 231.648C387.743 230.275 392.366 229.387 396.799 228.015C402.709 226.077 407.93 223.332 412.56 219.779C414.727 218.089 416.795 216.151 419.055 214.536C422.995 211.549 425.95 207.915 428.905 204.287C431.368 201.3 432.451 197.747 434.126 194.437C436.096 190.4 437.672 186.287 439.544 182.169C441.809 177.244 443.287 172.082 444.463 166.914C445.054 164.411 445.546 162.07 445.546 159.491C445.546 158.603 445.743 157.634 446.039 156.746C446.925 154.001 446.827 151.175 446.137 148.43C445.94 147.784 445.546 147.218 445.546 146.653C445.743 143.348 445.054 140.118 444.364 136.969C448.403 138.665 448.895 142.137 449.881 145.124C453.722 157.392 453.821 169.821 450.472 182.169C447.812 191.853 442.4 200.654 436.589 209.288C432.55 215.263 428.61 221.152 425.064 227.288C433.633 219.698 441.711 211.952 447.418 202.672C448.6 200.815 449.092 198.393 452.245 197.828C453.821 199.523 455.988 199.2 457.859 198.554C460.519 197.666 462.785 196.213 464.952 194.76C465.641 194.275 466.429 193.71 466.922 193.064C470.074 189.355 474.205 186.287 476.471 182.088C476.668 181.685 477.259 181.442 477.653 181.119C477.751 187.417 475.978 193.548 473.712 199.523C471.742 204.771 469.483 209.853 466.922 214.94C462.489 223.655 456.086 231.406 448.994 238.829C440.529 247.549 430.58 255.053 420.04 262.077C411.082 267.966 401.724 273.295 391.184 277.09C385.773 279.023 380.355 280.88 374.839 282.575C365.284 285.401 355.341 286.774 345.097 286.451C341.058 286.289 337.124 286.531 333.184 285.562C331.706 285.159 330.229 284.917 328.85 284.432C323.924 282.817 318.999 281.122 314.074 279.426C308.268 277.493 302.161 276.202 296.054 274.991C292.212 274.264 288.272 273.537 284.529 272.811C284.042 271.599 284.923 270.792 285.514 270.065C294.576 258.767 300.88 246.338 306.101 233.586C310.238 223.412 312.498 213.002 311.611 202.268C311.71 201.703 311.71 201.219 311.71 200.815Z" fill="#D12026"/>
<path d="M26.5097 262.724C30.3514 264.01 35.2766 266.594 37.9362 268.613C40.2018 270.308 42.4674 271.923 44.7269 273.538C49.1596 276.606 53.9863 278.942 59.404 280.557C68.1709 283.141 77.0301 285.24 86.2895 286.29C96.14 287.42 105.886 288.066 115.835 288.066C123.419 288.066 130.998 288.066 138.681 288.147C137.893 290.73 135.234 290.165 133.165 290.246C128.437 290.407 123.616 290.246 118.888 290.327C116.82 290.327 114.653 290.327 112.781 291.134C110.023 292.265 106.969 293.713 107.068 296.458C107.166 299.526 110.712 300.011 113.668 300.657C131.392 304.532 148.827 301.868 166.158 298.719C170.197 297.992 174.235 297.023 178.169 295.731C181.223 294.762 184.277 293.713 187.626 293.471C198.166 292.587 207.813 289.277 217.466 286.047C219.831 285.24 222.096 283.625 225.051 285.563C223.377 290.327 217.86 291.619 214.117 293.955C218.254 293.39 221.998 290.085 227.021 291.538C228.006 294.278 224.953 294.924 223.18 295.974C213.822 301.302 203.091 304.29 192.945 308.08C206.926 306.228 220.619 303.644 232.236 296.377C244.943 288.389 257.059 279.75 266.608 269.016C271.237 265.787 276.458 263.208 281.088 259.898C282.368 259.009 283.846 258.121 285.711 259.009C285.514 260.463 284.431 261.593 283.55 262.804C277.739 270.712 270.646 277.898 262.865 284.594C250.656 295.005 237.26 304.209 222.096 311.551C208.503 318.091 194.127 322.931 178.662 325.434C171.97 326.483 165.173 327.372 158.278 327.372C145.084 327.452 132.18 325.595 119.578 322.451C98.0054 317.042 78.5077 308.483 60.9801 296.781C51.6222 290.569 43.551 283.222 36.2617 275.395C33.5035 272.407 30.9424 269.258 28.4798 266.19C27.3963 265.06 26.4112 264.01 26.5097 262.724Z" fill="#D02026"/>
<path d="M227.218 291.942C224.263 291.538 221.702 292.749 219.042 293.632C215.988 294.762 212.639 295.328 209.487 296.458C209.388 294.924 210.472 294.439 211.359 293.955C213.821 292.587 216.382 291.215 218.943 289.842C221.111 288.793 222.588 287.259 224.164 285.805C223.081 284.998 222.293 285.079 221.603 285.402C216.579 287.662 211.26 289.277 205.941 290.811C200.825 292.265 195.506 293.471 190.186 294.439C189.497 294.601 188.709 294.439 187.921 294.439C188.019 292.103 190.58 292.103 192.255 291.376C197.968 288.954 203.78 286.613 209.98 282.899C192.058 284.19 176.697 289.035 160.543 294.762C164.877 296.862 168.423 295.974 171.772 295.812C174.136 295.651 176.697 294.682 178.76 296.458C176.303 297.992 173.25 298.396 170.295 299.042C165.566 300.172 160.74 301.222 155.913 301.706C151.973 302.11 148.137 303.24 144.099 302.917C139.469 304.29 134.642 303.725 129.914 303.805C128.042 303.805 126.171 303.805 124.305 303.24C123.32 302.917 122.04 302.998 120.956 302.917C117.213 302.594 113.47 301.948 109.825 301.141C107.56 300.656 106.279 299.445 104.9 298.073C104.014 297.185 103.915 295.408 104.9 294.52C106.673 292.91 108.545 291.376 110.613 290.004C112.091 289.035 114.061 288.793 116.031 288.793C122.335 288.873 128.633 288.793 134.938 288.793C136.218 288.793 137.597 288.954 138.582 287.985C150.501 287.097 162.414 286.047 174.235 284.352C191.368 281.849 207.911 277.736 224.066 272.569C236.373 268.693 248.095 263.768 259.219 258.041C270.153 252.389 279.807 245.612 287.976 237.457C293.394 232.133 297.728 226.239 300.979 219.86C301.57 218.735 302.161 217.605 302.851 216.394C303.639 217.12 303.343 217.928 303.245 218.574C300.585 232.617 294.182 245.612 286.105 258.041C285.908 258.283 285.612 258.525 285.317 258.686C283.353 259.252 281.777 260.221 280.102 261.27C275.867 264.253 271.434 267.078 266.509 269.097C260.204 274.507 252.33 277.978 245.435 282.495C241.199 285.321 236.767 287.985 232.235 290.569C230.764 291.457 229.385 292.83 227.218 291.942Z" fill="#ED2425"/>
<path d="M247.504 86.2041C246.814 87.6524 245.927 88.9442 244.647 90.1553C240.214 94.1924 236.373 98.6331 233.614 103.634C231.546 107.429 229.385 111.224 229.188 115.584C229.188 116.31 228.695 117.032 228.498 117.839C228.006 119.535 227.809 121.311 228.4 122.926C228.991 124.541 229.188 126.236 229.582 127.851C230.665 127.932 231.152 127.447 231.447 126.882C233.023 123.007 235.289 119.454 238.047 116.149C241.298 112.273 245.533 109.124 249.868 106.137C250.557 105.652 251.444 105.33 252.133 104.764C255.876 101.621 260.697 100.167 265.524 98.9561C267.1 98.5524 268.873 98.7139 270.547 98.6331C270.547 101.055 267.789 101.378 266.016 102.342C260.007 105.733 254.202 109.286 251.148 115.018C249.868 117.436 248.784 119.858 249.178 123.491C253.217 117.839 256.566 113.081 260.795 108.64C264.736 104.522 269.661 101.378 275.374 99.0368C276.95 98.3909 278.723 97.3413 280.693 98.5524C278.92 100.813 276.556 102.584 273.897 104.118C271.926 105.249 269.858 106.46 267.888 107.671C266.804 108.317 265.819 109.124 265.13 110.012C262.963 112.919 260.204 115.584 258.53 118.727C258.037 119.696 257.255 120.665 256.467 121.553C254.694 123.572 253.217 125.752 252.133 128.093C250.459 132.045 248.489 135.92 246.716 139.876C246.321 140.765 246.321 141.733 246.124 142.622C245.139 142.541 244.253 142.622 243.268 142.46C234.402 141.088 225.543 141.088 216.579 142.379C215.988 142.46 215.496 142.379 215.102 142.379C214.018 141.733 214.117 140.926 214.018 140.199C213.723 134.548 215.2 129.062 217.072 123.653C220.421 113.565 226.824 104.764 234.402 96.4531C237.259 93.3042 240.51 90.4783 243.957 87.7331C245.139 87.0872 246.026 86.2848 247.504 86.2041Z" fill="#D12026"/>
<path d="M451.555 119.05C450.964 118.969 450.274 119.131 449.88 118.889C443.779 115.664 436.884 114.049 429.988 112.354C425.851 111.304 421.517 110.82 417.38 109.932C416.303 109.689 415.12 109.609 414.037 109.689C405.96 110.416 405.172 111.062 405.763 116.466C405.27 118.485 403.595 119.212 401.33 119.292C401.133 118.727 401.133 118.001 400.739 117.516C399.261 115.745 397.094 114.453 395.814 112.515C395.518 112.031 394.533 111.869 394.041 111.466C391.578 109.77 388.924 108.317 387.644 105.733C388.038 105.733 388.432 105.814 388.826 105.733C389.319 105.652 390.008 105.572 390.304 105.329C390.698 105.006 390.501 104.441 390.107 104.118C388.924 103.069 387.742 102.1 386.462 101.136C385.674 100.49 384.787 99.844 384.196 98.8751C386.068 98.0677 387.841 97.664 389.713 97.5833C392.76 97.5025 395.814 97.2603 398.769 96.7759C400.837 96.4529 402.807 96.6951 404.876 97.5025C409.801 99.521 414.825 101.297 419.941 103.149C423.783 104.522 427.526 105.975 431.171 107.752C435.603 109.851 440.134 111.869 444.561 114.049C446.925 115.422 449.782 116.709 451.555 119.05Z" fill="#D02026"/>
<path d="M303.934 21.4706C308.663 23.6505 311.513 26.8802 312.892 31.1544C314.37 35.8373 316.438 40.3588 318.211 44.956C318.113 49.0738 320.871 51.9804 324.417 54.5641C328.16 58.1117 331.903 61.5835 335.647 65.1361C338.004 67.3968 339.876 69.9805 341.255 72.7207C341.649 73.4473 341.748 74.2547 340.566 74.9007C335.647 73.2051 330.721 71.2724 325.698 68.9309C325.402 66.4279 323.728 64.3287 322.151 62.2294C318.211 57.1478 315.946 51.496 314.074 45.7634C312.794 41.8121 311.71 37.8559 310.626 33.8996C309.943 31.3966 308.761 29.1359 307.086 27.0417C305.806 25.3461 303.836 24.458 301.373 24.2965C297.433 23.9735 295.66 25.1039 294.478 28.4092C294.379 28.7322 294.281 28.9744 294.084 29.2973C292.508 29.3781 291.72 28.4092 291.326 27.4454C290.833 26.3957 290.833 25.2654 292.015 24.458C295.463 22.1165 299.502 21.3091 303.934 21.4706Z" fill="#0B8E45"/>
<path d="M318.506 6.61914C321.757 7.58803 322.841 8.31469 325.303 11.3021C329.046 18.7252 332.691 26.2341 336.237 33.7379C338.891 39.4705 344.998 43.5025 347.953 49.1543C350.12 53.3528 352.484 57.3091 351.401 62.1485C350.711 65.2974 352.878 67.7196 356.227 69.4152C355.538 72.1603 354.553 74.8197 353.075 77.4034C352.189 78.8568 351.302 79.099 349.431 78.3723C348.445 77.9686 347.46 77.4842 346.672 77.1612C345.786 75.4657 347.066 74.2546 347.066 72.8012C347.46 64.0055 345.687 55.6943 339.777 48.1854C338.201 46.2476 336.927 44.1484 335.548 42.0542C332.691 37.7749 330.721 33.1727 329.243 28.4898C326.978 21.3896 323.924 14.5267 319.196 8.23395C318.802 7.83025 318.802 7.18432 318.506 6.61914Z" fill="#008E45"/>
<path d="M345.983 81.7637C347.066 81.9252 348.15 82.2481 348.741 83.3785C341.55 84.9933 334.464 85.9622 326.978 85.2355C326.584 84.9126 326.091 84.6703 325.697 84.3474C321.166 80.1489 315.847 76.5963 310.435 73.2052C309.943 72.9629 309.45 72.7207 309.056 72.3978C299.206 64.8132 289.355 57.3094 281.284 48.3471C277.935 44.7138 275.472 40.6818 273.305 36.5641C272.813 35.6759 272.517 34.7878 272.813 33.8189C275.177 33.4152 275.669 35.1915 276.457 36.2411C286.696 50.6886 301.274 61.745 317.226 71.7569C325.697 77.1615 335.449 80.2296 345.983 81.7637Z" fill="#078F45"/>
<path d="M386.167 43.2601C386.265 44.3905 385.674 45.3594 385.083 46.409C380.946 54.3216 377.203 62.3099 373.755 70.3839C372.869 72.5589 371.49 74.1737 369.224 75.5463C365.579 77.807 361.645 79.664 357.41 81.1174C356.917 81.2789 356.425 81.5211 355.833 81.1174C356.917 77.2418 360.069 70.3839 363.024 65.6202C364.299 66.0239 364.2 67.6387 365.776 67.881C368.14 66.7506 368.731 64.7321 369.618 62.875C372.475 56.3401 377.695 50.9305 382.226 45.1171C383.015 43.9868 384 42.5385 386.167 43.2601Z" fill="#008E45"/>
<path d="M356.228 69.4959C354.356 69.1729 352.583 68.7692 350.711 68.4462C350.022 68.2848 349.628 67.5581 350.022 66.9929C350.317 66.4277 350.81 65.9433 351.302 65.3781C350.711 65.0551 350.317 64.7322 349.825 64.49C348.446 63.5211 348.249 63.0366 349.332 62.2292C350.711 61.1796 350.908 60.0492 350.514 58.8381C349.726 56.4209 349.332 53.9987 347.855 51.738C346.673 49.9617 345.688 48.1047 344.506 46.3284C343.816 45.2787 343.028 44.1484 341.944 43.2602C338.694 40.3586 336.139 37.0482 334.366 33.4149C331.017 26.4763 327.766 19.5326 324.614 12.5132C324.515 12.271 325.008 11.7865 325.303 11.3828C326.781 12.5939 327.766 14.1229 328.751 15.657C331.903 20.8244 335.055 25.9111 338.201 31.0734C342.831 40.1971 349.529 48.3469 356.228 56.4209C358.198 60.6951 357.804 65.0551 356.228 69.4959Z" fill="#58B548"/>
<path d="M386.166 83.6199C384.787 85.5577 382.325 86.5266 380.059 87.6519C377.301 89.0245 374.346 90.0741 371.489 91.2852C369.815 92.0119 368.337 92.0119 366.564 91.5275C362.236 90.3164 357.902 89.186 353.666 88.0556C352.287 87.6519 350.81 87.329 349.332 86.9303C349.529 85.9614 350.613 86.1229 351.302 85.9614C352.583 85.6384 353.863 85.5577 355.144 85.3155C360.956 84.3466 366.466 82.974 371.489 80.2288C372.868 79.4214 374.346 78.7755 375.824 78.0488C377.4 79.5022 379.468 79.9866 381.832 80.3096C383.901 80.6325 385.181 82.0859 386.166 83.6199Z" fill="#008E45"/>
<path d="M386.167 43.2604C385.576 43.5833 384.788 43.8255 384.394 44.31C380.749 48.8315 377.104 53.4337 373.657 58.0308C372.475 59.5649 371.293 61.1797 371.096 63.1982C370.899 65.136 368.83 66.3471 368.239 68.2042C367.845 69.4153 366.072 69.819 364.496 70.0612C364.108 70.1419 363.32 69.5768 363.32 69.3345C363.123 68.1234 363.123 66.8316 363.024 65.6205C364.397 62.8753 365.776 60.1301 367.254 57.4707C369.717 53.2722 372.278 49.0737 374.74 44.9559C375.134 44.2292 375.627 43.5833 376.119 42.9374C377.991 40.4395 378.483 39.6321 382.424 41.0854C383.606 41.4891 384.985 41.7313 385.97 42.458C386.167 42.6195 386.265 42.781 386.265 43.0181C386.265 43.1796 386.265 43.2604 386.167 43.2604Z" fill="#5CB749"/>
<path d="M423.98 65.4584C428.413 63.2784 432.846 61.0176 437.18 58.8376L437.771 58.9184L437.87 59.4028C437.673 59.8065 437.476 60.291 437.18 60.6947C432.353 65.3776 427.231 69.7376 420.927 73.0429C416.106 75.5459 411.28 78.0489 407.241 81.3592C406.551 81.9244 405.763 82.3281 404.877 82.6511C401.134 83.7815 397.39 84.5081 392.761 85.5577C396.405 80.2289 400.247 75.9496 406.354 73.3659C413.348 72.2406 418.957 69.2532 423.98 65.4584Z" fill="#1C9145"/>
<path d="M482.381 72.2411C484.252 72.8012 485.238 74.1738 486.321 75.1427C485.927 76.0308 485.336 75.8694 484.942 75.7886C482.282 74.8197 479.327 74.8197 476.569 74.416C472.727 73.7701 469.089 74.9005 465.346 75.5464C458.845 76.7575 452.737 78.8568 446.729 81.1982C441.218 83.2975 435.702 85.3968 430.186 87.491C428.117 88.2984 426.049 89.025 423.783 89.348C423.685 89.1865 423.586 88.9443 423.389 88.7828C423.389 86.9308 423.882 85.3968 426.541 85.0738C428.807 81.9249 433.831 82.9745 436.589 80.5523C443.681 78.6145 450.275 75.7886 456.973 73.1242C458.451 72.559 460.125 72.0796 461.603 71.5952C468.596 71.2722 475.584 70.3033 482.381 72.2411Z" fill="#56B247"/>
<path d="M386.167 83.6208C383.901 83.6208 383.113 82.006 381.636 80.8756C380.946 81.0371 380.257 81.2793 379.567 81.3601C377.203 81.683 376.218 81.0371 375.824 78.9378C375.726 78.6149 375.824 78.2919 375.824 77.9689C379.567 75.3852 383.212 72.8823 386.955 70.3036C393.746 66.5896 398.966 61.3414 404.877 56.825C406.354 55.6946 407.438 53.5146 410.393 54.322C407.635 58.5962 404.286 62.5525 400.936 66.5088C400.542 66.8318 400.148 67.074 400.05 67.5585C397.489 69.8192 395.519 72.4786 392.564 74.4971C389.122 77.0001 386.561 79.7452 386.167 83.6208Z" fill="#59B748"/>
<path d="M316.044 72.2408C309.549 68.8497 303.934 64.7319 298.615 60.2104C293.689 56.017 288.37 52.2222 284.141 47.6199C281.186 44.3903 278.23 41.1657 275.965 37.5324C275.078 36.1598 274.487 34.6258 272.714 33.8183V33.8991C272.123 33.2532 272.222 32.4458 271.729 31.7998C271.335 30.6695 270.252 29.7006 270.744 28.1665C272.419 28.8932 272.911 30.1043 273.699 31.0732C277.442 35.5946 281.186 40.1161 284.824 44.6325C289.06 49.8807 294.281 54.4022 300.092 58.3534C303.441 60.6141 306.692 62.9556 310.041 65.3778C313.286 67.8001 316.93 69.8186 320.674 71.5141C323.136 72.6395 325.796 73.4469 327.864 75.0617C325.599 76.9187 323.432 75.6269 321.363 74.7387C319.59 73.8506 317.817 73.1239 316.044 72.2408Z" fill="#9BC87F"/>
<path d="M423.783 89.3473C419.251 91.2043 414.234 91.6888 409.407 90.9621C406.058 90.4777 403.004 90.8006 399.852 91.2043C397.784 91.5273 395.814 91.931 393.646 91.931C392.464 91.931 391.479 92.1732 390.402 92.6576C386.954 94.4339 382.817 94.3532 378.975 95.3221C378.68 95.4028 378.286 95.1606 377.99 94.9991C377.695 94.8376 377.301 94.5954 377.202 94.3532C377.104 94.111 377.301 93.7073 377.596 93.6265C379.862 92.5769 382.128 91.2851 384.59 90.5584C389.909 88.9436 395.321 87.4903 401.034 87.0865C402.118 87.0109 403.201 86.6879 404.285 86.4457C408.225 86.8494 412.067 85.6383 416.007 85.8805C419.153 86.042 422.01 86.3649 423.684 88.9436L423.783 89.3473Z" fill="#048E45"/>
<path d="M410.392 54.4834C409.013 54.8063 408.225 55.6945 407.338 56.5019C403.989 59.242 400.542 61.9872 397.192 64.7324C394.828 66.7509 391.873 68.285 389.121 69.8998C388.53 70.2227 387.644 70.2227 386.954 70.3842C389.712 68.0427 392.464 65.7013 395.321 63.3598C401.921 58.0309 408.422 52.4648 414.135 46.4093C417.478 42.8567 421.418 39.6321 425.457 36.564C427.526 34.9492 429.791 33.4958 432.254 32.2847C432.746 32.0425 433.239 31.8003 433.83 32.4462C433.436 32.8499 433.042 33.2536 432.451 33.6573C424.964 39.3092 418.562 45.6019 412.559 52.2226C411.87 53.03 411.081 53.7567 410.392 54.4834Z" fill="#9CC882"/>
<path d="M356.129 56.4207C352.977 54.8059 350.908 52.303 349.037 49.8C345.195 44.7941 341.156 39.874 338.891 34.2221C338.497 33.1725 338.103 32.1229 338.201 31.0732C343.225 36.0792 347.658 41.408 351.598 47.0548C353.568 49.9615 355.44 52.9489 356.129 56.4207Z" fill="#A2CC86"/>
<path d="M269.266 150.206C268.872 149.076 267.887 147.946 268.577 146.654C269.759 144.398 271.04 142.057 273.798 140.765C274.98 140.2 276.063 139.715 277.541 139.796C278.723 139.877 279.708 140.603 279.609 141.572C279.511 142.057 279.609 142.541 279.412 142.945C278.624 144.56 278.033 146.169 277.048 147.623C275.866 149.48 274.192 150.933 271.532 151.256C270.547 151.095 269.661 150.852 269.266 150.206Z" fill="#F15D58"/>
<path d="M404.285 48.9123C402.414 50.6886 400.542 52.142 398.178 53.3531C396.799 47.5397 398.178 38.6633 401.626 31.8811C402.414 32.6885 402.02 33.5767 402.118 34.3841C402.217 35.2722 402.118 36.2411 402.118 37.21C402.118 38.2596 402.118 39.39 402.217 40.4396C402.315 41.3278 402.414 42.2966 402.611 43.1797C402.808 44.0679 403.103 44.956 403.399 45.9249C403.596 46.7323 403.891 47.6205 404.285 48.9123Z" fill="#67AB51"/>
<path d="M316.044 72.2412C318.211 72.2412 319.886 73.3665 321.757 74.0932C323.727 74.8199 325.599 75.3043 327.766 74.9813H327.569C328.258 75.708 329.342 75.5465 330.229 75.8695C335.745 77.3228 340.762 79.5836 345.885 81.7636C345.392 82.0058 344.998 82.4095 344.506 82.4902C343.619 82.571 342.535 82.6517 341.649 82.4902C333.085 80.2295 324.515 77.8073 317.127 73.3665C316.635 73.0436 316.438 72.6399 316.044 72.2412Z" fill="#57B447"/>
<path d="M386.265 83.6202C386.166 82.8935 386.068 82.0861 385.871 81.3594C385.674 80.7942 385.378 80.2291 385.181 79.7446C385.674 78.5335 386.757 77.8876 387.644 77.1609C390.79 74.4965 394.04 71.9178 397.291 69.3341C398.079 68.6882 398.769 67.9615 400.049 67.8C399.951 68.123 399.951 68.446 399.852 68.6882C397.39 72.8009 394.237 76.6765 390.79 80.3098C389.515 81.5209 388.235 82.8935 386.265 83.6202Z" fill="#138E45"/>
<path d="M423.881 88.9446C423.29 88.8638 422.502 89.0253 422.305 88.7831C421.025 87.3297 419.153 87.3297 417.288 87.3297C413.938 87.3297 410.491 87.3297 407.142 87.3297C406.157 87.3297 405.27 87.249 404.581 86.6081C408.422 85.4778 412.362 84.5089 416.5 84.5089C418.956 83.7015 421.616 84.1052 424.177 83.8629C426.048 83.7015 428.708 83.7015 427.132 86.5274C425.556 86.0429 425.556 86.1237 425.063 87.1683C424.669 87.6527 424.275 88.2986 423.881 88.9446Z" fill="#69BA4D"/>
<path d="M423.98 65.4592C424.472 65.7822 424.866 66.2666 424.374 66.5896C419.744 70.1422 414.431 72.8016 408.225 74.0934C407.437 74.2549 406.846 73.7705 406.354 73.286C411.968 70.2229 417.872 67.5585 423.98 65.4592Z" fill="#96C57E"/>
<path d="M482.381 72.2408C482.085 72.3973 481.79 72.801 481.494 72.7202C475.584 71.9986 469.68 72.3165 463.77 72.1601C463.08 72.1601 462.391 71.7564 461.701 71.5142C464.065 70.5453 466.626 70.1416 469.187 69.7379C473.91 69.1727 478.441 69.7379 482.381 72.2408Z" fill="#92BF7A"/>
<path d="M427.034 86.3653C427.132 85.3156 426.837 84.589 425.261 84.5082C422.305 84.4275 419.35 84.4275 416.401 84.3467C416.894 84.1045 417.386 83.7816 417.873 83.7008C423.685 82.9742 429.299 81.9245 434.914 80.6327C435.407 80.4712 435.998 80.5519 436.589 80.4712C436.687 80.7942 436.884 81.1979 436.786 81.2786C434.421 82.6512 431.86 83.5393 429.004 83.7008C428.905 84.6697 429.102 85.4771 428.807 86.123C428.511 86.9304 427.723 87.0112 427.034 86.3653Z" fill="#8DBF7B"/>
<path d="M303.934 21.4694C303.343 22.1961 302.457 22.4383 301.472 22.4383C298.418 22.5998 295.561 23.2457 293 24.7798C292.803 24.8605 292.311 24.6183 292.015 24.5376C292.902 22.5191 294.675 21.2272 297.137 20.662C299.501 20.0969 301.866 20.0161 303.934 21.4694Z" fill="#96C47B"/>
<path d="M324.417 54.6448C324.121 54.7255 323.53 54.9677 323.432 54.887C320.575 52.9492 318.605 50.527 317.62 47.6203C317.324 46.7322 317.423 45.7633 318.309 45.0366C319.886 48.347 322.151 51.4959 324.417 54.6448Z" fill="#82B36E"/>
<path d="M403.3 71.4338C405.467 68.5272 406.452 66.1857 408.521 64.0864C409.408 68.3657 409.211 68.6886 403.3 71.4338Z" fill="#4B9742"/>
<path d="M330.327 75.8693C329.244 75.8693 328.16 76.0308 327.667 74.9811C328.751 74.9004 329.736 75.1426 330.327 75.8693Z" fill="#9BC87F"/>
<path d="M271.73 31.7192C272.715 32.2037 273.01 32.9303 272.715 33.8185C271.532 33.4148 271.532 32.5266 271.73 31.7192Z" fill="#078F45"/>
<path d="M386.167 43.2599C386.069 43.0177 385.97 42.6997 386.069 42.4575C387.054 42.5383 386.955 42.8562 386.167 43.2599Z" fill="#008E45"/>
<path d="M437.278 58.8376C437.573 58.5147 437.967 58.111 438.46 58.4339C438.952 58.8376 438.361 59.1606 437.967 59.4028C437.77 59.2413 437.475 58.9991 437.278 58.8376Z" fill="#1C9145"/>
<path d="M399.951 67.72C399.951 67.1549 400.247 66.8319 400.838 66.6704C400.936 67.1549 400.641 67.5586 399.951 67.72Z" fill="#138E45"/>
<path d="M26.6073 262.642C26.4103 262.562 26.1147 262.481 26.1147 262.481C26.2133 262.158 26.3118 262.239 26.6073 262.642Z" fill="#D02026"/>
<path d="M388.925 131.722C388.531 132.529 387.94 133.014 387.152 133.094C384.886 133.175 382.719 133.66 380.453 134.225C377.498 134.952 374.543 135.194 371.489 135.113C369.421 135.032 367.352 135.194 365.185 135.113C359.38 135.032 353.962 136.243 348.741 138.262C344.998 139.715 341.156 141.088 337.709 143.106C335.843 144.237 333.676 144.721 331.312 144.56C327.273 144.237 324.515 140.28 326.387 137.293C327.175 136.001 328.357 135.032 329.834 134.306C334.76 131.641 339.974 129.466 345.49 127.69C348.15 126.883 350.908 126.237 353.568 125.51C354.06 125.348 354.651 125.106 355.144 125.025C361.744 124.46 368.337 123.411 374.937 123.976C377.991 124.218 380.946 124.864 383.113 126.802C385.181 128.417 387.546 129.789 388.925 131.722Z" fill="#F15E59"/>
<path d="M452.343 197.748C451.752 198.555 451.161 199.282 450.668 200.17C446.433 207.916 440.43 214.779 433.83 221.233C431.86 223.171 429.989 225.109 427.92 226.966C426.639 228.096 425.162 229.146 423.783 230.195C423.389 230.518 422.798 230.68 422.305 230.276C421.813 229.872 422.01 229.388 422.207 228.984C422.798 227.854 423.389 226.643 424.078 225.593C425.26 223.655 426.639 221.717 427.92 219.86C432.353 213.164 436.785 206.382 441.218 199.685C445.152 193.549 448.009 187.095 449.683 180.313C452.244 169.821 452.54 159.249 449.683 148.753C448.797 145.367 447.713 142.057 446.137 138.908C445.743 138.181 445.546 137.455 444.66 136.97C444.66 136.324 444.66 135.759 444.66 135.113L444.561 135.194C445.546 135.355 446.137 136.082 446.63 136.647C450.274 140.926 452.638 145.609 454.51 150.61C457.662 159.007 458.943 167.641 458.155 176.437C457.662 182.008 456.382 187.579 454.214 192.903C453.328 194.437 452.934 196.133 452.343 197.748Z" fill="#491313"/>
<path d="M351.106 113.969C349.529 114.615 348.446 113.484 347.165 113.565C345.885 113.646 344.506 113.565 343.127 113.484C339.581 113.242 336.238 113.888 333.085 114.857C329.539 115.907 325.993 116.951 322.742 118.728C320.083 120.262 316.931 121.15 314.271 122.522C309.451 125.025 304.821 127.771 300.979 131.318C298.32 133.74 294.773 134.225 291.326 134.871C289.75 135.113 287.878 133.74 287.681 132.529C287.287 129.385 288.371 126.802 291.03 124.379C296.744 119.293 303.54 115.261 310.823 111.789C314.665 109.932 318.802 108.963 323.333 108.882C325.402 108.882 327.471 108.802 329.539 108.317C331.903 107.752 334.464 107.833 336.927 108.398C339.679 109.044 342.536 108.963 345.195 109.932C347.461 110.82 349.825 111.789 351.106 113.969Z" fill="#F15E59"/>
<path d="M292.212 80.3907C281.974 85.6389 272.616 90.6397 262.962 95.3227C258.924 97.2605 254.399 98.6331 249.966 100.167C249.473 100.329 248.882 100.329 248.291 100.329C247.306 100.409 246.321 99.7634 246.321 98.956C246.321 98.0679 246.42 97.099 246.715 96.2108C247.011 95.4842 247.7 94.919 248.291 94.2731C253.808 87.6523 260.795 82.49 269.858 79.6641C277.048 77.4033 284.43 76.9189 292.212 80.3907Z" fill="#F15E59"/>
<path d="M465.05 153.194C465.05 155.858 465.05 158.523 465.05 161.101C465.05 161.909 464.853 162.636 464.164 163.281C463.868 163.524 462.883 163.604 462.686 163.362C462.391 162.958 461.997 162.636 461.8 162.232C459.14 155.455 455.988 148.753 454.215 141.734C454.018 140.846 453.722 139.877 453.722 138.989C453.624 136.163 453.821 133.418 452.54 130.677C452.442 130.516 452.442 130.354 452.54 130.193C452.737 129.789 452.836 129.224 453.131 128.982C453.525 128.82 454.313 128.901 454.707 129.063C455.988 129.951 457.367 130.92 458.352 132.045C462.292 136.889 465.543 141.976 465.05 148.027C464.952 149.803 465.05 151.498 465.05 153.194Z" fill="#F15E58"/>
<path d="M280.693 98.5527C276.753 98.8757 273.699 100.813 270.646 102.665C264.932 106.137 260.303 110.417 256.664 115.422C254.891 117.84 253.216 120.262 251.443 122.603C250.754 123.491 249.867 124.299 249.079 125.187C248.784 125.51 247.799 125.348 247.7 124.945C247.503 124.38 247.306 123.734 247.306 123.169C247.405 117.274 250.36 112.354 255.088 108.075C258.628 104.926 262.765 102.504 267.198 100.329C268.281 99.7638 269.365 99.1179 270.547 98.5527C274.389 97.7453 278.033 96.292 282.171 96.6957C282.466 96.6957 282.86 96.8572 283.254 96.9379C282.86 98.0683 281.382 97.9068 280.693 98.5527Z" fill="#491313"/>
<path d="M401.133 119.373C402.611 118.404 404.088 117.516 405.566 116.547C412.362 115.341 418.365 116.789 423.881 120.019C426.048 121.311 427.92 122.845 429.102 124.863C429.299 125.267 429.496 125.751 429.299 126.155C429.004 126.72 428.314 126.478 427.821 126.236C424.965 124.944 422.01 123.975 418.759 123.41C414.037 122.522 409.407 122.522 404.679 123.733C402.906 124.217 401.232 125.025 399.163 124.782C398.178 124.702 397.39 123.814 397.882 123.168C398.966 121.876 400.049 120.665 401.133 119.373Z" fill="#491313"/>
<path d="M396.306 184.672C394.041 189.194 390.79 192.014 387.349 194.679C386.758 195.083 386.167 195.486 385.477 195.729C381.438 197.101 377.4 198.393 373.361 199.685C372.869 199.846 372.278 199.766 371.687 199.766C371.49 199.766 371.194 199.685 371.194 199.604C371.095 199.362 370.997 198.958 371.095 198.797C372.278 197.747 373.263 196.617 374.642 195.809C377.006 194.517 378.976 192.822 381.044 191.207C382.128 190.4 383.31 189.597 384.492 188.871C384.886 188.628 385.477 188.467 385.97 188.225C389.122 187.175 392.268 186.045 396.306 184.672Z" fill="#F15D58"/>
<path d="M390.305 202.188C393.352 198.393 395.125 197.344 400.641 195.729C400.641 197.182 399.361 197.909 398.376 198.716C395.913 200.816 394.239 201.462 390.305 202.188Z" fill="#F15750"/>
<path d="M444.561 135.112C444.364 135.032 444.069 135.032 444.069 134.951C444.069 134.628 444.266 134.709 444.561 135.112Z" fill="#491313"/>
<path d="M94.0703 219.057C83.6288 227.207 72.2023 234.469 61.0775 241.977C58.1224 243.996 54.7732 245.53 51.0301 246.337C46.4004 247.387 44.1409 246.015 43.7469 242.22C43.7469 241.897 43.8454 241.493 43.7469 241.332C36.6546 232.617 43.7469 222.443 39.4127 213.405C38.9202 212.437 39.1172 211.225 39.6097 210.176C46.2034 194.356 55.5613 179.585 67.8743 166.187C74.9605 158.441 85.6974 154.646 96.1389 150.852C108.544 146.33 121.448 144.236 135.134 145.124C145.083 145.77 150.698 150.69 149.22 157.795C148.432 161.424 145.97 163.927 141.833 165.38C139.665 163.846 140.848 161.424 138.779 160.218C137.301 157.23 137.794 153.435 133.164 151.82C132.77 151.901 132.376 151.982 132.179 152.305C131.982 152.87 131.884 153.355 131.687 153.92C128.83 157.149 126.564 154.566 124.108 153.435C121.448 157.957 117.705 158.199 111.204 154.323C110.711 153.839 110.317 154.889 110.81 154.485C110.908 154.404 111.007 154.566 111.302 154.727C111.992 155.292 112.583 155.858 112.78 156.665C109.234 160.46 106.476 160.939 98.7923 158.764C102.043 160.46 101.058 161.908 99.5804 163.523C95.7449 167.641 94.2673 167.964 85.6974 166.268C87.2735 166.995 89.5391 166.672 90.9182 168.287C90.3271 171.032 87.8645 172.647 85.0079 174.019C82.6438 174.181 80.4767 173.212 78.2111 173.212C79.5902 173.777 81.4617 173.373 82.8408 174.342C83.4318 177.89 80.3782 179.666 77.5216 181.604C76.1425 182.007 74.7635 181.765 73.1874 181.442C73.7784 182.169 74.5664 182.25 75.1575 182.653C78.8021 187.336 73.5814 189.193 70.8294 191.772C69.2534 193.629 64.3282 192.014 64.5252 195.809C65.3132 196.778 65.5102 197.747 64.9192 198.796C63.5401 200.411 61.176 200.734 59.4029 201.865C60.0925 202.268 60.6835 201.622 61.2745 201.622C62.0626 201.461 62.8506 201.299 63.6386 201.299C64.2297 201.38 64.6237 201.622 65.0177 201.945C65.9042 203.964 66.6923 205.977 67.3818 208.077C67.0863 210.337 64.0326 210.902 63.1461 212.759C63.9341 213.648 65.3132 212.921 66.2982 213.486C68.7609 215.182 66.8893 216.877 66.1997 218.492C65.6087 219.94 64.5252 221.474 66.2982 222.847C68.1698 224.3 70.5339 224.139 72.6949 223.493C76.9305 222.201 80.5752 219.779 84.9094 218.573C87.8645 218.25 91.2137 216.312 94.0703 219.057Z" fill="#ED2525"/>
<path d="M92.1987 243.916C91.0167 244.077 90.2286 244.804 89.4406 245.45C84.7124 249.078 79.6887 252.308 74.1724 255.215C68.8594 258.041 62.9491 259.817 56.7433 260.543C54.4777 260.866 52.3106 259.978 50.2421 259.332C50.1436 259.332 50.1436 259.09 50.1436 258.929C50.1436 258.767 50.2421 258.606 50.3406 258.525C50.6361 258.363 51.0301 258.202 51.3256 258.202C54.8718 258.283 58.0239 257.233 60.782 255.538C60.8805 255.376 60.8805 255.134 60.979 255.134C76.3395 249.563 87.175 239.556 97.9058 229.63C104.9 223.736 110.81 217.201 117.41 210.984C117.804 210.499 118.296 210.015 118.789 209.611C118.986 209.369 119.281 209.208 119.675 209.208C119.281 209.127 118.986 209.208 118.789 209.611C118.296 210.015 117.804 210.499 117.41 210.984C110.81 217.039 104.9 223.655 98.0043 229.468C94.9568 231.971 92.1002 234.712 88.9481 237.053C87.4705 238.183 86.2885 239.798 83.8259 239.394C83.7274 238.345 84.3184 237.618 85.1064 236.892C91.1152 231.648 96.1389 225.835 101.944 220.506C108.643 214.294 114.159 207.351 120.365 200.977C126.466 194.679 133.46 189.275 142.128 185.48C147.349 183.219 152.76 181.362 158.277 179.667C161.921 178.536 165.369 179.021 168.817 179.586C171.969 180.151 173.052 182.977 170.984 185.076C168.915 187.095 166.649 188.952 163.3 189.678C158.868 190.642 154.829 192.419 150.698 194.033C142.818 197.182 136.316 201.542 131.194 207.27C129.421 209.288 127.451 211.145 125.678 213.245C125.185 213.81 125.087 214.698 124.89 215.425C121.448 220.587 114.849 223.251 110.514 227.692C105.786 231.891 101.452 236.246 97.0254 240.686C95.7449 241.897 94.9568 243.997 92.1987 243.916Z" fill="#F58E6E"/>
<path d="M217.367 187.579C217.367 186.044 217.564 184.43 218.254 182.976C218.648 182.25 217.958 181.765 217.269 181.523C215.299 180.877 213.427 180.231 211.26 180.231C210.275 180.231 209.389 180.231 208.403 180.15C207.221 180.07 206.335 179.182 206.236 178.293C206.138 177.324 206.729 176.113 207.714 175.952C213.132 175.069 217.761 172.404 223.278 171.516C233.122 169.982 242.184 171.274 250.951 174.988C253.709 176.113 255.876 177.89 258.037 179.666C261.386 182.33 262.076 185.56 261.091 189.113C260.894 189.678 260.697 190.319 260.401 190.884C259.121 193.225 258.53 195.567 258.53 198.151C258.53 199.2 258.234 200.331 258.037 201.38C257.551 203.964 256.073 206.139 254.103 207.996C253.02 209.045 251.739 210.014 250.459 210.983C245.336 214.778 240.608 218.815 236.57 223.412C233.516 226.965 229.582 229.549 224.755 231.325C222.293 232.213 220.027 233.424 217.663 234.307C213.821 235.841 210.472 237.86 207.418 240.282C203.287 243.592 198.461 246.095 192.846 247.387C187.428 248.679 182.7 250.854 178.267 253.599C174.136 256.183 169.704 258.282 164.581 259.17C163.498 259.332 162.316 259.655 161.232 259.735C156.209 260.058 151.48 261.189 147.054 262.965C143.212 264.494 139.173 265.221 134.938 265.463C130.899 265.624 127.057 266.351 123.419 267.885C121.744 268.612 119.873 268.935 118.1 269.581C112.189 271.519 103.62 267.32 103.127 261.35C102.437 253.518 106.082 247.064 112.485 241.412C112.78 241.17 113.076 241.009 113.371 240.847C116.031 239.232 119.479 239.636 121.35 241.897C122.237 242.946 122.926 244.077 123.714 245.126C124.404 246.015 125.678 246.257 126.762 245.772C128.141 245.207 129.323 244.48 130.702 243.835C133.559 241.816 136.12 239.475 140.06 238.829C141.636 237.698 143.212 236.649 144.788 235.518C147.251 233.666 149.91 232.455 153.45 232.617C154.731 232.697 156.11 232.778 157.194 231.89C158.573 230.76 159.656 229.226 161.922 229.226C165.763 227.53 169.605 225.915 173.447 224.139C174.235 223.735 174.924 223.251 175.712 222.766C175.909 221.717 176.796 221.474 177.873 221.313C179.351 220.506 180.04 219.219 181.025 218.008C182.996 215.666 185.655 214.374 189.004 213.971C189.595 213.89 190.186 213.89 190.679 213.809C195.506 213.244 199.938 212.114 203.287 208.965C203.878 208.4 204.66 207.996 205.448 207.431C206.63 207.027 207.911 206.785 209.093 206.3C210.866 205.654 212.147 204.61 212.639 202.995C213.427 200.411 215.299 198.312 217.17 196.213C219.14 193.468 218.057 190.48 217.367 187.579Z" fill="#491313"/>
<path d="M256.96 241.493C255.286 244.481 252.232 246.338 249.277 248.275C247.504 249.401 245.435 250.37 243.465 251.258C232.334 256.102 220.914 260.22 209.093 263.692C201.81 265.867 194.521 268.208 187.231 270.469C184.178 271.438 181.124 272.326 177.873 272.084C174.53 270.711 170.689 273.133 167.438 271.357C166.749 271.115 165.961 270.953 165.665 270.307C165.468 269.662 165.961 269.096 166.453 268.612C170.295 264.979 174.924 262.319 180.435 260.785C194.127 256.99 207.517 252.55 220.914 248.114C232.925 244.158 243.958 238.586 254.3 232.213C261.387 227.772 268.085 222.928 274.389 217.685C275.768 216.554 277.147 215.505 278.526 214.536C279.117 214.132 279.511 214.697 279.807 215.101C280.004 215.424 280.004 215.747 279.807 216.07C279.61 216.393 279.413 216.635 279.117 216.958C279.019 217.12 278.92 217.2 278.822 217.362C278.526 217.846 278.231 218.25 277.935 218.734C277.738 219.057 277.443 219.38 277.246 219.698C276.064 220.99 275.473 222.443 274.882 223.897C271.139 230.033 264.046 233.828 258.628 238.748C257.742 239.555 256.369 240.121 255.778 241.009C255.088 241.897 256.665 240.928 256.96 241.493Z" fill="#F68E6E"/>
<path d="M94.0709 219.058C92.6918 218.654 91.2142 218.654 89.7367 218.815C87.7666 219.058 85.7965 219.3 83.8264 219.542C80.5758 220.587 78.7042 218.815 78.6057 216.797C78.4087 213.486 75.7491 211.872 73.6805 209.692C73.0894 208.884 72.6954 208.077 72.4984 207.108C72.8924 202.107 73.2865 197.101 77.0296 192.822C77.7191 192.015 78.2117 191.046 77.9162 190.157C76.3401 185.722 79.5907 183.138 83.2354 180.635C84.6144 179.747 86.092 178.778 85.9935 177.244C85.698 172.647 90.0322 170.467 93.3813 167.802C99.4824 162.797 106.476 159.087 114.849 156.988C121.153 158.119 127.846 156.585 133.854 159.33C135.135 159.895 136.415 159.007 137.696 158.926C138.287 158.926 138.779 159.087 139.174 159.33C142.424 160.46 142.424 160.46 141.833 164.573C145.97 162.231 148.433 159.41 148.531 155.293C148.63 152.547 147.251 150.448 144.591 148.914C141.735 147.219 138.484 146.411 135.036 146.169C126.762 145.609 118.691 146.169 110.712 147.945C97.7155 150.852 85.698 155.373 74.961 162.07C72.2029 163.765 69.7465 165.703 67.8749 168.045C61.0781 176.275 54.2813 184.591 48.8636 193.549C47.4845 195.809 46.2039 197.989 46.0069 200.573C45.9084 202.269 45.0219 203.883 44.043 205.412C43.255 206.462 42.5654 207.592 41.8759 208.723C40.4968 210.58 40.2998 212.437 41.4819 214.536C43.3535 217.766 43.5505 221.152 42.2699 224.543C41.9744 225.431 41.8759 226.4 41.5804 227.288C40.8909 229.387 41.3834 231.325 42.3684 233.182C42.7624 233.909 43.1565 234.55 43.5505 235.276C44.7264 237.295 45.5144 239.313 45.4159 241.574C45.4159 242.22 45.4159 242.866 45.5144 243.431C45.7114 244.804 47.0905 245.692 48.765 245.369C51.8187 244.884 54.5768 243.996 57.2364 242.704C60.9796 240.847 64.4272 238.587 67.6779 236.164C75.5521 230.275 84.1219 225.027 92.4948 219.618C92.6918 219.542 93.4798 219.3 94.0709 219.058C94.0709 220.021 93.2828 220.748 92.4948 221.394C83.7279 228.661 74.567 235.438 64.7227 241.655C61.2751 243.835 57.4334 245.692 53.2962 246.903C51.3262 247.468 49.2576 247.791 47.0905 247.71C44.437 247.63 42.4669 246.338 42.5654 244.319C42.6639 240.767 41.2849 237.618 39.4133 234.469C37.7387 231.648 37.4432 228.822 38.7238 225.835C39.1178 224.785 39.4133 223.735 39.8073 222.686C40.4968 220.667 40.3983 218.654 39.4133 216.716C39.0193 215.989 38.6253 215.263 38.4283 214.536C37.6402 212.518 37.6402 210.58 38.9208 208.642C39.5118 207.835 39.9058 206.946 40.4968 206.139C41.8759 204.206 42.9595 202.269 43.255 200.008C43.5505 197.666 44.7264 195.486 46.1054 193.468C51.8187 185.157 57.5319 176.84 63.7377 168.771C66.3973 165.299 69.648 162.231 73.582 159.733C84.6144 152.79 97.026 148.188 110.416 145.205C118.592 143.348 126.86 142.864 135.332 143.429C138.976 143.671 142.424 144.559 145.576 146.088C148.334 147.38 150.304 149.237 151.382 151.659C152.859 154.808 152.071 157.796 150.304 160.697C149.221 162.393 147.743 163.765 145.872 164.977C142.523 167.156 138.484 168.206 134.839 169.821C134.544 169.902 133.953 169.821 133.854 169.659C133.559 169.336 133.165 168.771 133.263 168.448C133.657 167.56 134.248 166.753 134.839 165.945C134.741 165.138 135.135 164.492 136.021 163.846C134.15 164.492 132.475 165.542 130.899 163.765C130.21 162.877 129.619 161.989 129.028 161.182C127.353 160.939 126.368 161.908 125.186 162.312C122.434 163.442 121.547 163.362 119.479 161.262C118.789 160.617 118.297 160.137 117.213 160.299C116.819 160.617 116.228 160.697 115.736 160.536C113.372 161.02 111.204 162.151 108.643 162.07C107.461 162.07 106.575 162.716 105.688 163.362C103.226 165.299 100.861 167.237 98.3989 169.175C98.0049 170.548 96.632 171.113 95.1544 171.436C94.0709 172.082 92.9873 172.647 92.0023 173.374C90.9187 174.1 90.2292 174.988 90.5247 176.194C91.0172 177.809 90.3277 179.263 89.4412 180.635C88.6531 184.268 83.7279 184.834 81.5608 187.417C83.0384 189.678 82.5459 191.692 80.8713 193.791C79.6892 195.244 78.1132 196.617 78.0147 198.555C78.0147 198.716 78.1132 198.877 78.1132 199.039C78.3102 199.927 78.5072 200.815 78.6057 201.703C78.5072 202.107 78.2117 202.349 77.7191 202.43C77.3251 203.318 76.9311 204.206 76.7341 205.089C76.3401 206.624 76.8326 207.835 78.4087 208.804C78.9012 209.046 79.2952 209.369 79.7877 209.611C81.9548 210.661 83.0384 212.114 83.2354 214.132C83.2354 214.536 83.5309 215.021 83.6294 215.424C86.289 215.989 88.9486 216.151 91.6082 216.151C92.8888 216.151 94.2679 216.232 95.5484 216.474C95.9424 216.555 96.5335 217.039 96.632 217.443C96.632 217.766 96.1394 218.169 95.7454 218.412C95.2529 218.977 94.6619 218.977 94.0709 219.058Z" fill="#491313"/>
<path d="M138.189 130.435C139.075 131.081 140.159 131.318 141.341 131.318C142.72 131.398 143.804 131.964 144.887 132.69C145.281 132.933 145.183 133.659 144.69 133.901C143.606 134.305 142.621 134.79 141.538 134.951C132.87 136.081 124.497 137.858 116.13 140.118C113.963 140.684 111.796 141.168 109.53 141.572C100.566 143.187 92.1996 146.088 83.8267 149.237C80.7731 150.367 77.7194 151.821 74.8628 153.355C68.7617 156.584 62.1619 159.007 55.4636 161.262C54.9711 161.424 54.3801 161.343 53.7891 161.424C55.0696 156.584 60.1918 154.404 64.2305 151.579C67.7767 149.076 71.8092 147.138 76.1434 145.609C70.7318 147.542 66.0036 150.367 61.2754 153.193C59.6993 154.162 58.4188 155.858 55.8577 155.131C55.7591 154.889 55.4636 154.485 55.5621 154.324C55.9562 153.597 56.2517 152.87 56.9412 152.305C60.3888 149.156 63.8365 146.007 68.4662 143.994C74.2718 141.41 79.985 138.584 86.2893 136.647C94.2682 134.224 102.241 131.721 110.614 130.273C112.485 129.95 114.357 129.627 116.228 129.627C119.873 129.627 123.419 129.708 127.058 129.708C127.156 130.192 127.255 130.758 126.565 130.838C121.055 131.479 115.637 132.367 110.023 132.852C117.903 132.044 125.777 130.758 133.658 130.354C135.332 130.112 136.81 129.869 138.189 130.435Z" fill="#F58E6E"/>
<path d="M181.912 191.369C183.389 191.45 184.965 191.127 186.345 191.773C186.64 191.934 186.936 192.176 187.133 192.419C187.33 192.903 187.133 193.387 186.64 193.63C185.655 194.114 184.67 194.599 183.586 194.921C174.629 197.586 166.354 201.461 158.769 206.22C150.009 211.711 140.946 216.878 131.687 221.717C129.914 222.605 128.239 224.22 125.678 223.251C125.383 221.394 126.762 219.941 127.944 218.654C131.293 215.102 134.741 211.549 138.385 208.158C140.552 206.22 143.113 204.61 145.773 203.076C154.632 197.909 164.286 194.033 175.023 191.934C177.485 191.45 179.646 191.45 181.912 191.369Z" fill="#F68E6E"/>
<path d="M97.617 204.53C96.1394 205.251 94.6619 205.978 93.1843 206.624C90.5247 207.916 88.4561 207.35 87.274 205.09C85.895 202.511 85.895 199.927 87.274 197.424C87.8651 196.294 88.4561 195.083 89.1456 194.033C92.3963 189.355 96.2379 185.157 101.157 181.604C103.127 180.151 105.491 178.94 107.855 178.052C112.485 176.275 117.016 174.262 122.434 174.585C123.025 174.585 123.517 174.746 124.108 174.827C124.595 174.908 124.89 175.63 124.595 175.952C124.207 176.437 123.714 177.002 123.222 177.406C119.282 180.555 115.342 183.704 112.091 187.418C109.628 190.158 106.673 192.661 103.915 195.244C103.029 196.052 102.142 196.94 102.142 198.07C102.142 198.232 102.142 198.393 102.142 198.555C102.044 198.878 101.945 199.201 101.847 199.524C101.65 199.847 101.453 200.17 101.255 200.412C100.861 200.816 100.467 201.219 100.073 201.623C99.5809 202.188 99.1869 202.753 98.7929 203.399C98.5959 203.722 98.3989 204.045 98.2019 204.287C97.9063 204.287 97.7155 204.449 97.617 204.53Z" fill="#F68E6E"/>
<path d="M18.5312 222.848C19.0238 216.394 20.8954 210.338 24.343 204.53C24.6385 203.965 25.2295 203.561 25.8206 203.157C26.1161 202.915 27.1996 203.076 27.2981 203.319C27.3966 203.48 27.5936 203.561 27.5936 203.722C27.8892 207.108 29.1697 210.419 28.9727 213.891C28.8742 216.071 29.1697 218.17 29.7607 220.345C30.4503 223.171 30.7458 226.158 31.0413 229.146C31.5338 232.779 32.5189 236.165 33.7994 239.556C34.883 242.382 35.9665 245.208 35.7695 248.195C35.7695 248.68 35.5725 249.078 35.474 249.563C35.3755 250.047 34.1934 250.532 33.6024 250.37C33.4054 250.29 33.2084 250.29 33.1099 250.209C29.9577 248.276 26.3131 246.742 24.4415 243.674C23.949 242.866 23.4565 242.059 23.161 241.09C21.9789 236.972 20.8954 232.94 19.5163 228.903C18.6298 226.885 18.6298 224.866 18.5312 222.848Z" fill="#F58D6E"/>
<path d="M149.024 274.022C144.69 274.991 140.356 276.041 136.021 277.01C129.52 278.539 122.828 279.75 116.031 279.507C107.264 279.184 98.8914 277.332 91.3127 273.618C90.5247 273.215 89.9337 272.569 89.3426 272.004C90.3277 269.824 87.7666 269.097 86.683 267.805C84.0234 264.575 84.4174 261.593 88.3576 258.606C89.9337 259.494 89.9337 261.109 90.4262 262.32C91.4112 265.06 93.5783 267.078 96.5335 268.128C101.354 269.904 106.082 271.6 111.5 272.246C116.425 272.811 121.252 272.972 126.171 272.972C127.846 272.972 129.52 272.892 131.195 272.488C132.475 272.165 133.756 272.165 135.135 272.084C137.006 272.004 138.878 272.004 140.75 271.438C141.636 271.196 142.621 271.196 143.508 271.115C146.364 271.035 149.122 271.035 151.973 270.308C153.056 270.066 154.238 270.066 155.322 270.55C155.519 270.631 155.716 271.196 155.618 271.358C155.027 271.923 154.337 272.488 153.746 273.053C152.465 274.749 150.797 274.668 149.024 274.022Z" fill="#F58D6E"/>
<path d="M186.739 201.785C186.443 203.803 184.769 204.853 183.193 205.978C178.859 208.966 174.333 211.872 169.901 214.779C167.34 216.394 164.779 218.008 162.217 219.618C152.761 225.512 142.227 229.792 131.096 233.102C130.21 233.344 129.225 233.506 128.338 233.586C128.043 233.667 127.55 233.586 127.255 233.344C126.762 232.94 127.058 232.537 127.452 232.133C129.914 229.63 133.263 228.177 136.218 226.158C141.833 222.444 148.236 219.543 154.436 216.555C163.399 212.114 172.363 207.674 181.715 203.722C183.291 203.077 185.064 202.431 186.739 201.785Z" fill="#F68D6E"/>
<path d="M97.519 203.561C97.519 202.269 98.3008 201.3 99.7784 200.815C100.172 200.493 100.665 200.17 100.96 199.847L100.862 199.927C101.551 199.443 101.354 198.555 102.044 197.99L101.945 198.07C103.719 197.424 104.901 196.133 106.181 194.921C112.584 189.194 120.267 184.915 128.437 181.12C132.377 179.263 136.711 178.052 141.243 177.406C141.538 177.325 142.129 177.486 142.326 177.648C142.622 178.052 142.326 178.536 141.932 178.778C141.44 179.021 140.947 179.182 140.455 179.505C137.007 181.443 133.461 183.219 130.21 185.399C128.437 186.61 126.664 187.741 125.088 189.113C117.509 195.244 109.924 201.461 102.34 207.593C100.468 209.127 98.3993 210.499 96.1399 211.468C94.7608 210.661 95.3519 209.692 95.6474 208.885C96.2384 207.431 97.6175 206.139 97.6175 204.53L97.519 204.61C97.9068 204.449 98.0053 204.207 97.9068 203.884C97.8083 203.641 97.716 203.561 97.519 203.561Z" fill="#F68D6E"/>
<path d="M205.251 156.504C208.994 154.969 212.639 153.274 216.677 152.305C223.77 150.609 231.053 150.287 238.244 151.255C245.73 152.224 253.118 154.001 260.302 155.938C261.09 156.181 261.484 156.584 261.484 157.472C260.204 157.472 258.825 157.553 257.55 157.472C254.497 157.23 251.542 156.907 248.488 156.584C243.957 156.1 239.426 155.373 234.895 155.212C223.573 154.727 212.836 156.181 203.582 162.07C199.347 164.815 195.899 168.206 194.323 172.566C193.929 173.777 193.732 174.988 193.437 176.194C193.24 176.759 193.141 177.405 192.254 177.648C191.466 177.648 191.663 177.082 191.663 176.679C191.368 173.293 192.845 170.224 193.732 167.076C195.21 161.747 199.051 158.28 205.251 156.504Z" fill="#491313"/>
<path d="M256.96 241.494C255.187 242.14 253.61 243.432 251.443 243.916C251.64 243.27 251.542 243.028 251.739 242.867C252.724 241.979 253.807 241.01 254.891 240.202C259.121 236.811 263.356 233.587 267.493 230.195C269.858 228.258 272.32 226.32 273.896 223.736C275.078 222.041 275.866 220.184 277.541 218.735L277.442 218.816C277.935 218.251 277.738 217.282 278.723 216.878L278.624 216.959C278.821 216.475 279.215 216.152 279.511 215.748C279.708 215.586 279.806 215.425 279.806 215.183C281.58 213.649 282.072 211.63 282.762 209.692C285.415 202.834 286.794 195.81 286.597 188.548C286.597 187.58 286.499 186.691 286.4 185.722C286.302 184.996 285.415 184.35 286.006 183.462C286.893 183.3 287.287 183.865 287.582 184.35C288.37 185.642 288.863 186.934 288.961 188.387C289.749 198.636 288.469 208.562 283.254 218.089C280.496 223.09 276.95 227.612 271.926 231.407C267.887 234.47 263.553 237.296 259.219 240.041C258.333 240.525 257.643 241.01 256.96 241.494Z" fill="#491313"/>
<path d="M205.252 156.504C200.628 159.491 196.787 162.958 193.733 167.076C189.596 168.61 185.951 170.951 182.307 173.131C179.943 174.504 177.775 175.952 175.221 177.002C174.63 177.244 174.038 177.244 173.743 176.84C173.447 176.517 173.25 175.872 173.447 175.549C176.107 171.436 179.352 167.641 182.996 164.008C188.217 158.845 195.211 156.988 202.796 155.777C203.682 155.697 204.563 155.858 205.252 156.504Z" fill="#F58D6E"/>
<path d="M55.9562 154.969C58.4188 153.516 60.8814 152.063 63.344 150.609C67.3826 148.268 71.7107 146.33 76.2419 144.882C76.9314 144.64 77.6209 144.397 78.409 144.801C77.8179 145.689 76.8329 145.926 75.8479 146.33C67.6782 149.883 60.9799 154.808 54.5771 160.137C54.1831 160.46 54.0846 160.939 53.8876 161.343H53.9861C53.4935 161.827 53.001 162.15 52.3115 162.312C49.6519 164.25 47.1893 166.349 45.4162 168.932C44.9237 172.162 41.8762 174.342 40.0046 176.921C36.6555 181.765 33.4048 186.69 30.0557 191.53C29.2676 192.741 29.0706 194.759 26.3125 194.194C25.623 193.225 26.214 192.337 26.608 191.53C30.4497 182.169 35.2764 173.212 43.1568 165.541C46.4997 162.312 50.1444 159.41 53.9861 156.584C54.6756 156.1 55.3651 155.535 55.9562 154.969Z" fill="#491313"/>
<path d="M88.2593 258.605C87.9638 259.009 87.5698 259.332 87.3728 259.816C85.6982 264.978 85.0087 265.624 90.6234 269.419C91.5099 269.984 93.3815 270.55 92.3965 271.841C91.8055 272.649 90.2294 272.003 89.1458 272.084C87.6683 271.438 86.0922 270.792 84.7131 270.146C82.4475 269.015 81.2655 267.401 81.167 265.14C81.167 262.965 81.6595 260.866 82.6446 258.766C84.7131 254.568 87.2743 250.612 90.1309 246.822C90.8204 245.934 91.4114 244.965 92.101 243.996C96.2381 239.878 100.271 235.76 104.408 231.728C106.082 230.033 108.053 228.58 109.924 227.046C111.106 226.884 111.599 227.207 111.303 228.176C106.082 233.505 100.665 238.667 96.3367 244.48C93.48 248.275 90.9189 252.226 88.8503 256.425C88.5548 257.071 88.4563 257.878 88.2593 258.605Z" fill="#491313"/>
<path d="M158.868 165.623C163.99 163.766 168.522 161.828 172.856 159.572C174.924 158.442 176.993 157.312 178.563 155.697C179.548 154.728 180.336 153.678 181.124 152.629C182.405 150.691 182.306 148.753 180.73 146.896C179.252 145.125 177.682 143.349 176.205 141.492C175.614 140.684 175.023 139.877 174.629 139.069C174.53 138.908 174.826 138.504 175.023 138.343C175.121 138.262 175.417 138.262 175.515 138.262C179.646 139.958 183.193 142.299 185.655 145.448C187.527 147.865 187.428 150.529 186.049 153.032C184.769 155.535 182.799 157.635 180.139 159.249C174.727 162.474 168.62 164.654 162.119 166.027C161.331 166.269 160.346 166.35 158.868 165.623Z" fill="#491313"/>
<path d="M83.8267 239.314C85.8952 238.506 87.2743 236.972 88.9489 235.68C91.8055 233.425 94.6621 231.083 97.4202 228.822C98.5961 228.661 99.0887 228.984 98.7932 229.953C93.4801 235.438 87.7668 240.525 81.4626 245.288C75.4538 249.805 68.8602 253.761 60.6843 255.376C59.0097 255.134 57.3352 255.457 55.5621 255.618C54.6755 255.699 53.6905 255.618 53.001 254.811C53.001 253.842 54.0845 253.68 54.7741 253.438C57.9262 252.389 61.1768 251.581 64.329 250.451C71.2181 248.114 77.3254 244.723 82.4476 240.282C82.7431 239.798 83.2356 239.394 83.7282 239.071L83.8267 239.314Z" fill="#491313"/>
<path d="M26.3118 194.275C28.1834 193.226 28.6759 191.53 29.7594 190.082C32.6161 185.883 35.3742 181.604 38.2308 177.406C40.2994 174.423 42.4665 171.517 45.4155 169.014C46.2035 168.691 47.09 168.287 47.8781 167.964C48.4691 167.722 49.0601 166.914 49.7497 167.641C50.2422 168.206 49.5526 168.852 49.2571 169.256C47.1885 171.839 44.9229 174.342 42.8605 177.002C37.9353 183.138 33.4041 189.355 29.0699 195.729C28.5774 196.375 27.9864 197.02 27.3953 197.586C27.1983 197.747 26.6073 197.828 26.3118 197.747C26.0163 197.666 25.7208 197.343 25.6223 197.101C25.2282 195.971 26.1148 195.163 26.3118 194.275Z" fill="#EE886A"/>
<path d="M217.367 187.579C218.549 189.275 219.731 190.965 221.012 192.742C220.224 194.356 218.648 195.406 216.973 196.294C213.033 194.437 210.964 191.208 208.206 188.548C210.57 186.853 210.57 186.933 212.442 186.772C214.215 186.53 215.692 187.579 217.367 187.579Z" fill="#F28A6B"/>
<path d="M81.6595 187.74C81.364 186.852 81.9551 186.206 82.6446 185.722C84.9102 184.107 87.1758 182.492 89.5399 180.958C91.313 181.039 92.692 180.07 94.2681 179.586C95.5486 179.182 96.7307 178.859 98.2021 179.505C97.6172 181.12 96.0412 182.008 94.4651 182.734C90.1309 184.511 85.8952 186.126 81.6595 187.74Z" fill="#EF886A"/>
<path d="M149.024 274.022C150.6 273.941 152.071 273.699 153.45 273.053C158.179 273.214 162.71 272.246 167.34 271.438C170.196 271.277 172.954 271.115 175.811 270.954C176.796 270.873 177.584 271.277 177.873 272.165C173.742 272.649 169.704 273.295 165.566 273.699C160.838 274.183 156.209 274.587 151.48 274.91C150.403 274.991 149.516 274.829 149.024 274.022Z" fill="#5D3026"/>
<path d="M111.401 228.096C110.909 227.692 110.514 227.369 110.022 226.965C112.386 224.139 115.637 222.121 118.69 219.86C120.759 218.331 122.828 216.797 124.89 215.263C126.171 214.617 127.451 213.971 128.83 213.325C129.421 213.567 129.421 214.052 129.027 214.375C123.222 218.977 117.311 223.574 111.401 228.096Z" fill="#613328"/>
<path d="M138.189 130.435C130.112 131.318 122.04 132.287 113.963 133.094C112.19 133.256 110.22 133.66 108.053 132.691C110.614 132.206 112.682 131.641 114.948 131.318C118.494 130.839 122.04 130.516 125.58 130.112C126.073 130.031 126.565 129.708 127.058 129.547C129.718 129.547 132.377 129.466 135.037 129.466C136.219 129.547 137.401 129.708 138.189 130.435Z" fill="#75493D"/>
<path d="M115.736 160.859C116.228 160.778 116.721 160.698 117.214 160.622C117.706 162.232 118.297 163.846 118.79 165.542C119.184 166.995 118.199 168.206 117.706 169.579C117.214 170.952 116.13 171.678 115.539 171.275C114.652 170.709 114.751 169.902 114.751 169.175C114.652 166.269 114.455 163.523 115.736 160.859Z" fill="#F28768"/>
<path d="M130.801 163.927C132.574 164.25 134.051 163.523 135.529 162.958C136.317 162.635 137.105 162.151 138.188 162.716C137.597 164.25 136.218 165.138 134.741 166.107C131.786 166.995 129.422 169.014 126.171 169.579C125.284 169.094 125.875 168.449 126.171 167.964C127.254 166.269 129.027 165.057 130.801 163.927Z" fill="#E77E61"/>
<path d="M140.06 238.748C137.597 241.17 134.346 242.704 130.702 243.754C131.293 240.766 133.854 238.909 136.415 237.133C137.991 236.003 139.173 236.407 139.961 238.264C139.961 238.425 139.961 238.587 140.06 238.748Z" fill="#ED8465"/>
<path d="M95.2534 171.839C95.9429 170.709 97.125 169.982 98.4979 169.579C100.665 169.982 103.128 169.417 105.196 170.628C105.689 170.87 106.28 171.113 105.984 171.678C105.787 172.082 105.196 172.243 104.802 172.566C104.704 172.647 104.408 172.727 104.211 172.727C101.749 172.727 99.2859 172.727 96.8295 172.647C96.2385 172.405 95.7459 172.082 95.2534 171.839Z" fill="#ED8567"/>
<path d="M77.8182 202.753C77.8182 202.35 77.7197 201.946 77.7197 201.462C77.5227 200.573 77.3256 199.604 78.1137 198.797V198.878C79.5912 197.99 81.0688 197.021 82.6449 196.213C83.0389 196.052 83.7284 196.213 84.2209 196.375C84.812 196.617 84.812 197.182 84.615 197.586C83.4329 199.927 81.3643 201.704 78.9017 203.076C78.6062 203.157 78.1137 202.915 77.8182 202.753Z" fill="#F58868"/>
<path d="M161.823 229.145C160.542 230.437 159.262 231.648 157.095 231.81C157.095 230.599 157.095 229.388 157.095 228.176C157.095 227.208 157.39 226.319 158.178 225.674C158.671 225.27 159.36 224.705 159.951 224.785C160.936 224.866 161.429 225.593 161.527 226.4C161.724 227.288 161.724 228.176 161.823 229.145Z" fill="#F08668"/>
<path d="M177.676 221.232C177.288 222.039 176.5 222.443 175.515 222.685C173.742 221.959 172.856 220.586 172.363 219.057C172.068 218.25 172.56 217.604 173.348 217.119C174.038 216.716 174.826 216.877 175.417 217.281C177.19 218.169 177.775 219.542 177.676 221.232Z" fill="#F0896A"/>
<path d="M205.35 207.431C202.007 206.946 200.234 205.008 199.052 202.672C198.855 202.188 199.052 201.784 199.544 201.461C200.037 201.138 200.628 201.299 201.12 201.622C203.287 203.157 204.857 205.008 205.35 207.431Z" fill="#F5896A"/>
<path d="M83.9251 239.232C83.8266 239.878 83.3341 240.201 82.6445 240.444C82.743 239.878 83.1371 239.394 83.9251 239.232Z" fill="#F58E6E"/>
<path d="M52.3115 162.312C52.7055 161.747 53.0996 161.262 53.9861 161.343C53.7891 161.989 53.0996 162.15 52.3115 162.312Z" fill="#F58E6E"/>
<path d="M370.505 268.532C369.914 268.451 368.239 268.37 366.565 268.128C365.284 267.967 364.201 266.998 364.398 266.271C364.595 265.383 365.383 264.979 366.269 264.737C367.747 264.414 369.224 264.091 370.702 263.849C375.036 263.047 378.878 261.432 382.523 259.332C387.251 256.668 391.973 254.084 396.8 251.501C397.588 251.097 398.474 250.774 399.361 250.532C399.656 250.451 400.149 250.612 400.346 250.774C400.543 250.935 400.74 251.339 400.641 251.581C400.444 251.985 400.149 252.47 399.853 252.792C396.405 256.345 392.859 259.736 388.827 262.885C384.887 265.948 378.779 268.693 370.505 268.532Z" fill="#491313"/>
<path d="M227.218 291.942C228.301 291.376 229.484 290.892 230.567 290.246C239.82 284.675 249.08 279.023 258.333 273.376C260.894 271.842 263.455 270.147 266.607 269.501C266.41 270.066 266.312 270.712 265.918 271.277C265.228 272.165 264.44 273.134 263.554 273.861C254.3 281.93 245.041 290.004 234.009 296.539C228.597 299.768 222.884 302.594 216.678 304.532C214.708 305.097 212.738 305.662 210.768 306.147C205.448 307.277 200.037 308.241 194.718 309.291C192.846 309.694 190.975 309.694 189.103 309.371C188.61 309.291 188.315 309.129 188.413 308.726C188.512 308.483 188.61 308.16 188.807 307.923C189.103 307.681 189.398 307.6 189.792 307.439C195.21 305.662 200.726 303.805 206.138 302.029C213.427 299.607 220.126 296.458 226.43 292.668C226.824 292.426 227.021 292.184 227.218 291.942Z" fill="#491313"/>
<path d="M178.858 296.538C177.387 296.538 175.712 296.377 174.333 296.7C170.196 297.669 166.059 297.184 161.823 297.346C161.232 297.346 160.641 297.265 160.149 297.104C159.361 296.942 158.77 296.538 158.573 295.893C158.277 295.247 158.77 294.601 159.361 294.278C162.02 293.072 164.68 291.78 167.438 290.892C173.447 289.035 179.548 287.258 185.655 285.563C189.792 284.432 193.93 283.383 198.362 283.06C201.12 282.818 203.977 282.172 206.63 281.607C208.305 281.284 209.98 281.203 211.654 281.445C211.95 281.526 212.344 281.768 212.442 282.01C212.541 282.252 212.541 282.656 212.344 282.898C212.048 283.302 211.654 283.625 211.162 283.867C204.266 287.501 197.377 291.053 189.694 293.47C189.004 293.713 188.413 294.116 187.822 294.358C184.67 294.52 181.912 295.973 178.858 296.538Z" fill="#F15E59"/>
<path d="M170.984 311.632C171.082 312.197 170.688 312.52 170.196 312.682C162.808 315.669 155.124 317.688 146.659 317.123C143.409 316.88 140.355 316.234 137.301 315.427C136.119 315.104 135.331 314.297 135.528 313.812C135.922 313.005 136.809 312.763 137.794 312.601C138.68 312.44 139.665 312.359 140.65 312.359C142.522 312.278 144.394 312.117 146.364 312.117C153.942 312.117 161.527 312.036 169.014 311.228C169.605 311.228 170.393 311.148 170.984 311.632Z" fill="#491313"/>
<path d="M121.449 310.825C121.351 310.905 121.351 311.148 121.252 311.148C119.972 311.955 117.706 311.309 117.214 309.936C117.115 309.775 117.411 309.291 117.706 309.21C118.888 308.806 120.661 309.291 121.449 310.34C121.548 310.502 121.449 310.663 121.449 310.825Z" fill="#491F17"/>
<path d="M243.465 269.016C243.169 269.42 242.874 269.905 242.48 270.066C239.525 271.519 237.259 273.538 234.796 275.556C233.713 276.444 232.334 277.01 230.955 277.494C230.665 277.575 230.173 277.494 229.976 277.333C229.385 277.01 229.483 276.525 229.877 276.122C230.955 275.072 231.94 273.861 233.319 273.053C236.274 271.358 239.426 269.662 243.465 269.016Z" fill="#F15952"/>
<path d="M365.383 85.4773C365.284 86.0424 364.989 86.2847 364.299 86.2847C363.616 86.2847 362.926 85.6387 363.32 85.1543C363.517 84.8313 364.201 84.5891 364.595 84.5891C365.087 84.5891 365.58 84.9928 365.383 85.4773Z" fill="#BFD8CD"/>
<path d="M115.045 157.876C113.174 159.007 111.007 159.491 108.741 159.814C106.673 160.056 104.801 160.778 103.225 161.989C99.4818 164.815 95.5477 167.56 91.7061 170.305C90.8195 170.951 89.933 171.517 89.145 172.162C87.5689 173.454 86.5839 174.988 87.4704 176.76C88.1599 178.213 87.3719 179.182 86.2883 180.07C85.2048 180.958 83.9242 181.685 82.8407 182.492C81.6586 183.461 80.4766 184.511 79.393 185.641C78.211 186.852 78.211 188.225 79.4915 189.436C79.6886 189.678 79.7871 190.001 80.0826 190.319C80.0826 191.772 78.9005 192.822 77.9155 193.952C75.9454 196.294 74.6648 198.797 74.7633 201.784C74.8618 203.56 73.9753 205.412 73.4828 207.269C71.5127 208.804 69.4503 209.611 66.7907 208.319C64.4266 205.493 64.4266 205.493 64.328 201.784C64.6236 200.169 66.4951 199.766 67.8742 199.12C66.6921 199.2 65.4116 199.766 64.328 198.716C64.328 197.666 64.6236 196.536 63.146 195.971C65.4116 192.257 70.6323 193.549 73.9753 191.692C74.7633 191.53 74.1723 190.723 74.3693 191.369C74.3693 191.53 74.2708 191.53 74.0738 191.692C72.5962 192.499 71.3157 192.338 70.1398 191.369C71.1248 190.48 72.1037 189.517 72.9903 188.628C73.7783 187.821 74.4678 186.852 75.1574 186.045C76.1424 184.914 75.3544 184.026 74.6648 183.138C75.2559 182.331 76.8319 182.411 76.9304 181.281C78.999 179.182 81.4616 177.244 82.7422 174.665C83.2347 173.777 84.4168 174.262 85.0078 173.777C85.9928 171.678 88.8495 170.79 89.933 168.771C89.736 167.802 88.7509 168.125 88.1599 168.045C85.9928 167.964 84.1212 167.237 82.1512 166.672C81.6586 166.511 81.1661 166.107 81.3631 165.622C81.4616 165.38 81.8556 165.138 82.1512 165.138C84.4168 165.057 86.6824 164.815 88.8495 165.784C93.3806 167.722 93.5777 167.076 96.6313 164.573C98.0042 163.523 99.1862 162.312 100.467 161.262C99.3833 159.976 97.7148 159.895 96.5328 159.168C96.0403 158.845 95.7448 158.522 95.8433 158.038C95.9418 157.553 96.9268 157.15 97.7148 157.392C99.4818 157.876 101.255 158.442 103.028 159.088C104.308 159.572 105.491 159.653 106.87 159.168C108.741 158.442 111.007 158.522 112.287 156.908C113.765 156.181 114.553 156.827 115.045 157.876Z" fill="#EE543A"/>
<path d="M74.3704 209.288C75.0599 209.772 75.7495 210.418 76.5375 210.822C79.0986 212.033 80.5762 213.486 79.3941 216.07C78.9016 217.2 79.8866 218.169 81.1672 218.734C82.0537 219.057 82.9403 219.3 83.8268 219.537C80.4777 221.232 77.1285 222.928 73.7794 224.543C71.5138 225.592 68.9588 225.269 66.5947 225.027C64.2306 224.704 62.556 222.201 63.4426 220.344C64.2306 218.654 65.4127 217.039 66.2992 215.343C66.5947 214.697 66.0037 214.213 65.4127 213.89C67.3828 210.903 70.5349 209.692 74.3704 209.288Z" fill="#EF5239"/>
<path d="M115.046 157.877C114.159 157.473 113.174 157.15 112.287 156.747C111.401 156.181 110.514 155.616 109.628 154.97C108.544 154.163 108.249 153.355 108.938 153.113C109.923 152.79 110.908 152.79 111.696 153.194C113.272 154.082 114.652 155.132 116.228 156.181C117.311 156.02 118.395 155.939 119.478 155.778C120.365 155.697 121.35 155.858 122.138 155.212C122.729 153.921 121.153 153.355 120.857 152.306C120.759 152.064 120.759 151.579 120.956 151.498C121.35 151.256 122.039 151.014 122.433 151.095C123.123 151.256 123.812 151.579 124.397 151.902C125.284 152.467 125.973 153.275 126.86 153.84C128.633 155.132 129.815 154.809 130.997 152.71C134.839 153.921 135.233 157.473 137.695 159.572C136.513 160.057 135.43 160.622 134.248 161.101C133.558 161.344 132.77 161.263 132.376 160.541C131.884 159.734 131.588 158.765 130.308 158.523C128.929 158.281 127.648 158.442 126.466 158.927C125.481 159.33 124.496 159.895 123.615 160.299C123.123 160.218 122.63 160.218 122.433 159.976C120.66 157.796 118.099 157.231 115.046 157.877Z" fill="#EB5C40"/>
<path d="M74.3693 209.288C71.6112 211.064 68.5637 212.437 65.4116 213.809C63.934 214.132 62.4565 214.455 61.0774 214.697C60.7819 214.778 60.2894 214.536 60.1909 214.294C59.9939 214.051 60.0924 213.648 60.2894 213.405C60.7819 212.759 61.3729 212.114 62.0625 211.629C63.6385 210.499 65.3131 209.449 66.8892 208.399C69.1548 208.077 71.3157 207.754 73.5813 207.35C73.6798 207.996 73.9753 208.642 74.3693 209.288Z" fill="#F4896A"/>
<path d="M137.696 159.653C136.12 159.491 134.938 158.765 134.249 157.634C133.264 156.02 132.081 154.405 130.998 152.871C130.998 152.305 130.998 151.74 130.899 151.175C131.096 150.771 131.49 150.448 131.983 150.206C133.953 150.045 135.135 151.014 136.12 152.063C137.204 153.113 137.992 154.243 139.075 155.454C138.583 156.665 138.78 158.038 138.878 159.411C138.583 159.491 138.09 159.572 137.696 159.653Z" fill="#F58A6B"/>
<path d="M64.2301 198.797C65.6092 198.555 67.0868 198.232 68.5643 197.99C69.2538 197.909 70.0419 197.828 70.6329 198.555C69.0568 200.331 66.2002 200.493 64.2301 201.784H63.7376L63.2451 201.865C62.7526 202.027 62.3585 202.269 61.9645 202.511C60.5855 202.834 59.1079 203.238 57.7288 203.48C57.2363 203.561 56.4483 203.48 56.2513 203.238C55.7588 202.592 56.5468 202.188 56.9408 201.784C58.2214 200.654 59.9944 200.008 61.669 199.443C62.5556 199.281 63.4421 199.039 64.2301 198.797Z" fill="#F58466"/>
<path d="M70.0422 191.369C71.6121 191.611 73.3852 191.046 74.8628 191.773C74.7643 192.5 74.2717 192.903 73.4837 193.065C70.4362 193.711 67.5796 195.002 64.4275 195.245C63.9349 195.245 63.5409 195.729 63.0484 195.971C62.6544 195.971 62.2604 195.971 61.9649 195.81C61.1768 195.487 60.8813 194.841 61.2753 194.357C62.2604 193.307 63.6394 192.742 65.0185 192.338C66.6931 192.015 68.3676 191.692 70.0422 191.369Z" fill="#F58768"/>
<path d="M76.8326 181.201C77.5222 181.685 78.1132 182.25 78.7042 182.735C78.8027 182.815 78.4087 183.381 78.3102 183.381C77.0296 183.3 75.8476 183.138 74.567 183.058C70.9285 182.412 68.4659 181.201 69.5495 180.555C71.5134 179.424 73.385 180.07 75.2566 180.797C75.7491 181.039 76.2416 181.12 76.8326 181.201Z" fill="#F58668"/>
<path d="M84.9105 173.697C84.3195 174.343 83.433 174.423 82.6449 174.585C81.1674 174.504 79.5913 174.585 78.2122 174.423C76.9317 174.262 75.7496 173.858 74.5676 173.454C74.1736 173.293 74.0751 172.728 73.9766 172.324C73.9766 172.163 74.4691 171.84 74.7646 171.84C76.2422 171.597 77.7197 171.678 79.1973 172.163C80.9704 172.647 82.9405 173.212 84.9105 173.697Z" fill="#F58566"/>
<path d="M131.983 150.207C131.589 150.53 131.293 150.852 130.899 151.175C130.998 150.61 131.293 150.287 131.983 150.207Z" fill="#EB5C40"/>
<path d="M61.9639 202.592C62.2594 202.188 62.6534 201.865 63.2444 201.946C62.8504 202.107 62.4564 202.35 61.9639 202.592Z" fill="#EE543A"/>
<path d="M98.7933 230.034C98.3008 229.63 97.9068 229.226 97.4204 228.903C99.5813 226.804 101.847 224.705 104.014 222.606C107.462 219.381 110.909 216.071 114.455 212.841C115.539 211.872 116.426 210.58 118.199 210.177V210.096C118.1 210.5 118.1 211.065 117.805 211.388C111.796 217.443 105.787 223.413 99.7784 229.469C99.5813 229.711 99.1873 229.872 98.7933 230.034Z" fill="#5C3D34"/>
<path d="M119.38 209.288C119.38 208.885 119.479 208.723 119.873 208.804C119.873 208.804 119.873 209.046 119.774 209.127C119.676 209.127 119.479 209.127 119.38 209.288Z" fill="#5C3D34"/>
<path d="M118.198 210.176C118.198 209.53 118.592 209.207 119.38 209.288L119.282 209.207C119.282 209.772 118.986 210.176 118.198 210.176Z" fill="#5C3D34"/>
<path d="M236.274 174.423C243.761 174.908 250.065 177.567 255.483 181.846C257.742 183.623 258.333 185.803 257.742 188.306C257.643 188.952 257.354 189.517 257.059 190.077C255.581 192.903 255.187 195.729 255.384 198.797C255.581 201.704 254.3 204.287 251.936 206.543C250.853 207.593 249.572 208.562 248.292 209.53C243.465 213.083 238.835 216.797 235.191 221.233C231.94 225.028 228.006 228.015 222.687 229.872C220.815 230.518 218.944 231.406 217.072 232.213C212.935 233.909 209.093 235.922 205.843 238.587C201.712 241.978 196.786 244.32 191.172 245.611C186.148 246.822 181.715 248.841 177.486 251.339C175.22 252.711 172.757 253.923 170.295 255.053C166.552 256.749 162.414 257.475 158.277 257.879C154.436 258.283 150.797 259.171 147.349 260.463C143.508 261.916 139.568 262.885 135.233 262.966C130.21 263.127 125.482 263.929 120.858 265.786C119.873 266.19 118.691 266.432 117.607 266.755C111.894 268.128 106.87 265.141 106.575 260.22C106.378 258.121 107.067 256.183 107.658 254.246C108.84 250.531 111.106 247.307 113.963 244.4C114.455 243.916 115.046 243.593 115.637 243.189C116.327 242.785 117.804 242.947 118.297 243.512C119.282 244.481 120.168 245.531 120.956 246.5C122.336 248.195 124.306 248.922 126.861 248.68C128.831 248.195 130.801 247.468 132.869 247.953C135.923 250.209 138.189 253.438 142.917 253.68C141.538 251.823 138.78 250.693 137.795 248.518C139.765 242.301 147.448 238.425 154.633 240.121C157.391 240.767 159.853 240.525 162.414 239.879C163.005 239.798 163.498 239.879 164.089 239.96C164.582 240.04 165.173 240.202 165.665 240.363C170.098 242.059 175.319 241.978 179.745 243.754C176.008 242.14 171.674 241.574 168.029 239.717C167.143 238.668 167.34 237.537 168.226 236.73C172.56 232.859 176.599 228.661 181.321 225.108C183.587 223.493 186.64 222.767 189.201 224.382C191.763 225.916 194.127 225.431 196.688 225.028C201.022 226.804 205.646 227.773 210.669 227.934C208.01 225.028 202.598 225.593 200.825 222.121C201.909 219.058 204.365 216.636 206.237 213.971C208.108 211.387 211.26 210.015 214.905 210.257C220.717 210.58 226.627 209.45 232.433 210.984C233.221 210.984 232.63 210.176 232.63 210.742C232.728 211.468 227.612 210.096 227.021 209.127C225.543 206.704 226.134 204.61 229.09 203.157C232.137 202.269 235.388 202.915 238.638 202.511C237.259 202.027 235.782 202.027 234.501 201.542C228.302 197.99 227.809 188.952 233.516 185.399C238.244 184.349 243.268 184.672 247.405 183.219C243.367 183.3 239.032 184.107 234.6 184.915C231.546 185.722 229.484 184.349 227.513 182.896C223.77 180.07 224.657 176.275 229.582 174.989C232.137 174.423 234.206 173.697 236.274 174.423Z" fill="#EE2725"/>
<path d="M197.082 225.189C195.9 225.915 194.718 226.642 193.338 227.53C191.664 227.207 190.876 225.835 189.595 225.027C188.315 224.139 186.837 224.058 185.36 224.462C183.39 225.027 181.518 225.915 180.336 227.369C177.578 230.921 173.644 233.667 170.098 236.649C169.31 237.376 168.62 238.102 168.719 239.071C167.536 240.524 165.763 240.04 164.089 240.121C163.399 240.363 162.71 240.686 162.119 241.009C159.656 242.22 157.194 242.381 154.632 241.009C152.465 239.879 150.501 240.121 148.236 241.009C144.493 242.381 141.735 244.723 139.272 247.226C138.976 247.549 139.075 248.114 138.976 248.599C137.499 249.32 136.021 249.239 134.544 248.679C132.081 248.679 129.717 248.679 127.254 248.599C129.126 247.63 130.998 246.499 133.066 245.611C137.302 243.754 141.242 241.574 144.591 238.748C144.985 238.425 145.379 238.102 145.773 237.779C148.236 235.841 150.988 234.63 154.435 234.792C157.489 234.873 160.05 233.99 162.217 232.375C164.68 230.598 167.536 229.307 170.393 228.095C172.068 227.369 173.742 226.642 175.417 225.835C178.267 224.543 180.73 222.847 182.404 220.506C184.178 218.089 186.64 216.555 190.186 216.393C191.664 216.312 193.141 215.989 194.718 215.747C197.968 215.343 200.923 214.375 203.386 212.437C205.153 210.983 207.221 209.853 209.487 209.046C212.541 207.835 214.806 206.139 215.693 203.318C216.382 200.977 218.155 199.12 220.421 197.586C221.209 197.101 221.899 196.617 222.588 196.052C225.445 193.791 225.051 192.257 223.672 190.238C223.376 189.84 223.179 189.436 222.785 189.032C221.308 187.337 221.11 185.641 222.588 183.865C222.785 183.623 222.884 183.3 223.081 182.977C223.869 181.523 223.475 180.151 221.997 179.182C221.012 178.455 219.83 177.89 218.746 177.325C217.663 176.76 216.481 176.356 215.102 175.791C218.451 174.262 221.899 173.939 225.248 173.616C228.104 173.373 230.955 173.616 233.811 173.616C234.796 173.616 235.683 173.858 236.471 174.342C233.91 174.746 231.349 175.468 229.089 176.437C226.725 177.486 226.43 180.07 228.597 181.443C229.877 182.331 231.25 183.138 232.629 183.945C233.614 184.511 234.402 183.945 235.289 183.784C235.88 184.43 235.88 184.995 235.19 185.641C232.432 186.691 231.25 188.548 231.841 190.965C232.137 192.337 233.023 193.549 232.925 195.083C232.826 196.294 232.925 197.586 232.925 198.312C233.811 199.927 235.683 199.604 236.373 200.573C235.092 202.269 231.743 201.3 230.764 203.318C228.104 204.287 228.104 206.139 228.597 208.238C229.877 209.369 232.038 209.369 233.516 210.257C233.91 210.499 234.402 210.983 234.402 211.306C234.402 211.791 233.614 211.872 233.122 211.791C232.728 211.71 232.334 211.629 232.038 211.549C229.483 210.661 226.725 210.741 224.164 211.145C222.194 211.468 220.519 211.387 218.648 211.064C216.973 210.822 215.2 210.822 213.526 211.145C210.866 211.71 208.699 212.921 207.517 215.182C206.236 217.846 204.174 220.021 202.007 222.201C200.431 223.574 198.756 224.381 197.082 225.189Z" fill="#F05239"/>
<path d="M229.09 253.599C227.612 255.214 225.544 255.618 223.672 256.344C214.216 259.655 205.843 261.996 202.303 262.238C204.956 260.624 222.982 254.245 227.218 253.357C227.711 253.195 228.302 253.438 229.09 253.599Z" fill="#563931"/>
<path d="M277.443 218.654C277.049 220.668 275.67 222.283 273.799 223.655C274.193 221.556 274.882 219.618 277.443 218.654Z" fill="#F05239"/>
<path d="M278.723 216.797C278.723 217.604 278.526 218.411 277.443 218.734C277.246 217.846 277.443 217.12 278.723 216.797Z" fill="#F05239"/>
<path d="M279.511 215.667C279.511 216.232 279.314 216.717 278.625 216.878C278.526 216.313 278.92 215.909 279.511 215.667Z" fill="#F05239"/>
<path d="M78.1135 198.878C78.015 199.766 77.818 200.654 77.7194 201.542C76.8329 200.492 77.0299 199.685 78.1135 198.878Z" fill="#F05239"/>
<path d="M102.143 197.909C102.044 198.716 101.847 199.443 100.96 199.847C101.059 199.12 101.157 198.313 102.143 197.909Z" fill="#F05239"/>
<path d="M101.059 199.847C100.664 200.17 100.27 200.493 99.8765 200.816C100.172 200.493 100.566 200.17 101.059 199.847Z" fill="#F05239"/>
<path d="M97.5181 203.561C98.2999 203.884 98.3984 204.287 97.5181 204.61C97.5181 204.206 97.5181 203.884 97.5181 203.561Z" fill="#F05239"/>
<path d="M22.5693 215.263C22.8648 215.747 23.2588 215.99 23.2588 216.232C23.3573 218.735 23.3573 221.233 23.2588 223.736C23.2588 224.624 23.3573 225.593 22.4708 226.4C22.2738 226.239 21.9783 225.996 21.9783 225.835C21.8798 223.655 21.7812 221.475 21.7812 219.3C21.8798 218.089 21.5842 216.797 22.5693 215.263Z" fill="#44312C"/>
<path d="M197.082 225.189C197.969 222.686 197.969 222.686 201.712 222.363C205.449 223.493 209.192 224.543 212.246 226.723C212.935 227.207 213.723 227.773 213.329 228.742C209.093 229.468 205.153 228.176 201.121 227.611C199.446 227.369 198.067 226.4 197.082 225.189Z" fill="#F5886A"/>
<path d="M163.399 249.482C163.498 249.886 163.301 250.128 162.907 250.209C162.71 250.209 162.513 250.37 162.414 250.289C158.769 249.563 155.125 248.841 151.48 248.034C150.6 247.872 149.812 247.307 149.122 246.823C148.334 246.338 147.94 245.612 148.137 244.804C148.236 244.158 149.221 243.835 150.403 243.755C152.367 243.674 154.14 244.239 155.814 244.966C158.277 246.015 160.641 247.388 163.005 248.68C163.104 248.841 163.301 249.24 163.399 249.482Z" fill="#F58769"/>
<path d="M134.347 248.598C135.825 247.629 137.302 248.033 138.78 248.517C141.735 249.966 144 252.065 146.168 254.245C146.463 254.487 146.463 255.133 146.266 255.456C145.971 255.941 145.281 255.779 144.789 255.618C142.326 254.81 139.863 254.003 137.499 253.034C135.234 252.227 133.953 250.773 134.347 248.598Z" fill="#F58869"/>
<path d="M183.489 232.697C188.02 232.697 191.862 234.469 195.802 236.003C196.097 236.083 196.294 236.487 196.294 236.81C196.294 236.972 195.9 237.295 195.605 237.295C194.817 237.375 194.029 237.375 193.339 237.214C190.975 236.649 188.512 236.406 186.05 236.406C184.08 236.406 182.307 235.761 180.928 234.63C180.632 234.307 180.337 233.747 180.534 233.424C180.632 233.101 181.322 232.859 181.814 232.778C182.307 232.617 182.898 232.697 183.489 232.697Z" fill="#F58769"/>
<path d="M234.994 185.802C234.994 185.156 235.093 184.591 235.093 183.945C240.018 181.927 245.239 181.927 250.558 182.169C250.853 182.169 251.247 182.492 251.247 182.653C251.247 182.896 251.149 183.38 250.853 183.461C245.731 185.076 240.609 186.529 234.994 185.802Z" fill="#F58566"/>
<path d="M163.99 240.121C164.483 239.395 165.369 239.153 166.354 239.153C167.142 239.153 167.832 239.072 168.62 239.072C174.924 240.202 177.775 241.171 181.321 243.513C180.139 244.239 178.76 243.997 177.676 243.755C173.545 242.947 169.014 243.028 165.172 241.09C164.778 240.767 164.384 240.444 163.99 240.121Z" fill="#F58768"/>
<path d="M226.134 219.38C223.08 219.698 219.928 219.618 216.776 219.38C215.298 219.3 213.821 218.734 212.934 217.604C212.737 217.362 212.639 217.039 212.639 216.716C212.639 216.151 213.131 215.828 213.624 215.747C218.352 215.182 222.489 216.151 226.232 218.573C226.232 218.734 226.134 218.977 226.134 219.38Z" fill="#F5886A"/>
<path d="M244.647 190.481C245.041 190.481 246.026 190.481 246.913 190.561C247.208 190.561 247.602 190.804 247.701 191.046C247.799 191.288 247.602 191.773 247.405 191.853C243.465 192.903 239.82 194.921 235.388 194.276C234.895 194.195 234.206 194.033 234.206 193.468C234.206 193.064 234.501 192.58 234.797 192.257C234.994 192.015 235.388 191.853 235.683 191.692C237.85 191.046 239.919 190.4 242.283 190.481C242.874 190.481 243.465 190.481 244.647 190.481Z" fill="#F5886A"/>
<path d="M230.469 203.48C230.174 203.076 229.779 202.753 229.582 202.269C229.287 201.542 229.681 200.896 230.469 200.896C232.334 200.815 234.206 200.735 236.078 200.654C238.54 200.654 240.904 201.219 243.17 202.026C243.367 202.107 243.564 202.511 243.564 202.753C243.465 202.995 243.17 203.318 242.874 203.318C238.737 203.722 234.6 203.803 230.469 203.48Z" fill="#F58A6B"/>
<path d="M122.828 250.935C123.419 251.096 124.01 251.177 124.398 251.419C127.057 253.034 128.83 255.214 130.209 257.636C130.308 257.798 130.111 258.282 129.914 258.444C129.717 258.605 129.126 258.767 128.929 258.686C126.86 257.636 124.693 256.587 122.729 255.376C121.35 254.568 121.153 253.276 121.646 251.984C121.941 251.661 122.434 251.339 122.828 250.935Z" fill="#F58869"/>
<path d="M163.99 240.121C164.384 240.444 164.778 240.767 165.172 241.09C164.581 240.928 164.187 240.686 163.99 240.121Z" fill="#F05239"/>
</svg>
