<svg width="90" height="76" viewBox="0 0 90 76" fill="none" xmlns="http://www.w3.org/2000/svg">
<g clip-path="url(#clip0_302_23031)">
<g filter="url(#filter0_d_302_23031)">
<path d="M63.1401 17.6153C79.9375 47.1774 38.5085 82.0544 4.41585 81.9823C-27.5566 81.9147 -64.3753 45.2013 -54.3084 25.1389C-44.2416 5.07646 -26.9082 9.06827 -7.329 5.91256C20.2125 1.47352 49.3941 -6.57654 63.1401 17.6153Z" fill="#2BCB9A"/>
</g>
<path d="M18.2306 72.4668C4.8309 78.5828 -8.6471 76.968 -20.231 70.6526C-31.8203 64.3343 -41.5098 53.3111 -47.2983 40.6288C-50.1903 34.2927 -50.3661 29.9654 -48.6832 26.8251C-46.9935 23.6722 -43.3893 21.6321 -38.506 19.9804C-34.9134 18.7652 -30.6713 17.773 -26.0591 16.6941C-24.4082 16.308 -22.7099 15.9107 -20.977 15.4882C-14.413 13.8877 -7.37283 11.9285 -0.610688 8.84203C6.02039 5.81542 11.3483 2.99522 15.8826 0.595139L16.1212 0.468855C20.7109 -1.96045 24.4756 -3.94384 27.9721 -5.27088C31.463 -6.5958 34.6759 -7.2619 38.1561 -7.06001C41.6387 -6.85799 45.4069 -5.78579 50.0056 -3.60757C57.2313 -0.18509 60.536 5.4782 61.0278 12.2561C61.5211 19.0536 59.1842 26.9848 55.0796 34.8957C46.8691 50.7196 31.65 66.3418 18.2306 72.4668Z" stroke="#FFFEFF" stroke-opacity="0.16" stroke-width="0.496735"/>
<path d="M16.6174 66.8102C-7.20498 77.6834 -30.7154 62.4665 -40.3884 41.2736C-42.8011 35.9875 -42.863 32.3519 -41.3252 29.6782C-39.7772 26.9869 -36.5673 25.1904 -32.2331 23.6945C-29.0455 22.5943 -25.2909 21.6692 -21.2079 20.6633C-19.7462 20.3031 -18.2425 19.9326 -16.7076 19.54C-10.8949 18.0532 -4.65487 16.2532 1.36356 13.5062C7.23691 10.8255 11.9701 8.34737 16.0004 6.23729L16.27 6.09616C20.3622 3.95384 23.7182 2.20651 26.8241 1.01745C29.925 -0.169688 32.7661 -0.795876 35.8225 -0.699263C38.8806 -0.602602 42.1712 0.218154 46.1695 1.94906C49.3188 3.31247 51.5819 5.16851 53.0955 7.38661C54.6092 9.60512 55.3826 12.1998 55.5302 15.0547C55.8258 20.7727 53.6095 27.5171 49.8327 34.2892C42.279 47.8333 28.5559 61.3611 16.6174 66.8102Z" stroke="#FFFEFF" stroke-opacity="0.16" stroke-width="0.496735"/>
<path d="M15.4781 61.265C-4.73663 70.4915 -24.2759 58.4568 -32.0833 41.3515C-34.0291 37.0883 -34.0201 34.1445 -32.6941 31.9579C-31.3553 29.7502 -28.6331 28.2381 -24.9598 26.9514C-22.2594 26.0055 -19.0848 25.1937 -15.631 24.3104C-14.3942 23.9941 -13.1216 23.6687 -11.8222 23.3247C-6.90334 22.0224 -1.61849 20.4578 3.49474 18.124C8.48329 15.8471 12.5084 13.753 15.9352 11.9702L16.1646 11.8509C19.6445 10.0407 22.4965 8.56481 25.129 7.54792C27.7569 6.5328 30.1555 5.97947 32.723 6.01095C35.2916 6.04244 38.0455 6.65946 41.3824 8.00756C44.0072 9.06801 45.8756 10.541 47.1087 12.3157C48.342 14.0907 48.9508 16.1833 49.0307 18.5004C49.1908 23.144 47.2253 28.6686 43.9409 34.247C37.3732 45.402 25.6112 56.6399 15.4781 61.265Z" stroke="#FFFEFF" stroke-opacity="0.16" stroke-width="0.496735"/>
<path d="M14.3393 55.7217C-2.27331 63.3042 -17.8386 54.4434 -23.7777 41.4314C-25.2555 38.1935 -25.1774 35.9424 -24.0642 34.2419C-22.9342 32.5157 -20.6983 31.2878 -17.6856 30.2102C-15.4722 29.4185 -12.8772 28.7198 -10.0525 27.9592C-9.04063 27.6868 -7.99929 27.4064 -6.93548 27.111C-2.91055 25.9932 1.4188 24.6641 5.62641 22.7437C9.73003 20.8706 13.0469 19.1607 15.8703 17.7052L16.0594 17.6077C18.9269 16.1296 21.2752 14.9251 23.4346 14.0802C25.5899 13.237 27.5469 12.7564 29.6262 12.723C31.706 12.6896 33.9234 13.1034 36.5988 14.069C38.6994 14.8271 40.1717 15.9174 41.1233 17.2478C42.0747 18.578 42.519 20.1669 42.5316 21.9456C42.557 25.5142 40.8435 29.819 38.0512 34.2045C32.4695 42.971 22.6681 51.9202 14.3393 55.7217Z" stroke="#FFFEFF" stroke-opacity="0.16" stroke-width="0.496735"/>
</g>
<defs>
<filter id="filter0_d_302_23031" x="-56" y="0.982422" width="123" height="85" filterUnits="userSpaceOnUse" color-interpolation-filters="sRGB">
<feFlood flood-opacity="0" result="BackgroundImageFix"/>
<feColorMatrix in="SourceAlpha" type="matrix" values="0 0 0 0 0 0 0 0 0 0 0 0 0 0 0 0 0 0 127 0" result="hardAlpha"/>
<feOffset dy="4"/>
<feComposite in2="hardAlpha" operator="out"/>
<feColorMatrix type="matrix" values="0 0 0 0 0.172549 0 0 0 0 0.678431 0 0 0 0 0.52549 0 0 0 1 0"/>
<feBlend mode="normal" in2="BackgroundImageFix" result="effect1_dropShadow_302_23031"/>
<feBlend mode="normal" in="SourceGraphic" in2="effect1_dropShadow_302_23031" result="shape"/>
</filter>
<clipPath id="clip0_302_23031">
<rect width="145.978" height="74.0978" fill="white" transform="translate(-56 0.982422)"/>
</clipPath>
</defs>
</svg>
