<svg width="68" height="65" viewBox="0 0 68 65" fill="none" xmlns="http://www.w3.org/2000/svg">
<path d="M40.0508 7.83095C41.2495 8.2839 42.3945 8.80461 43.4856 9.3931C43.6033 9.45682 43.7186 9.52343 43.8317 9.5883C43.9901 9.67808 43.8417 9.5883 43.814 9.57671L43.9747 9.67286C44.1877 9.80319 44.3984 9.93351 44.6029 10.0638C44.7652 10.1687 44.9243 10.277 45.0804 10.3876C45.1789 10.4583 45.2704 10.5353 45.3657 10.6095C45.4019 10.6367 45.4811 10.7305 45.355 10.5938C45.4019 10.6442 45.4503 10.6952 45.4949 10.7485C45.5695 10.8359 45.6287 10.9269 45.6925 11.0195C45.7217 11.0613 45.744 11.1493 45.6802 10.9946C45.701 11.0427 45.7271 11.0896 45.7479 11.1377C45.784 11.2234 45.8148 11.3103 45.8394 11.3984C45.8394 11.4099 45.8809 11.6051 45.8602 11.4684C45.8394 11.3317 45.8602 11.5466 45.8602 11.5715C45.8663 11.6619 45.8663 11.7528 45.8602 11.8438C45.8602 11.8554 45.8478 12.0529 45.8602 11.9162C45.8725 11.7795 45.8463 11.9724 45.8425 11.988C45.8186 12.076 45.7886 12.1629 45.7525 12.2487C45.7317 12.2967 45.7094 12.3448 45.6871 12.3929C45.5987 12.5817 45.7909 12.2469 45.6648 12.4253C45.601 12.5168 45.5364 12.6078 45.4603 12.6952L45.3657 12.7989C45.4811 12.6692 45.4157 12.7537 45.3773 12.785C45.2996 12.8487 45.2219 12.9148 45.142 12.9762L44.566 13.4175L43.2327 14.4381C42.8382 14.7405 42.802 15.2861 43.2327 15.5826C43.2834 15.6197 43.338 15.6521 43.3972 15.6811C43.4564 15.7101 43.5179 15.7344 43.5833 15.7541C43.6487 15.7744 43.7156 15.7894 43.7848 15.7993C43.854 15.8091 43.9239 15.8143 43.9939 15.8143C44.0639 15.8143 44.1339 15.8091 44.2031 15.7993C44.2723 15.7894 44.3392 15.7744 44.4045 15.7541C44.4699 15.7344 44.5314 15.7101 44.5906 15.6811C44.6498 15.6521 44.7044 15.6197 44.7552 15.5826L46.007 14.6235C46.543 14.2134 47.1258 13.8131 47.4857 13.2976C47.6456 13.0682 47.7702 12.8279 47.8579 12.5771C47.9455 12.3263 47.9948 12.0708 48.0063 11.8113C48.017 11.5524 47.9894 11.2953 47.9232 11.041C47.8571 10.7861 47.7541 10.5405 47.6141 10.3031C47.142 9.48809 46.1785 8.91293 45.2665 8.38005C43.9716 7.63285 42.5944 6.98413 41.135 6.43387C40.6352 6.24099 39.9469 6.32208 39.6647 6.72406C39.4056 7.09244 39.514 7.62648 40.0508 7.83095Z" fill="#52A386"/>
<path d="M39.4197 5.76003C39.4881 5.78146 39.5527 5.8081 39.6142 5.83938C39.6765 5.87066 39.7334 5.90657 39.7857 5.94596C39.838 5.98592 39.8849 6.02879 39.9256 6.0757C39.9664 6.12204 40.001 6.17127 40.0294 6.2234C40.0579 6.27495 40.0794 6.32824 40.0933 6.38327C40.1079 6.43829 40.1148 6.4939 40.1148 6.5495C40.1148 6.60569 40.1071 6.66071 40.0925 6.71574C40.0779 6.77077 40.0564 6.82405 40.0279 6.8756C40.001 6.93179 39.9664 6.98508 39.9241 7.03605C39.8826 7.08702 39.8349 7.13452 39.7803 7.17796C39.7257 7.22198 39.6665 7.26079 39.6019 7.29554C39.5366 7.33029 39.4681 7.35983 39.3958 7.38416C39.3228 7.40849 39.2474 7.42702 39.1705 7.43976C39.0929 7.45251 39.0144 7.46004 38.9345 7.46062C38.8553 7.46177 38.7761 7.45714 38.6984 7.44614C38.62 7.43513 38.5438 7.41891 38.47 7.39632C38.397 7.37431 38.3262 7.34651 38.2601 7.31349C38.194 7.28106 38.1325 7.24341 38.0763 7.20113C38.0194 7.15884 37.9694 7.11308 37.9248 7.06327C37.881 7.01346 37.8441 6.96133 37.8141 6.90572C37.7834 6.85012 37.7611 6.79336 37.7464 6.73427C37.7311 6.67577 37.7241 6.61669 37.7249 6.55645C37.7257 6.4968 37.7349 6.43771 37.7511 6.37921C37.768 6.32071 37.7926 6.26395 37.8241 6.20892C37.8556 6.15448 37.8941 6.10235 37.9402 6.05369C37.9856 6.00446 38.0371 5.95928 38.0948 5.91815C38.1524 5.87703 38.2147 5.84054 38.2824 5.80868C38.3493 5.77682 38.4208 5.75018 38.4946 5.72933C38.5692 5.70848 38.6453 5.69284 38.7238 5.68357C38.8022 5.67372 38.8814 5.67025 38.9606 5.67257C39.0406 5.67546 39.1182 5.68357 39.1959 5.69747C39.2728 5.71195 39.3474 5.73165 39.4197 5.75713V5.76003Z" fill="#52A386"/>
<path d="M41.481 5.59027C41.5349 5.63023 41.5825 5.67425 41.6241 5.72233C41.6656 5.7704 41.7002 5.8208 41.7271 5.87408C41.7548 5.92737 41.7748 5.98182 41.7871 6.03858C41.7994 6.09477 41.804 6.15153 41.8002 6.20887C41.7971 6.26564 41.7855 6.32182 41.7663 6.37743C41.7471 6.43245 41.721 6.48574 41.6871 6.53729C41.6533 6.58826 41.6125 6.63634 41.5656 6.68094C41.518 6.72554 41.4649 6.76608 41.4065 6.80257C41.348 6.83906 41.2857 6.87092 41.2181 6.89756C41.1512 6.92363 41.0812 6.94506 41.0081 6.9607C40.9351 6.97576 40.8605 6.98561 40.7844 6.98966C40.709 6.99314 40.6337 6.9914 40.5583 6.98329C40.483 6.97518 40.4099 6.96128 40.3384 6.94159C40.2669 6.92189 40.1992 6.89699 40.1346 6.86687C40.07 6.83675 40.0108 6.80141 39.9562 6.76203C39.9016 6.72264 39.8524 6.67862 39.8101 6.6317C39.3934 6.25289 39.428 5.71248 39.8893 5.42461C39.9493 5.39101 40.0124 5.36205 40.0793 5.33715C40.1469 5.31282 40.2161 5.29371 40.2884 5.2798C40.3607 5.26532 40.4337 5.25664 40.5083 5.25316C40.5829 5.25026 40.6567 5.25258 40.7306 5.26011C40.8044 5.26764 40.8767 5.28038 40.9474 5.29892C41.0174 5.31745 41.085 5.34062 41.1496 5.369C41.2135 5.39739 41.2734 5.42982 41.3296 5.46747C41.3857 5.50454 41.4357 5.54509 41.481 5.59027Z" fill="#52A386"/>
<path d="M39.0006 7.06268C38.4716 7.35287 38.3278 7.88286 38.6807 8.24719C39.0337 8.6121 39.748 8.67465 40.2755 8.38562C40.803 8.09659 40.9483 7.56545 40.5954 7.20054C40.2424 6.83621 39.5319 6.77365 39.0006 7.06268Z" fill="#52A386"/>
<path d="M66.4596 43.8079C66.0144 42.7351 65.4554 41.6972 64.7818 40.6946C64.2712 39.9462 63.6884 39.071 62.8133 38.5283C62.5503 38.3626 62.2666 38.2207 61.9613 38.1026C61.656 37.9844 61.3377 37.8935 61.0055 37.8292C60.6733 37.7654 60.3358 37.7295 59.9928 37.722C59.6499 37.7151 59.31 37.7359 58.9739 37.7863C58.1504 37.9033 57.486 38.2392 56.8186 38.5931L55.0892 39.5048C54.6294 39.7481 54.3695 40.2231 54.7032 40.6129C54.9977 40.9564 55.6821 41.1631 56.1734 40.9031L57.5414 40.1791C58.0274 39.9184 58.5049 39.6323 59.0447 39.4394C58.7886 39.5309 59.1654 39.4133 59.24 39.3977C59.3146 39.382 59.5414 39.3108 59.626 39.3317C59.6137 39.3317 59.3592 39.3485 59.5737 39.338C59.6383 39.338 59.7037 39.3299 59.769 39.3288C59.9128 39.3288 60.0528 39.3288 60.1966 39.3369C60.4472 39.3444 60.0236 39.2975 60.1812 39.3369C60.2419 39.3508 60.3104 39.3537 60.3711 39.3641C60.4857 39.3838 60.598 39.4081 60.7087 39.4371C60.7725 39.4487 60.8333 39.4655 60.8917 39.4875C60.6895 39.3942 60.7971 39.455 60.8486 39.477C60.987 39.5344 61.1255 39.5882 61.2585 39.6543L61.3869 39.7232C61.1877 39.6155 61.3385 39.696 61.3869 39.7232C61.4784 39.7834 61.5645 39.8472 61.646 39.9149C61.6768 39.941 61.8483 40.102 61.6876 39.9422C61.7222 39.9757 61.7529 40.0099 61.7844 40.0435C61.8567 40.1217 61.9244 40.2011 61.9936 40.2804C62.2635 40.5955 62.5126 40.9199 62.7495 41.2506C63.064 41.6926 63.3523 42.1438 63.6145 42.6048C63.5246 42.4444 63.6507 42.6761 63.6576 42.6894C63.6976 42.7612 63.736 42.833 63.7714 42.9043C63.8421 43.034 63.9114 43.1759 63.9775 43.3126C64.1236 43.6156 64.262 43.922 64.3927 44.2307C64.5657 44.6333 65.1486 44.9339 65.7153 44.796C66.2451 44.6732 66.6427 44.2411 66.4596 43.8079Z" fill="#52A386"/>
<path d="M67.0316 45.1198C67.007 45.0706 66.9763 45.0231 66.9386 44.9785C66.9017 44.9333 66.8594 44.8916 66.8117 44.8528C66.764 44.814 66.7118 44.7786 66.6549 44.7479C66.598 44.7166 66.538 44.69 66.4742 44.6674C66.4111 44.6448 66.345 44.6274 66.2765 44.6147C66.2089 44.6014 66.1397 44.5939 66.0697 44.591C65.9989 44.5881 65.9297 44.591 65.8598 44.5979C65.7906 44.6054 65.7221 44.6176 65.656 44.635C65.5899 44.6524 65.526 44.6744 65.4653 44.701C65.4045 44.7277 65.3476 44.7584 65.2946 44.7931C65.2423 44.8279 65.1939 44.8661 65.1508 44.9078C65.1077 44.9501 65.0708 44.9947 65.0393 45.0416C65.0078 45.0891 64.9824 45.1377 64.9632 45.1887C64.9447 45.2397 64.9324 45.2918 64.9263 45.3445C64.9209 45.3972 64.9217 45.4499 64.9301 45.5021C64.9378 45.5548 64.9524 45.6063 64.9732 45.6567C64.9947 45.7071 65.0216 45.7558 65.0554 45.8021C65.0893 45.8484 65.1277 45.8919 65.1731 45.933C65.2177 45.9736 65.2669 46.0106 65.3215 46.0442C65.3761 46.0778 65.4338 46.1074 65.4953 46.1323C65.5576 46.1572 65.6222 46.178 65.6891 46.1937C65.756 46.2093 65.8244 46.2197 65.8944 46.2255C65.9643 46.2313 66.0343 46.2319 66.1043 46.2278C66.1743 46.2232 66.2427 46.2139 66.3104 46.1995C66.3811 46.1815 66.4488 46.1589 66.5134 46.1311C66.578 46.1033 66.6387 46.0709 66.6948 46.0344C66.751 45.9979 66.8025 45.9573 66.8479 45.9127C66.894 45.8687 66.9332 45.8218 66.967 45.7714C67.0001 45.7216 67.027 45.6695 67.047 45.6156C67.067 45.5612 67.0793 45.5067 67.0855 45.4505C67.0908 45.3949 67.0893 45.3387 67.0801 45.2831C67.0709 45.2275 67.0547 45.1731 67.0316 45.1198Z" fill="#52A386"/>
<path d="M67.5869 43.615C67.5431 43.5686 67.4924 43.5264 67.437 43.4876C67.3809 43.4493 67.3201 43.4157 67.2547 43.3868C67.1894 43.3578 67.121 43.3341 67.0494 43.3161C66.9772 43.2982 66.9033 43.2854 66.8288 43.279C66.7534 43.2727 66.678 43.2715 66.6027 43.2767C66.5266 43.2819 66.4527 43.2929 66.3805 43.3103C66.3082 43.3271 66.239 43.3491 66.1728 43.3769C66.1067 43.4047 66.0444 43.4372 65.9875 43.4748C65.9306 43.5119 65.8791 43.5536 65.833 43.5988C65.7876 43.6445 65.7484 43.6932 65.7161 43.7447C65.6838 43.7963 65.6592 43.8496 65.6415 43.9052C65.6246 43.9608 65.6146 44.017 65.613 44.0743C65.6115 44.1311 65.6169 44.1878 65.6307 44.244C65.6446 44.2996 65.6661 44.3541 65.6953 44.4068C65.7245 44.4595 65.7599 44.5099 65.803 44.5568C65.8453 44.6037 65.8945 44.6472 65.9491 44.6865C66.3781 45.0578 67.0925 45.1186 67.5439 44.8232C67.5977 44.7844 67.6461 44.7421 67.6892 44.6964C67.7323 44.6506 67.7692 44.602 67.7992 44.551C67.8299 44.4995 67.853 44.4467 67.8699 44.3923C67.8861 44.3373 67.8953 44.2817 67.8976 44.2261C67.8991 44.1699 67.8945 44.1143 67.8814 44.0587C67.8691 44.0036 67.8491 43.9498 67.823 43.8971C67.7961 43.8449 67.763 43.7951 67.723 43.7476C67.6838 43.7001 67.6385 43.6555 67.5869 43.615Z" fill="#52A386"/>
<path d="M65.2524 45.2193C65.1978 45.2529 65.1401 45.2824 65.0786 45.3079C65.0171 45.3334 64.9525 45.3537 64.8856 45.3699C64.8187 45.3855 64.7503 45.3965 64.6811 45.4029C64.6111 45.4087 64.5411 45.4099 64.4711 45.4052C64.4012 45.4012 64.332 45.3919 64.2643 45.378C64.1974 45.3635 64.132 45.345 64.069 45.3212C64.0059 45.2975 63.9467 45.2697 63.8913 45.2373C63.836 45.2048 63.7852 45.1689 63.7383 45.1295C63.6922 45.0896 63.6514 45.0473 63.6161 45.0015C63.5807 44.9558 63.5515 44.9083 63.5284 44.8579C63.5046 44.808 63.4884 44.7571 63.4784 44.7049C63.4684 44.6522 63.4654 44.6001 63.4684 44.5474C63.4723 44.4941 63.4823 44.4426 63.4992 44.391C63.5161 44.3395 63.5392 44.2902 63.5684 44.2422C63.5984 44.1941 63.6338 44.1489 63.6745 44.106C63.716 44.0632 63.7622 44.0238 63.8137 43.9879C63.8652 43.952 63.9206 43.9195 63.9798 43.8917C64.0398 43.8639 64.102 43.8402 64.1674 43.8216C64.2335 43.8025 64.3004 43.7886 64.3696 43.7799C64.4388 43.7707 64.5088 43.7666 64.5788 43.7678C64.6488 43.7689 64.7187 43.7747 64.7872 43.7863C64.8556 43.7973 64.9225 43.8135 64.9871 43.8344C65.0517 43.8552 65.1124 43.8801 65.1709 43.9103C65.2285 43.9398 65.2824 43.9734 65.3316 44.011C65.3816 44.0527 65.4254 44.0979 65.4638 44.146C65.5023 44.1941 65.5338 44.2445 65.5592 44.2978C65.5838 44.3505 65.6023 44.4043 65.613 44.4599C65.6238 44.5155 65.6276 44.5717 65.6238 44.6273C65.6199 44.6835 65.6092 44.7391 65.5907 44.7936C65.573 44.848 65.5477 44.9001 65.5161 44.9511C65.4838 45.0021 65.4462 45.0502 65.4016 45.0948C65.357 45.1399 65.307 45.1816 65.2524 45.2193Z" fill="#52A386"/>
<path d="M26.9389 31.2402C28.3692 31.5761 29.8263 31.8194 31.3112 31.9688C32.4369 32.0823 33.6911 32.2098 34.8014 31.9688C35.1144 31.9022 35.4135 31.8113 35.6996 31.6954C35.9856 31.5796 36.2517 31.4417 36.4985 31.2824C36.7446 31.1232 36.9652 30.9453 37.1606 30.7501C37.3559 30.5544 37.5204 30.3453 37.655 30.1228C38.0287 29.4834 38.0687 28.8428 38.0656 28.161L38.0548 26.5867C38.0548 26.1633 37.5619 25.7573 36.9791 25.7781C36.9091 25.7787 36.8391 25.7851 36.7707 25.7955C36.7023 25.8065 36.6354 25.8227 36.5708 25.843C36.5062 25.8638 36.4447 25.8887 36.3862 25.9183C36.3278 25.9478 36.274 25.9814 36.2248 26.0185C36.1748 26.0561 36.1302 26.0967 36.091 26.1407C36.0517 26.1841 36.0187 26.2305 35.991 26.2791C35.9641 26.3278 35.9433 26.3782 35.9287 26.4297C35.9141 26.4813 35.9064 26.534 35.9049 26.5867V28.6985C35.9049 28.7414 35.9049 28.7854 35.9049 28.8289C35.9087 28.8914 35.9018 28.9534 35.8856 29.0148C35.9379 28.8845 35.8995 28.943 35.8718 29.0409C35.8464 29.1289 35.8149 29.2158 35.7772 29.3015C35.7642 29.3507 35.7411 29.3977 35.7096 29.4417C35.8287 29.3119 35.7595 29.3623 35.7249 29.4121C35.6626 29.499 35.6057 29.5876 35.535 29.6722C35.5073 29.7064 35.4758 29.7377 35.4504 29.7701C35.3397 29.9004 35.5888 29.6647 35.4035 29.8153C35.3235 29.8807 35.2474 29.9456 35.1628 30.007C35.1059 30.0475 35.0475 30.0852 34.9898 30.124C34.9329 30.1634 34.836 30.1877 35.0229 30.1043C34.9122 30.1553 34.8083 30.2155 34.6945 30.2636L34.5561 30.318L34.4139 30.369L34.5246 30.3325C34.4054 30.3794 34.2793 30.4096 34.1463 30.4235L33.9902 30.4507C33.9056 30.4652 33.7226 30.5341 33.9556 30.4599C33.7549 30.5237 33.4096 30.4744 33.1951 30.4692C32.6914 30.4559 32.1885 30.4264 31.6864 30.3835L31.4757 30.3638C31.1851 30.3366 31.711 30.3899 31.4165 30.3574C31.2435 30.3389 31.0866 30.3192 30.9236 30.2983C30.5776 30.2543 30.2323 30.2051 29.8863 30.1489C29.0851 30.0186 28.2931 29.857 27.5118 29.6751C27.4434 29.6612 27.3742 29.6525 27.3042 29.649C27.2334 29.6456 27.1635 29.6473 27.0935 29.6543C27.0235 29.6612 26.9559 29.6728 26.889 29.6896C26.8221 29.7064 26.7575 29.7278 26.6967 29.7539C26.6352 29.7799 26.5783 29.8106 26.5245 29.8448C26.4714 29.8796 26.423 29.9178 26.3791 29.9595C26.3353 30.0012 26.2976 30.0458 26.2653 30.0927C26.2338 30.1402 26.2077 30.1889 26.1884 30.2398C26.1708 30.2914 26.1592 30.3435 26.1554 30.3968C26.1508 30.4495 26.1531 30.5022 26.1623 30.5549C26.1715 30.6076 26.1869 30.6592 26.2092 30.7096C26.2315 30.76 26.26 30.8081 26.2946 30.8544C26.3292 30.9007 26.3699 30.9436 26.4153 30.9841C26.4614 31.0247 26.5114 31.0612 26.5668 31.0942C26.6221 31.1272 26.6813 31.1562 26.7436 31.1805C26.8059 31.2054 26.8713 31.2251 26.9389 31.2402Z" fill="#52A386"/>
<path d="M25.1125 30.8325C25.1802 30.8453 25.2494 30.8534 25.3201 30.8563C25.3901 30.8586 25.4601 30.8569 25.5293 30.8493C25.5992 30.8418 25.6669 30.8296 25.733 30.8123C25.7999 30.7955 25.863 30.7735 25.9237 30.7468C25.9853 30.7202 26.0414 30.6895 26.0944 30.6547C26.1475 30.62 26.1959 30.5817 26.239 30.54C26.2821 30.4983 26.319 30.4537 26.3505 30.4068C26.3828 30.3593 26.4082 30.3107 26.4266 30.2597C26.4459 30.2087 26.4582 30.1566 26.4643 30.1039C26.4697 30.0512 26.4689 29.999 26.4612 29.9463C26.4535 29.8936 26.4389 29.8421 26.4182 29.7917C26.3966 29.7413 26.3697 29.6926 26.3367 29.6463C26.3028 29.6 26.2636 29.5559 26.219 29.5154C26.1744 29.4743 26.1252 29.4372 26.0706 29.4036C26.0168 29.37 25.9583 29.3405 25.8968 29.3156C25.8353 29.2907 25.7707 29.2698 25.7038 29.2542C25.6362 29.2385 25.5677 29.2275 25.4985 29.2217C25.4285 29.2159 25.3586 29.2154 25.2886 29.2194C25.2186 29.224 25.1494 29.2333 25.0817 29.2478C25.0141 29.2617 24.9495 29.2808 24.8864 29.3051C24.8241 29.3289 24.7649 29.3567 24.7096 29.3891C24.6542 29.4221 24.6035 29.458 24.5565 29.498C24.5104 29.538 24.4704 29.5808 24.4351 29.6266C24.3997 29.6724 24.3705 29.7199 24.3482 29.7702C24.3266 29.8235 24.3128 29.8786 24.3059 29.9342C24.2997 29.9904 24.2997 30.046 24.3082 30.1016C24.3159 30.1577 24.3305 30.2122 24.3528 30.2655C24.3751 30.3193 24.4035 30.3709 24.4389 30.4201C24.4743 30.4694 24.5158 30.5157 24.5635 30.5586C24.6111 30.602 24.6634 30.6408 24.7211 30.6761C24.7788 30.7121 24.8411 30.7428 24.9064 30.7688C24.9726 30.7949 25.041 30.8163 25.1125 30.8325Z" fill="#52A386"/>
<path d="M26.4321 32.031C26.5075 32.0299 26.582 32.0229 26.6559 32.0107C26.7297 31.998 26.8012 31.9795 26.8696 31.9557C26.9381 31.932 27.0027 31.903 27.0634 31.8688C27.1242 31.8347 27.1795 31.7964 27.2295 31.7542C27.2795 31.7113 27.3233 31.665 27.3602 31.6157C27.3979 31.5659 27.4279 31.5144 27.451 31.4599C27.474 31.406 27.4894 31.3504 27.4971 31.2937C27.5048 31.2369 27.504 31.1807 27.4963 31.124C27.4886 31.0672 27.4725 31.0122 27.4494 30.9577C27.4263 30.9039 27.3956 30.8517 27.3579 30.8025C27.3202 30.7533 27.2764 30.7075 27.2257 30.6646C27.1757 30.6224 27.1203 30.5841 27.0588 30.5505C26.998 30.5169 26.9335 30.488 26.865 30.4642C26.7958 30.4411 26.7243 30.4231 26.6505 30.4104C26.5767 30.3982 26.5021 30.3912 26.4267 30.3907C26.3514 30.3901 26.276 30.3953 26.2022 30.4063C25.5517 30.4596 25.0764 30.8656 25.1403 31.3174C25.1518 31.373 25.1703 31.4269 25.1956 31.479C25.2218 31.5317 25.2541 31.5815 25.2925 31.6296C25.331 31.6771 25.3756 31.7217 25.4255 31.7628C25.4763 31.804 25.5309 31.8416 25.5909 31.8746C25.6508 31.9076 25.7147 31.936 25.7816 31.9598C25.8492 31.9835 25.9192 32.0021 25.9907 32.0154C26.063 32.0287 26.1361 32.0368 26.2106 32.0397C26.2845 32.042 26.3583 32.0391 26.4321 32.031Z" fill="#52A386"/>
<path d="M26.0208 29.672C25.9101 29.1867 26.2991 28.7308 26.8851 28.6555C26.962 28.6399 27.0404 28.6306 27.1196 28.6265C27.1988 28.6231 27.278 28.6254 27.3564 28.6341C27.4356 28.6422 27.5125 28.6561 27.5871 28.6764C27.6625 28.6961 27.734 28.7215 27.8017 28.7522C27.8701 28.7829 27.9339 28.8188 27.9924 28.8588C28.0508 28.8994 28.1039 28.9434 28.1508 28.992C28.1977 29.0401 28.2377 29.0917 28.2707 29.1461C28.3038 29.2006 28.3299 29.2567 28.3484 29.3152C28.3661 29.3732 28.3768 29.4322 28.3791 29.4919C28.3815 29.5521 28.3761 29.6112 28.3622 29.6703C28.3492 29.7294 28.3284 29.7867 28.2992 29.8423C28.2707 29.8985 28.2346 29.9512 28.1923 30.0016C28.1492 30.052 28.1 30.0989 28.0447 30.1418C27.9893 30.1852 27.9293 30.2235 27.8632 30.2571C27.7978 30.2912 27.7286 30.3196 27.6556 30.3428C27.5817 30.3665 27.5064 30.3839 27.4287 30.3961C27.3511 30.4082 27.2719 30.414 27.1927 30.414C27.1127 30.414 27.0343 30.4082 26.9566 30.3966C26.8782 30.3845 26.8028 30.3671 26.7298 30.3439C26.6567 30.3208 26.5867 30.2918 26.5214 30.2582C26.4552 30.2246 26.3953 30.1864 26.3399 30.1435C26.2845 30.1007 26.2353 30.0537 26.1923 30.0034C26.1492 29.953 26.1131 29.9003 26.0838 29.8441C26.0554 29.7885 26.0339 29.7311 26.0208 29.672Z" fill="#52A386"/>
<path d="M38.5446 41.6382C38.6676 41.3706 38.796 41.1053 38.9298 40.8423C38.9867 40.7294 39.0459 40.617 39.1028 40.5052L39.2012 40.3228C39.1305 40.4531 39.2382 40.262 39.2535 40.2341C39.4988 39.8154 39.7618 39.4012 40.0509 38.9975C40.2978 38.6511 40.5607 38.3129 40.8445 37.9821C40.9706 37.8333 41.1021 37.6862 41.239 37.5419C41.2682 37.5107 41.2974 37.4794 41.3289 37.4493C41.1921 37.5796 41.2859 37.491 41.3182 37.4649C41.4343 37.3763 41.5465 37.2882 41.6642 37.2048C41.7818 37.1214 41.6642 37.2048 41.638 37.2176C41.6919 37.1892 41.7472 37.1591 41.8026 37.1318C41.9041 37.0844 42.0087 37.0409 42.1156 37.0015C42.1871 36.9731 42.3439 36.8712 42.1486 36.9847C42.1963 36.9668 42.2455 36.9534 42.297 36.9442C42.4339 36.9094 42.5762 36.8857 42.7161 36.8585C42.7869 36.8451 42.9545 36.7959 42.7023 36.8585C42.7538 36.8503 42.8068 36.8463 42.8591 36.8469C42.9914 36.8411 43.1236 36.8411 43.2559 36.8469L43.4128 36.8544C43.6796 36.8625 43.1829 36.8115 43.4443 36.8544C43.5735 36.8781 43.7034 36.8961 43.8334 36.9262C43.8972 36.9419 43.9595 36.961 44.0233 36.9755C43.7949 36.8886 44.181 37.0108 44.0233 36.9755C44.1479 37.0206 44.2686 37.071 44.387 37.1255C44.4801 37.1695 44.57 37.2176 44.6585 37.2674L45.3067 37.6277L46.8638 38.4913C47.3183 38.7438 48.0841 38.5585 48.3356 38.2005C48.6324 37.7777 48.434 37.3635 47.9496 37.0925L46.5124 36.2931C45.8842 35.9433 45.3013 35.6044 44.5577 35.4017C44.2448 35.3212 43.9234 35.2673 43.5942 35.2407C43.2651 35.2135 42.936 35.2141 42.6069 35.2424C42.2778 35.2702 41.9572 35.3253 41.6442 35.4064C41.3312 35.488 41.0344 35.5946 40.753 35.7255C39.7011 36.2254 39.039 37.0577 38.4354 37.8541C37.6434 38.9269 36.9882 40.0447 36.4707 41.2084C36.4523 41.2594 36.4407 41.3115 36.4361 41.3648C36.4315 41.4175 36.433 41.4708 36.4423 41.5229C36.4515 41.5756 36.4669 41.6272 36.4892 41.6776C36.5115 41.728 36.5399 41.7766 36.5753 41.8224C36.6099 41.8687 36.6506 41.9121 36.696 41.9521C36.7422 41.9921 36.7937 42.0286 36.849 42.0616C36.9044 42.094 36.9636 42.1224 37.0267 42.1467C37.0897 42.1705 37.1551 42.1902 37.2227 42.2041C37.2912 42.2168 37.3596 42.2249 37.4304 42.2278C37.5003 42.2307 37.5695 42.2284 37.6395 42.2209C37.7087 42.2139 37.7764 42.2018 37.8433 42.185C37.9094 42.1682 37.9732 42.1462 38.034 42.1201C38.0947 42.094 38.1524 42.0639 38.2055 42.0297C38.2585 41.995 38.307 41.9573 38.3508 41.9162C38.3946 41.8745 38.4331 41.8305 38.4654 41.7841C38.4977 41.7372 38.5238 41.6886 38.5446 41.6382Z" fill="#52A386"/>
<path d="M35.867 42.489C35.8932 42.4398 35.9255 42.3935 35.9639 42.3489C36.0024 42.3048 36.0454 42.2637 36.0946 42.2255C36.1431 42.1878 36.1969 42.1537 36.2546 42.1235C36.3123 42.0934 36.373 42.0674 36.4368 42.0459C36.5014 42.0251 36.5675 42.0083 36.636 41.9967C36.7044 41.9851 36.7736 41.9782 36.8444 41.977C36.9143 41.9753 36.9835 41.9787 37.0535 41.9874C37.1227 41.9955 37.1896 42.0094 37.2558 42.0274C37.3219 42.0459 37.3842 42.0691 37.4441 42.0963C37.5041 42.1241 37.5603 42.1554 37.6118 42.1913C37.6641 42.2266 37.7102 42.266 37.7525 42.3083C37.794 42.3512 37.8302 42.3958 37.8601 42.4438C37.8909 42.4913 37.9147 42.5406 37.9317 42.5921C37.9493 42.6431 37.9601 42.6952 37.9647 42.7479C37.9686 42.8006 37.9663 42.8534 37.957 42.9055C37.9478 42.9576 37.9317 43.0092 37.9094 43.059C37.8863 43.1094 37.8578 43.1574 37.8232 43.2032C37.7886 43.249 37.7479 43.2918 37.7025 43.3318C37.6564 43.3718 37.6064 43.4083 37.551 43.4413C37.4957 43.4737 37.4372 43.5021 37.3742 43.5264C37.3119 43.5507 37.2473 43.5699 37.1796 43.5843C37.112 43.5994 37.0435 43.6092 36.9736 43.6139C36.9036 43.6185 36.8336 43.6179 36.7644 43.6127C36.6944 43.6069 36.626 43.5965 36.5583 43.5814C35.9824 43.4482 35.6748 42.9588 35.867 42.489Z" fill="#52A386"/>
<path d="M35.3564 40.9762C35.4025 40.9304 35.454 40.8893 35.5109 40.8522C35.5678 40.8151 35.6301 40.7827 35.6963 40.7549C35.7624 40.7271 35.8316 40.7051 35.9031 40.6883C35.9754 40.6715 36.0492 40.6611 36.1246 40.6559C36.1999 40.6506 36.2753 40.6512 36.3506 40.6576C36.4252 40.6646 36.499 40.6767 36.5705 40.6947C36.6421 40.7132 36.7105 40.7364 36.7759 40.7653C36.8412 40.7943 36.9012 40.8279 36.9573 40.8661C37.0135 40.9043 37.0634 40.9466 37.1073 40.993C37.1519 41.0387 37.1895 41.088 37.2195 41.1401C37.2503 41.1922 37.2741 41.2461 37.2895 41.3017C37.3057 41.3573 37.3134 41.4135 37.3134 41.4702C37.3134 41.5276 37.3064 41.5838 37.2911 41.6394C37.2757 41.695 37.2526 41.7489 37.2218 41.801C37.1919 41.8531 37.1549 41.9023 37.1111 41.9487C37.0673 41.995 37.0173 42.0379 36.9612 42.0761C36.5206 42.4393 35.8047 42.4891 35.3618 42.1844C34.9188 41.8798 34.9173 41.3393 35.3564 40.9762Z" fill="#52A386"/>
<path d="M37.641 42.6189C37.691 42.6612 37.7455 42.6988 37.8048 42.733C37.864 42.7666 37.9278 42.7962 37.9947 42.8205C38.0616 42.8448 38.1308 42.8645 38.2031 42.8784C38.2754 42.8929 38.3484 42.9016 38.423 42.9051C38.4976 42.9085 38.5714 42.9062 38.6452 42.8987C38.719 42.8912 38.7913 42.8778 38.8621 42.8599C38.932 42.8413 38.9997 42.8182 39.0643 42.7904C39.1289 42.762 39.1889 42.729 39.245 42.6919C39.6756 42.3797 39.6564 41.8381 39.2012 41.4836C39.1543 41.4385 39.1012 41.3973 39.0428 41.3609C38.9843 41.3238 38.9213 41.2919 38.8536 41.2653C38.7867 41.2381 38.716 41.2172 38.6421 41.201C38.5691 41.1853 38.4945 41.1755 38.4184 41.172C38.3423 41.168 38.2661 41.1697 38.1908 41.1778C38.1146 41.1859 38.0416 41.1998 37.9693 41.2201C37.8978 41.2398 37.8301 41.2647 37.7648 41.2954C37.7002 41.3261 37.641 41.3609 37.5856 41.4008C37.531 41.4408 37.4826 41.4848 37.4395 41.5323C37.3972 41.5804 37.3618 41.6308 37.3334 41.6841C37.3049 41.7373 37.2842 41.7924 37.2711 41.8491C37.2573 41.9053 37.2527 41.9627 37.255 42.02C37.258 42.0773 37.2688 42.1341 37.2873 42.1897C37.3057 42.2453 37.3319 42.2992 37.3657 42.3507C37.3988 42.4023 37.4395 42.4509 37.4864 42.4961C37.5333 42.5413 37.5864 42.5824 37.6448 42.6189H37.641Z" fill="#52A386"/>
<path d="M60.7947 30.2886C60.7301 28.8035 60.4456 27.3421 59.9404 25.905C58.7678 22.7321 56.3395 19.7856 52.8823 17.738C51.9257 17.1559 50.9176 16.6306 49.8572 16.1614C48.763 15.7073 47.6334 15.31 46.4692 14.9688C44.8729 14.4828 43.2227 14.1874 41.5518 13.8932C40.5507 13.7136 39.5556 13.5196 38.5698 13.3035C37.0789 10.3246 35.0957 7.46501 32.2914 5.06704C31.344 4.2486 30.2775 3.53037 29.0903 2.9135C27.9038 2.29605 26.6342 1.79908 25.2817 1.42143C22.0998 0.543914 18.4396 0.740848 15.2384 1.45155C12.248 2.11012 9.39752 3.20369 6.79771 4.49014C5.49588 5.13365 4.07948 5.79222 3.04678 6.68132C1.82723 7.7245 0.851439 8.99531 0.561546 10.3906C0.410832 11.1106 0.303179 11.7958 0.420828 12.5181C0.511564 13.2294 0.71918 13.921 1.04368 14.5923C1.54734 15.566 2.08175 16.531 2.6923 17.4733C3.88571 19.3622 5.39053 21.0981 7.20602 22.6817C9.19529 24.3898 11.7344 25.7539 14.6264 26.4675C15.6114 26.6876 16.6156 26.8312 17.6391 26.8984C18.4365 26.9656 19.2347 26.9737 20.0344 26.9233C21.9275 26.8156 23.7676 26.5213 25.5554 26.0394C26.0068 25.9155 26.4543 25.7788 26.8988 25.6485C29.6401 26.3244 32.4682 26.7136 35.3303 26.9975C37.0881 27.1718 38.8605 27.2216 40.6175 27.371C41.345 27.462 42.0563 27.6004 42.7506 27.7875C43.1451 27.9306 43.5226 28.0951 43.8848 28.2798C44.1639 28.4635 44.4254 28.6592 44.6699 28.8683C44.9852 29.2141 45.2612 29.5761 45.4988 29.9555C45.8079 30.5967 46.0356 31.2536 46.1817 31.9266C46.3554 33.2107 46.3401 34.4937 46.1355 35.7755C45.7518 37.6447 45.0859 39.4553 44.1378 41.2074C43.2927 42.6648 42.2446 44.034 40.9951 45.3164C40.0439 46.1719 38.9997 46.9562 37.8609 47.6704C36.9128 48.2606 36.0446 48.9116 35.2565 49.6229C33.7293 51.0449 32.3575 52.5758 31.9408 54.4183C31.787 54.9842 31.7231 55.5559 31.7485 56.1328C31.7923 56.606 31.8777 57.0746 32.0046 57.5391C32.0807 57.8044 32.1891 58.0627 32.3298 58.3124C32.602 58.8765 32.9527 59.4117 33.3818 59.918C35.128 61.8566 37.6602 63.1633 40.4553 64.0947C40.7367 64.1903 41.0212 64.2812 41.3096 64.3681C42.0847 64.601 43.385 64.4266 44.077 64.0959C44.4046 63.9436 44.6937 63.757 44.9436 63.5369C45.1943 63.3163 45.3943 63.073 45.5434 62.8054C45.6272 62.6565 45.6918 62.5036 45.7387 62.3455C45.7856 62.1879 45.8133 62.0287 45.8226 61.8671C45.831 61.7054 45.821 61.545 45.791 61.3851C45.7618 61.2247 45.7134 61.0683 45.6472 60.9142C45.5803 60.7607 45.4958 60.613 45.3935 60.4711C45.2912 60.3286 45.1736 60.1948 45.0398 60.0686C44.9052 59.9423 44.7576 59.8259 44.5961 59.7199C44.4338 59.6133 44.2616 59.5189 44.077 59.4361C43.6549 59.2461 43.2504 59.0387 42.8521 58.8215C42.2239 58.4352 41.6472 58.0089 41.1227 57.5432C40.9436 57.3474 40.7806 57.1441 40.6337 56.9338C40.5783 56.8035 40.533 56.6732 40.4914 56.5429C40.4914 56.4873 40.4914 56.4299 40.4914 56.3726C40.5207 56.288 40.5522 56.2046 40.5853 56.1212C40.7075 55.9468 40.839 55.7777 40.9828 55.6132C41.4872 55.1886 42.0347 54.7983 42.626 54.4415C43.2281 54.1316 43.8364 53.831 44.4577 53.5431C45.4881 53.0612 46.4792 52.537 47.4304 51.9705C49.8365 50.5526 51.8342 48.79 53.6066 46.9267C55.4198 45.0193 56.8362 42.9544 58.0365 40.7956C59.1715 38.7909 59.955 36.7104 60.3864 34.5557C60.6686 33.1464 60.8624 31.7262 60.7947 30.2886Z" fill="#7CBCA7"/>
<path d="M14.0466 11.8014C10.501 11.2112 9.43756 9.17114 10.2157 6.50326C10.9939 3.83595 13.4815 1.97897 17.0248 2.56862C17.2355 2.60395 17.4423 2.64623 17.6468 2.69662C17.8514 2.74702 18.0521 2.80494 18.2497 2.86981C18.4465 2.93526 18.6388 3.00766 18.8264 3.08702C19.014 3.16637 19.1963 3.25267 19.3724 3.34535C19.5484 3.43802 19.7184 3.53707 19.8822 3.64249C20.0452 3.74791 20.2021 3.85912 20.3505 3.97612C20.4996 4.09312 20.6404 4.21534 20.7734 4.34277C20.9064 4.47019 21.031 4.60226 21.1463 4.73895C21.2624 4.87507 21.3685 5.01582 21.4662 5.16004C21.5639 5.30485 21.6515 5.45255 21.73 5.60315C21.8076 5.75432 21.8761 5.90782 21.9337 6.06363C21.9922 6.22002 22.0398 6.37756 22.0775 6.53685C22.1152 6.69671 22.1421 6.85716 22.1583 7.01876C22.1752 7.18036 22.1813 7.34197 22.1767 7.50415C22.1721 7.66575 22.1567 7.82735 22.1313 7.98837C22.106 8.14882 22.0698 8.30868 22.0237 8.46681C21.2417 11.1347 17.5907 12.391 14.0466 11.8014Z" fill="white"/>
<path d="M13.8181 12.5741C10.2741 11.9845 8.16406 13.4957 7.38051 16.1636C6.59695 18.8314 7.80958 21.3012 11.359 21.892C11.569 21.9274 11.7812 21.954 11.995 21.9737C12.2087 21.9928 12.4225 22.0044 12.6378 22.0073C12.8531 22.0108 13.0684 22.0061 13.2829 21.994C13.4975 21.9812 13.7105 21.961 13.9227 21.9326C14.1342 21.9048 14.3441 21.8683 14.5517 21.8248C14.7586 21.7808 14.9623 21.7299 15.163 21.6708C15.3637 21.6117 15.5598 21.5457 15.752 21.4727C15.9435 21.3991 16.1304 21.3186 16.3118 21.2317C16.4933 21.1443 16.6686 21.051 16.8378 20.9508C17.007 20.8506 17.1692 20.7446 17.3245 20.6322C17.4799 20.5204 17.6275 20.4029 17.7674 20.2795C17.9082 20.1567 18.0397 20.0287 18.1627 19.8955C18.2865 19.7628 18.4003 19.6261 18.5056 19.4848C18.611 19.3435 18.7071 19.1987 18.794 19.0504C18.8801 18.9021 18.957 18.7509 19.0239 18.5969C19.0908 18.4428 19.1469 18.2864 19.1938 18.1283C19.972 15.4592 17.3622 13.1626 13.8181 12.5741Z" fill="white"/>
<path d="M11.0577 7.12346C11.0885 7.02036 11.1254 6.919 11.1685 6.81879C11.2123 6.71859 11.2623 6.62012 11.3184 6.52339C11.3745 6.42724 11.4368 6.33283 11.506 6.24073C11.5745 6.14921 11.6491 6.06001 11.729 5.97371C11.809 5.88741 11.8951 5.804 11.9859 5.72407C12.0774 5.64414 12.1735 5.56768 12.2742 5.4947C12.3749 5.42172 12.4811 5.35279 12.591 5.28734C12.701 5.22246 12.8148 5.16165 12.9332 5.10488C13.0509 5.04812 13.1723 4.99599 13.2977 4.94791C13.4223 4.90042 13.5499 4.85756 13.6806 4.81933C13.8106 4.7811 13.9436 4.7475 14.0782 4.71912C14.2135 4.69074 14.3496 4.66757 14.4872 4.64904C14.6249 4.6305 14.7641 4.61718 14.9032 4.60907C15.0432 4.60096 15.1831 4.59806 15.3231 4.60038C15.463 4.6027 15.6022 4.61023 15.7414 4.62239C15.8806 4.63513 16.0182 4.65251 16.1551 4.67568L16.8641 4.79384C17.0009 4.81643 17.1355 4.84423 17.2685 4.87725C17.4023 4.90968 17.5323 4.94733 17.6607 4.98962C17.7891 5.0319 17.9144 5.07882 18.0359 5.13037C18.1582 5.18192 18.2766 5.2381 18.3912 5.29834C18.5065 5.35858 18.6165 5.42287 18.7234 5.4918C18.8295 5.56015 18.931 5.63255 19.0279 5.70843C19.1248 5.78489 19.2163 5.86424 19.3032 5.94707C19.3893 6.0299 19.4708 6.11562 19.5461 6.20424C19.6215 6.29344 19.6907 6.38496 19.7538 6.47879C19.8176 6.57262 19.8745 6.66877 19.9252 6.76666C19.976 6.86513 20.0206 6.96476 20.0583 7.0667C20.0959 7.16806 20.1267 7.27058 20.1513 7.37426C20.1759 7.47794 20.1936 7.58278 20.2044 7.68762C20.2151 7.79246 20.219 7.89788 20.2159 8.0033C20.2128 8.10871 20.2028 8.21355 20.1859 8.31839C20.1698 8.42265 20.1459 8.52691 20.1159 8.62943C20.0859 8.73253 20.049 8.8339 20.0052 8.9341C19.9621 9.03431 19.9122 9.13278 19.856 9.22951C19.7999 9.32565 19.7376 9.42007 19.6692 9.51216C19.6 9.60368 19.5262 9.69288 19.4454 9.77918C19.3654 9.86549 19.2801 9.9489 19.1886 10.0288C19.0979 10.1088 19.0017 10.1858 18.901 10.2582C18.7995 10.3312 18.6942 10.4007 18.5842 10.4656C18.4742 10.5304 18.3597 10.5918 18.242 10.6486C18.1236 10.7048 18.0029 10.7575 17.8775 10.805C17.753 10.8525 17.6253 10.8953 17.4946 10.9341C17.3646 10.9724 17.2316 11.0054 17.0971 11.0338C16.9617 11.0622 16.8256 11.0859 16.688 11.1039C16.5503 11.1224 16.4112 11.1357 16.272 11.1438C16.132 11.1519 15.9921 11.1548 15.8521 11.1525C15.7122 11.1502 15.573 11.1427 15.4338 11.1305C15.2946 11.1178 15.157 11.0998 15.0201 11.0772L14.3096 10.9602C14.1727 10.937 14.0382 10.9092 13.9052 10.8768C13.7721 10.8438 13.6414 10.8061 13.513 10.7639C13.3853 10.7216 13.26 10.6747 13.1377 10.6231C13.0162 10.571 12.8978 10.5154 12.7825 10.4546C12.6679 10.3943 12.558 10.33 12.4511 10.2611C12.345 10.1927 12.2435 10.1203 12.1466 10.0445C12.0497 9.96801 11.9582 9.88866 11.8713 9.80583C11.7852 9.723 11.7044 9.63728 11.6291 9.54808C11.5537 9.45945 11.4845 9.36794 11.4207 9.2741C11.3576 9.18027 11.3007 9.08412 11.25 8.98565C11.1985 8.88776 11.1546 8.78756 11.1169 8.6862C11.0785 8.58483 11.0477 8.48231 11.0231 8.37863C10.9985 8.27437 10.9808 8.17011 10.9701 8.06527C10.9593 7.95986 10.9555 7.85502 10.9585 7.7496C10.9616 7.64418 10.9716 7.53934 10.9878 7.4345C11.0047 7.32966 11.0278 7.22598 11.0577 7.12346Z" fill="black"/>
<path d="M8.53263 15.7284C8.56339 15.6258 8.6003 15.5239 8.64336 15.4237C8.68719 15.3235 8.7364 15.2256 8.7933 15.1289C8.84944 15.0321 8.91172 14.9383 8.98016 14.8462C9.04859 14.7547 9.12318 14.6655 9.20315 14.5792C9.28389 14.4929 9.36924 14.4095 9.45998 14.3295C9.55148 14.2496 9.6476 14.1731 9.74834 14.1002C9.84907 14.0272 9.95518 13.9583 10.0651 13.8928C10.1751 13.8279 10.2889 13.7671 10.4073 13.7104C10.525 13.6536 10.6465 13.6015 10.771 13.5534C10.8964 13.5059 11.024 13.463 11.154 13.4248C11.2847 13.3866 11.417 13.353 11.5523 13.3246C11.6869 13.2962 11.823 13.2725 11.9606 13.2545C12.099 13.236 12.2374 13.2226 12.3774 13.2145C12.5165 13.2064 12.6565 13.2035 12.7964 13.2059C12.9364 13.2082 13.0756 13.2151 13.2147 13.2279C13.3539 13.2406 13.4916 13.258 13.6284 13.2806L14.339 13.3993C14.4758 13.4219 14.6104 13.4497 14.7442 13.4821C14.8772 13.5152 15.0079 13.5528 15.1356 13.5951C15.264 13.6374 15.3893 13.6843 15.5116 13.7358C15.6331 13.7874 15.7515 13.8436 15.8668 13.9038C15.9814 13.9646 16.0922 14.0289 16.1983 14.0973C16.3044 14.1662 16.4059 14.238 16.5028 14.3145C16.5997 14.3904 16.6919 14.4697 16.7781 14.5525C16.8649 14.6354 16.9457 14.7217 17.021 14.8103C17.0964 14.8995 17.1656 14.9904 17.2287 15.0848C17.2925 15.1787 17.3494 15.2748 17.4001 15.3727C17.4509 15.4712 17.4955 15.5708 17.5332 15.6722C17.5708 15.7741 17.6024 15.8766 17.627 15.9803C17.6508 16.084 17.6685 16.1888 17.6793 16.2937C17.69 16.3985 17.6939 16.5039 17.6908 16.6093C17.6877 16.7148 17.6785 16.8196 17.6616 16.9244C17.6447 17.0293 17.6216 17.133 17.5916 17.2355C17.5608 17.3386 17.5239 17.4399 17.4809 17.5402C17.437 17.6404 17.3871 17.7388 17.3309 17.8356C17.2748 17.9317 17.2125 18.0261 17.1433 18.1182C17.0749 18.2097 17.0003 18.2989 16.9203 18.3852C16.8403 18.4715 16.7542 18.5549 16.6635 18.6349C16.572 18.7148 16.4759 18.7913 16.3751 18.8642C16.2736 18.9372 16.1683 19.0062 16.0583 19.0716C15.9476 19.1365 15.8338 19.1973 15.7161 19.2541C15.5977 19.3108 15.4762 19.363 15.3517 19.4105C15.2263 19.4585 15.0987 19.5014 14.9687 19.5396C14.838 19.5778 14.705 19.6109 14.5704 19.6392C14.4358 19.6682 14.299 19.6914 14.1613 19.7099C14.0237 19.7279 13.8845 19.7412 13.7453 19.7493C13.6054 19.7574 13.4654 19.7603 13.3255 19.758C13.1855 19.7557 13.0464 19.7481 12.9072 19.7354C12.768 19.7232 12.6304 19.7053 12.4935 19.6827L11.7845 19.5639C11.6476 19.5414 11.5131 19.5136 11.38 19.4811C11.247 19.4487 11.1163 19.411 10.9879 19.3687C10.8595 19.3265 10.7341 19.2795 10.6126 19.2274C10.4904 19.1759 10.372 19.1203 10.2574 19.06C10.142 18.9992 10.0321 18.9349 9.92519 18.8666C9.81908 18.7976 9.71758 18.7258 9.62069 18.6494C9.5238 18.5735 9.4323 18.4941 9.34541 18.4113C9.25928 18.3285 9.17778 18.2422 9.10242 18.1535C9.02783 18.0649 8.95786 17.9734 8.8948 17.8796C8.83098 17.7852 8.77408 17.6896 8.72333 17.5911C8.67258 17.4927 8.62798 17.393 8.5903 17.2917C8.55262 17.1903 8.52186 17.0878 8.49726 16.9835C8.47265 16.8798 8.45497 16.7756 8.4442 16.6702C8.43343 16.5653 8.42959 16.4599 8.43267 16.3551C8.43574 16.2496 8.44574 16.1442 8.46265 16.04C8.47957 15.9351 8.50264 15.8315 8.53263 15.7284Z" fill="black"/>
<mask id="mask0_302_23084" style="mask-type:luminance" maskUnits="userSpaceOnUse" x="50" y="16" width="11" height="10">
<path d="M50.5208 16.8789H60.9538V25.1826H50.5208V16.8789Z" fill="white"/>
</mask>
<g mask="url(#mask0_302_23084)">
<mask id="mask1_302_23084" style="mask-type:luminance" maskUnits="userSpaceOnUse" x="0" y="0" width="61" height="65">
<path d="M60.7947 30.2886C60.7301 28.8035 60.4456 27.3421 59.9404 25.905C58.7678 22.7321 56.3395 19.7856 52.8823 17.738C51.9257 17.1559 50.9176 16.6306 49.8572 16.1614C48.763 15.7073 47.6334 15.31 46.4692 14.9688C44.8729 14.4828 43.2227 14.1874 41.5518 13.8932C40.5507 13.7136 39.5556 13.5196 38.5698 13.3035C37.0789 10.3246 35.0957 7.46501 32.2914 5.06704C30.3667 3.40352 28.0299 2.18832 25.2817 1.42143C22.0998 0.543914 18.4396 0.740848 15.2384 1.45155C12.248 2.11012 9.39752 3.20369 6.79771 4.49014C5.49588 5.13365 4.07948 5.79222 3.04678 6.68132C1.82723 7.7245 0.851439 8.99531 0.561546 10.3906C0.410832 11.1106 0.303179 11.7958 0.420828 12.5181C0.511564 13.2294 0.71918 13.921 1.04368 14.5923C1.54734 15.566 2.08175 16.531 2.6923 17.4733C3.88571 19.3622 5.39053 21.0981 7.20602 22.6817C9.19529 24.3898 11.7344 25.7539 14.6264 26.4675C15.6114 26.6876 16.6156 26.8312 17.6391 26.8984C18.4365 26.9656 19.2347 26.9737 20.0344 26.9233C21.9275 26.8156 23.7676 26.5213 25.5554 26.0394C26.0068 25.9155 26.4543 25.7788 26.8988 25.6485C29.6401 26.3244 32.4682 26.7136 35.3303 26.9975C37.0881 27.1718 38.8605 27.2216 40.6175 27.371C41.345 27.462 42.0563 27.6004 42.7506 27.7875C43.1451 27.9306 43.5226 28.0951 43.8848 28.2798C44.1639 28.4635 44.4254 28.6592 44.6699 28.8683C44.9852 29.2141 45.2612 29.5761 45.4988 29.9555C45.8079 30.5967 46.0356 31.2536 46.1817 31.9266C46.3554 33.2107 46.3401 34.4937 46.1355 35.7755C45.7518 37.6447 45.0859 39.4553 44.1378 41.2074C43.2927 42.6648 42.2446 44.034 40.9951 45.3164C40.0439 46.1719 38.9997 46.9562 37.8609 47.6704C36.9128 48.2606 36.0446 48.9116 35.2565 49.6229C33.7293 51.0449 32.3575 52.5758 31.9408 54.4183C31.787 54.9842 31.7231 55.5559 31.7485 56.1328C31.7923 56.606 31.8777 57.0746 32.0046 57.5391C32.0807 57.805 32.1891 58.0627 32.3298 58.3124C32.602 58.8765 32.9527 59.4117 33.3818 59.918C35.128 61.8566 37.6602 63.1639 40.4553 64.0947C40.7367 64.1903 41.0212 64.2812 41.3096 64.3681C42.0847 64.601 43.385 64.4266 44.077 64.0959C44.7483 63.7831 45.2374 63.3533 45.5434 62.8054C45.7118 62.5054 45.8049 62.1926 45.8226 61.8671C45.8402 61.5415 45.7818 61.2241 45.6472 60.9142C45.5119 60.6049 45.3097 60.3229 45.0398 60.0686C44.7691 59.8143 44.4484 59.6035 44.077 59.4361C43.6549 59.2461 43.2504 59.0387 42.8521 58.8215C42.2239 58.4352 41.6472 58.0089 41.1227 57.5432C40.9436 57.3474 40.7806 57.1441 40.6337 56.9338C40.5783 56.8035 40.533 56.6732 40.4914 56.5429C40.4914 56.4873 40.4914 56.4299 40.4914 56.3726C40.5207 56.288 40.5522 56.2046 40.5853 56.1212C40.7075 55.9468 40.839 55.7777 40.9828 55.6132C41.4872 55.1886 42.0347 54.7983 42.626 54.4415C43.2281 54.1316 43.8364 53.831 44.4577 53.5431C45.4881 53.0612 46.4792 52.537 47.4304 51.9705C49.8365 50.5526 51.8342 48.79 53.6066 46.9267C55.4198 45.0193 56.8362 42.9544 58.0365 40.7956C59.1715 38.7909 59.955 36.7104 60.3864 34.5557C60.6686 33.1464 60.8624 31.7262 60.7947 30.2886Z" fill="white"/>
</mask>
<g mask="url(#mask1_302_23084)">
<path d="M61.3915 21.0228C61.3915 21.1554 61.383 21.2875 61.3661 21.4195C61.3484 21.5516 61.323 21.6825 61.2884 21.8123C61.2538 21.9426 61.2115 22.0706 61.16 22.1974C61.1093 22.3243 61.05 22.4494 60.9824 22.5716C60.9147 22.6944 60.8401 22.8137 60.7571 22.9307C60.674 23.0477 60.5833 23.1613 60.4856 23.2713C60.388 23.3819 60.2826 23.4879 60.1711 23.5905C60.0596 23.693 59.9412 23.7914 59.8167 23.8847C59.6921 23.9785 59.5621 24.0677 59.426 24.1517C59.2899 24.2357 59.1484 24.3145 59.0016 24.388C58.8555 24.4622 58.7048 24.5299 58.5494 24.5925C58.3941 24.6551 58.2349 24.7118 58.0719 24.7622C57.9097 24.8132 57.7436 24.8578 57.5752 24.896C57.4068 24.9348 57.2361 24.9667 57.0638 24.9927C56.8908 25.0188 56.717 25.0379 56.5417 25.0512C56.3664 25.064 56.1903 25.0704 56.0142 25.0704C55.8381 25.0704 55.6628 25.064 55.4875 25.0512C55.3122 25.0379 55.1384 25.0188 54.9654 24.9927C54.7924 24.9667 54.6224 24.9348 54.4532 24.896C54.2848 24.8578 54.1195 24.8132 53.9565 24.7622C53.7943 24.7118 53.6351 24.6551 53.4798 24.5925C53.3244 24.5299 53.1737 24.4622 53.0269 24.388C52.8808 24.3145 52.7393 24.2357 52.6032 24.1517C52.4671 24.0677 52.3371 23.9785 52.2125 23.8847C52.088 23.7914 51.9695 23.693 51.8581 23.5905C51.7458 23.4879 51.6412 23.3819 51.5436 23.2713C51.4459 23.1613 51.3552 23.0477 51.2721 22.9307C51.1891 22.8137 51.1137 22.6944 51.0468 22.5716C50.9791 22.4494 50.9199 22.3243 50.8684 22.1974C50.8177 22.0706 50.7746 21.9426 50.7408 21.8123C50.7062 21.6825 50.6808 21.5516 50.6631 21.4195C50.6462 21.2875 50.637 21.1554 50.637 21.0228C50.637 20.8901 50.6462 20.7581 50.6631 20.626C50.6808 20.4939 50.7062 20.363 50.7408 20.2327C50.7746 20.103 50.8177 19.9744 50.8684 19.8475C50.9199 19.7207 50.9791 19.5962 51.0468 19.4734C51.1137 19.3511 51.1891 19.2312 51.2721 19.1142C51.3552 18.9978 51.4459 18.8843 51.5436 18.7737C51.6412 18.6636 51.7458 18.557 51.8581 18.4545C51.9695 18.352 52.088 18.2541 52.2125 18.1603C52.3371 18.0664 52.4671 17.9778 52.6032 17.8938C52.7393 17.8093 52.8808 17.7305 53.0269 17.6569C53.1737 17.5834 53.3244 17.515 53.4798 17.453C53.6351 17.3905 53.7943 17.3337 53.9565 17.2828C54.1195 17.2324 54.2848 17.1878 54.4532 17.149C54.6224 17.1107 54.7924 17.0783 54.9654 17.0528C55.1384 17.0267 55.3122 17.007 55.4875 16.9943C55.6628 16.9816 55.8381 16.9746 56.0142 16.9746C56.1903 16.9746 56.3664 16.9816 56.5417 16.9943C56.717 17.007 56.8908 17.0267 57.0638 17.0528C57.2361 17.0783 57.4068 17.1107 57.5752 17.149C57.7436 17.1878 57.9097 17.2324 58.0719 17.2828C58.2349 17.3337 58.3941 17.3905 58.5494 17.453C58.7048 17.515 58.8555 17.5834 59.0016 17.6569C59.1484 17.7305 59.2899 17.8093 59.426 17.8938C59.5621 17.9778 59.6921 18.0664 59.8167 18.1603C59.9412 18.2541 60.0596 18.352 60.1711 18.4545C60.2826 18.557 60.388 18.6636 60.4856 18.7737C60.5833 18.8843 60.674 18.9978 60.7571 19.1142C60.8401 19.2312 60.9147 19.3511 60.9824 19.4734C61.05 19.5962 61.1093 19.7207 61.16 19.8475C61.2115 19.9744 61.2538 20.103 61.2884 20.2327C61.323 20.363 61.3484 20.4939 61.3661 20.626C61.383 20.7581 61.3915 20.8901 61.3915 21.0228Z" fill="#52A386"/>
</g>
</g>
<mask id="mask2_302_23084" style="mask-type:luminance" maskUnits="userSpaceOnUse" x="36" y="44" width="9" height="7">
<path d="M36.9382 44.6074H44.2217V50.0938H36.9382V44.6074Z" fill="white"/>
</mask>
<g mask="url(#mask2_302_23084)">
<mask id="mask3_302_23084" style="mask-type:luminance" maskUnits="userSpaceOnUse" x="0" y="0" width="61" height="65">
<path d="M60.7947 30.2886C60.7301 28.8035 60.4456 27.3421 59.9404 25.905C58.7678 22.7321 56.3395 19.7856 52.8823 17.738C51.9257 17.1559 50.9176 16.6306 49.8572 16.1614C48.763 15.7073 47.6334 15.31 46.4692 14.9688C44.8729 14.4828 43.2227 14.1874 41.5518 13.8932C40.5507 13.7136 39.5556 13.5196 38.5698 13.3035C37.0789 10.3246 35.0957 7.46501 32.2914 5.06704C30.3667 3.40352 28.0299 2.18832 25.2817 1.42143C22.0998 0.543914 18.4396 0.740848 15.2384 1.45155C12.248 2.11012 9.39752 3.20369 6.79771 4.49014C5.49588 5.13365 4.07948 5.79222 3.04678 6.68132C1.82723 7.7245 0.851439 8.99531 0.561546 10.3906C0.410832 11.1106 0.303179 11.7958 0.420828 12.5181C0.511564 13.2294 0.71918 13.921 1.04368 14.5923C1.54734 15.566 2.08175 16.531 2.6923 17.4733C3.88571 19.3622 5.39053 21.0981 7.20602 22.6817C9.19529 24.3898 11.7344 25.7539 14.6264 26.4675C15.6114 26.6876 16.6156 26.8312 17.6391 26.8984C18.4365 26.9656 19.2347 26.9737 20.0344 26.9233C21.9275 26.8156 23.7676 26.5213 25.5554 26.0394C26.0068 25.9155 26.4543 25.7788 26.8988 25.6485C29.6401 26.3244 32.4682 26.7136 35.3303 26.9975C37.0881 27.1718 38.8605 27.2216 40.6175 27.371C41.345 27.462 42.0563 27.6004 42.7506 27.7875C43.1451 27.9306 43.5226 28.0951 43.8848 28.2798C44.1639 28.4635 44.4254 28.6592 44.6699 28.8683C44.9852 29.2141 45.2612 29.5761 45.4988 29.9555C45.8079 30.5967 46.0356 31.2536 46.1817 31.9266C46.3554 33.2107 46.3401 34.4937 46.1355 35.7755C45.7518 37.6447 45.0859 39.4553 44.1378 41.2074C43.2927 42.6648 42.2446 44.034 40.9951 45.3164C40.0439 46.1719 38.9997 46.9562 37.8609 47.6704C36.9128 48.2606 36.0446 48.9116 35.2565 49.6229C33.7293 51.0449 32.3575 52.5758 31.9408 54.4183C31.787 54.9842 31.7231 55.5559 31.7485 56.1328C31.7923 56.606 31.8777 57.0746 32.0046 57.5391C32.0807 57.805 32.1891 58.0627 32.3298 58.3124C32.602 58.8765 32.9527 59.4117 33.3818 59.918C35.128 61.8566 37.6602 63.1639 40.4553 64.0947C40.7367 64.1903 41.0212 64.2812 41.3096 64.3681C42.0847 64.601 43.385 64.4266 44.077 64.0959C44.7483 63.7831 45.2374 63.3533 45.5434 62.8054C45.7118 62.5054 45.8049 62.1926 45.8226 61.8671C45.8402 61.5415 45.7818 61.2241 45.6472 60.9142C45.5119 60.6049 45.3097 60.3229 45.0398 60.0686C44.7691 59.8143 44.4484 59.6035 44.077 59.4361C43.6549 59.2461 43.2504 59.0387 42.8521 58.8215C42.2239 58.4352 41.6472 58.0089 41.1227 57.5432C40.9436 57.3474 40.7806 57.1441 40.6337 56.9338C40.5783 56.8035 40.533 56.6732 40.4914 56.5429C40.4914 56.4873 40.4914 56.4299 40.4914 56.3726C40.5207 56.288 40.5522 56.2046 40.5853 56.1212C40.7075 55.9468 40.839 55.7777 40.9828 55.6132C41.4872 55.1886 42.0347 54.7983 42.626 54.4415C43.2281 54.1316 43.8364 53.831 44.4577 53.5431C45.4881 53.0612 46.4792 52.537 47.4304 51.9705C49.8365 50.5526 51.8342 48.79 53.6066 46.9267C55.4198 45.0193 56.8362 42.9544 58.0365 40.7956C59.1715 38.7909 59.955 36.7104 60.3864 34.5557C60.6686 33.1464 60.8624 31.7262 60.7947 30.2886Z" fill="white"/>
</mask>
<g mask="url(#mask3_302_23084)">
<path d="M44.1863 47.3769C44.1863 47.4649 44.1802 47.5536 44.1687 47.6416C44.1571 47.7291 44.1402 47.8165 44.1171 47.9034C44.0941 47.9903 44.0656 48.0754 44.0318 48.1606C43.9979 48.2451 43.958 48.328 43.9134 48.4096C43.868 48.4913 43.818 48.5712 43.7627 48.6489C43.7073 48.7271 43.6473 48.8029 43.5819 48.8765C43.5166 48.9501 43.4466 49.0207 43.372 49.0891C43.2974 49.1574 43.219 49.2229 43.136 49.2854C43.0529 49.348 42.966 49.4071 42.8753 49.4632C42.7845 49.5194 42.69 49.5716 42.5923 49.6208C42.4947 49.67 42.3947 49.7152 42.2909 49.7569C42.1871 49.7986 42.081 49.8363 41.9725 49.8704C41.8641 49.904 41.7542 49.9342 41.6411 49.9596C41.5289 49.9851 41.4151 50.0066 41.3005 50.0239C41.1851 50.0413 41.069 50.0541 40.9521 50.0627C40.8353 50.0714 40.7184 50.0761 40.6007 50.0761C40.4831 50.0761 40.3662 50.0714 40.2493 50.0627C40.1324 50.0541 40.0163 50.0413 39.901 50.0239C39.7864 50.0066 39.6726 49.9851 39.5596 49.9596C39.4473 49.9342 39.3374 49.904 39.2289 49.8704C39.1197 49.8363 39.0144 49.7986 38.9106 49.7569C38.8068 49.7152 38.7061 49.67 38.6084 49.6208C38.5107 49.5716 38.4169 49.5194 38.3262 49.4632C38.2355 49.4071 38.1486 49.348 38.0655 49.2854C37.9825 49.2229 37.9033 49.1574 37.8295 49.0891C37.7549 49.0207 37.6849 48.9501 37.6195 48.8765C37.5542 48.8029 37.4942 48.7271 37.4388 48.6489C37.3835 48.5712 37.3335 48.4913 37.2881 48.4096C37.2435 48.328 37.2035 48.2451 37.1697 48.1606C37.1359 48.0754 37.1074 47.9903 37.0843 47.9034C37.0613 47.8165 37.0444 47.7291 37.0328 47.6416C37.0213 47.5536 37.0151 47.4649 37.0151 47.3769C37.0151 47.2883 37.0213 47.2002 37.0328 47.1122C37.0444 47.0242 37.0613 46.9367 37.0843 46.8504C37.1074 46.7635 37.1359 46.6778 37.1697 46.5932C37.2035 46.5086 37.2435 46.4258 37.2881 46.3441C37.3335 46.2625 37.3835 46.1825 37.4388 46.1044C37.4942 46.0267 37.5542 45.9509 37.6195 45.8773C37.6849 45.8037 37.7549 45.7331 37.8295 45.6647C37.9033 45.5964 37.9825 45.5309 38.0655 45.4684C38.1486 45.4058 38.2355 45.3467 38.3262 45.2905C38.4169 45.2344 38.5107 45.1817 38.6084 45.1324C38.7061 45.0838 38.8068 45.038 38.9106 44.9963C39.0144 44.9546 39.1197 44.917 39.2289 44.8834C39.3374 44.8492 39.4473 44.8196 39.5596 44.7942C39.6726 44.7687 39.7864 44.7467 39.901 44.7299C40.0163 44.7125 40.1324 44.6997 40.2493 44.6911C40.3662 44.6824 40.4831 44.6777 40.6007 44.6777C40.7184 44.6777 40.8353 44.6824 40.9521 44.6911C41.069 44.6997 41.1851 44.7125 41.3005 44.7299C41.4151 44.7467 41.5289 44.7687 41.6411 44.7942C41.7542 44.8196 41.8641 44.8492 41.9725 44.8834C42.081 44.917 42.1871 44.9546 42.2909 44.9963C42.3947 45.038 42.4947 45.0838 42.5923 45.1324C42.69 45.1817 42.7845 45.2344 42.8753 45.2905C42.966 45.3467 43.0529 45.4058 43.136 45.4684C43.219 45.5309 43.2974 45.5964 43.372 45.6647C43.4466 45.7331 43.5166 45.8037 43.5819 45.8773C43.6473 45.9509 43.7073 46.0267 43.7627 46.1044C43.818 46.1825 43.868 46.2625 43.9134 46.3441C43.958 46.4258 43.9979 46.5086 44.0318 46.5932C44.0656 46.6778 44.0941 46.7635 44.1171 46.8504C44.1402 46.9367 44.1571 47.0242 44.1687 47.1122C44.1802 47.2002 44.1863 47.2883 44.1863 47.3769Z" fill="#52A386"/>
</g>
</g>
<mask id="mask4_302_23084" style="mask-type:luminance" maskUnits="userSpaceOnUse" x="56" y="26" width="4" height="3">
<path d="M56.0327 26.2207H59.1823V28.5932H56.0327V26.2207Z" fill="white"/>
</mask>
<g mask="url(#mask4_302_23084)">
<mask id="mask5_302_23084" style="mask-type:luminance" maskUnits="userSpaceOnUse" x="0" y="0" width="61" height="65">
<path d="M60.7947 30.2886C60.7301 28.8035 60.4456 27.3421 59.9404 25.905C58.7678 22.7321 56.3395 19.7856 52.8823 17.738C51.9257 17.1559 50.9176 16.6306 49.8572 16.1614C48.763 15.7073 47.6334 15.31 46.4692 14.9688C44.8729 14.4828 43.2227 14.1874 41.5518 13.8932C40.5507 13.7136 39.5556 13.5196 38.5698 13.3035C37.0789 10.3246 35.0957 7.46501 32.2914 5.06704C30.3667 3.40352 28.0299 2.18832 25.2817 1.42143C22.0998 0.543914 18.4396 0.740848 15.2384 1.45155C12.248 2.11012 9.39752 3.20369 6.79771 4.49014C5.49588 5.13365 4.07948 5.79222 3.04678 6.68132C1.82723 7.7245 0.851439 8.99531 0.561546 10.3906C0.410832 11.1106 0.303179 11.7958 0.420828 12.5181C0.511564 13.2294 0.71918 13.921 1.04368 14.5923C1.54734 15.566 2.08175 16.531 2.6923 17.4733C3.88571 19.3622 5.39053 21.0981 7.20602 22.6817C9.19529 24.3898 11.7344 25.7539 14.6264 26.4675C15.6114 26.6876 16.6156 26.8312 17.6391 26.8984C18.4365 26.9656 19.2347 26.9737 20.0344 26.9233C21.9275 26.8156 23.7676 26.5213 25.5554 26.0394C26.0068 25.9155 26.4543 25.7788 26.8988 25.6485C29.6401 26.3244 32.4682 26.7136 35.3303 26.9975C37.0881 27.1718 38.8605 27.2216 40.6175 27.371C41.345 27.462 42.0563 27.6004 42.7506 27.7875C43.1451 27.9306 43.5226 28.0951 43.8848 28.2798C44.1639 28.4635 44.4254 28.6592 44.6699 28.8683C44.9852 29.2141 45.2612 29.5761 45.4988 29.9555C45.8079 30.5967 46.0356 31.2536 46.1817 31.9266C46.3554 33.2107 46.3401 34.4937 46.1355 35.7755C45.7518 37.6447 45.0859 39.4553 44.1378 41.2074C43.2927 42.6648 42.2446 44.034 40.9951 45.3164C40.0439 46.1719 38.9997 46.9562 37.8609 47.6704C36.9128 48.2606 36.0446 48.9116 35.2565 49.6229C33.7293 51.0449 32.3575 52.5758 31.9408 54.4183C31.787 54.9842 31.7231 55.5559 31.7485 56.1328C31.7923 56.606 31.8777 57.0746 32.0046 57.5391C32.0807 57.805 32.1891 58.0627 32.3298 58.3124C32.602 58.8765 32.9527 59.4117 33.3818 59.918C35.128 61.8566 37.6602 63.1639 40.4553 64.0947C40.7367 64.1903 41.0212 64.2812 41.3096 64.3681C42.0847 64.601 43.385 64.4266 44.077 64.0959C44.7483 63.7831 45.2374 63.3533 45.5434 62.8054C45.7118 62.5054 45.8049 62.1926 45.8226 61.8671C45.8402 61.5415 45.7818 61.2241 45.6472 60.9142C45.5119 60.6049 45.3097 60.3229 45.0398 60.0686C44.7691 59.8143 44.4484 59.6035 44.077 59.4361C43.6549 59.2461 43.2504 59.0387 42.8521 58.8215C42.2239 58.4352 41.6472 58.0089 41.1227 57.5432C40.9436 57.3474 40.7806 57.1441 40.6337 56.9338C40.5783 56.8035 40.533 56.6732 40.4914 56.5429C40.4914 56.4873 40.4914 56.4299 40.4914 56.3726C40.5207 56.288 40.5522 56.2046 40.5853 56.1212C40.7075 55.9468 40.839 55.7777 40.9828 55.6132C41.4872 55.1886 42.0347 54.7983 42.626 54.4415C43.2281 54.1316 43.8364 53.831 44.4577 53.5431C45.4881 53.0612 46.4792 52.537 47.4304 51.9705C49.8365 50.5526 51.8342 48.79 53.6066 46.9267C55.4198 45.0193 56.8362 42.9544 58.0365 40.7956C59.1715 38.7909 59.955 36.7104 60.3864 34.5557C60.6686 33.1464 60.8624 31.7262 60.7947 30.2886Z" fill="white"/>
</mask>
<g mask="url(#mask5_302_23084)">
<path d="M59.0014 27.4092C59.0014 27.4804 58.9922 27.5505 58.9738 27.62C58.9553 27.6895 58.9284 27.7567 58.8922 27.8221C58.8561 27.8876 58.8123 27.9502 58.76 28.0092C58.7077 28.0677 58.6477 28.1222 58.5816 28.1726C58.5147 28.2224 58.4424 28.2676 58.364 28.307C58.2855 28.3463 58.2033 28.3794 58.1164 28.4066C58.0295 28.4338 57.9395 28.4541 57.8472 28.468C57.755 28.4819 57.6619 28.4888 57.5674 28.4888C57.4735 28.4888 57.3797 28.4819 57.2875 28.468C57.1952 28.4541 57.106 28.4338 57.0191 28.4066C56.9314 28.3794 56.8492 28.3463 56.7707 28.307C56.6923 28.2676 56.62 28.2224 56.5539 28.1726C56.487 28.1222 56.4278 28.0677 56.3755 28.0092C56.3232 27.9502 56.2786 27.8876 56.2425 27.8221C56.2071 27.7567 56.1794 27.6895 56.1609 27.62C56.1425 27.5505 56.134 27.4804 56.134 27.4092C56.134 27.3385 56.1425 27.2684 56.1609 27.1989C56.1794 27.1294 56.2071 27.0616 56.2425 26.9962C56.2786 26.9307 56.3232 26.8688 56.3755 26.8097C56.4278 26.7506 56.487 26.6961 56.5539 26.6463C56.62 26.5959 56.6923 26.5513 56.7707 26.512C56.8492 26.4726 56.9314 26.4396 57.0191 26.4123C57.106 26.3851 57.1952 26.3648 57.2875 26.3509C57.3797 26.337 57.4735 26.3301 57.5674 26.3301C57.6619 26.3301 57.755 26.337 57.8472 26.3509C57.9395 26.3648 58.0295 26.3851 58.1164 26.4123C58.2033 26.4396 58.2855 26.4726 58.364 26.512C58.4424 26.5513 58.5147 26.5959 58.5816 26.6463C58.6477 26.6961 58.7077 26.7506 58.76 26.8097C58.8123 26.8688 58.8561 26.9307 58.8922 26.9962C58.9284 27.0616 58.9553 27.1294 58.9738 27.1989C58.9922 27.2684 59.0014 27.3385 59.0014 27.4092Z" fill="#52A386"/>
</g>
</g>
<mask id="mask6_302_23084" style="mask-type:luminance" maskUnits="userSpaceOnUse" x="50" y="25" width="3" height="3">
<path d="M50.5208 25.7754H52.883V27.5548H50.5208V25.7754Z" fill="white"/>
</mask>
<g mask="url(#mask6_302_23084)">
<mask id="mask7_302_23084" style="mask-type:luminance" maskUnits="userSpaceOnUse" x="0" y="0" width="61" height="65">
<path d="M60.7947 30.2886C60.7301 28.8035 60.4456 27.3421 59.9404 25.905C58.7678 22.7321 56.3395 19.7856 52.8823 17.738C51.9257 17.1559 50.9176 16.6306 49.8572 16.1614C48.763 15.7073 47.6334 15.31 46.4692 14.9688C44.8729 14.4828 43.2227 14.1874 41.5518 13.8932C40.5507 13.7136 39.5556 13.5196 38.5698 13.3035C37.0789 10.3246 35.0957 7.46501 32.2914 5.06704C30.3667 3.40352 28.0299 2.18832 25.2817 1.42143C22.0998 0.543914 18.4396 0.740848 15.2384 1.45155C12.248 2.11012 9.39752 3.20369 6.79771 4.49014C5.49588 5.13365 4.07948 5.79222 3.04678 6.68132C1.82723 7.7245 0.851439 8.99531 0.561546 10.3906C0.410832 11.1106 0.303179 11.7958 0.420828 12.5181C0.511564 13.2294 0.71918 13.921 1.04368 14.5923C1.54734 15.566 2.08175 16.531 2.6923 17.4733C3.88571 19.3622 5.39053 21.0981 7.20602 22.6817C9.19529 24.3898 11.7344 25.7539 14.6264 26.4675C15.6114 26.6876 16.6156 26.8312 17.6391 26.8984C18.4365 26.9656 19.2347 26.9737 20.0344 26.9233C21.9275 26.8156 23.7676 26.5213 25.5554 26.0394C26.0068 25.9155 26.4543 25.7788 26.8988 25.6485C29.6401 26.3244 32.4682 26.7136 35.3303 26.9975C37.0881 27.1718 38.8605 27.2216 40.6175 27.371C41.345 27.462 42.0563 27.6004 42.7506 27.7875C43.1451 27.9306 43.5226 28.0951 43.8848 28.2798C44.1639 28.4635 44.4254 28.6592 44.6699 28.8683C44.9852 29.2141 45.2612 29.5761 45.4988 29.9555C45.8079 30.5967 46.0356 31.2536 46.1817 31.9266C46.3554 33.2107 46.3401 34.4937 46.1355 35.7755C45.7518 37.6447 45.0859 39.4553 44.1378 41.2074C43.2927 42.6648 42.2446 44.034 40.9951 45.3164C40.0439 46.1719 38.9997 46.9562 37.8609 47.6704C36.9128 48.2606 36.0446 48.9116 35.2565 49.6229C33.7293 51.0449 32.3575 52.5758 31.9408 54.4183C31.787 54.9842 31.7231 55.5559 31.7485 56.1328C31.7923 56.606 31.8777 57.0746 32.0046 57.5391C32.0807 57.805 32.1891 58.0627 32.3298 58.3124C32.602 58.8765 32.9527 59.4117 33.3818 59.918C35.128 61.8566 37.6602 63.1639 40.4553 64.0947C40.7367 64.1903 41.0212 64.2812 41.3096 64.3681C42.0847 64.601 43.385 64.4266 44.077 64.0959C44.7483 63.7831 45.2374 63.3533 45.5434 62.8054C45.7118 62.5054 45.8049 62.1926 45.8226 61.8671C45.8402 61.5415 45.7818 61.2241 45.6472 60.9142C45.5119 60.6049 45.3097 60.3229 45.0398 60.0686C44.7691 59.8143 44.4484 59.6035 44.077 59.4361C43.6549 59.2461 43.2504 59.0387 42.8521 58.8215C42.2239 58.4352 41.6472 58.0089 41.1227 57.5432C40.9436 57.3474 40.7806 57.1441 40.6337 56.9338C40.5783 56.8035 40.533 56.6732 40.4914 56.5429C40.4914 56.4873 40.4914 56.4299 40.4914 56.3726C40.5207 56.288 40.5522 56.2046 40.5853 56.1212C40.7075 55.9468 40.839 55.7777 40.9828 55.6132C41.4872 55.1886 42.0347 54.7983 42.626 54.4415C43.2281 54.1316 43.8364 53.831 44.4577 53.5431C45.4881 53.0612 46.4792 52.537 47.4304 51.9705C49.8365 50.5526 51.8342 48.79 53.6066 46.9267C55.4198 45.0193 56.8362 42.9544 58.0365 40.7956C59.1715 38.7909 59.955 36.7104 60.3864 34.5557C60.6686 33.1464 60.8624 31.7262 60.7947 30.2886Z" fill="white"/>
</mask>
<g mask="url(#mask7_302_23084)">
<path d="M52.7885 26.5988C52.7885 26.6521 52.7816 26.7048 52.7685 26.7569C52.7546 26.8091 52.7339 26.8595 52.707 26.9087C52.6801 26.9579 52.647 27.0048 52.6078 27.0489C52.5686 27.0929 52.524 27.134 52.474 27.1717C52.424 27.2093 52.3694 27.2429 52.311 27.2724C52.2518 27.302 52.1902 27.3269 52.1249 27.3472C52.0595 27.3674 51.9918 27.3831 51.9226 27.3929C51.8534 27.4033 51.7835 27.4086 51.7127 27.4086C51.6427 27.4086 51.5728 27.4033 51.5028 27.3929C51.4336 27.3831 51.3667 27.3674 51.3013 27.3472C51.236 27.3269 51.1745 27.302 51.1152 27.2724C51.0568 27.2429 51.0022 27.2093 50.9522 27.1717C50.9022 27.134 50.8577 27.0929 50.8184 27.0489C50.7792 27.0048 50.7462 26.9579 50.7192 26.9087C50.6923 26.8595 50.6716 26.8091 50.6577 26.7569C50.6439 26.7048 50.637 26.6521 50.637 26.5988C50.637 26.5455 50.6439 26.4928 50.6577 26.4407C50.6716 26.3886 50.6923 26.3382 50.7192 26.2889C50.7462 26.2397 50.7792 26.1934 50.8184 26.1488C50.8577 26.1047 50.9022 26.0636 50.9522 26.0265C51.0022 25.9889 51.0568 25.9553 51.1152 25.9258C51.1745 25.8962 51.236 25.8713 51.3013 25.8505C51.3667 25.8302 51.4336 25.8151 51.5028 25.8047C51.5728 25.7943 51.6427 25.7891 51.7127 25.7891C51.7835 25.7891 51.8534 25.7943 51.9226 25.8047C51.9918 25.8151 52.0595 25.8302 52.1249 25.8505C52.1902 25.8713 52.2518 25.8962 52.311 25.9258C52.3694 25.9553 52.424 25.9889 52.474 26.0265C52.524 26.0636 52.5686 26.1047 52.6078 26.1488C52.647 26.1934 52.6801 26.2397 52.707 26.2889C52.7339 26.3382 52.7546 26.3886 52.7685 26.4407C52.7816 26.4928 52.7885 26.5455 52.7885 26.5988Z" fill="#52A386"/>
</g>
</g>
<mask id="mask8_302_23084" style="mask-type:luminance" maskUnits="userSpaceOnUse" x="33" y="59" width="7" height="5">
<path d="M33.5918 59.2871H39.1036V63.439H33.5918V59.2871Z" fill="white"/>
</mask>
<g mask="url(#mask8_302_23084)">
<mask id="mask9_302_23084" style="mask-type:luminance" maskUnits="userSpaceOnUse" x="0" y="0" width="61" height="65">
<path d="M60.795 30.2886C60.7304 28.8035 60.4459 27.3421 59.9407 25.905C58.768 22.7321 56.3397 19.7856 52.8825 17.738C51.9259 17.1559 50.9178 16.6306 49.8575 16.1614C48.7633 15.7073 47.6337 15.31 46.4695 14.9688C44.8731 14.4828 43.223 14.1874 41.5521 13.8932C40.5509 13.7136 39.5559 13.5196 38.5701 13.3035C37.0791 10.3246 35.096 7.46501 32.2916 5.06704C30.367 3.40352 28.0301 2.18832 25.2819 1.42143C22.1 0.543914 18.4398 0.740848 15.2387 1.45155C12.2483 2.11012 9.39776 3.20369 6.79795 4.49014C5.49612 5.13365 4.07972 5.79222 3.04703 6.68132C1.82748 7.7245 0.851683 8.99531 0.56179 10.3906C0.411076 11.1106 0.303423 11.7958 0.421073 12.5181C0.511808 13.2294 0.719424 13.921 1.04392 14.5923C1.54758 15.566 2.082 16.531 2.69254 17.4733C3.88595 19.3622 5.39078 21.0981 7.20626 22.6817C9.19553 24.3898 11.7346 25.7539 14.6266 26.4675C15.6116 26.6876 16.6159 26.8312 17.6393 26.8984C18.4367 26.9656 19.2349 26.9737 20.0346 26.9233C21.9278 26.8156 23.7679 26.5213 25.5557 26.0394C26.007 25.9155 26.4546 25.7788 26.899 25.6485C29.6403 26.3244 32.4685 26.7136 35.3305 26.9975C37.0883 27.1718 38.8608 27.2216 40.6178 27.371C41.3452 27.462 42.0565 27.6004 42.7509 27.7875C43.1453 27.9306 43.5229 28.0951 43.8851 28.2798C44.1642 28.4635 44.4256 28.6592 44.6701 28.8683C44.9854 29.2141 45.2615 29.5761 45.4991 29.9555C45.8082 30.5967 46.0358 31.2536 46.1819 31.9266C46.3557 33.2107 46.3403 34.4937 46.1358 35.7755C45.7521 37.6447 45.0861 39.4553 44.138 41.2074C43.293 42.6648 42.2449 44.034 40.9953 45.3164C40.0442 46.1719 38.9999 46.9562 37.8611 47.6704C36.913 48.2606 36.0449 48.9116 35.2567 49.6229C33.7296 51.0449 32.3578 52.5758 31.941 54.4183C31.7872 54.9842 31.7234 55.5559 31.7488 56.1328C31.7926 56.606 31.8779 57.0746 32.0048 57.5391C32.0809 57.805 32.1894 58.0627 32.3301 58.3124C32.6023 58.8765 32.9529 59.4117 33.382 59.918C35.1283 61.8566 37.6604 63.1639 40.4555 64.0947C40.737 64.1903 41.0215 64.2812 41.3098 64.3681C42.0849 64.601 43.3852 64.4266 44.0773 64.0959C44.7486 63.7831 45.2376 63.3533 45.5437 62.8054C45.7121 62.5054 45.8051 62.1926 45.8228 61.8671C45.8405 61.5415 45.782 61.2241 45.6475 60.9142C45.5121 60.6049 45.3099 60.3229 45.04 60.0686C44.7693 59.8143 44.4487 59.6035 44.0773 59.4361C43.6551 59.2461 43.2507 59.0387 42.8524 58.8215C42.2241 58.4352 41.6474 58.0089 41.123 57.5432C40.9438 57.3474 40.7808 57.1441 40.6339 56.9338C40.5786 56.8035 40.5332 56.6732 40.4917 56.5429C40.4917 56.4873 40.4917 56.4299 40.4917 56.3726C40.5209 56.288 40.5524 56.2046 40.5855 56.1212C40.7078 55.9468 40.8393 55.7777 40.983 55.6132C41.4875 55.1886 42.035 54.7983 42.6263 54.4415C43.2284 54.1316 43.8366 53.831 44.4579 53.5431C45.4883 53.0612 46.4795 52.537 47.4307 51.9705C49.8367 50.5526 51.8344 48.79 53.6069 46.9267C55.42 45.0193 56.8364 42.9544 58.0368 40.7956C59.1717 38.7909 59.9553 36.7104 60.3867 34.5557C60.6689 33.1464 60.8626 31.7262 60.795 30.2886Z" fill="white"/>
</mask>
<g mask="url(#mask9_302_23084)">
<path d="M38.9285 61.4083C38.9285 61.5386 38.9116 61.6672 38.8777 61.7946C38.8439 61.9221 38.7947 62.046 38.7285 62.1659C38.6624 62.2858 38.5809 62.3999 38.4856 62.5082C38.3894 62.616 38.2802 62.7162 38.1588 62.8077C38.0365 62.8998 37.9035 62.982 37.7597 63.0539C37.6166 63.1263 37.4652 63.1871 37.3052 63.2369C37.1461 63.2867 36.9815 63.3244 36.8123 63.3493C36.6432 63.3748 36.4725 63.3875 36.2994 63.3875C36.1272 63.3875 35.9557 63.3748 35.7866 63.3493C35.6174 63.3244 35.4528 63.2867 35.2937 63.2369C35.1337 63.1871 34.9822 63.1263 34.8392 63.0539C34.6954 62.982 34.5624 62.8998 34.4409 62.8077C34.3186 62.7162 34.2094 62.616 34.1133 62.5082C34.018 62.3999 33.9365 62.2858 33.8703 62.1659C33.8042 62.046 33.755 61.9221 33.7212 61.7946C33.6873 61.6672 33.6704 61.5386 33.6704 61.4083C33.6704 61.2786 33.6873 61.15 33.7212 61.0225C33.755 60.8951 33.8042 60.7712 33.8703 60.6513C33.9365 60.5314 34.018 60.4173 34.1133 60.3089C34.2094 60.2012 34.3186 60.101 34.4409 60.0095C34.5624 59.9174 34.6954 59.8351 34.8392 59.7633C34.9822 59.6909 35.1337 59.6301 35.2937 59.5803C35.4528 59.5305 35.6174 59.4928 35.7866 59.4673C35.9557 59.4424 36.1272 59.4297 36.2994 59.4297C36.4725 59.4297 36.6432 59.4424 36.8123 59.4673C36.9815 59.4928 37.1461 59.5305 37.3052 59.5803C37.4652 59.6301 37.6166 59.6909 37.7597 59.7633C37.9035 59.8351 38.0365 59.9174 38.1588 60.0095C38.2802 60.101 38.3894 60.2012 38.4856 60.3089C38.5809 60.4173 38.6624 60.5314 38.7285 60.6513C38.7947 60.7712 38.8439 60.8951 38.8777 61.0225C38.9116 61.15 38.9285 61.2786 38.9285 61.4083Z" fill="#52A386"/>
</g>
</g>
<mask id="mask10_302_23084" style="mask-type:luminance" maskUnits="userSpaceOnUse" x="33" y="55" width="3" height="3">
<path d="M33.5918 55.4316H35.954V57.211H33.5918V55.4316Z" fill="white"/>
</mask>
<g mask="url(#mask10_302_23084)">
<mask id="mask11_302_23084" style="mask-type:luminance" maskUnits="userSpaceOnUse" x="0" y="0" width="61" height="65">
<path d="M60.795 30.2886C60.7304 28.8035 60.4459 27.3421 59.9407 25.905C58.768 22.7321 56.3397 19.7856 52.8825 17.738C51.9259 17.1559 50.9178 16.6306 49.8575 16.1614C48.7633 15.7073 47.6337 15.31 46.4695 14.9688C44.8731 14.4828 43.223 14.1874 41.5521 13.8932C40.5509 13.7136 39.5559 13.5196 38.5701 13.3035C37.0791 10.3246 35.096 7.46501 32.2916 5.06704C30.367 3.40352 28.0301 2.18832 25.2819 1.42143C22.1 0.543914 18.4398 0.740848 15.2387 1.45155C12.2483 2.11012 9.39776 3.20369 6.79795 4.49014C5.49612 5.13365 4.07972 5.79222 3.04703 6.68132C1.82748 7.7245 0.851683 8.99531 0.56179 10.3906C0.411076 11.1106 0.303423 11.7958 0.421073 12.5181C0.511808 13.2294 0.719424 13.921 1.04392 14.5923C1.54758 15.566 2.082 16.531 2.69254 17.4733C3.88595 19.3622 5.39078 21.0981 7.20626 22.6817C9.19553 24.3898 11.7346 25.7539 14.6266 26.4675C15.6116 26.6876 16.6159 26.8312 17.6393 26.8984C18.4367 26.9656 19.2349 26.9737 20.0346 26.9233C21.9278 26.8156 23.7679 26.5213 25.5557 26.0394C26.007 25.9155 26.4546 25.7788 26.899 25.6485C29.6403 26.3244 32.4685 26.7136 35.3305 26.9975C37.0883 27.1718 38.8608 27.2216 40.6178 27.371C41.3452 27.462 42.0565 27.6004 42.7509 27.7875C43.1453 27.9306 43.5229 28.0951 43.8851 28.2798C44.1642 28.4635 44.4256 28.6592 44.6701 28.8683C44.9854 29.2141 45.2615 29.5761 45.4991 29.9555C45.8082 30.5967 46.0358 31.2536 46.1819 31.9266C46.3557 33.2107 46.3403 34.4937 46.1358 35.7755C45.7521 37.6447 45.0861 39.4553 44.138 41.2074C43.293 42.6648 42.2449 44.034 40.9953 45.3164C40.0442 46.1719 38.9999 46.9562 37.8611 47.6704C36.913 48.2606 36.0449 48.9116 35.2567 49.6229C33.7296 51.0449 32.3578 52.5758 31.941 54.4183C31.7872 54.9842 31.7234 55.5559 31.7488 56.1328C31.7926 56.606 31.8779 57.0746 32.0048 57.5391C32.0809 57.805 32.1894 58.0627 32.3301 58.3124C32.6023 58.8765 32.9529 59.4117 33.382 59.918C35.1283 61.8566 37.6604 63.1639 40.4555 64.0947C40.737 64.1903 41.0215 64.2812 41.3098 64.3681C42.0849 64.601 43.3852 64.4266 44.0773 64.0959C44.7486 63.7831 45.2376 63.3533 45.5437 62.8054C45.7121 62.5054 45.8051 62.1926 45.8228 61.8671C45.8405 61.5415 45.782 61.2241 45.6475 60.9142C45.5121 60.6049 45.3099 60.3229 45.04 60.0686C44.7693 59.8143 44.4487 59.6035 44.0773 59.4361C43.6551 59.2461 43.2507 59.0387 42.8524 58.8215C42.2241 58.4352 41.6474 58.0089 41.123 57.5432C40.9438 57.3474 40.7808 57.1441 40.6339 56.9338C40.5786 56.8035 40.5332 56.6732 40.4917 56.5429C40.4917 56.4873 40.4917 56.4299 40.4917 56.3726C40.5209 56.288 40.5524 56.2046 40.5855 56.1212C40.7078 55.9468 40.8393 55.7777 40.983 55.6132C41.4875 55.1886 42.035 54.7983 42.6263 54.4415C43.2284 54.1316 43.8366 53.831 44.4579 53.5431C45.4883 53.0612 46.4795 52.537 47.4307 51.9705C49.8367 50.5526 51.8344 48.79 53.6069 46.9267C55.42 45.0193 56.8364 42.9544 58.0368 40.7956C59.1717 38.7909 59.9553 36.7104 60.3867 34.5557C60.6689 33.1464 60.8626 31.7262 60.795 30.2886Z" fill="white"/>
</mask>
<g mask="url(#mask11_302_23084)">
<path d="M33.9234 55.7613C33.9687 55.7208 34.0187 55.6837 34.0741 55.6507C34.1287 55.6171 34.1879 55.5881 34.2502 55.5638C34.3132 55.5395 34.3786 55.5198 34.4463 55.5047C34.5139 55.4896 34.5831 55.4804 34.6539 55.4757C34.7238 55.4711 34.7946 55.4717 34.8646 55.4775C34.9345 55.4833 35.0037 55.4943 35.0706 55.5099C35.1383 55.5261 35.2029 55.547 35.2652 55.5725C35.3267 55.598 35.3851 55.6281 35.439 55.6623C35.4928 55.6964 35.542 55.7341 35.5866 55.7758C35.6304 55.8175 35.6689 55.8615 35.7012 55.909C35.7342 55.9559 35.7604 56.0052 35.7796 56.0561C35.7996 56.1071 35.8127 56.1592 35.8188 56.2125C35.825 56.2652 35.8242 56.3185 35.8165 56.3712C35.8088 56.4239 35.7942 56.4755 35.7727 56.5264C35.7512 56.5774 35.7235 56.6261 35.6896 56.6724C35.6558 56.7188 35.6158 56.7628 35.5705 56.8033C35.5251 56.8439 35.4743 56.8809 35.4197 56.9145C35.3644 56.9475 35.3052 56.9765 35.2429 57.0008C35.1798 57.0257 35.1145 57.0454 35.0468 57.0599C34.9791 57.075 34.9099 57.0848 34.84 57.0889C34.7692 57.0935 34.6992 57.0929 34.6285 57.0871C34.5585 57.0813 34.4893 57.0703 34.4224 57.0547C34.3547 57.0385 34.2902 57.0176 34.2286 56.9921C34.1664 56.9661 34.1087 56.9365 34.0541 56.9024C34.0003 56.8682 33.9511 56.83 33.9072 56.7888C33.8634 56.7471 33.8249 56.7025 33.7919 56.6556C33.7596 56.6087 33.7334 56.5595 33.7134 56.5085C33.6942 56.4575 33.6812 56.4054 33.675 56.3521C33.6688 56.2994 33.6696 56.2467 33.6773 56.1934C33.685 56.1407 33.6996 56.0891 33.7211 56.0382C33.7427 55.9878 33.7696 55.9391 33.8042 55.8928C33.838 55.8459 33.8772 55.8024 33.9234 55.7613Z" fill="#52A386"/>
</g>
</g>
<mask id="mask12_302_23084" style="mask-type:luminance" maskUnits="userSpaceOnUse" x="46" y="43" width="4" height="2">
<path d="M46.9775 43.125H49.3397V44.9044H46.9775V43.125Z" fill="white"/>
</mask>
<g mask="url(#mask12_302_23084)">
<mask id="mask13_302_23084" style="mask-type:luminance" maskUnits="userSpaceOnUse" x="0" y="0" width="61" height="65">
<path d="M60.7947 30.2886C60.7301 28.8035 60.4456 27.3421 59.9404 25.905C58.7678 22.7321 56.3395 19.7856 52.8823 17.738C51.9257 17.1559 50.9176 16.6306 49.8572 16.1614C48.763 15.7073 47.6334 15.31 46.4692 14.9688C44.8729 14.4828 43.2227 14.1874 41.5518 13.8932C40.5507 13.7136 39.5556 13.5196 38.5698 13.3035C37.0789 10.3246 35.0957 7.46501 32.2914 5.06704C30.3667 3.40352 28.0299 2.18832 25.2817 1.42143C22.0998 0.543914 18.4396 0.740848 15.2384 1.45155C12.248 2.11012 9.39752 3.20369 6.79771 4.49014C5.49588 5.13365 4.07948 5.79222 3.04678 6.68132C1.82723 7.7245 0.851439 8.99531 0.561546 10.3906C0.410832 11.1106 0.303179 11.7958 0.420828 12.5181C0.511564 13.2294 0.71918 13.921 1.04368 14.5923C1.54734 15.566 2.08175 16.531 2.6923 17.4733C3.88571 19.3622 5.39053 21.0981 7.20602 22.6817C9.19529 24.3898 11.7344 25.7539 14.6264 26.4675C15.6114 26.6876 16.6156 26.8312 17.6391 26.8984C18.4365 26.9656 19.2347 26.9737 20.0344 26.9233C21.9275 26.8156 23.7676 26.5213 25.5554 26.0394C26.0068 25.9155 26.4543 25.7788 26.8988 25.6485C29.6401 26.3244 32.4682 26.7136 35.3303 26.9975C37.0881 27.1718 38.8605 27.2216 40.6175 27.371C41.345 27.462 42.0563 27.6004 42.7506 27.7875C43.1451 27.9306 43.5226 28.0951 43.8848 28.2798C44.1639 28.4635 44.4254 28.6592 44.6699 28.8683C44.9852 29.2141 45.2612 29.5761 45.4988 29.9555C45.8079 30.5967 46.0356 31.2536 46.1817 31.9266C46.3554 33.2107 46.3401 34.4937 46.1355 35.7755C45.7518 37.6447 45.0859 39.4553 44.1378 41.2074C43.2927 42.6648 42.2446 44.034 40.9951 45.3164C40.0439 46.1719 38.9997 46.9562 37.8609 47.6704C36.9128 48.2606 36.0446 48.9116 35.2565 49.6229C33.7293 51.0449 32.3575 52.5758 31.9408 54.4183C31.787 54.9842 31.7231 55.5559 31.7485 56.1328C31.7923 56.606 31.8777 57.0746 32.0046 57.5391C32.0807 57.805 32.1891 58.0627 32.3298 58.3124C32.602 58.8765 32.9527 59.4117 33.3818 59.918C35.128 61.8566 37.6602 63.1639 40.4553 64.0947C40.7367 64.1903 41.0212 64.2812 41.3096 64.3681C42.0847 64.601 43.385 64.4266 44.077 64.0959C44.7483 63.7831 45.2374 63.3533 45.5434 62.8054C45.7118 62.5054 45.8049 62.1926 45.8226 61.8671C45.8402 61.5415 45.7818 61.2241 45.6472 60.9142C45.5119 60.6049 45.3097 60.3229 45.0398 60.0686C44.7691 59.8143 44.4484 59.6035 44.077 59.4361C43.6549 59.2461 43.2504 59.0387 42.8521 58.8215C42.2239 58.4352 41.6472 58.0089 41.1227 57.5432C40.9436 57.3474 40.7806 57.1441 40.6337 56.9338C40.5783 56.8035 40.533 56.6732 40.4914 56.5429C40.4914 56.4873 40.4914 56.4299 40.4914 56.3726C40.5207 56.288 40.5522 56.2046 40.5853 56.1212C40.7075 55.9468 40.839 55.7777 40.9828 55.6132C41.4872 55.1886 42.0347 54.7983 42.626 54.4415C43.2281 54.1316 43.8364 53.831 44.4577 53.5431C45.4881 53.0612 46.4792 52.537 47.4304 51.9705C49.8365 50.5526 51.8342 48.79 53.6066 46.9267C55.4198 45.0193 56.8362 42.9544 58.0365 40.7956C59.1715 38.7909 59.955 36.7104 60.3864 34.5557C60.6686 33.1464 60.8624 31.7262 60.7947 30.2886Z" fill="white"/>
</mask>
<g mask="url(#mask13_302_23084)">
<path d="M47.315 43.5267C47.3604 43.4862 47.4103 43.4491 47.4657 43.4161C47.5211 43.3825 47.5795 43.3535 47.6426 43.3292C47.7048 43.3049 47.7702 43.2852 47.8386 43.2701C47.9063 43.2556 47.9755 43.2458 48.0455 43.2411C48.1162 43.2365 48.1862 43.2377 48.2569 43.2435C48.3269 43.2492 48.3954 43.2603 48.463 43.2765C48.5299 43.2921 48.5953 43.313 48.6568 43.339C48.7183 43.3645 48.7768 43.3946 48.8306 43.4288C48.8844 43.463 48.9336 43.5006 48.9782 43.5423C49.022 43.584 49.0605 43.6281 49.0928 43.6756C49.1251 43.7225 49.1512 43.7717 49.1712 43.8227C49.1904 43.8742 49.2035 43.9264 49.2097 43.9791C49.2158 44.0324 49.215 44.0851 49.2066 44.1378C49.1989 44.1905 49.1843 44.2426 49.1635 44.293C49.142 44.344 49.1143 44.3926 49.0797 44.439C49.0459 44.4859 49.0059 44.5293 48.9605 44.5699C48.9152 44.6104 48.8644 44.6475 48.809 44.6805C48.7545 44.7141 48.6952 44.7431 48.6322 44.7674C48.5699 44.7917 48.5045 44.8114 48.4369 44.8259C48.3684 44.8409 48.2992 44.8508 48.2293 44.8548C48.1585 44.8595 48.0885 44.8589 48.0186 44.8531C47.9478 44.8473 47.8794 44.8363 47.8117 44.8201C47.7448 44.8039 47.6802 44.783 47.6179 44.7575C47.5564 44.7315 47.498 44.7014 47.4442 44.6672C47.3903 44.633 47.3411 44.5954 47.2973 44.5537C47.2527 44.5125 47.2143 44.4679 47.182 44.4204C47.1497 44.3735 47.1235 44.3243 47.1035 44.2733C47.0843 44.2223 47.0712 44.1702 47.0651 44.1175C47.0589 44.0642 47.0605 44.0115 47.0682 43.9588C47.0758 43.9055 47.0905 43.854 47.112 43.8036C47.1335 43.7526 47.1612 43.7039 47.195 43.6576C47.2289 43.6113 47.2688 43.5672 47.315 43.5267Z" fill="#52A386"/>
</g>
</g>
<path d="M3.57272 11.7757C2.88067 11.6454 2.77686 10.9642 2.91142 10.531C3.0383 10.1209 3.50351 9.52431 4.17403 9.6193C4.52006 9.67027 4.65847 9.28104 4.31783 9.22891C3.33896 9.08294 2.58847 9.76526 2.39315 10.4175C2.19707 11.0697 2.43775 11.9802 3.43046 12.1609C3.76572 12.2275 3.9026 11.8383 3.57272 11.7757Z" fill="#52A386"/>
</svg>
