<svg width="118" height="84" viewBox="0 0 118 84" fill="none" xmlns="http://www.w3.org/2000/svg">
<mask id="mask0_460_33014" style="mask-type:luminance" maskUnits="userSpaceOnUse" x="48" y="7" width="70" height="59">
<path d="M48.9258 8.91211L116.138 7.38027L117.419 63.5564L50.2061 65.0882L48.9258 8.91211Z" fill="white"/>
</mask>
<g mask="url(#mask0_460_33014)">
<path d="M116.863 39.6812C117.267 57.4181 102.368 63.6382 83.8247 64.0609C65.2802 64.4835 50.1138 58.9486 49.7095 41.2117C49.3053 23.4748 64.01 8.75115 82.5545 8.3285C101.098 7.90587 116.458 21.9407 116.863 39.6812Z" fill="#654C9C"/>
</g>
<mask id="mask1_460_33014" style="mask-type:luminance" maskUnits="userSpaceOnUse" x="3" y="1" width="67" height="62">
<path d="M3.52637 2.5625L68.2171 1.08813L69.5737 60.6104L4.88294 62.0847L3.52637 2.5625Z" fill="white"/>
</mask>
<g mask="url(#mask1_460_33014)">
<path d="M4.73592 45.9056C10.2946 58.1951 23.0142 68.1162 51.9213 55.5021C59.9027 52.0197 66.0896 44.2101 68.0215 34.4136C70.8969 19.8346 64.8441 1.19786 14.182 2.4738C14.0731 2.47628 13.9667 2.50054 13.865 2.54653C13.7633 2.59251 13.6712 2.65769 13.5889 2.74205C13.5065 2.82641 13.4389 2.92378 13.387 3.03655C13.334 3.14936 13.2987 3.26903 13.2811 3.3968C13.2645 3.52454 13.2663 3.65186 13.2867 3.77876C13.3071 3.90567 13.3458 4.02487 13.4017 4.1364C13.4577 4.24793 13.5278 4.34459 13.6119 4.42758C13.697 4.50934 13.7899 4.57272 13.8937 4.61645C18.1196 6.49853 22.6546 10.2646 22.8274 17.8468C23.0309 26.7758 16.769 38.4213 10.4924 38.1944" fill="#654C9C"/>
</g>
<mask id="mask2_460_33014" style="mask-type:luminance" maskUnits="userSpaceOnUse" x="0" y="25" width="11" height="22">
<path d="M0.514648 25.2324L10.3524 25.0082L10.8263 45.8027L0.988575 46.0269L0.514648 25.2324Z" fill="white"/>
</mask>
<g mask="url(#mask2_460_33014)">
<path d="M10.4975 38.2062C7.16598 38.0929 3.82912 34.6331 1.45668 25.6431C1.4408 25.5779 1.41477 25.5179 1.3796 25.4629C1.34443 25.4079 1.30226 25.3615 1.25313 25.325C1.20399 25.2886 1.15099 25.2631 1.09414 25.2486C1.03628 25.2354 0.979701 25.233 0.922397 25.244C0.865066 25.2538 0.811093 25.2757 0.761504 25.3096C0.710889 25.3435 0.667685 25.3869 0.629811 25.4387C0.592992 25.4917 0.565556 25.5506 0.546475 25.6153C0.527395 25.68 0.519642 25.7457 0.521217 25.8148C0.669759 30.5736 1.45923 38.6524 4.74176 45.9064" fill="#523F89"/>
</g>
<path d="M25.8191 23.4707C24.8547 29.36 27.7489 32.7898 32.741 33.9728C37.7331 35.1569 42.2873 33.0468 43.2486 27.154C43.3054 26.8046 43.3477 26.4531 43.3756 26.0982C43.4035 25.7434 43.417 25.3889 43.4151 25.0323C43.4131 24.6757 43.3968 24.3207 43.3651 23.966C43.3344 23.6113 43.2883 23.2594 43.2279 22.909C43.1675 22.5598 43.0918 22.2146 43.0029 21.8734C42.9139 21.5321 42.8107 21.1961 42.6932 20.8676C42.5767 20.5379 42.4461 20.2158 42.3022 19.9012C42.1594 19.5867 42.0024 19.281 41.8332 18.984C41.6641 18.6882 41.4838 18.4012 41.2905 18.1254C41.0982 17.8496 40.8949 17.5862 40.6804 17.3327C40.4661 17.0804 40.2417 16.8417 40.0073 16.6142C39.773 16.3878 39.5297 16.175 39.2785 15.977C39.0263 15.7789 38.7672 15.5944 38.5003 15.4258C38.2334 15.2585 37.9606 15.1046 37.681 14.9678C37.4024 14.831 37.1181 14.7101 36.829 14.6063C36.5398 14.5025 36.247 14.4158 35.9504 14.3449C30.9564 13.1645 26.7701 17.5782 25.8191 23.4707Z" fill="white"/>
<path d="M31.8851 32.0861C31.6919 32.0395 31.5025 31.9832 31.3139 31.9159C31.1263 31.8474 30.9416 31.7691 30.7597 31.6799C30.5789 31.5906 30.4008 31.4916 30.2277 31.3815C30.0536 31.2726 29.8854 31.1527 29.7222 31.0242C29.5589 30.8945 29.4005 30.7562 29.2481 30.6093C29.0957 30.4611 28.9504 30.3055 28.811 30.1413C28.6716 29.9771 28.5392 29.8055 28.4148 29.6251C28.2895 29.446 28.1721 29.2595 28.0619 29.0667C27.9527 28.8739 27.8515 28.6749 27.7585 28.4708C27.6644 28.2655 27.5805 28.0563 27.5047 27.8422C27.4289 27.628 27.3623 27.4099 27.3048 27.1881C27.2463 26.9662 27.198 26.7417 27.1589 26.5133C27.1198 26.2862 27.0909 26.0576 27.0703 25.8264C27.0506 25.5963 27.0402 25.3649 27.0401 25.1332C27.0389 24.9016 27.048 24.6709 27.0664 24.44C27.0848 24.2103 27.1125 23.9816 27.1505 23.754L27.3436 22.5766C27.3805 22.3501 27.4268 22.1247 27.4824 21.9038C27.539 21.6818 27.6039 21.4644 27.6771 21.2492C27.7514 21.0353 27.834 20.8272 27.926 20.6225C28.0169 20.4179 28.1162 20.2191 28.2248 20.0274C28.3325 19.8345 28.4485 19.6487 28.5719 19.47C28.6952 19.2913 28.826 19.1197 28.9641 18.9565C29.1021 18.792 29.2466 18.6371 29.3974 18.4905C29.5483 18.3439 29.7044 18.2057 29.867 18.0771C30.0295 17.9484 30.1974 17.8306 30.3696 17.7211C30.5419 17.6117 30.7184 17.5131 30.8994 17.4252C31.0803 17.3374 31.2646 17.2592 31.4521 17.1919C31.6387 17.1258 31.8286 17.0693 32.0208 17.0249C32.213 16.9792 32.4075 16.9457 32.6023 16.9243C32.797 16.9016 32.9931 16.8899 33.1894 16.8903C33.3857 16.8906 33.5813 16.9032 33.776 16.9266C33.9718 16.9489 34.1658 16.9832 34.359 17.0286C34.5513 17.0751 34.7417 17.1315 34.9292 17.1987C35.1178 17.2672 35.3026 17.3455 35.4844 17.4348C35.6663 17.5228 35.8433 17.6231 36.0174 17.7319C36.1906 17.842 36.3598 17.9607 36.523 18.0904C36.6874 18.22 36.8446 18.3572 36.997 18.5053C37.1494 18.6523 37.2958 18.8078 37.4352 18.972C37.5746 19.1363 37.707 19.3079 37.8324 19.4882C37.9578 19.6673 38.0761 19.8538 38.1853 20.0466C38.2956 20.2394 38.3977 20.4384 38.4908 20.6425C38.5839 20.8478 38.6688 21.057 38.7456 21.2711C38.8214 21.4853 38.888 21.7033 38.9465 21.9252C39.004 22.1471 39.0534 22.3728 39.0924 22.5999C39.1315 22.8271 39.1614 23.0569 39.1821 23.2869C39.2028 23.5181 39.2132 23.7495 39.2144 23.9812C39.2155 24.2128 39.2064 24.4435 39.1891 24.6744C39.1707 24.9053 39.143 25.1339 39.1061 25.3616L38.913 26.5414C38.8761 26.7691 38.8298 26.9945 38.7742 27.2166C38.7186 27.4386 38.6537 27.6572 38.5795 27.8712C38.5052 28.0863 38.4227 28.2956 38.3317 28.5003C38.2398 28.705 38.1405 28.9037 38.0319 29.0966C37.9242 29.2895 37.8082 29.4753 37.6839 29.6553C37.5605 29.834 37.4298 30.0056 37.2917 30.17C37.1536 30.3333 37.0081 30.4894 36.8573 30.636C36.7054 30.7826 36.5493 30.9208 36.3857 31.0495C36.2232 31.1781 36.0552 31.296 35.882 31.4054C35.7097 31.5137 35.5321 31.6124 35.3512 31.7002C35.1693 31.7892 34.985 31.8662 34.7974 31.9323C34.6098 31.9997 34.4189 32.055 34.2267 32.0994C34.0334 32.1438 33.8399 32.1761 33.6441 32.1988C33.4483 32.2202 33.2523 32.2308 33.0559 32.2292C32.8596 32.2276 32.663 32.2151 32.4672 32.1917C32.2724 32.167 32.0773 32.1326 31.8851 32.0861Z" fill="black"/>
<path d="M47.5277 40.8633C47.4788 43.14 44.6501 44.8857 41.208 44.7446C37.7649 44.6023 35.0175 42.655 35.0663 40.3795C35.1152 38.1028 37.9428 36.3572 41.386 36.4982C44.8291 36.6405 47.5806 38.5877 47.5277 40.8633Z" fill="#F784DC"/>
<path d="M27.5272 52.2118C27.5315 52.4009 27.5193 52.588 27.4927 52.7742C27.4661 52.9604 27.424 53.1421 27.3664 53.3181C27.3087 53.494 27.2375 53.6606 27.1527 53.8203C27.0669 53.9799 26.9696 54.1277 26.8596 54.2636C26.7497 54.3995 26.6291 54.5212 26.499 54.6297C26.3679 54.7382 26.2292 54.8299 26.0839 54.9048C25.9376 54.9809 25.7858 55.0389 25.6305 55.0801C25.4742 55.12 25.3164 55.1418 25.1562 55.1455C24.9959 55.1491 24.8373 55.1345 24.6793 55.1017C24.5223 55.0677 24.368 55.0167 24.2195 54.9473C24.0699 54.8791 23.9272 54.7938 23.7923 54.6914C23.6563 54.5889 23.5303 54.4729 23.4143 54.3421C23.2983 54.2113 23.1943 54.0682 23.1013 53.9126C23.0094 53.757 22.9306 53.5938 22.865 53.4206C22.8005 53.2474 22.7501 53.0679 22.714 52.8831C22.679 52.6983 22.6593 52.512 22.655 52.3228C22.654 52.278 22.6448 52.2345 22.6294 52.1924C22.6141 52.1515 22.5927 52.1144 22.5643 52.0835C22.5368 52.0514 22.5044 52.0279 22.4691 52.0105C22.4327 51.9943 22.3956 51.9867 22.3575 51.9875C22.3195 51.9884 22.2828 51.9977 22.2472 52.0155C22.2127 52.0345 22.1814 52.0595 22.1554 52.0928C22.1284 52.125 22.1087 52.163 22.0953 52.2046C22.0819 52.2473 22.0746 52.2912 22.0757 52.336C22.082 52.57 22.1058 52.8011 22.15 53.0294C22.1943 53.2576 22.2569 53.4794 22.3368 53.6935C22.4178 53.9075 22.5159 54.1103 22.6302 54.3018C22.7446 54.4945 22.873 54.6711 23.0175 54.8327C23.161 54.9956 23.3163 55.1389 23.4836 55.2649C23.651 55.3908 23.8281 55.4972 24.013 55.5827C24.1968 55.6671 24.3874 55.7307 24.5826 55.7723C24.7777 55.8127 24.9734 55.8313 25.1717 55.8268C25.37 55.8223 25.5646 55.7948 25.7577 55.7455C25.9508 55.695 26.1383 55.6228 26.3191 55.5302C26.4999 55.4363 26.671 55.322 26.8324 55.1885C26.9938 55.0551 27.1425 54.9049 27.2794 54.7356C27.4154 54.5675 27.5356 54.3853 27.6421 54.1876C27.7476 53.9911 27.8354 53.7841 27.9065 53.5665C27.9775 53.349 28.029 53.1246 28.0628 52.8946C28.0966 52.6646 28.1108 52.4326 28.1055 52.1986C28.1045 52.1537 28.0963 52.1103 28.0799 52.0682C28.0646 52.0273 28.0432 51.9902 28.0147 51.9593C27.9873 51.9272 27.9549 51.9036 27.9195 51.8862C27.8832 51.8701 27.8471 51.8624 27.808 51.8633C27.77 51.8642 27.7332 51.8735 27.6977 51.8913C27.6632 51.9103 27.6319 51.9353 27.6059 51.9686C27.5799 52.0007 27.5592 52.0388 27.5458 52.0804C27.5323 52.1231 27.5261 52.1669 27.5272 52.2118Z" fill="#F784DC"/>
<mask id="mask3_460_33014" style="mask-type:luminance" maskUnits="userSpaceOnUse" x="79" y="7" width="21" height="20">
<path d="M79.959 8.33984L99.4188 7.89633L99.8401 26.3837L80.3803 26.8272L79.959 8.33984Z" fill="white"/>
</mask>
<g mask="url(#mask3_460_33014)">
<mask id="mask4_460_33014" style="mask-type:luminance" maskUnits="userSpaceOnUse" x="49" y="8" width="68" height="57">
<path d="M116.862 39.6871C117.266 57.424 102.368 63.6441 83.8243 64.0667C65.2797 64.4894 50.1133 58.9544 49.7091 41.2176C49.3048 23.4807 64.0095 8.757 82.5541 8.33436C101.098 7.91173 116.458 21.9466 116.862 39.6871Z" fill="white"/>
</mask>
<g mask="url(#mask4_460_33014)">
<path d="M99.5045 15.0331C99.513 15.404 99.506 15.7754 99.4836 16.1459C99.4612 16.5151 99.4234 16.8835 99.3711 17.2486C99.3177 17.6149 99.2499 17.9755 99.1666 18.3328C99.0833 18.6913 98.9854 19.0417 98.873 19.3875C98.7607 19.7334 98.6338 20.0723 98.4933 20.403C98.3528 20.7337 98.1988 21.055 98.0312 21.3681C97.8636 21.6813 97.6835 21.9826 97.4907 22.2744C97.298 22.5663 97.0936 22.8451 96.8778 23.1132C96.6608 23.3802 96.4344 23.6352 96.1973 23.876C95.9592 24.1167 95.7126 24.3443 95.4553 24.5564C95.1991 24.7684 94.9343 24.9649 94.661 25.1458C94.3886 25.3279 94.1077 25.4932 93.8213 25.6416C93.5338 25.7901 93.2408 25.9217 92.9433 26.0365C92.6448 26.1512 92.3428 26.2479 92.0363 26.3276C91.7298 26.4074 91.4207 26.4678 91.1083 26.5113C90.7969 26.556 90.484 26.5814 90.1696 26.5885C89.8553 26.5957 89.5416 26.5846 89.2274 26.5542C88.9143 26.5249 88.6029 26.4787 88.293 26.4129C87.9832 26.3472 87.6761 26.2645 87.3737 26.1634C87.0702 26.0624 86.7716 25.9442 86.4786 25.809C86.1847 25.6738 85.8976 25.5214 85.6162 25.3519C85.3349 25.1837 85.0614 24.9995 84.7958 24.7993C84.5302 24.5992 84.2724 24.3831 84.0246 24.1534C83.7758 23.9237 83.538 23.6793 83.3101 23.4225C83.0823 23.1644 82.8644 22.8953 82.6586 22.6125C82.4527 22.3297 82.259 22.0369 82.0773 21.7317C81.8957 21.4266 81.7272 21.1126 81.5718 20.7886C81.4164 20.4647 81.2742 20.1319 81.1462 19.7916C81.0182 19.4524 80.9044 19.1057 80.8059 18.7513C80.7064 18.3982 80.6222 18.041 80.5522 17.6775C80.4823 17.3152 80.4277 16.9489 80.3885 16.5811C80.3493 16.212 80.3254 15.8414 80.3169 15.4704C80.3085 15.0994 80.3154 14.7281 80.3379 14.3588C80.3602 13.9883 80.3981 13.6199 80.4514 13.2548C80.5048 12.8897 80.5726 12.5279 80.6559 12.1706C80.7382 11.8133 80.8361 11.4617 80.9484 11.1159C81.0608 10.77 81.1877 10.4324 81.3282 10.1017C81.4686 9.76974 81.6227 9.44842 81.7903 9.13529C81.9579 8.82337 82.138 8.52087 82.3308 8.22899C82.5235 7.93833 82.7289 7.6583 82.9448 7.39138C83.1607 7.12324 83.3871 6.86941 83.6252 6.62745C83.8623 6.38673 84.1099 6.16032 84.3662 5.94827C84.6224 5.73622 84.8872 5.53853 85.1605 5.35763C85.4339 5.17673 85.7138 5.01145 86.0013 4.86298C86.2877 4.71332 86.5807 4.5817 86.8792 4.46815C87.1767 4.35342 87.4797 4.25554 87.7863 4.17698C88.0928 4.09722 88.4018 4.03559 88.7132 3.9921C89.0257 3.94859 89.3386 3.92327 89.6529 3.9161C89.9672 3.90894 90.281 3.91998 90.5941 3.94924C90.9082 3.97847 91.2197 4.02595 91.5295 4.09167C91.8393 4.15618 92.1454 4.24017 92.4489 4.34122C92.7512 4.44107 93.0499 4.5592 93.3439 4.69563C93.6368 4.83088 93.9239 4.98323 94.2053 5.15149C94.4866 5.31975 94.7601 5.50517 95.0257 5.70533C95.2923 5.90546 95.549 6.12037 95.7979 6.35002C96.0457 6.58091 96.2835 6.82415 96.5124 7.08216C96.7402 7.33897 96.9571 7.60938 97.1629 7.89095C97.3687 8.17374 97.5625 8.46772 97.7441 8.77168C97.9258 9.07686 98.0943 9.39082 98.2497 9.716C98.4051 10.04 98.5473 10.3715 98.6753 10.7119C98.8033 11.0522 98.9171 11.399 99.0166 11.7521C99.1161 12.1053 99.2003 12.4636 99.2703 12.8259C99.3392 13.1882 99.3938 13.5545 99.433 13.9236C99.4722 14.2914 99.4961 14.6621 99.5045 15.0331Z" fill="#523F89"/>
</g>
</g>
<mask id="mask5_460_33014" style="mask-type:luminance" maskUnits="userSpaceOnUse" x="108" y="32" width="10" height="15">
<path d="M108.141 32.7129L116.711 32.5176L117.015 45.8633L108.445 46.0586L108.141 32.7129Z" fill="white"/>
</mask>
<g mask="url(#mask5_460_33014)">
<mask id="mask6_460_33014" style="mask-type:luminance" maskUnits="userSpaceOnUse" x="49" y="8" width="68" height="57">
<path d="M116.863 39.6793C117.267 57.4161 102.368 63.6363 83.8247 64.0589C65.2802 64.4816 50.1138 58.9466 49.7095 41.2097C49.3053 23.4729 64.01 8.74919 82.5545 8.32654C101.098 7.90392 116.458 21.9387 116.863 39.6793Z" fill="white"/>
</mask>
<g mask="url(#mask6_460_33014)">
<path d="M119.651 39.1403C119.656 39.3574 119.653 39.5733 119.64 39.7896C119.627 40.0058 119.605 40.2198 119.574 40.4327C119.543 40.6469 119.504 40.8577 119.455 41.0662C119.406 41.2747 119.349 41.4798 119.284 41.6815C119.218 41.8831 119.144 42.0801 119.062 42.2724C118.98 42.4659 118.89 42.6536 118.792 42.8365C118.695 43.0183 118.59 43.1941 118.477 43.3653C118.365 43.5352 118.246 43.6981 118.12 43.8538C117.994 44.0095 117.86 44.1581 117.723 44.2995C117.584 44.4397 117.439 44.5716 117.29 44.6963C117.141 44.8198 116.986 44.9337 116.827 45.0404C116.667 45.146 116.504 45.2419 116.336 45.3294C116.169 45.4157 115.999 45.4923 115.824 45.5594C115.65 45.6264 115.474 45.6826 115.295 45.7292C115.116 45.7757 114.936 45.8113 114.754 45.8361C114.572 45.8621 114.39 45.8771 114.206 45.8813C114.023 45.8855 113.84 45.8788 113.657 45.8611C113.474 45.8446 113.292 45.8173 113.111 45.7789C112.93 45.7406 112.752 45.6925 112.575 45.6334C112.398 45.5744 112.224 45.5056 112.053 45.427C111.881 45.3472 111.714 45.2589 111.55 45.1607C111.387 45.0613 111.227 44.9546 111.071 44.838C110.916 44.7203 110.766 44.5951 110.622 44.4613C110.477 44.3264 110.338 44.184 110.205 44.0342C110.072 43.8844 109.945 43.7271 109.825 43.5625C109.705 43.3966 109.591 43.2257 109.486 43.0486C109.38 42.8703 109.282 42.6869 109.19 42.4974C109.1 42.309 109.017 42.1156 108.943 41.9171C108.868 41.7187 108.802 41.5164 108.744 41.3103C108.686 41.1042 108.637 40.8955 108.596 40.6829C108.555 40.4716 108.524 40.2588 108.5 40.0434C108.478 39.828 108.464 39.6124 108.459 39.3954C108.454 39.1796 108.458 38.9624 108.471 38.7474C108.484 38.5312 108.506 38.316 108.537 38.103C108.568 37.89 108.608 37.6793 108.656 37.4708C108.705 37.2622 108.762 37.0571 108.827 36.8555C108.893 36.6539 108.966 36.4569 109.048 36.2634C109.131 36.0699 109.22 35.8822 109.318 35.7005C109.416 35.5175 109.522 35.3416 109.634 35.1717C109.746 35.0017 109.866 34.8389 109.992 34.682C110.118 34.5263 110.25 34.3777 110.389 34.2375C110.527 34.096 110.671 33.9642 110.82 33.8407C110.971 33.7172 111.125 33.6021 111.284 33.4965C111.443 33.391 111.607 33.2939 111.774 33.2076C111.942 33.1213 112.113 33.0434 112.287 32.9776C112.461 32.9105 112.637 32.8532 112.815 32.8078C112.994 32.7613 113.175 32.7244 113.357 32.6997C113.539 32.6737 113.722 32.6598 113.904 32.6557C114.088 32.6515 114.271 32.657 114.454 32.6747C114.637 32.6911 114.819 32.7197 114.999 32.7581C115.18 32.7952 115.359 32.8445 115.536 32.9035C115.713 32.9614 115.886 33.0314 116.058 33.11C116.229 33.1886 116.397 33.2781 116.561 33.3763C116.725 33.4744 116.884 33.5824 117.039 33.699C117.194 33.8155 117.345 33.9407 117.49 34.0756C117.634 34.2094 117.774 34.3518 117.906 34.5016C118.039 34.6526 118.166 34.8098 118.286 34.9745C118.406 35.1392 118.519 35.31 118.625 35.4884C118.731 35.6655 118.829 35.8488 118.92 36.0384C119.011 36.228 119.093 36.4214 119.169 36.6198C119.243 36.8183 119.309 37.0206 119.367 37.2266C119.426 37.4327 119.474 37.6415 119.515 37.8528C119.556 38.0642 119.588 38.2781 119.61 38.4935C119.633 38.7077 119.647 38.9245 119.651 39.1403Z" fill="#523F89"/>
</g>
</g>
<mask id="mask7_460_33014" style="mask-type:luminance" maskUnits="userSpaceOnUse" x="80" y="32" width="6" height="6">
<path d="M80.5073 32.4141L85.2408 32.3062L85.361 37.5824L80.6276 37.6903L80.5073 32.4141Z" fill="white"/>
</mask>
<g mask="url(#mask7_460_33014)">
<mask id="mask8_460_33014" style="mask-type:luminance" maskUnits="userSpaceOnUse" x="49" y="8" width="68" height="57">
<path d="M116.862 39.6871C117.266 57.424 102.367 63.6441 83.8238 64.0667C65.2792 64.4894 50.1128 58.9544 49.7086 41.2176C49.3043 23.4807 64.009 8.757 82.5536 8.33436C101.097 7.91173 116.457 21.9466 116.862 39.6871Z" fill="white"/>
</mask>
<g mask="url(#mask8_460_33014)">
<path d="M85.16 34.9737C85.1639 35.1446 85.1544 35.3134 85.1294 35.4814C85.1055 35.6493 85.0671 35.8128 85.0152 35.9716C84.9633 36.1305 84.8989 36.2824 84.8221 36.426C84.7452 36.5697 84.6578 36.7027 84.5578 36.8263C84.4588 36.9486 84.3504 37.0591 84.2323 37.1564C84.1143 37.2549 83.9888 37.3378 83.8567 37.4063C83.7257 37.4736 83.5892 37.5264 83.4481 37.5624C83.3072 37.5996 83.1648 37.6198 83.0199 37.6231C82.8761 37.6264 82.7319 37.6127 82.5894 37.582C82.4479 37.5524 82.3091 37.5059 82.1741 37.4447C82.0391 37.3822 81.9099 37.3051 81.7885 37.2121C81.6662 37.1202 81.5528 37.0149 81.4473 36.8972C81.3429 36.7783 81.2485 36.6494 81.1651 36.5094C81.0818 36.3694 81.0105 36.2206 80.9515 36.0642C80.8924 35.9079 80.8476 35.7464 80.8151 35.5797C80.7835 35.4131 80.7653 35.2449 80.7614 35.0739C80.7575 34.903 80.768 34.7341 80.792 34.5662C80.8169 34.3982 80.8543 34.2348 80.9062 34.076C80.958 33.9171 81.0224 33.7652 81.0993 33.6215C81.1762 33.4779 81.2646 33.3448 81.3636 33.2213C81.4636 33.0989 81.572 32.9885 81.6901 32.8912C81.8071 32.7939 81.9326 32.711 82.0647 32.6425C82.1967 32.574 82.3332 32.5211 82.4732 32.4852C82.6142 32.448 82.7576 32.4278 82.9014 32.4245C83.0463 32.4212 83.1895 32.4349 83.332 32.4656C83.4745 32.4951 83.6133 32.5417 83.7473 32.6041C83.8823 32.6666 84.0115 32.7437 84.1338 32.8355C84.2562 32.9273 84.3696 33.0327 84.474 33.1504C84.5795 33.2693 84.6729 33.3982 84.7562 33.5382C84.8396 33.6782 84.9108 33.827 84.9699 33.9833C85.0289 34.1397 85.0748 34.3012 85.1063 34.4679C85.1389 34.6345 85.1561 34.8027 85.16 34.9737Z" fill="#523F89"/>
</g>
</g>
<mask id="mask9_460_33014" style="mask-type:luminance" maskUnits="userSpaceOnUse" x="99" y="24" width="6" height="6">
<path d="M99.5278 24.2168L104.261 24.1089L104.389 29.6955L99.6552 29.8034L99.5278 24.2168Z" fill="white"/>
</mask>
<g mask="url(#mask9_460_33014)">
<mask id="mask10_460_33014" style="mask-type:luminance" maskUnits="userSpaceOnUse" x="49" y="8" width="68" height="57">
<path d="M116.862 39.6871C117.266 57.424 102.368 63.6441 83.8243 64.0667C65.2797 64.4894 50.1133 58.9544 49.7091 41.2176C49.3048 23.4807 64.0095 8.757 82.5541 8.33436C101.098 7.91173 116.458 21.9466 116.862 39.6871Z" fill="white"/>
</mask>
<g mask="url(#mask10_460_33014)">
<path d="M104.176 26.9776C104.18 27.1485 104.169 27.3174 104.145 27.4853C104.12 27.6533 104.083 27.8167 104.031 27.9755C103.979 28.1344 103.915 28.2863 103.838 28.43C103.761 28.5736 103.672 28.7066 103.573 28.8302C103.473 28.9526 103.365 29.063 103.247 29.1603C103.129 29.2588 103.004 29.3417 102.872 29.409C102.74 29.4775 102.604 29.5304 102.464 29.5663C102.323 29.6035 102.179 29.6237 102.036 29.627C101.891 29.6303 101.748 29.6166 101.605 29.5859C101.463 29.5564 101.324 29.5098 101.189 29.4474C101.055 29.3861 100.926 29.309 100.803 29.216C100.681 29.1242 100.567 29.0188 100.463 28.9011C100.357 28.7822 100.264 28.6533 100.181 28.5133C100.096 28.3733 100.025 28.2245 99.9671 28.0681C99.908 27.9118 99.8622 27.7503 99.8307 27.5836C99.7981 27.417 99.7809 27.2488 99.777 27.0778C99.7731 26.9069 99.7826 26.7381 99.8076 26.5701C99.8315 26.4022 99.8699 26.2387 99.9218 26.0799C99.9726 25.921 100.037 25.7691 100.115 25.6254C100.192 25.4818 100.279 25.3488 100.379 25.2252C100.478 25.1029 100.587 24.9924 100.705 24.8951C100.823 24.7966 100.948 24.7137 101.079 24.6464C101.211 24.5779 101.348 24.5251 101.489 24.4891C101.63 24.4519 101.772 24.4317 101.917 24.4284C102.061 24.4251 102.205 24.4388 102.348 24.4695C102.489 24.4991 102.628 24.5456 102.763 24.608C102.898 24.6693 103.026 24.7464 103.148 24.8394C103.271 24.9313 103.384 25.0366 103.49 25.1543C103.594 25.2732 103.689 25.4021 103.772 25.5421C103.855 25.6821 103.926 25.8309 103.986 25.9873C104.045 26.1436 104.089 26.3051 104.122 26.4718C104.153 26.6384 104.172 26.8066 104.176 26.9776Z" fill="#523F89"/>
</g>
</g>
<mask id="mask11_460_33014" style="mask-type:luminance" maskUnits="userSpaceOnUse" x="104" y="40" width="4" height="4">
<path d="M104.367 40.25L106.996 40.1901L107.067 43.2937L104.437 43.3537L104.367 40.25Z" fill="white"/>
</mask>
<g mask="url(#mask11_460_33014)">
<mask id="mask12_460_33014" style="mask-type:luminance" maskUnits="userSpaceOnUse" x="49" y="8" width="68" height="57">
<path d="M116.862 39.6734C117.266 57.4103 102.368 63.6304 83.8243 64.0531C65.2797 64.4757 50.1133 58.9408 49.7091 41.2039C49.3048 23.467 64.0095 8.74333 82.5541 8.32068C101.098 7.89806 116.458 21.9329 116.862 39.6734Z" fill="white"/>
</mask>
<g mask="url(#mask12_460_33014)">
<path d="M106.913 41.7896C106.915 41.8829 106.91 41.974 106.896 42.0653C106.883 42.1566 106.863 42.2456 106.835 42.3323C106.806 42.4191 106.772 42.5012 106.729 42.5786C106.688 42.6571 106.639 42.7298 106.585 42.7965C106.531 42.8633 106.473 42.9228 106.408 42.9765C106.344 43.0289 106.276 43.0741 106.205 43.1109C106.133 43.1489 106.058 43.1773 105.983 43.1972C105.906 43.2172 105.828 43.2274 105.75 43.2292C105.671 43.231 105.593 43.2243 105.517 43.2078C105.439 43.1914 105.363 43.1664 105.29 43.1317C105.217 43.0982 105.147 43.0561 105.08 43.0067C105.014 42.9561 104.952 42.8993 104.895 42.835C104.839 42.7708 104.787 42.7005 104.742 42.6239C104.697 42.5485 104.658 42.4681 104.625 42.3827C104.593 42.2973 104.569 42.2093 104.551 42.1187C104.534 42.0282 104.525 41.9374 104.522 41.844C104.52 41.7519 104.525 41.6596 104.539 41.5683C104.552 41.477 104.573 41.388 104.6 41.3013C104.629 41.2157 104.664 41.1324 104.706 41.0551C104.747 40.9765 104.796 40.9038 104.85 40.8371C104.904 40.7703 104.963 40.7108 105.027 40.6572C105.091 40.6047 105.159 40.5595 105.23 40.5227C105.302 40.4859 105.377 40.4563 105.453 40.4376C105.529 40.4177 105.607 40.4062 105.686 40.4044C105.764 40.4026 105.842 40.4105 105.92 40.427C105.996 40.4422 106.072 40.4684 106.146 40.5019C106.218 40.5354 106.288 40.5775 106.355 40.6269C106.422 40.6775 106.483 40.7344 106.54 40.7986C106.597 40.8628 106.649 40.9331 106.694 41.0098C106.739 41.0851 106.777 41.1667 106.81 41.2509C106.842 41.3363 106.866 41.4243 106.884 41.5149C106.901 41.6055 106.911 41.6974 106.913 41.7896Z" fill="#523F89"/>
</g>
</g>
<path d="M63.038 51.5284C62.8759 51.4509 62.71 51.3879 62.5404 51.3408C62.3708 51.2938 62.1994 51.2613 62.0264 51.2446C61.8523 51.2292 61.6786 51.2283 61.5053 51.2431C61.3319 51.258 61.161 51.2898 60.9914 51.3361C60.8219 51.3824 60.6568 51.4432 60.4961 51.5196C60.3355 51.5961 60.1803 51.687 60.0306 51.7911C59.8819 51.8963 59.7407 52.0136 59.607 52.144C59.4732 52.2744 59.349 52.4167 59.2343 52.5697C58.2925 53.8576 57.8685 55.5945 57.6255 57.2425C57.0733 60.9292 57.1603 64.7445 57.4032 68.4592C57.4561 69.3362 57.5172 70.2143 57.606 71.0856C57.6796 71.7935 58.1312 72.4868 58.7948 72.4268C59.3724 72.3821 60.0003 71.794 59.9203 71.0329C59.6973 68.7806 59.578 66.5223 59.5603 64.258C59.5389 63.3172 59.5555 62.3755 59.5894 61.4311C59.6045 60.9637 59.6278 60.4974 59.6604 60.0333C59.6749 59.8146 59.6915 59.5959 59.7102 59.3796C59.7379 59.0162 59.6765 59.7054 59.7096 59.3541C59.7211 59.2265 59.7346 59.0988 59.7482 58.9711C59.8367 58.12 59.9779 57.2811 60.1697 56.4543C60.2128 56.2701 60.259 56.0859 60.3103 55.9028L60.3837 55.6525C60.284 55.9204 60.4949 55.2969 60.3837 55.6525C60.4918 55.3419 60.6175 55.0431 60.762 54.7535L60.8864 54.5275C61.0127 54.2965 60.6734 54.8319 60.8637 54.568C60.9483 54.4472 61.0391 54.3311 61.1353 54.2222L61.1985 54.1528C61.3308 54.003 61.095 54.2571 61.0718 54.2746C61.1264 54.2369 61.1775 54.1788 61.2311 54.1387C61.2856 54.0975 61.3424 54.0622 61.3991 54.0245C61.6338 53.8603 61.1191 54.1413 61.33 54.0601C61.4553 54.0123 61.582 53.9803 61.7075 53.9386C61.3088 54.0751 61.4884 53.974 61.6362 53.9657C61.7069 53.9593 61.7768 53.9577 61.8468 53.9609L61.9187 53.9593C62.1583 53.9672 61.6232 53.8945 61.796 53.9415C61.8704 53.9628 61.9498 53.9719 62.0243 53.9933C62.1888 54.0405 62.3494 54.1011 62.5073 54.1739C63.0757 54.4436 63.7962 53.8619 63.9073 53.1874C64.0187 52.3964 63.6466 51.8057 63.038 51.5284Z" fill="#523F89"/>
<path d="M53.226 72.6628C53.3294 74.3562 55.0208 75.6071 57.002 75.4564C58.9842 75.3069 60.5092 73.8117 60.4059 72.1207C60.3037 70.4297 58.6122 69.1764 56.631 69.3271C54.6488 69.4766 53.1258 70.9717 53.226 72.6628Z" fill="#523F89"/>
<path d="M77.5176 54.9778C77.3555 54.899 77.1896 54.8361 77.02 54.7878C76.8493 54.7408 76.677 54.7083 76.5029 54.6904C76.3288 54.6738 76.1551 54.6729 75.9807 54.689C75.8074 54.7039 75.6354 54.7345 75.4648 54.7808C75.2953 54.8271 75.1291 54.8879 74.9675 54.9656C74.8068 55.042 74.6506 55.1329 74.5009 55.2382C74.3522 55.3435 74.21 55.4608 74.0763 55.5924C73.9426 55.724 73.8174 55.8664 73.7027 56.0206C72.7587 57.3073 72.3358 59.0442 72.0918 60.6922C71.5417 64.3789 71.6266 68.1954 71.8572 71.9092C71.9101 72.7862 71.9733 73.6642 72.063 74.5355C72.1336 75.2435 72.5852 75.9368 73.2508 75.8767C73.8284 75.832 74.4543 75.244 74.3773 74.4828C74.1534 72.2317 74.032 69.9735 74.0143 67.708C74.0052 66.7669 74.0125 65.8255 74.0434 64.8811C74.0616 64.4149 74.0838 63.9473 74.1143 63.4833L74.1642 62.8296C74.1939 62.4674 74.1305 63.1554 74.1636 62.8041C74.1771 62.6764 74.1886 62.5488 74.2021 62.4211C74.2938 61.5712 74.4339 60.7322 74.6237 59.9055C74.6668 59.7201 74.7151 59.5383 74.7664 59.3564C74.7881 59.271 74.8129 59.1879 74.8398 59.106C74.74 59.3715 74.9488 58.7469 74.8398 59.106C74.9499 58.7954 75.0767 58.4966 75.2212 58.207C75.2595 58.1297 75.3042 58.0583 75.3425 57.9811C75.4708 57.7489 75.1315 58.2855 75.3218 58.0203C75.4053 57.8983 75.4963 57.7835 75.5935 57.6757L75.6547 57.6088C75.7899 57.4565 75.5521 57.7106 75.5279 57.7282C75.5846 57.6905 75.6336 57.6324 75.6882 57.5911C75.7417 57.551 75.8005 57.5157 75.8551 57.4769C76.0909 57.3138 75.5752 57.5937 75.7892 57.5124C75.9124 57.4647 76.0402 57.4339 76.1667 57.3909C75.7679 57.5274 75.9475 57.4275 76.0953 57.418C76.1651 57.4128 76.235 57.4112 76.3059 57.4132L76.3768 57.4116C76.6165 57.4207 76.0793 57.3481 76.2521 57.3951C76.3296 57.4163 76.4059 57.4255 76.4927 57.4454C76.6572 57.4938 76.8178 57.5532 76.9758 57.6272C77.5461 57.8969 78.2646 57.3152 78.388 56.6392C78.4996 55.8543 78.1273 55.2551 77.5176 54.9778Z" fill="#523F89"/>
<path d="M67.7072 76.1099C67.8105 77.8033 69.5009 79.0542 71.4831 78.9047C73.4643 78.754 74.9873 77.2589 74.8871 75.5678C74.7858 73.8768 73.0934 72.6247 71.1111 72.7742C69.1289 72.9237 67.6039 74.4201 67.7072 76.1099Z" fill="#523F89"/>
<path d="M94.8781 56.0465C93.3657 56.0191 92.0738 56.9243 91.518 58.5988C90.9631 60.2732 91.1494 62.1321 91.3993 63.8525C91.9299 67.4272 93.1165 70.8791 94.373 74.1971C94.7195 75.105 95.0701 76.0152 95.4521 76.9029C95.7268 77.5468 96.5618 77.7449 97.0483 77.3578C97.1746 77.2591 97.2807 77.1366 97.3668 76.9903C97.4539 76.8427 97.5139 76.6825 97.549 76.5082C97.583 76.3328 97.5893 76.1567 97.5668 75.979C97.5442 75.8012 97.4952 75.6349 97.4187 75.4789C97.1655 74.877 96.913 74.2629 96.6791 73.6496C96.63 73.5234 96.4246 72.9883 96.6256 73.5101L96.4343 73.0087C96.3019 72.6551 96.1788 72.3049 96.0464 71.9513C95.7579 71.1536 95.4836 70.3484 95.2236 69.5368C94.6452 67.7875 94.1707 65.9994 93.8033 64.1737C93.7216 63.7462 93.6706 63.3095 93.5869 62.8844C93.5869 62.8844 93.6367 63.2678 93.6124 63.0585C93.6112 63.0052 93.5977 62.9545 93.5924 62.9013C93.586 62.848 93.5687 62.7174 93.5593 62.6194C93.5357 62.3992 93.5163 62.1788 93.501 61.956C93.4749 61.5806 93.4663 61.2035 93.4752 60.8261C93.4716 60.6685 93.4897 60.5128 93.4984 60.3537C93.5127 60.1278 93.4517 60.7417 93.4857 60.5177C93.485 60.4874 93.4842 60.4535 93.4978 60.4192C93.51 60.3231 93.5223 60.2294 93.5386 60.1357C93.5657 59.9689 93.601 59.8055 93.6446 59.6444C93.7091 59.4076 93.7042 59.5096 93.6172 59.7045C93.6494 59.6322 93.6714 59.5589 93.7006 59.4879C93.7308 59.4132 93.7641 59.3409 93.8015 59.2709C93.836 59.2046 93.9786 58.9672 93.8309 59.2071C93.6833 59.4482 93.8309 59.2071 93.873 59.1613C93.9152 59.1154 93.9681 59.0487 94.0172 58.9942C94.1754 58.8099 93.7589 59.2039 93.9469 59.0638C94.0065 59.02 94.0619 58.9702 94.1237 58.9324C94.3049 58.8094 94.2113 58.8964 94.0575 58.9569C94.1217 58.9324 94.1825 58.8971 94.2467 58.8726C94.311 58.8493 94.3936 58.8243 94.4702 58.7995C94.753 58.7167 94.2651 58.8212 94.4034 58.8011C94.5821 58.797 94.7562 58.7676 94.9361 58.7695C95.0111 58.7678 95.0858 58.7564 95.1604 58.7365C95.234 58.7178 95.3053 58.6895 95.3743 58.6528C95.4444 58.6172 95.5092 58.5733 95.5718 58.5221C95.6333 58.471 95.6905 58.4127 95.7425 58.3484C95.7945 58.2829 95.8412 58.214 95.8816 58.1378C95.922 58.0629 95.9562 57.9833 95.9831 57.9002C96.011 57.8171 96.0306 57.7305 96.044 57.6429C96.0574 57.554 96.0626 57.4653 96.0616 57.3756C96.0534 57.1975 96.0177 57.0273 95.9533 56.8638C95.89 56.7015 95.8024 56.5579 95.6927 56.4342C95.583 56.3106 95.4575 56.2152 95.3162 56.1481C95.1759 56.0809 95.0292 56.0466 94.8781 56.0465Z" fill="#523F89"/>
<path d="M91.7443 79.9371C92.3316 81.4897 94.2811 81.9789 96.0942 81.0339C97.9071 80.0877 98.8959 78.0613 98.3086 76.5087C97.7203 74.9574 95.7739 74.4668 93.9609 75.413C92.1479 76.358 91.156 78.3845 91.7443 79.9371Z" fill="#523F89"/>
<path d="M107.984 51.9706C106.471 51.9396 105.179 52.8485 104.623 54.5205C104.068 56.1913 104.255 58.0527 104.505 59.7743C105.035 63.3514 106.222 66.8008 107.478 70.1176C107.825 71.0255 108.176 71.937 108.557 72.8259C108.832 73.4674 109.664 73.6692 110.151 73.2796C110.277 73.1809 110.384 73.0584 110.471 72.9121C110.557 72.7645 110.618 72.6042 110.653 72.43C110.687 72.2545 110.694 72.0785 110.671 71.9007C110.65 71.7229 110.601 71.5554 110.524 71.3995C110.271 70.7975 110.018 70.1847 109.784 69.5714C109.735 69.4451 109.53 68.91 109.731 69.4331L109.54 68.9292C109.407 68.5792 109.284 68.2254 109.152 67.873C108.864 67.0729 108.59 66.2677 108.329 65.4585C107.75 63.7092 107.277 61.9236 106.911 60.0979C106.829 59.6703 106.779 59.2336 106.694 58.8049C106.694 58.8049 106.744 59.1919 106.718 58.9803L106.7 58.8254C106.698 58.732 106.676 58.6391 106.667 58.5435C106.643 58.3233 106.624 58.103 106.61 57.8825C106.584 57.5071 106.575 57.1301 106.584 56.7526C106.58 56.5974 106.6 56.4393 106.608 56.2838C106.622 56.0543 106.56 56.6694 106.595 56.4455C106.595 56.4139 106.594 56.38 106.605 56.3482C106.62 56.252 106.632 56.1559 106.646 56.0646C106.675 55.899 106.712 55.7356 106.755 55.5733C106.817 55.3402 106.814 55.4422 106.728 55.6334C106.759 55.5647 106.779 55.4879 106.809 55.4192C106.839 55.3506 106.875 55.271 106.911 55.1998C106.949 55.1286 107.088 54.8986 106.942 55.1397C106.794 55.3808 106.942 55.1397 106.983 55.0938C107.025 55.0468 107.079 54.9813 107.128 54.9231C107.286 54.7388 106.87 55.1328 107.058 54.9927C107.116 54.9489 107.173 54.9027 107.231 54.8614C107.416 54.7395 107.322 54.829 107.167 54.8859C107.231 54.8614 107.293 54.826 107.356 54.8027C107.421 54.7782 107.504 54.7532 107.58 54.7321C107.863 54.6468 107.374 54.7368 107.513 54.7336C107.69 54.7114 107.868 54.7013 108.046 54.7021C108.122 54.6991 108.197 54.6889 108.27 54.6691C108.344 54.6492 108.416 54.6209 108.485 54.5853C108.554 54.5486 108.619 54.5046 108.682 54.4535C108.743 54.4024 108.8 54.344 108.852 54.2798C108.904 54.2155 108.951 54.1453 108.991 54.0704C109.032 53.9943 109.066 53.9146 109.093 53.8316C109.121 53.7484 109.14 53.6631 109.154 53.5754C109.167 53.4866 109.173 53.3979 109.171 53.3082C109.168 53.2197 109.157 53.1314 109.14 53.0445C109.121 52.9575 109.097 52.8732 109.065 52.7926C109.033 52.7109 108.996 52.6341 108.952 52.5611C108.908 52.4881 108.858 52.4213 108.803 52.3595C108.749 52.2977 108.69 52.242 108.626 52.1937C108.562 52.1455 108.495 52.1045 108.425 52.071C108.354 52.0386 108.283 52.0123 108.208 51.9958C108.134 51.9793 108.059 51.9701 107.984 51.9706Z" fill="#523F89"/>
<path d="M104.85 75.8596C105.437 77.411 107.384 77.9015 109.197 76.9553C111.01 76.0103 111.999 73.9839 111.414 72.4312C110.828 70.8786 108.879 70.3893 107.066 71.3343C105.253 72.2805 104.261 74.307 104.85 75.8596Z" fill="#523F89"/>
</svg>
