<svg width="360" height="243" viewBox="0 0 360 243" fill="none" xmlns="http://www.w3.org/2000/svg">
<path d="M100.695 9.85547L169.768 0.944147L175.33 156.158L131.258 161.843L100.695 9.85547Z" fill="url(#paint0_linear_308_24237)"/>
<path d="M261.654 8.07617L192.491 -0.000346888L188.578 155.27L232.707 160.424L261.654 8.07617Z" fill="url(#paint1_linear_308_24237)"/>
<path d="M92.0996 33.8945L34.9204 52.4208L80.9474 176.374L117.43 164.553L92.0996 33.8945Z" fill="url(#paint2_linear_308_24237)"/>
<path d="M270.504 32.0098L327.876 49.8443L283.168 174.345L246.562 162.966L270.504 32.0098Z" fill="url(#paint3_linear_308_24237)"/>
<path d="M38.0742 92.2031L0.19244 113.186L47.7056 193.81L71.8756 180.422L38.0742 92.2031Z" fill="url(#paint4_linear_308_24237)"/>
<path d="M325.146 89.6621L363.249 110.186L316.594 191.379L292.284 178.284L325.146 89.6621Z" fill="url(#paint5_linear_308_24237)"/>
<g filter="url(#filter0_d_308_24237)">
<path d="M19.6833 184.871C11.8159 171.181 7.88215 164.336 10.1151 159.553C12.348 154.769 19.491 153.426 33.7771 150.739L56.9347 146.383C66.2003 144.641 70.8331 143.769 74.1893 146.118C77.5455 148.466 78.3143 153.117 79.852 162.419L87.4071 208.122C88.9448 217.424 89.7136 222.075 87.3128 225.506C84.9121 228.937 80.2793 229.809 71.0136 231.551L48.0454 235.871C33.7313 238.563 26.5743 239.91 22.9448 236.259C19.3153 232.608 20.7732 224.666 23.6888 208.781C24.6624 203.477 25.0815 198.72 24.417 195.602C23.8038 192.724 22.0227 188.941 19.6833 184.871Z" fill="url(#paint6_linear_308_24237)"/>
</g>
<g filter="url(#filter1_d_308_24237)">
<path d="M342.985 184.871C350.852 171.181 354.786 164.336 352.553 159.553C350.32 154.769 343.177 153.426 328.891 150.739L305.733 146.383C296.468 144.641 291.835 143.769 288.479 146.118C285.123 148.466 284.354 153.117 282.816 162.419L275.261 208.122C273.723 217.424 272.954 222.075 275.355 225.506C277.756 228.937 282.389 229.809 291.654 231.551L314.623 235.871C328.937 238.563 336.094 239.91 339.723 236.259C343.353 232.608 341.895 224.666 338.979 208.781C338.006 203.477 337.586 198.72 338.251 195.602C338.864 192.724 340.645 188.941 342.985 184.871Z" fill="url(#paint7_linear_308_24237)"/>
</g>
<g filter="url(#filter2_d_308_24237)">
<path d="M45.918 160.077C45.918 144.852 45.918 137.24 50.7928 131.605C55.6676 125.971 62.8004 124.934 77.0659 122.86C100.856 119.402 136.985 115.604 180.918 115.604C224.851 115.604 260.979 119.402 284.77 122.86C299.036 124.934 306.168 125.971 311.043 131.605C315.918 137.24 315.918 144.853 315.918 160.077V180.536C315.918 201.013 315.918 211.251 309.502 217.188C303.087 223.126 292.8 222.328 272.226 220.732C242.413 218.42 204.242 215.869 180.918 215.869C157.594 215.869 119.423 218.42 89.6102 220.732C69.0362 222.328 58.7492 223.126 52.3336 217.188C45.918 211.251 45.918 201.013 45.918 180.536V160.077Z" fill="url(#paint8_linear_308_24237)"/>
</g>
<g filter="url(#filter3_d_308_24237)">
<path d="M170.581 66.2194C174.67 52.7952 176.714 46.0831 180.556 46.0831C184.398 46.0831 186.443 52.7952 190.532 66.2195C191.619 69.7873 192.162 71.5712 193.538 72.5901C194.913 73.609 196.764 73.609 200.467 73.609H202.03C214.608 73.609 220.897 73.609 222.097 77.1166C223.297 80.6242 218.326 84.4766 208.384 92.1812L205.992 94.0351C203.257 96.1547 201.89 97.2145 201.4 98.7532C200.911 100.292 201.415 101.947 202.423 105.257L203.099 107.474C206.972 120.188 208.908 126.544 205.838 128.705C205.811 128.725 205.782 128.744 205.754 128.764C202.643 130.864 197.39 126.793 186.886 118.652C183.857 116.305 182.343 115.132 180.583 115.123C180.565 115.122 180.547 115.122 180.53 115.123C178.77 115.132 177.256 116.305 174.227 118.652C163.722 126.793 158.47 130.864 155.358 128.764C155.33 128.744 155.302 128.725 155.274 128.705C152.205 126.544 154.141 120.188 158.014 107.474L158.689 105.257C159.697 101.947 160.202 100.292 159.712 98.7532C159.223 97.2145 157.855 96.1547 155.12 94.0351L152.728 92.1812C142.786 84.4766 137.815 80.6242 139.015 77.1166C140.215 73.609 146.504 73.609 159.082 73.609H160.646C164.348 73.609 166.199 73.609 167.575 72.5901C168.95 71.5712 169.494 69.7873 170.581 66.2194Z" fill="#FFCF25"/>
</g>
<g filter="url(#filter4_d_308_24237)">
<path d="M246.556 89.5314C250.247 82.1272 252.092 78.4251 254.317 78.4848C254.695 78.4949 255.07 78.5655 255.429 78.6938C257.539 79.4496 258.086 83.6017 259.18 91.9058C259.474 94.1305 259.62 95.2429 260.27 96.0501C260.39 96.1992 260.522 96.3387 260.663 96.4673C261.43 97.1635 262.537 97.3716 264.75 97.7879C272.839 99.3094 276.884 100.07 277.445 102.382C277.488 102.561 277.518 102.743 277.534 102.927C277.74 105.291 274.167 107.149 267.022 110.867L266.288 111.248C264.265 112.301 263.253 112.827 262.744 113.765C262.719 113.812 262.695 113.859 262.671 113.907C262.206 114.868 262.357 116.018 262.66 118.318L262.813 119.477C263.849 127.34 264.367 131.271 262.614 132.49C262.269 132.73 261.884 132.905 261.475 133.007C259.398 133.528 256.725 130.575 251.379 124.67C249.835 122.964 249.062 122.111 248.061 121.825C247.848 121.764 247.631 121.723 247.411 121.703C246.378 121.606 245.379 122.126 243.381 123.166C236.464 126.764 233.005 128.564 231.22 127.317C230.869 127.072 230.563 126.766 230.316 126.415C229.059 124.63 230.807 121.125 234.301 114.115L234.817 113.081C235.839 111.03 236.35 110.005 236.221 108.932C236.214 108.879 236.206 108.825 236.198 108.772C236.02 107.706 235.239 106.842 233.675 105.115L233.108 104.488C227.585 98.3881 224.824 95.3381 225.775 93.1918C225.849 93.0255 225.935 92.8654 226.034 92.7129C227.302 90.7447 231.347 91.5054 239.436 93.0269C241.649 93.4432 242.756 93.6513 243.699 93.2767C243.874 93.2075 244.042 93.1244 244.203 93.0281C245.073 92.5068 245.567 91.515 246.556 89.5314Z" fill="#FFCF25"/>
</g>
<g filter="url(#filter5_d_308_24237)">
<path d="M115.134 89.5314C111.443 82.1272 109.597 78.4251 107.372 78.4848C106.994 78.4949 106.619 78.5655 106.261 78.6938C104.15 79.4496 103.603 83.6017 102.509 91.9058C102.216 94.1305 102.069 95.2429 101.419 96.0501C101.299 96.1992 101.168 96.3387 101.026 96.4673C100.259 97.1635 99.1529 97.3716 96.9397 97.7879C88.8503 99.3094 84.8056 100.07 84.2448 102.382C84.2014 102.561 84.1715 102.743 84.1556 102.927C83.9496 105.291 87.5224 107.149 94.6678 110.867L95.4016 111.248C97.4249 112.301 98.4366 112.827 98.945 113.765C98.9705 113.812 98.9948 113.859 99.0181 113.907C99.4836 114.868 99.3321 116.018 99.0291 118.318L98.8763 119.477C97.8403 127.34 97.3223 131.271 99.0751 132.49C99.42 132.73 99.8058 132.905 100.215 133.007C102.291 133.528 104.964 130.575 110.311 124.67C111.855 122.964 112.627 122.111 113.629 121.825C113.841 121.764 114.059 121.723 114.278 121.703C115.311 121.606 116.31 122.126 118.308 123.166C125.226 126.764 128.684 128.564 130.469 127.317C130.82 127.072 131.127 126.766 131.374 126.415C132.63 124.63 130.883 121.125 127.388 114.115L126.873 113.081C125.85 111.03 125.339 110.005 125.469 108.932C125.475 108.879 125.483 108.825 125.492 108.772C125.669 107.706 126.451 106.842 128.015 105.115L128.582 104.488C134.104 98.3881 136.866 95.3381 135.914 93.1918C135.84 93.0255 135.754 92.8654 135.656 92.7129C134.387 90.7447 130.343 91.5054 122.253 93.0269C120.04 93.4432 118.933 93.6513 117.99 93.2767C117.816 93.2075 117.647 93.1244 117.487 93.0281C116.617 92.5068 116.123 91.515 115.134 89.5314Z" fill="#FFCF25"/>
</g>
<defs>
<filter id="filter0_d_308_24237" x="9.49414" y="144.688" width="79.3535" height="97.7988" filterUnits="userSpaceOnUse" color-interpolation-filters="sRGB">
<feFlood flood-opacity="0" result="BackgroundImageFix"/>
<feColorMatrix in="SourceAlpha" type="matrix" values="0 0 0 0 0 0 0 0 0 0 0 0 0 0 0 0 0 0 127 0" result="hardAlpha"/>
<feOffset dy="4"/>
<feComposite in2="hardAlpha" operator="out"/>
<feColorMatrix type="matrix" values="0 0 0 0 0.733333 0 0 0 0 0.619608 0 0 0 0 0.282353 0 0 0 1 0"/>
<feBlend mode="normal" in2="BackgroundImageFix" result="effect1_dropShadow_308_24237"/>
<feBlend mode="normal" in="SourceGraphic" in2="effect1_dropShadow_308_24237" result="shape"/>
</filter>
<filter id="filter1_d_308_24237" x="273.82" y="144.688" width="79.3535" height="97.7988" filterUnits="userSpaceOnUse" color-interpolation-filters="sRGB">
<feFlood flood-opacity="0" result="BackgroundImageFix"/>
<feColorMatrix in="SourceAlpha" type="matrix" values="0 0 0 0 0 0 0 0 0 0 0 0 0 0 0 0 0 0 127 0" result="hardAlpha"/>
<feOffset dy="4"/>
<feComposite in2="hardAlpha" operator="out"/>
<feColorMatrix type="matrix" values="0 0 0 0 0.733377 0 0 0 0 0.619923 0 0 0 0 0.283001 0 0 0 0.82 0"/>
<feBlend mode="normal" in2="BackgroundImageFix" result="effect1_dropShadow_308_24237"/>
<feBlend mode="normal" in="SourceGraphic" in2="effect1_dropShadow_308_24237" result="shape"/>
</filter>
<filter id="filter2_d_308_24237" x="45.918" y="115.604" width="270" height="110.281" filterUnits="userSpaceOnUse" color-interpolation-filters="sRGB">
<feFlood flood-opacity="0" result="BackgroundImageFix"/>
<feColorMatrix in="SourceAlpha" type="matrix" values="0 0 0 0 0 0 0 0 0 0 0 0 0 0 0 0 0 0 127 0" result="hardAlpha"/>
<feOffset dy="4"/>
<feComposite in2="hardAlpha" operator="out"/>
<feColorMatrix type="matrix" values="0 0 0 0 0.733333 0 0 0 0 0.619608 0 0 0 0 0.282353 0 0 0 1 0"/>
<feBlend mode="normal" in2="BackgroundImageFix" result="effect1_dropShadow_308_24237"/>
<feBlend mode="normal" in="SourceGraphic" in2="effect1_dropShadow_308_24237" result="shape"/>
</filter>
<filter id="filter3_d_308_24237" x="138.84" y="46.084" width="83.4336" height="87.2266" filterUnits="userSpaceOnUse" color-interpolation-filters="sRGB">
<feFlood flood-opacity="0" result="BackgroundImageFix"/>
<feColorMatrix in="SourceAlpha" type="matrix" values="0 0 0 0 0 0 0 0 0 0 0 0 0 0 0 0 0 0 127 0" result="hardAlpha"/>
<feOffset dy="4"/>
<feComposite in2="hardAlpha" operator="out"/>
<feColorMatrix type="matrix" values="0 0 0 0 1 0 0 0 0 0.720277 0 0 0 0 0.000989556 0 0 0 1 0"/>
<feBlend mode="normal" in2="BackgroundImageFix" result="effect1_dropShadow_308_24237"/>
<feBlend mode="normal" in="SourceGraphic" in2="effect1_dropShadow_308_24237" result="shape"/>
</filter>
<filter id="filter4_d_308_24237" x="225.59" y="78.4844" width="51.9531" height="58.582" filterUnits="userSpaceOnUse" color-interpolation-filters="sRGB">
<feFlood flood-opacity="0" result="BackgroundImageFix"/>
<feColorMatrix in="SourceAlpha" type="matrix" values="0 0 0 0 0 0 0 0 0 0 0 0 0 0 0 0 0 0 127 0" result="hardAlpha"/>
<feOffset dy="4"/>
<feComposite in2="hardAlpha" operator="out"/>
<feColorMatrix type="matrix" values="0 0 0 0 1 0 0 0 0 0.720277 0 0 0 0 0.000989556 0 0 0 1 0"/>
<feBlend mode="normal" in2="BackgroundImageFix" result="effect1_dropShadow_308_24237"/>
<feBlend mode="normal" in="SourceGraphic" in2="effect1_dropShadow_308_24237" result="shape"/>
</filter>
<filter id="filter5_d_308_24237" x="84.1465" y="78.4844" width="51.9531" height="58.582" filterUnits="userSpaceOnUse" color-interpolation-filters="sRGB">
<feFlood flood-opacity="0" result="BackgroundImageFix"/>
<feColorMatrix in="SourceAlpha" type="matrix" values="0 0 0 0 0 0 0 0 0 0 0 0 0 0 0 0 0 0 127 0" result="hardAlpha"/>
<feOffset dy="4"/>
<feComposite in2="hardAlpha" operator="out"/>
<feColorMatrix type="matrix" values="0 0 0 0 1 0 0 0 0 0.720277 0 0 0 0 0.000989556 0 0 0 1 0"/>
<feBlend mode="normal" in2="BackgroundImageFix" result="effect1_dropShadow_308_24237"/>
<feBlend mode="normal" in="SourceGraphic" in2="effect1_dropShadow_308_24237" result="shape"/>
</filter>
<linearGradient id="paint0_linear_308_24237" x1="135.232" y1="5.39981" x2="155.02" y2="158.778" gradientUnits="userSpaceOnUse">
<stop stop-color="#FFEDAD" stop-opacity="0"/>
<stop offset="1" stop-color="#FFEFB8" stop-opacity="0.5"/>
</linearGradient>
<linearGradient id="paint1_linear_308_24237" x1="227.073" y1="4.03791" x2="209.132" y2="157.671" gradientUnits="userSpaceOnUse">
<stop stop-color="#FFEDAD" stop-opacity="0"/>
<stop offset="1" stop-color="#FFEFB8" stop-opacity="0.5"/>
</linearGradient>
<linearGradient id="paint2_linear_308_24237" x1="63.51" y1="43.1577" x2="104.228" y2="168.831" gradientUnits="userSpaceOnUse">
<stop stop-color="#FFEDAD" stop-opacity="0"/>
<stop offset="1" stop-color="#FFEFB8" stop-opacity="0.5"/>
</linearGradient>
<linearGradient id="paint3_linear_308_24237" x1="299.19" y1="40.927" x2="259.959" y2="167.131" gradientUnits="userSpaceOnUse">
<stop stop-color="#FFEDAD" stop-opacity="0"/>
<stop offset="1" stop-color="#FFEFB8" stop-opacity="0.5"/>
</linearGradient>
<linearGradient id="paint4_linear_308_24237" x1="19.1333" y1="102.695" x2="64.4619" y2="184.529" gradientUnits="userSpaceOnUse">
<stop stop-color="#FFEDAD" stop-opacity="0"/>
<stop offset="1" stop-color="#FFEFB8" stop-opacity="0.5"/>
</linearGradient>
<linearGradient id="paint5_linear_308_24237" x1="344.198" y1="99.9242" x2="299.806" y2="182.336" gradientUnits="userSpaceOnUse">
<stop stop-color="#FFEDAD" stop-opacity="0"/>
<stop offset="1" stop-color="#FFEFB8" stop-opacity="0.5"/>
</linearGradient>
<linearGradient id="paint6_linear_308_24237" x1="28.417" y1="101.202" x2="47.0976" y2="191.953" gradientUnits="userSpaceOnUse">
<stop offset="1" stop-color="#FFDE7C"/>
</linearGradient>
<linearGradient id="paint7_linear_308_24237" x1="334.251" y1="101.202" x2="315.57" y2="191.953" gradientUnits="userSpaceOnUse">
<stop offset="1" stop-color="#FFDE7C"/>
</linearGradient>
<linearGradient id="paint8_linear_308_24237" x1="180.918" y1="115.604" x2="180.918" y2="224.403" gradientUnits="userSpaceOnUse">
<stop offset="0.85" stop-color="#FFDE7C"/>
</linearGradient>
</defs>
</svg>
