<svg width="16" height="17" viewBox="0 0 16 17" fill="none" xmlns="http://www.w3.org/2000/svg">
<path d="M8 11C9.38 11 10.5 9.88 10.5 8.5C10.5 7.12 9.38 6 8 6C6.62 6 5.5 7.12 5.5 8.5C5.5 9.88 6.62 11 8 11ZM8 7C8.82667 7 9.5 7.67333 9.5 8.5C9.5 9.32667 8.82667 10 8 10C7.17333 10 6.5 9.32667 6.5 8.5C6.5 7.67333 7.17333 7 8 7Z" fill="white"/>
<path d="M5.85984 15.2942C5.99984 15.2942 6.13984 15.2742 6.27984 15.2408C6.69317 15.1275 7.03984 14.8675 7.25984 14.5008L7.33984 14.3675C7.73317 13.6875 8.27317 13.6875 8.6665 14.3675L8.73984 14.4942C8.95984 14.8675 9.3065 15.1342 9.71984 15.2408C10.1398 15.3542 10.5732 15.2942 10.9398 15.0742L12.0865 14.4142C12.4932 14.1808 12.7865 13.8008 12.9132 13.3408C13.0332 12.8808 12.9732 12.4075 12.7398 12.0008C12.5465 11.6608 12.4932 11.3542 12.6065 11.1608C12.7198 10.9675 13.0065 10.8542 13.3998 10.8542C14.3732 10.8542 15.1665 10.0608 15.1665 9.08751V7.91418C15.1665 6.94084 14.3732 6.14751 13.3998 6.14751C13.0065 6.14751 12.7198 6.03418 12.6065 5.84084C12.4932 5.64751 12.5398 5.34084 12.7398 5.00084C12.9732 4.59418 13.0332 4.11418 12.9132 3.66084C12.7932 3.20084 12.4998 2.82084 12.0865 2.58751L10.9332 1.92751C10.1798 1.48084 9.1865 1.74084 8.73317 2.50751L8.65317 2.64084C8.25984 3.32084 7.71984 3.32084 7.3265 2.64084L7.25317 2.51418C6.79984 1.74084 5.8065 1.48084 5.0465 1.93418L3.89984 2.59418C3.49317 2.82751 3.19984 3.20751 3.07317 3.66751C2.95317 4.12751 3.01317 4.60084 3.2465 5.00751C3.43984 5.34751 3.49317 5.65418 3.37984 5.84751C3.2665 6.04084 2.97984 6.15418 2.5865 6.15418C1.61317 6.15418 0.819837 6.94751 0.819837 7.92084V9.09418C0.819837 10.0675 1.61317 10.8608 2.5865 10.8608C2.97984 10.8608 3.2665 10.9742 3.37984 11.1675C3.49317 11.3608 3.4465 11.6675 3.2465 12.0075C3.01317 12.4142 2.9465 12.8942 3.07317 13.3475C3.19317 13.8075 3.4865 14.1875 3.89984 14.4208L5.05317 15.0808C5.3065 15.2208 5.57984 15.2942 5.85984 15.2942ZM7.99984 12.8275C7.4065 12.8275 6.85317 13.2008 6.47317 13.8608L6.39984 13.9875C6.31984 14.1275 6.1865 14.2275 6.0265 14.2675C5.8665 14.3075 5.7065 14.2875 5.57317 14.2075L4.41984 13.5408C4.2465 13.4408 4.11317 13.2742 4.05984 13.0742C4.0065 12.8742 4.03317 12.6675 4.13317 12.4942C4.51317 11.8408 4.55984 11.1675 4.2665 10.6542C3.97317 10.1408 3.3665 9.84751 2.6065 9.84751C2.17984 9.84751 1.83984 9.50751 1.83984 9.08084V7.90751C1.83984 7.48751 2.17984 7.14084 2.6065 7.14084C3.3665 7.14084 3.97317 6.84751 4.2665 6.33418C4.55984 5.82084 4.51317 5.14751 4.13317 4.49418C4.03317 4.32084 4.0065 4.11418 4.05984 3.91418C4.11317 3.71418 4.23984 3.55418 4.41317 3.44751L5.5665 2.78751C5.85317 2.61418 6.23317 2.71418 6.4065 3.00751L6.47984 3.13418C6.85984 3.79418 7.41317 4.16751 8.0065 4.16751C8.59984 4.16751 9.15317 3.79418 9.53317 3.13418L9.6065 3.00084C9.77317 2.72084 10.1465 2.62084 10.4332 2.78751L11.5865 3.45418C11.7598 3.55418 11.8932 3.72084 11.9465 3.92084C11.9998 4.12084 11.9732 4.32751 11.8732 4.50084C11.4932 5.15418 11.4465 5.82751 11.7398 6.34084C12.0332 6.85418 12.6398 7.14751 13.3998 7.14751C13.8265 7.14751 14.1665 7.48751 14.1665 7.91418V9.08751C14.1665 9.50751 13.8265 9.85418 13.3998 9.85418C12.6398 9.85418 12.0332 10.1475 11.7398 10.6608C11.4465 11.1742 11.4932 11.8475 11.8732 12.5008C11.9732 12.6742 11.9998 12.8808 11.9465 13.0808C11.8932 13.2808 11.7665 13.4408 11.5932 13.5475L10.4398 14.2075C10.2998 14.2942 10.1332 14.3142 9.97984 14.2742C9.81984 14.2342 9.6865 14.1275 9.59984 13.9875L9.5265 13.8608C9.1465 13.2075 8.59317 12.8275 7.99984 12.8275Z" fill="white"/>
</svg>
