<svg width="265" height="269" viewBox="0 0 265 269" fill="none" xmlns="http://www.w3.org/2000/svg">
<path d="M177.801 36.3679C178.154 37.0499 178.47 37.7493 178.753 38.4704L178.978 39.0391C179.282 39.806 178.813 38.5707 178.908 38.8539C179.078 39.3441 179.259 39.8256 179.42 40.3137C179.797 41.4575 180.129 42.621 180.425 43.7953C180.792 45.218 181.094 46.6604 181.332 48.1245C181.466 48.9023 181.58 49.6888 181.685 50.4667C181.79 51.2467 181.598 49.6453 181.685 50.4667C181.685 50.6954 181.735 50.9242 181.757 51.1552C181.807 51.6236 181.846 52.0942 181.883 52.5648C182.036 54.5104 182.094 56.4604 182.059 58.4148C182.059 59.4214 181.999 60.4367 181.933 61.4432C181.9 62.0184 181.85 62.5871 181.801 63.1557C181.801 63.3475 181.763 63.5457 181.745 63.7375C181.73 63.9292 181.586 65.1428 181.691 64.2952C181.348 67.0252 180.846 69.7203 180.189 72.3762C179.48 75.1934 178.615 77.9495 177.598 80.6446C176.96 82.2896 177.113 84.4161 178.699 85.3507C180.024 86.1351 182.203 85.8824 182.885 84.1132C186.526 74.7141 188.629 64.561 188.117 54.2642C187.833 47.8587 186.577 41.7037 184.348 35.7993C183.989 34.8101 183.571 33.8515 183.094 32.9233C182.993 32.7294 182.875 32.5464 182.741 32.3764C182.61 32.2087 182.462 32.054 182.303 31.9189C182.142 31.7816 181.972 31.664 181.792 31.5638C181.61 31.4657 181.423 31.3873 181.228 31.3285C181.034 31.2718 180.836 31.2348 180.635 31.2217C180.435 31.2086 180.235 31.2173 180.036 31.2478C179.836 31.2784 179.64 31.3306 179.451 31.4025C179.261 31.4766 179.078 31.5703 178.906 31.6858C178.732 31.7991 178.571 31.9298 178.419 32.0801C178.268 32.2305 178.133 32.3961 178.011 32.5747C177.888 32.7555 177.784 32.9473 177.697 33.1499C177.607 33.3525 177.54 33.5639 177.487 33.7839C177.437 34.0018 177.406 34.224 177.392 34.4506C177.381 34.675 177.388 34.8994 177.416 35.1239C177.443 35.3483 177.489 35.5661 177.555 35.7797C177.621 35.9932 177.704 36.198 177.807 36.3941L177.801 36.3679Z" fill="#D13AA0"/>
<path d="M220.644 36.3673C220.996 37.0492 221.314 37.7486 221.595 38.4698L221.822 39.0384C222.119 39.8053 221.652 38.57 221.75 38.8532C221.921 39.3434 222.095 39.8249 222.262 40.313C222.64 41.4568 222.971 42.6203 223.268 43.7946C223.634 45.2174 223.938 46.6597 224.177 48.1238C224.309 48.9016 224.417 49.6882 224.528 50.466C224.638 51.246 224.44 49.6446 224.528 50.466C224.528 50.6948 224.578 50.9235 224.599 51.1545C224.65 51.6229 224.688 52.0935 224.725 52.5641C224.878 54.5098 224.937 56.4598 224.902 58.4141C224.902 59.4207 224.842 60.436 224.776 61.4426C224.743 62.0178 224.692 62.5864 224.644 63.1551C224.644 63.3468 224.605 63.5451 224.588 63.7368C224.572 63.9285 224.429 65.1421 224.533 64.2946C224.19 67.0246 223.688 69.7197 223.031 72.3756C222.32 75.1818 221.454 77.9292 220.434 80.6135C219.797 82.2584 219.95 84.3849 221.535 85.3196C222.861 86.1039 225.039 85.8512 225.721 84.082C229.365 74.6829 231.466 64.5299 230.954 54.2331C230.669 47.8275 229.413 41.6725 227.185 35.7681C226.828 34.7789 226.411 33.8225 225.937 32.8987C225.836 32.7048 225.718 32.5217 225.584 32.3518C225.452 32.184 225.305 32.0315 225.144 31.8943C224.985 31.757 224.814 31.6394 224.634 31.5413C224.452 31.4411 224.266 31.3626 224.07 31.306C223.876 31.2494 223.679 31.2123 223.479 31.1992C223.278 31.1862 223.078 31.1949 222.878 31.2254C222.679 31.2559 222.485 31.3082 222.295 31.3801C222.105 31.4542 221.923 31.5478 221.75 31.6633C221.576 31.7766 221.413 31.9073 221.264 32.0577C221.113 32.208 220.977 32.3714 220.855 32.5523C220.733 32.7331 220.628 32.9226 220.541 33.1274C220.454 33.3301 220.384 33.5414 220.332 33.7593C220.281 33.9772 220.25 34.1994 220.237 34.426C220.225 34.6504 220.233 34.8748 220.26 35.0992C220.287 35.3236 220.334 35.5415 220.4 35.755C220.465 35.9685 220.549 36.1733 220.65 36.3673H220.644Z" fill="#D13AA0"/>
<path d="M264.327 177.908V138.913C264.337 137.771 264.322 136.63 264.281 135.488C264.24 134.349 264.176 133.209 264.085 132.072C263.994 130.934 263.878 129.799 263.738 128.669C263.597 127.538 263.432 126.411 263.242 125.289C263.052 124.167 262.837 123.052 262.599 121.941C262.36 120.832 262.097 119.729 261.81 118.633C261.521 117.537 261.211 116.452 260.876 115.374C260.541 114.295 260.182 113.228 259.798 112.169C259.416 111.11 259.011 110.064 258.583 109.029C258.155 107.992 257.705 106.97 257.232 105.959C256.759 104.948 256.263 103.951 255.746 102.968C255.23 101.985 254.691 101.016 254.131 100.064C253.573 99.1093 252.992 98.1724 252.391 97.253C251.79 96.3314 251.17 95.4272 250.531 94.5405C249.889 93.6537 249.23 92.7866 248.552 91.9347C247.873 91.0849 247.176 90.2548 246.461 89.4443C245.745 88.6317 245.013 87.8408 244.263 87.0695C243.513 86.3004 242.747 85.5509 241.964 84.8232C241.181 84.0933 240.383 83.3874 239.571 82.7054C238.757 82.0213 237.927 81.359 237.084 80.7228C236.241 80.0844 235.387 79.47 234.516 78.8795C233.646 78.2891 232.764 77.7248 231.869 77.1823C230.976 76.642 230.069 76.1256 229.152 75.6332C228.233 75.143 227.307 74.6767 226.369 74.2388C225.431 73.7987 224.483 73.3847 223.528 72.9991C222.572 72.6113 221.609 72.2518 220.636 71.9184C219.665 71.5851 218.686 71.2779 217.7 70.999C216.715 70.7201 215.725 70.4674 214.729 70.2451C213.733 70.0207 212.731 69.8246 211.727 69.6547C210.721 69.4869 209.713 69.3453 208.702 69.2342C207.692 69.1209 206.678 69.0359 205.663 68.9793C204.649 68.9226 203.634 68.8965 202.618 68.8965C201.601 68.8965 200.585 68.9226 199.571 68.9793C198.556 69.0359 197.542 69.1209 196.533 69.2342C195.521 69.3453 194.513 69.4869 193.507 69.6547C192.503 69.8246 191.501 70.0207 190.505 70.2451C189.509 70.4674 188.519 70.7201 187.534 70.999C186.548 71.2779 185.569 71.5851 184.598 71.9184C183.627 72.2518 182.662 72.6113 181.707 72.9991C180.751 73.3847 179.803 73.7987 178.865 74.2388C177.927 74.6767 177.001 75.143 176.082 75.6332C175.166 76.1256 174.261 76.642 173.365 77.1823C172.47 77.7248 171.588 78.2891 170.718 78.8795C169.848 79.47 168.993 80.0844 168.15 80.7228C167.307 81.359 166.477 82.0213 165.665 82.7054C164.851 83.3874 164.053 84.0933 163.27 84.8232C162.487 85.5509 161.721 86.3004 160.971 87.0695C160.221 87.8408 159.489 88.6317 158.774 89.4443C158.058 90.2548 157.361 91.0849 156.682 91.9347C156.004 92.7866 155.345 93.6537 154.704 94.5405C154.064 95.4272 153.444 96.3314 152.843 97.253C152.242 98.1724 151.663 99.1093 151.103 100.064C150.543 101.016 150.004 101.985 149.488 102.968C148.971 103.951 148.477 104.948 148.002 105.959C147.529 106.97 147.079 107.992 146.651 109.029C146.223 110.064 145.818 111.11 145.436 112.169C145.052 113.228 144.694 114.295 144.358 115.374C144.023 116.452 143.713 117.537 143.424 118.633C143.137 119.729 142.874 120.832 142.635 121.941C142.397 123.052 142.182 124.167 141.992 125.289C141.802 126.411 141.637 127.538 141.496 128.669C141.356 129.799 141.24 130.934 141.149 132.072C141.058 133.209 140.994 134.349 140.953 135.488C140.913 136.63 140.897 137.771 140.907 138.913V183.14C140.395 198.6 136.098 234.791 107.13 235.881C70.2687 237.26 38.9788 234.502 38.0544 245.199C37.1319 255.897 -14.4493 253.677 3.97186 258.928C18.5848 263.113 136.769 269.571 196.66 268.68C198.626 268.889 200.606 269 202.62 269C205.719 269 208.802 268.743 211.868 268.229C219.785 267.832 225.667 267.207 228.753 266.311C271.7 253.838 264.327 177.908 264.327 177.908Z" fill="#D13AA0"/>
<path d="M208.374 24.4775C208.374 36.9683 215.77 42.5699 226.882 42.5699C237.997 42.5699 247.003 36.0641 247.003 23.5733C247.003 22.8325 246.97 22.0939 246.906 21.3575C246.842 20.6189 246.745 19.889 246.616 19.1613C246.488 18.4358 246.329 17.7168 246.137 17.0087C245.945 16.3006 245.724 15.6034 245.472 14.9193C245.218 14.2351 244.937 13.5663 244.627 12.9126C244.317 12.2612 243.978 11.625 243.612 11.0106C243.245 10.394 242.854 9.79918 242.435 9.22834C242.019 8.65533 241.577 8.10628 241.11 7.58338C240.644 7.06048 240.156 6.56155 239.646 6.09311C239.137 5.6225 238.61 5.18239 238.061 4.77061C237.513 4.35882 236.949 3.97972 236.367 3.62894C235.786 3.28034 235.191 2.96442 234.582 2.68118C233.974 2.39794 233.354 2.14738 232.724 1.93387C232.092 1.71817 231.454 1.53951 230.809 1.39353C230.162 1.24974 229.51 1.1408 228.855 1.0689C228.198 0.997 227.541 0.959961 226.882 0.959961C215.77 0.959961 208.374 11.9845 208.374 24.4775Z" fill="white"/>
<path d="M207.61 24.4779C207.61 28.7745 208.502 33.0971 210.911 36.5156C213.112 39.677 216.413 41.5986 219.841 42.5464C227.489 44.6598 237.15 43.468 242.991 37.0428C249.044 30.3824 248.984 19.2947 244.786 11.4729C240.325 3.16098 231.284 -1.51245 222.778 0.607477C214.382 2.72959 208.915 11.4969 207.829 20.761C207.688 21.992 207.614 23.2295 207.61 24.4714C207.61 24.5847 207.63 24.6936 207.668 24.8004C207.707 24.905 207.762 24.9987 207.833 25.0793C207.905 25.1599 207.988 25.2209 208.081 25.2645C208.176 25.308 208.273 25.3298 208.374 25.3298C208.477 25.3298 208.574 25.308 208.667 25.2645C208.762 25.2209 208.843 25.1599 208.915 25.0793C208.986 24.9987 209.043 24.905 209.081 24.8004C209.12 24.6936 209.139 24.5847 209.139 24.4714C209.172 15.813 213.023 6.71018 220.446 3.22852C227.867 -0.250954 236.72 2.88428 241.77 9.66021C246.635 16.1834 248.071 26.6545 243.464 33.8205C238.982 40.7968 230.338 42.3982 223.186 41.4831C219.884 41.0561 216.396 39.8796 213.795 37.4067C213.178 36.7945 212.616 36.1234 212.109 35.3957C211.601 34.668 211.157 33.8945 210.775 33.0753C210.393 32.2539 210.081 31.4042 209.839 30.5196C209.597 29.6351 209.428 28.7352 209.331 27.8158C209.2 26.709 209.136 25.5956 209.139 24.4779C209.139 24.3625 209.12 24.2535 209.081 24.1489C209.043 24.0422 208.986 23.9507 208.915 23.8701C208.843 23.7895 208.762 23.7263 208.667 23.6827C208.574 23.6391 208.477 23.6173 208.374 23.6173C208.273 23.6173 208.176 23.6391 208.081 23.6827C207.988 23.7263 207.905 23.7895 207.833 23.8701C207.762 23.9507 207.707 24.0422 207.668 24.1489C207.63 24.2535 207.61 24.3625 207.61 24.4779Z" fill="#D13AA0"/>
<path d="M230.26 39.1257C229.832 39.1257 229.406 39.1017 228.977 39.056C228.551 39.0081 228.129 38.9383 227.708 38.8446C227.287 38.7488 226.873 38.6333 226.462 38.4939C226.053 38.3522 225.65 38.191 225.252 38.008C224.857 37.8228 224.469 37.618 224.092 37.3892C223.714 37.1626 223.347 36.9164 222.991 36.6485C222.634 36.3805 222.291 36.0951 221.96 35.7879C221.628 35.4828 221.31 35.1604 221.008 34.8205C220.704 34.4784 220.417 34.1233 220.146 33.7507C219.872 33.3781 219.619 32.9925 219.38 32.5916C219.142 32.1907 218.921 31.7789 218.719 31.3541C218.518 30.9292 218.334 30.4935 218.171 30.049C218.006 29.6045 217.861 29.1514 217.737 28.6895C217.613 28.2297 217.508 27.7635 217.425 27.2907C217.341 26.8179 217.277 26.3429 217.235 25.8636C217.194 25.3843 217.173 24.9028 217.173 24.4213V21.9484C217.163 21.4603 217.177 20.9723 217.21 20.4864C217.244 19.9984 217.301 19.5147 217.376 19.0354C217.454 18.5561 217.553 18.0811 217.671 17.6105C217.791 17.142 217.931 16.6802 218.089 16.227C218.25 15.7716 218.431 15.3293 218.628 14.8957C218.828 14.4622 219.047 14.0395 219.283 13.6299C219.52 13.2203 219.774 12.8259 220.045 12.4446C220.316 12.0655 220.605 11.6995 220.909 11.3509C221.214 11.0023 221.531 10.6711 221.865 10.3596C222.198 10.0458 222.543 9.7517 222.904 9.47718C223.262 9.20266 223.632 8.94992 224.014 8.71679C224.396 8.48367 224.787 8.27233 225.187 8.08495C225.588 7.8954 225.995 7.72764 226.411 7.58602C226.826 7.44222 227.247 7.32239 227.671 7.22435C228.098 7.12848 228.526 7.05658 228.958 7.00865C229.39 6.95854 229.824 6.93457 230.258 6.93457C230.693 6.93457 231.125 6.95854 231.557 7.00865C231.989 7.05658 232.419 7.12848 232.844 7.22435C233.27 7.32239 233.691 7.44222 234.105 7.58602C234.52 7.72764 234.929 7.8954 235.328 8.08495C235.73 8.27233 236.121 8.48367 236.503 8.71679C236.883 8.94992 237.255 9.20266 237.613 9.47718C237.972 9.7517 238.319 10.0458 238.652 10.3596C238.985 10.6711 239.303 11.0023 239.608 11.3509C239.912 11.6995 240.199 12.0655 240.47 12.4446C240.743 12.8259 240.997 13.2203 241.234 13.6299C241.47 14.0395 241.687 14.4622 241.887 14.8957C242.086 15.3293 242.267 15.7716 242.426 16.227C242.586 16.6802 242.726 17.142 242.844 17.6105C242.964 18.0811 243.061 18.5561 243.139 19.0354C243.216 19.5147 243.272 19.9984 243.305 20.4864C243.34 20.9723 243.354 21.4603 243.344 21.9484V24.4213C243.344 24.9028 243.323 25.3821 243.28 25.8614C243.239 26.3408 243.176 26.8179 243.092 27.2885C243.009 27.7613 242.904 28.2276 242.78 28.6895C242.654 29.1492 242.511 29.6024 242.346 30.0468C242.183 30.4935 241.999 30.927 241.798 31.3519C241.596 31.7768 241.375 32.1885 241.137 32.5894C240.9 32.9903 240.644 33.376 240.373 33.7485C240.102 34.1211 239.813 34.4762 239.511 34.8183C239.208 35.1582 238.891 35.4806 238.559 35.7857C238.228 36.0929 237.885 36.3783 237.528 36.6463C237.171 36.9143 236.805 37.1605 236.427 37.3871C236.049 37.6158 235.662 37.8206 235.266 38.0058C234.871 38.1888 234.468 38.3522 234.059 38.4917C233.648 38.6311 233.233 38.7488 232.813 38.8425C232.392 38.9362 231.97 39.0081 231.543 39.0538C231.117 39.1017 230.689 39.1257 230.26 39.1257Z" fill="black"/>
<path d="M200.178 24.3603C200.178 36.8511 192.777 42.4527 181.67 42.4527C170.561 42.4527 161.566 35.9469 161.566 23.4561C161.566 22.7153 161.597 21.9767 161.663 21.2403C161.727 20.5039 161.824 19.7718 161.952 19.0441C162.08 18.3186 162.241 17.6018 162.432 16.8915C162.622 16.1834 162.845 15.4862 163.097 14.8021C163.349 14.1179 163.63 13.4491 163.94 12.7954C164.252 12.144 164.59 11.5078 164.956 10.8934C165.322 10.2768 165.714 9.68199 166.132 9.11116C166.551 8.53814 166.993 7.9891 167.458 7.4662C167.925 6.94329 168.411 6.44654 168.921 5.97593C169.431 5.50531 169.96 5.0652 170.506 4.65342C171.055 4.24163 171.619 3.86253 172.2 3.51175C172.782 3.16315 173.377 2.84723 173.985 2.56399C174.594 2.28075 175.214 2.03237 175.846 1.81668C176.476 1.60098 177.113 1.42232 177.761 1.27635C178.406 1.13255 179.057 1.02361 179.714 0.951711C180.369 0.879812 181.026 0.842773 181.685 0.842773C192.777 0.842773 200.178 11.8738 200.178 24.3603Z" fill="white"/>
<path d="M199.412 24.3605C199.412 28.2801 198.641 32.3238 196.391 35.422C194.296 38.3045 191.28 39.9865 188.1 40.8275C181.096 42.6817 172.194 41.6685 166.781 35.8796C161.076 29.7573 161.202 19.4735 165.086 12.227C169.185 4.59698 177.52 0.174106 185.365 2.15895C193.213 4.14598 198.24 12.2945 199.221 20.9159C199.347 22.0641 199.41 23.2145 199.412 24.3714C199.412 24.4869 199.432 24.5958 199.471 24.7004C199.509 24.8071 199.564 24.8986 199.635 24.9793C199.707 25.0599 199.79 25.1231 199.883 25.1666C199.978 25.2102 200.075 25.232 200.178 25.232C200.279 25.232 200.376 25.2102 200.471 25.1666C200.564 25.1231 200.647 25.0599 200.719 24.9793C200.79 24.8986 200.845 24.8071 200.883 24.7004C200.922 24.5958 200.942 24.4869 200.942 24.3714C200.903 14.9984 196.689 5.33122 188.711 1.56633C180.734 -2.19856 170.985 1.09572 165.555 8.53618C160.388 15.6106 158.814 26.8203 163.766 34.5745C168.658 42.2067 177.945 44.161 185.772 43.0281C189.431 42.503 193.058 41.174 195.891 38.4396C196.558 37.7642 197.166 37.0256 197.715 36.2238C198.261 35.4242 198.742 34.5745 199.153 33.6769C199.566 32.7792 199.901 31.8489 200.162 30.8815C200.424 29.9163 200.608 28.9315 200.711 27.9271C200.85 26.7484 200.922 25.5632 200.926 24.3714C200.912 24.269 200.883 24.1731 200.841 24.0838C200.796 23.9923 200.74 23.9138 200.672 23.8441C200.602 23.7766 200.525 23.7243 200.44 23.6873C200.354 23.6524 200.265 23.6328 200.174 23.6328C200.081 23.6306 199.992 23.648 199.907 23.6829C199.821 23.7199 199.742 23.77 199.672 23.8376C199.602 23.903 199.546 23.9814 199.5 24.0729C199.455 24.1622 199.426 24.2581 199.412 24.3605Z" fill="#D13AA0"/>
<path d="M184.123 39.0086C184.552 39.0086 184.98 38.9847 185.406 38.9389C185.833 38.891 186.255 38.8213 186.676 38.7276C187.096 38.6317 187.511 38.5162 187.922 38.3768C188.331 38.2374 188.734 38.074 189.131 37.8909C189.527 37.7057 189.914 37.5009 190.292 37.2722C190.67 37.0456 191.036 36.7994 191.393 36.5314C191.749 36.2634 192.093 35.978 192.424 35.6708C192.755 35.3658 193.073 35.0433 193.376 34.7034C193.68 34.3613 193.967 34.0062 194.238 33.6336C194.511 33.2611 194.765 32.8754 195.003 32.4745C195.242 32.0737 195.463 31.6619 195.664 31.237C195.866 30.8122 196.05 30.3764 196.213 29.9319C196.378 29.4875 196.523 29.0343 196.647 28.5724C196.771 28.1127 196.876 27.6464 196.959 27.1736C197.042 26.7008 197.106 26.2259 197.149 25.7465C197.19 25.2672 197.211 24.7857 197.211 24.3042V21.8008C197.211 21.3171 197.192 20.8378 197.149 20.3585C197.106 19.8791 197.044 19.402 196.961 18.9292C196.876 18.4564 196.773 17.9902 196.649 17.5304C196.523 17.0686 196.379 16.6154 196.215 16.1709C196.052 15.7243 195.868 15.2907 195.666 14.8658C195.465 14.441 195.244 14.027 195.005 13.6261C194.767 13.2252 194.513 12.8396 194.24 12.467C193.969 12.0944 193.682 11.7393 193.377 11.3972C193.075 11.0574 192.757 10.7327 192.426 10.4277C192.094 10.1227 191.751 9.83508 191.395 9.56709C191.038 9.30128 190.67 9.0529 190.292 8.82631C189.914 8.59972 189.528 8.39274 189.131 8.20755C188.736 8.02453 188.333 7.86112 187.922 7.72168C187.513 7.58224 187.096 7.46459 186.676 7.3709C186.255 7.27722 185.833 7.2075 185.406 7.15956C184.98 7.11163 184.552 7.08984 184.123 7.08984C183.695 7.08984 183.267 7.11163 182.84 7.15956C182.414 7.2075 181.989 7.27722 181.569 7.3709C181.148 7.46459 180.734 7.58224 180.323 7.72168C179.914 7.86112 179.511 8.02453 179.113 8.20755C178.718 8.39274 178.33 8.59972 177.953 8.82631C177.575 9.0529 177.208 9.30128 176.852 9.56709C176.495 9.83508 176.15 10.1227 175.819 10.4277C175.487 10.7327 175.171 11.0574 174.867 11.3972C174.565 11.7393 174.278 12.0944 174.005 12.467C173.733 12.8396 173.478 13.2252 173.239 13.6261C173.001 14.027 172.782 14.441 172.58 14.8658C172.377 15.2907 172.195 15.7243 172.03 16.1709C171.867 16.6154 171.722 17.0686 171.598 17.5304C171.474 17.9902 171.369 18.4564 171.286 18.9292C171.202 19.402 171.138 19.8791 171.098 20.3585C171.055 20.8378 171.034 21.3171 171.034 21.8008V24.3042C171.034 24.7857 171.055 25.2672 171.098 25.7465C171.14 26.2259 171.202 26.7008 171.286 27.1736C171.371 27.6464 171.474 28.1127 171.6 28.5724C171.724 29.0343 171.867 29.4875 172.032 29.9319C172.197 30.3764 172.379 30.8122 172.582 31.237C172.784 31.6619 173.003 32.0737 173.241 32.4745C173.48 32.8754 173.735 33.2611 174.007 33.6336C174.28 34.0062 174.567 34.3613 174.869 34.7034C175.173 35.0433 175.489 35.3658 175.821 35.6708C176.152 35.978 176.497 36.2634 176.854 36.5314C177.208 36.7994 177.577 37.0456 177.954 37.2722C178.332 37.5009 178.72 37.7057 179.115 37.8909C179.511 38.074 179.914 38.2374 180.325 38.3768C180.734 38.5162 181.15 38.6317 181.571 38.7276C181.989 38.8213 182.414 38.891 182.84 38.9389C183.267 38.9847 183.695 39.0086 184.123 39.0086Z" fill="black"/>
<path d="M225.129 129.013C226.943 135.525 218.179 145.294 210.432 144.911C202.686 144.527 194.752 133.934 197.07 127.629C199.82 120.121 202.982 128.37 210.729 128.747C218.475 129.124 222.972 121.265 225.129 129.013Z" fill="black"/>
<mask id="mask0_216_7935" style="mask-type:luminance" maskUnits="userSpaceOnUse" x="202" y="124" width="8" height="11">
<path d="M202.184 124.3H209.626V134.897H202.184V124.3Z" fill="white"/>
</mask>
<g mask="url(#mask0_216_7935)">
<mask id="mask1_216_7935" style="mask-type:luminance" maskUnits="userSpaceOnUse" x="196" y="124" width="30" height="21">
<path d="M225.128 129.013C226.942 135.525 218.178 145.294 210.432 144.911C202.686 144.527 194.751 133.934 197.069 127.629C199.819 120.121 202.982 128.37 210.729 128.747C218.475 129.124 222.971 121.265 225.128 129.013Z" fill="white"/>
</mask>
<g mask="url(#mask1_216_7935)">
<path d="M209.469 126.453C208.792 129.588 206.312 135.296 204.38 134.765C202.449 134.233 201.806 127.677 202.482 124.542" fill="white"/>
</g>
</g>
<mask id="mask2_216_7935" style="mask-type:luminance" maskUnits="userSpaceOnUse" x="231" y="79" width="34" height="39">
<path d="M231.456 79.6787H265V117.049H231.456V79.6787Z" fill="white"/>
</mask>
<g mask="url(#mask2_216_7935)">
<mask id="mask3_216_7935" style="mask-type:luminance" maskUnits="userSpaceOnUse" x="0" y="68" width="265" height="201">
<path d="M264.327 177.908V138.913C264.347 136.628 264.265 134.346 264.085 132.072C263.903 129.795 263.622 127.533 263.242 125.289C262.862 123.043 262.386 120.825 261.81 118.633C261.234 116.441 260.564 114.287 259.798 112.169C259.035 110.051 258.178 107.981 257.232 105.959C256.285 103.937 255.252 101.972 254.131 100.064C253.011 98.155 251.812 96.314 250.531 94.5405C249.248 92.7669 247.893 91.0675 246.461 89.4443C245.03 87.819 243.53 86.2786 241.964 84.8232C240.398 83.3656 238.772 81.9995 237.084 80.7228C235.398 79.446 233.66 78.2651 231.869 77.1823C230.078 76.0995 228.245 75.1168 226.369 74.2388C224.491 73.3586 222.582 72.5851 220.636 71.9184C218.692 71.2517 216.723 70.6918 214.729 70.2451C212.735 69.7963 210.727 69.4586 208.702 69.2342C206.678 69.0076 204.651 68.8965 202.618 68.8965C200.583 68.8965 198.556 69.0076 196.533 69.2342C194.509 69.4586 192.5 69.7963 190.505 70.2451C188.513 70.6918 186.542 71.2517 184.598 71.9184C182.654 72.5851 180.743 73.3586 178.865 74.2388C176.989 75.1168 175.156 76.0995 173.365 77.1823C171.574 78.2651 169.836 79.446 168.15 80.7228C166.462 81.9995 164.836 83.3656 163.27 84.8232C161.704 86.2786 160.204 87.819 158.774 89.4443C157.343 91.0675 155.987 92.7669 154.704 94.5405C153.423 96.314 152.223 98.155 151.103 100.064C149.983 101.972 148.95 103.935 148.002 105.959C147.056 107.981 146.2 110.051 145.436 112.169C144.67 114.287 144 116.441 143.424 118.633C142.851 120.825 142.372 123.043 141.992 125.289C141.612 127.533 141.331 129.795 141.149 132.072C140.969 134.346 140.887 136.628 140.907 138.913V183.14C140.395 198.6 136.098 234.791 107.13 235.881C70.2687 237.26 38.9788 234.502 38.0544 245.199C37.1319 255.897 -14.4493 253.677 3.97186 258.928C18.5848 263.113 136.769 269.571 196.66 268.68C198.626 268.889 200.606 269 202.62 269C205.719 269 208.802 268.743 211.868 268.229C219.785 267.832 225.667 267.207 228.753 266.311C271.7 253.838 264.327 177.908 264.327 177.908Z" fill="white"/>
</mask>
<g mask="url(#mask3_216_7935)">
<path d="M268.95 98.3595C268.95 108.526 260.659 116.77 250.436 116.77C240.214 116.77 231.923 108.519 231.923 98.3595C231.923 88.1999 240.209 79.9512 250.436 79.9512C260.665 79.9512 268.95 88.1934 268.95 98.3595Z" fill="#B21F88"/>
</g>
</g>
<mask id="mask4_216_7935" style="mask-type:luminance" maskUnits="userSpaceOnUse" x="132" y="119" width="23" height="23">
<path d="M132.228 119.838H154.058V141.591H132.228V119.838Z" fill="white"/>
</mask>
<g mask="url(#mask4_216_7935)">
<mask id="mask5_216_7935" style="mask-type:luminance" maskUnits="userSpaceOnUse" x="0" y="68" width="265" height="201">
<path d="M264.327 177.908V138.913C264.347 136.628 264.265 134.346 264.085 132.072C263.903 129.795 263.622 127.533 263.242 125.289C262.862 123.043 262.386 120.825 261.81 118.633C261.234 116.441 260.564 114.287 259.798 112.169C259.035 110.051 258.178 107.981 257.232 105.959C256.285 103.937 255.252 101.972 254.131 100.064C253.011 98.155 251.812 96.314 250.531 94.5405C249.248 92.7669 247.893 91.0675 246.461 89.4443C245.03 87.819 243.53 86.2786 241.964 84.8232C240.398 83.3656 238.772 81.9995 237.084 80.7228C235.398 79.446 233.66 78.2651 231.869 77.1823C230.078 76.0995 228.245 75.1168 226.369 74.2388C224.491 73.3586 222.582 72.5851 220.636 71.9184C218.692 71.2517 216.723 70.6918 214.729 70.2451C212.735 69.7963 210.727 69.4586 208.702 69.2342C206.678 69.0076 204.651 68.8965 202.618 68.8965C200.583 68.8965 198.556 69.0076 196.533 69.2342C194.509 69.4586 192.5 69.7963 190.505 70.2451C188.513 70.6918 186.542 71.2517 184.598 71.9184C182.654 72.5851 180.743 73.3586 178.865 74.2388C176.989 75.1168 175.156 76.0995 173.365 77.1823C171.574 78.2651 169.836 79.446 168.15 80.7228C166.462 81.9995 164.836 83.3656 163.27 84.8232C161.704 86.2786 160.204 87.819 158.774 89.4443C157.343 91.0675 155.987 92.7669 154.704 94.5405C153.423 96.314 152.223 98.155 151.103 100.064C149.983 101.972 148.95 103.935 148.002 105.959C147.056 107.981 146.2 110.051 145.436 112.169C144.67 114.287 144 116.441 143.424 118.633C142.851 120.825 142.372 123.043 141.992 125.289C141.612 127.533 141.331 129.795 141.149 132.072C140.969 134.346 140.887 136.628 140.907 138.913V183.14C140.395 198.6 136.098 234.791 107.13 235.881C70.2687 237.26 38.9788 234.502 38.0544 245.199C37.1319 255.897 -14.4493 253.677 3.97186 258.928C18.5848 263.113 136.769 269.571 196.66 268.68C198.626 268.889 200.606 269 202.62 269C205.719 269 208.802 268.743 211.868 268.229C219.785 267.832 225.667 267.207 228.753 266.311C271.7 253.838 264.327 177.908 264.327 177.908Z" fill="white"/>
</mask>
<g mask="url(#mask5_216_7935)">
<path d="M153.94 130.744C153.94 136.699 149.087 141.523 143.101 141.523C137.116 141.523 132.263 136.699 132.263 130.744C132.263 124.79 137.116 119.973 143.101 119.973C149.087 119.973 153.94 124.796 153.94 130.744Z" fill="#B21F88"/>
</g>
</g>
<mask id="mask6_216_7935" style="mask-type:luminance" maskUnits="userSpaceOnUse" x="111" y="224" width="21" height="20">
<path d="M111.886 224.697H131.236V243.661H111.886V224.697Z" fill="white"/>
</mask>
<g mask="url(#mask6_216_7935)">
<mask id="mask7_216_7935" style="mask-type:luminance" maskUnits="userSpaceOnUse" x="0" y="68" width="265" height="201">
<path d="M264.328 177.908V138.913C264.347 136.628 264.266 134.346 264.085 132.072C263.903 129.795 263.622 127.533 263.242 125.289C262.863 123.043 262.386 120.825 261.81 118.633C261.235 116.441 260.564 114.287 259.798 112.169C259.035 110.051 258.178 107.981 257.233 105.959C256.285 103.937 255.252 101.972 254.132 100.064C253.011 98.155 251.812 96.314 250.531 94.5405C249.248 92.7669 247.893 91.0675 246.461 89.4443C245.031 87.819 243.531 86.2786 241.965 84.8232C240.399 83.3656 238.773 81.9995 237.085 80.7228C235.398 79.446 233.66 78.2651 231.869 77.1823C230.079 76.0995 228.245 75.1168 226.369 74.2388C224.491 73.3586 222.582 72.5851 220.636 71.9184C218.692 71.2517 216.723 70.6918 214.729 70.2451C212.735 69.7963 210.727 69.4586 208.702 69.2342C206.679 69.0076 204.651 68.8965 202.618 68.8965C200.583 68.8965 198.556 69.0076 196.533 69.2342C194.51 69.4586 192.5 69.7963 190.505 70.2451C188.513 70.6918 186.542 71.2517 184.598 71.9184C182.654 72.5851 180.744 73.3586 178.866 74.2388C176.99 75.1168 175.156 76.0995 173.365 77.1823C171.575 78.2651 169.836 79.446 168.15 80.7228C166.462 81.9995 164.836 83.3656 163.27 84.8232C161.704 86.2786 160.204 87.819 158.774 89.4443C157.344 91.0675 155.987 92.7669 154.704 94.5405C153.423 96.314 152.223 98.155 151.103 100.064C149.983 101.972 148.95 103.935 148.002 105.959C147.056 107.981 146.2 110.051 145.436 112.169C144.671 114.287 144 116.441 143.424 118.633C142.851 120.825 142.372 123.043 141.992 125.289C141.612 127.533 141.331 129.795 141.149 132.072C140.969 134.346 140.888 136.628 140.907 138.913V183.14C140.395 198.6 136.099 234.791 107.131 235.881C70.2689 237.26 38.9791 234.502 38.0546 245.199C37.1321 255.897 -14.4491 253.677 3.9721 258.928C18.585 263.113 136.769 269.571 196.661 268.68C198.626 268.889 200.607 269 202.62 269C205.719 269 208.803 268.743 211.869 268.229C219.786 267.832 225.668 267.207 228.753 266.311C271.7 253.838 264.328 177.908 264.328 177.908Z" fill="white"/>
</mask>
<g mask="url(#mask7_216_7935)">
<path d="M131.075 234.149C131.075 239.097 126.8 243.127 121.523 243.127C116.247 243.127 111.972 239.11 111.972 234.149C111.972 229.19 116.247 225.17 121.523 225.17C126.8 225.17 131.075 229.19 131.075 234.149Z" fill="#B21F88"/>
</g>
</g>
<mask id="mask8_216_7935" style="mask-type:luminance" maskUnits="userSpaceOnUse" x="216" y="218" width="18" height="17">
<path d="M216.572 218.562H233.937V234.737H216.572V218.562Z" fill="white"/>
</mask>
<g mask="url(#mask8_216_7935)">
<mask id="mask9_216_7935" style="mask-type:luminance" maskUnits="userSpaceOnUse" x="0" y="68" width="265" height="201">
<path d="M264.327 177.908V138.913C264.347 136.628 264.265 134.346 264.085 132.072C263.903 129.795 263.622 127.533 263.242 125.289C262.862 123.043 262.386 120.825 261.81 118.633C261.234 116.441 260.564 114.287 259.798 112.169C259.035 110.051 258.178 107.981 257.232 105.959C256.285 103.937 255.252 101.972 254.131 100.064C253.011 98.155 251.812 96.314 250.531 94.5405C249.248 92.7669 247.893 91.0675 246.461 89.4443C245.03 87.819 243.53 86.2786 241.964 84.8232C240.398 83.3656 238.772 81.9995 237.084 80.7228C235.398 79.446 233.66 78.2651 231.869 77.1823C230.078 76.0995 228.245 75.1168 226.369 74.2388C224.491 73.3586 222.582 72.5851 220.636 71.9184C218.692 71.2517 216.723 70.6918 214.729 70.2451C212.735 69.7963 210.727 69.4586 208.702 69.2342C206.678 69.0076 204.651 68.8965 202.618 68.8965C200.583 68.8965 198.556 69.0076 196.533 69.2342C194.509 69.4586 192.5 69.7963 190.505 70.2451C188.513 70.6918 186.542 71.2517 184.598 71.9184C182.654 72.5851 180.743 73.3586 178.865 74.2388C176.989 75.1168 175.156 76.0995 173.365 77.1823C171.574 78.2651 169.836 79.446 168.15 80.7228C166.462 81.9995 164.836 83.3656 163.27 84.8232C161.704 86.2786 160.204 87.819 158.774 89.4443C157.343 91.0675 155.987 92.7669 154.704 94.5405C153.423 96.314 152.223 98.155 151.103 100.064C149.983 101.972 148.95 103.935 148.002 105.959C147.056 107.981 146.2 110.051 145.436 112.169C144.67 114.287 144 116.441 143.424 118.633C142.851 120.825 142.372 123.043 141.992 125.289C141.612 127.533 141.331 129.795 141.149 132.072C140.969 134.346 140.887 136.628 140.907 138.913V183.14C140.395 198.6 136.098 234.791 107.13 235.881C70.2687 237.26 38.9788 234.502 38.0544 245.199C37.1319 255.897 -14.4493 253.677 3.97186 258.928C18.5848 263.113 136.769 269.571 196.66 268.68C198.626 268.889 200.606 269 202.62 269C205.719 269 208.802 268.743 211.868 268.229C219.785 267.832 225.667 267.207 228.753 266.311C271.7 253.838 264.327 177.908 264.327 177.908Z" fill="white"/>
</mask>
<g mask="url(#mask9_216_7935)">
<path d="M233.638 226.63C233.638 230.959 229.881 234.514 225.249 234.514C220.617 234.514 216.874 230.959 216.874 226.63C216.874 222.3 220.632 218.74 225.266 218.74C229.898 218.74 233.638 222.252 233.638 226.63Z" fill="#B21F88"/>
</g>
</g>
<mask id="mask10_216_7935" style="mask-type:luminance" maskUnits="userSpaceOnUse" x="239" y="202" width="11" height="10">
<path d="M239.891 202.387H249.813V211.869H239.891V202.387Z" fill="white"/>
</mask>
<g mask="url(#mask10_216_7935)">
<mask id="mask11_216_7935" style="mask-type:luminance" maskUnits="userSpaceOnUse" x="0" y="68" width="265" height="201">
<path d="M264.327 177.908V138.913C264.347 136.628 264.265 134.346 264.085 132.072C263.903 129.795 263.622 127.533 263.242 125.289C262.862 123.043 262.386 120.825 261.81 118.633C261.234 116.441 260.564 114.287 259.798 112.169C259.035 110.051 258.178 107.981 257.232 105.959C256.285 103.937 255.252 101.972 254.131 100.064C253.011 98.155 251.812 96.314 250.53 94.5405C249.247 92.7669 247.893 91.0675 246.461 89.4443C245.03 87.819 243.53 86.2786 241.964 84.8232C240.398 83.3656 238.772 81.9995 237.084 80.7228C235.398 79.446 233.66 78.2651 231.869 77.1823C230.078 76.0995 228.245 75.1168 226.369 74.2388C224.491 73.3586 222.582 72.5851 220.636 71.9184C218.692 71.2517 216.723 70.6918 214.729 70.2451C212.735 69.7963 210.727 69.4586 208.702 69.2342C206.678 69.0076 204.651 68.8965 202.618 68.8965C200.583 68.8965 198.556 69.0076 196.533 69.2342C194.509 69.4586 192.499 69.7963 190.505 70.2451C188.513 70.6918 186.542 71.2517 184.598 71.9184C182.654 72.5851 180.743 73.3586 178.865 74.2388C176.989 75.1168 175.156 76.0995 173.365 77.1823C171.574 78.2651 169.836 79.446 168.15 80.7228C166.462 81.9995 164.836 83.3656 163.27 84.8232C161.704 86.2786 160.204 87.819 158.774 89.4443C157.343 91.0675 155.987 92.7669 154.704 94.5405C153.423 96.314 152.223 98.155 151.103 100.064C149.983 101.972 148.95 103.935 148.002 105.959C147.056 107.981 146.199 110.051 145.436 112.169C144.67 114.287 144 116.441 143.424 118.633C142.851 120.825 142.372 123.043 141.992 125.289C141.612 127.533 141.331 129.795 141.149 132.072C140.969 134.346 140.887 136.628 140.907 138.913V183.14C140.395 198.6 136.098 234.791 107.13 235.881C70.2686 237.26 38.9788 234.502 38.0544 245.199C37.1319 255.897 -14.4493 253.677 3.97186 258.928C18.5847 263.113 136.769 269.571 196.66 268.68C198.626 268.889 200.606 269 202.62 269C205.719 269 208.802 268.743 211.868 268.229C219.785 267.832 225.667 267.207 228.753 266.311C271.7 253.838 264.327 177.908 264.327 177.908Z" fill="white"/>
</mask>
<g mask="url(#mask11_216_7935)">
<path d="M249.715 206.947C249.715 209.42 247.587 211.418 244.957 211.418C242.327 211.418 240.197 209.416 240.197 206.947C240.197 204.481 242.327 202.47 244.957 202.47C247.587 202.47 249.715 204.474 249.715 206.947Z" fill="#B21F88"/>
</g>
</g>
<mask id="mask12_216_7935" style="mask-type:luminance" maskUnits="userSpaceOnUse" x="157" y="144" width="11" height="11">
<path d="M157.531 144.938H167.454V154.419H157.531V144.938Z" fill="white"/>
</mask>
<g mask="url(#mask12_216_7935)">
<mask id="mask13_216_7935" style="mask-type:luminance" maskUnits="userSpaceOnUse" x="0" y="68" width="265" height="201">
<path d="M264.327 177.908V138.913C264.347 136.628 264.265 134.346 264.085 132.072C263.903 129.795 263.622 127.533 263.242 125.289C262.862 123.043 262.386 120.825 261.81 118.633C261.234 116.441 260.564 114.287 259.798 112.169C259.035 110.051 258.178 107.981 257.232 105.959C256.285 103.937 255.252 101.972 254.131 100.064C253.011 98.155 251.812 96.314 250.531 94.5405C249.248 92.7669 247.893 91.0675 246.461 89.4443C245.03 87.819 243.53 86.2786 241.964 84.8232C240.398 83.3656 238.772 81.9995 237.084 80.7228C235.398 79.446 233.66 78.2651 231.869 77.1823C230.078 76.0995 228.245 75.1168 226.369 74.2388C224.491 73.3586 222.582 72.5851 220.636 71.9184C218.692 71.2517 216.723 70.6918 214.729 70.2451C212.735 69.7963 210.727 69.4586 208.702 69.2342C206.678 69.0076 204.651 68.8965 202.618 68.8965C200.583 68.8965 198.556 69.0076 196.533 69.2342C194.509 69.4586 192.5 69.7963 190.505 70.2451C188.513 70.6918 186.542 71.2517 184.598 71.9184C182.654 72.5851 180.743 73.3586 178.865 74.2388C176.989 75.1168 175.156 76.0995 173.365 77.1823C171.574 78.2651 169.836 79.446 168.15 80.7228C166.462 81.9995 164.836 83.3656 163.27 84.8232C161.704 86.2786 160.204 87.819 158.774 89.4443C157.343 91.0675 155.987 92.7669 154.704 94.5405C153.423 96.314 152.223 98.155 151.103 100.064C149.983 101.972 148.95 103.935 148.002 105.959C147.056 107.981 146.2 110.051 145.436 112.169C144.67 114.287 144 116.441 143.424 118.633C142.851 120.825 142.372 123.043 141.992 125.289C141.612 127.533 141.331 129.795 141.149 132.072C140.969 134.346 140.887 136.628 140.907 138.913V183.14C140.395 198.6 136.098 234.791 107.13 235.881C70.2687 237.26 38.9788 234.502 38.0544 245.199C37.1319 255.897 -14.4493 253.677 3.97186 258.928C18.5848 263.113 136.769 269.571 196.66 268.68C198.626 268.889 200.606 269 202.62 269C205.719 269 208.802 268.743 211.868 268.229C219.785 267.832 225.667 267.207 228.753 266.311C271.7 253.838 264.327 177.908 264.327 177.908Z" fill="white"/>
</mask>
<g mask="url(#mask13_216_7935)">
<path d="M167.431 149.617C167.431 152.09 165.301 154.095 162.671 154.095C160.041 154.095 157.913 152.09 157.913 149.617C157.913 147.144 160.047 145.146 162.671 145.146C165.295 145.146 167.431 147.151 167.431 149.617Z" fill="#B21F88"/>
</g>
</g>
<mask id="mask14_216_7935" style="mask-type:luminance" maskUnits="userSpaceOnUse" x="106" y="133" width="159" height="118">
<path d="M106.429 133.782H265V250.912H106.429V133.782Z" fill="white"/>
</mask>
<g mask="url(#mask14_216_7935)">
<mask id="mask15_216_7935" style="mask-type:luminance" maskUnits="userSpaceOnUse" x="0" y="68" width="265" height="201">
<path d="M264.327 177.908V138.913C264.347 136.628 264.265 134.346 264.085 132.072C263.903 129.795 263.622 127.533 263.242 125.289C262.862 123.043 262.386 120.825 261.81 118.633C261.234 116.441 260.564 114.287 259.798 112.169C259.035 110.051 258.178 107.981 257.232 105.959C256.285 103.937 255.252 101.972 254.131 100.064C253.011 98.155 251.812 96.314 250.531 94.5405C249.248 92.7669 247.893 91.0675 246.461 89.4443C245.03 87.819 243.53 86.2786 241.964 84.8232C240.398 83.3656 238.772 81.9995 237.084 80.7228C235.398 79.446 233.66 78.2651 231.869 77.1823C230.078 76.0995 228.245 75.1168 226.369 74.2388C224.491 73.3586 222.582 72.5851 220.636 71.9184C218.692 71.2517 216.723 70.6918 214.729 70.2451C212.735 69.7963 210.727 69.4586 208.702 69.2342C206.678 69.0076 204.651 68.8965 202.618 68.8965C200.583 68.8965 198.556 69.0076 196.533 69.2342C194.509 69.4586 192.5 69.7963 190.505 70.2451C188.513 70.6918 186.542 71.2517 184.598 71.9184C182.654 72.5851 180.743 73.3586 178.865 74.2388C176.989 75.1168 175.156 76.0995 173.365 77.1823C171.574 78.2651 169.836 79.446 168.15 80.7228C166.462 81.9995 164.836 83.3656 163.27 84.8232C161.704 86.2786 160.204 87.819 158.774 89.4443C157.343 91.0675 155.987 92.7669 154.704 94.5405C153.423 96.314 152.223 98.155 151.103 100.064C149.983 101.972 148.95 103.935 148.002 105.959C147.056 107.981 146.2 110.051 145.436 112.169C144.67 114.287 144 116.441 143.424 118.633C142.851 120.825 142.372 123.043 141.992 125.289C141.612 127.533 141.331 129.795 141.149 132.072C140.969 134.346 140.887 136.628 140.907 138.913V183.14C140.395 198.6 136.098 234.791 107.13 235.881C70.2687 237.26 38.9788 234.502 38.0544 245.199C37.1319 255.897 -14.4493 253.677 3.97186 258.928C18.5848 263.113 136.769 269.571 196.66 268.68C198.626 268.889 200.606 269 202.62 269C205.719 269 208.802 268.743 211.868 268.229C219.785 267.832 225.667 267.207 228.753 266.311C271.7 253.838 264.327 177.908 264.327 177.908Z" fill="white"/>
</mask>
<g mask="url(#mask15_216_7935)">
<path d="M1.91374 255.075C3.9487 255.241 40.3007 258.167 65.1852 258.897C90.0698 259.627 211.341 263.936 224.698 256.609C237.232 249.727 248.313 250.578 257.634 213.039C265.791 180.172 265.114 134.313 265.114 134.313L281.433 277.244C281.433 277.244 3.95451 275.728 2.59012 274.194C1.22574 272.662 -72.895 248.971 1.91374 255.075Z" fill="#E55EBF"/>
</g>
</g>
</svg>
