<svg width="80" height="57" viewBox="0 0 80 57" fill="none" xmlns="http://www.w3.org/2000/svg">
<path d="M63.2627 14.63C64.7219 13.8828 66.1925 13.1498 67.6741 12.4315C68.7967 11.8862 69.9239 11.3465 71.0661 10.8345C71.3145 10.7222 71.5565 10.6135 71.8147 10.5057L72.1415 10.3621C72.1968 10.3393 72.2509 10.3191 72.3045 10.2948C72.4014 10.2518 72.0418 10.3696 72.2054 10.3337C72.2509 10.3236 72.3063 10.315 72.3524 10.3003C72.3979 10.2862 72.0861 10.3003 72.2164 10.3191C72.2452 10.3206 72.2746 10.3206 72.3034 10.3191C72.5028 10.3191 72.055 10.2619 72.2331 10.3105C72.2884 10.3266 72.4797 10.3884 72.2982 10.3221C72.1167 10.2563 72.2982 10.3221 72.3426 10.3494C72.3864 10.3767 72.3916 10.3782 72.4175 10.3909C72.5466 10.4612 72.365 10.3636 72.331 10.3292C72.4192 10.4152 72.5322 10.4845 72.6203 10.5705C72.6693 10.6175 72.7102 10.6737 72.761 10.7136C72.7004 10.661 72.6232 10.5502 72.7114 10.6595L72.7817 10.7455C72.8785 10.8689 72.9684 10.9964 73.0531 11.1269C73.2433 11.4325 73.4145 11.7456 73.566 12.0673C73.6138 12.1619 73.4761 11.8761 73.5551 12.0456L73.6167 12.1776C73.6576 12.2681 73.6986 12.3597 73.7377 12.4502C73.8196 12.6394 73.9014 12.8291 73.9717 13.0244C74.5803 14.6361 75.0707 16.2755 75.4418 17.9418C75.6758 18.9252 75.8423 19.9167 76.0648 20.9011C76.0648 20.9168 76.0648 20.9325 76.0728 20.9482C76.1414 21.3458 76.7361 21.6012 77.1493 21.4849C77.6397 21.3417 77.8339 20.9669 77.7608 20.5394C77.6121 19.6785 77.434 18.8347 77.2363 17.9864C76.8687 16.2953 76.3909 14.628 75.8031 12.9854C75.5179 12.1837 75.1617 11.4062 74.7364 10.6534C74.3895 10.058 73.955 9.47832 73.3274 9.0878C73.0197 8.89912 72.6785 8.79896 72.3034 8.78783C71.8585 8.77518 71.4862 8.93149 71.1024 9.10247C69.9844 9.57596 68.8901 10.0924 67.8015 10.6135C66.011 11.4744 64.2349 12.3546 62.4732 13.2541L62.3787 13.3011C62.3303 13.3274 62.2859 13.3572 62.2444 13.3911C62.2029 13.425 62.1661 13.462 62.1326 13.5019C62.0998 13.5424 62.071 13.5849 62.0473 13.6299C62.0231 13.6749 62.0047 13.7215 61.9909 13.7695C61.9776 13.8176 61.9695 13.8666 61.9667 13.9162C61.9638 13.9658 61.9667 14.0149 61.9747 14.0639C61.9828 14.113 61.9961 14.1611 62.0145 14.2081C62.0329 14.2546 62.0566 14.2997 62.0854 14.3427C62.1136 14.3852 62.147 14.4251 62.1839 14.4626C62.2214 14.5 62.2623 14.5334 62.3072 14.5637C62.3522 14.5941 62.3995 14.6204 62.4502 14.6426C62.5009 14.6644 62.5533 14.6821 62.6075 14.6952C62.6622 14.7089 62.7176 14.717 62.774 14.721C62.8299 14.7251 62.8864 14.7241 62.9423 14.718C62.9988 14.7124 63.0535 14.7018 63.1071 14.6872C63.1613 14.672 63.2132 14.6522 63.2627 14.6285V14.63Z" fill="#523F89"/>
<mask id="mask0_302_23088" style="mask-type:luminance" maskUnits="userSpaceOnUse" x="76" y="19" width="4" height="4">
<path d="M76.1172 19.9688H79.6285V22.2997H76.1172V19.9688Z" fill="white"/>
</mask>
<g mask="url(#mask0_302_23088)">
<path d="M79.6313 21.1656C79.6313 21.2384 79.6204 21.3107 79.5979 21.3821C79.5754 21.4534 79.542 21.5232 79.4982 21.5905C79.4544 21.6578 79.4002 21.722 79.3369 21.7827C79.2729 21.8429 79.2003 21.899 79.119 21.9506C79.0378 22.0022 78.949 22.0483 78.8539 22.0887C78.7583 22.1292 78.6574 22.1636 78.5514 22.1914C78.4448 22.2193 78.3359 22.2405 78.2229 22.2547C78.11 22.2688 77.9964 22.2759 77.8818 22.2759C77.7665 22.2759 77.653 22.2688 77.54 22.2547C77.4276 22.2405 77.3181 22.2193 77.2121 22.1914C77.1055 22.1636 77.0047 22.1292 76.9096 22.0887C76.8139 22.0483 76.7252 22.0022 76.6439 21.9506C76.5626 21.899 76.49 21.8429 76.4266 21.7827C76.3627 21.722 76.3085 21.6578 76.2647 21.5905C76.2209 21.5232 76.1875 21.4534 76.165 21.3821C76.1425 21.3107 76.1316 21.2384 76.1316 21.1656C76.1316 21.0927 76.1425 21.0204 76.165 20.9485C76.1875 20.8772 76.2209 20.8079 76.2647 20.7401C76.3085 20.6728 76.3627 20.6091 76.4266 20.5484C76.49 20.4877 76.5626 20.4316 76.6439 20.38C76.7252 20.3284 76.8139 20.2823 76.9096 20.2419C77.0047 20.2014 77.1055 20.167 77.2121 20.1392C77.3181 20.1113 77.4276 20.0901 77.54 20.0759C77.653 20.0618 77.7665 20.0547 77.8818 20.0547C77.9964 20.0547 78.11 20.0618 78.2229 20.0759C78.3359 20.0901 78.4448 20.1113 78.5514 20.1392C78.6574 20.167 78.7583 20.2014 78.8539 20.2419C78.949 20.2823 79.0378 20.3284 79.119 20.38C79.2003 20.4316 79.2729 20.4877 79.3369 20.5484C79.4002 20.6091 79.4544 20.6728 79.4982 20.7401C79.542 20.8079 79.5754 20.8772 79.5979 20.9485C79.6204 21.0204 79.6313 21.0927 79.6313 21.1656Z" fill="#523F89"/>
</g>
<path d="M61.9014 26.413C63.36 25.6648 64.8307 24.9318 66.3128 24.2145C67.4354 23.6677 68.5626 23.1279 69.7048 22.616C69.9532 22.5052 70.1952 22.3949 70.4534 22.2887L70.7802 22.145L70.9438 22.0777C71.0401 22.0347 70.6805 22.1521 70.8441 22.1162C70.8931 22.1076 70.9415 22.0965 70.9894 22.0833C71.0533 22.0636 70.7248 22.0833 70.8551 22.102C70.8845 22.1035 70.9133 22.1035 70.9421 22.102C71.1415 22.102 70.6937 22.0459 70.8718 22.0949C70.9271 22.1106 71.1184 22.1723 70.9369 22.1051C70.756 22.0373 70.9369 22.1051 70.9813 22.1339C71.0251 22.1622 71.0303 22.1607 71.0545 22.1754C71.1853 22.2457 71.0043 22.1481 70.9698 22.1137C71.0579 22.1997 71.1709 22.2669 71.259 22.3544C71.308 22.402 71.3489 22.4566 71.3997 22.4981C71.3392 22.4435 71.2625 22.3347 71.3507 22.4435L71.421 22.5285C71.5172 22.6519 71.6071 22.7809 71.6918 22.9114C71.8837 23.2129 72.056 23.522 72.2099 23.8396C72.2572 23.9348 72.12 23.6474 72.1984 23.8184C72.2197 23.8629 72.241 23.9059 72.2606 23.9504C72.3015 24.041 72.3425 24.131 72.3816 24.2231C72.4635 24.4113 72.5447 24.602 72.615 24.7972C73.2242 26.4089 73.7146 28.0479 74.0857 29.7147C74.3179 30.6966 74.4862 31.6896 74.7081 32.674C74.7081 32.6881 74.7081 32.7038 74.7161 32.72C74.7853 33.1186 75.38 33.3741 75.7915 33.2567C76.2819 33.113 76.4778 32.7382 76.4029 32.3123C76.2542 31.4513 76.0762 30.6075 75.8797 29.7592C75.5126 28.0681 75.0348 26.4008 74.447 24.7583C74.1623 23.9595 73.8091 23.1851 73.3861 22.4349C73.0398 21.841 72.6052 21.2613 71.9777 20.8708C71.6705 20.6806 71.3294 20.5789 70.9536 20.5652C70.5087 20.5521 70.1365 20.7089 69.7509 20.8809C68.6329 21.3544 67.5403 21.8708 66.4517 22.3919C64.6612 23.2529 62.8851 24.133 61.1234 25.0325L61.0289 25.0795C60.9805 25.1058 60.9362 25.1362 60.8947 25.1696C60.8532 25.2034 60.8163 25.2404 60.7829 25.2808C60.7494 25.3208 60.7212 25.3633 60.6976 25.4083C60.6734 25.4533 60.6549 25.4999 60.6411 25.5479C60.6278 25.5965 60.6198 25.6451 60.6169 25.6946C60.614 25.7442 60.6163 25.7938 60.625 25.8428C60.633 25.8919 60.6463 25.94 60.6647 25.9865C60.6832 26.0336 60.7068 26.0781 60.7356 26.1211C60.7639 26.1641 60.7967 26.204 60.8342 26.241C60.8716 26.2784 60.9125 26.3123 60.9575 26.3421C61.0024 26.3725 61.0497 26.3988 61.1004 26.421C61.1511 26.4433 61.2036 26.461 61.2577 26.4742C61.3125 26.4873 61.3678 26.4959 61.4243 26.4995C61.4802 26.5035 61.5366 26.5025 61.5925 26.4969C61.649 26.4909 61.7038 26.4807 61.7574 26.4656C61.8115 26.4504 61.8634 26.4312 61.9124 26.4074L61.9014 26.413Z" fill="#523F89"/>
<path d="M78.27 32.9488C78.27 33.0216 78.2591 33.0939 78.2366 33.1653C78.2141 33.2366 78.1813 33.3064 78.1369 33.3737C78.0931 33.441 78.0389 33.5052 77.9755 33.5654C77.9116 33.6261 77.839 33.6823 77.7577 33.7338C77.6764 33.7854 77.5883 33.8315 77.4926 33.8719C77.3969 33.9124 77.2961 33.9468 77.1901 33.9746C77.084 34.0025 76.9745 34.0237 76.8616 34.0379C76.7492 34.052 76.6351 34.0591 76.5204 34.0591C76.4052 34.0591 76.2916 34.052 76.1787 34.0379C76.0663 34.0237 75.9568 34.0025 75.8508 33.9746C75.7442 33.9468 75.6433 33.9124 75.5482 33.8719C75.4526 33.8315 75.3638 33.7854 75.2826 33.7338C75.2013 33.6823 75.1293 33.6261 75.0653 33.5654C75.0014 33.5052 74.9478 33.441 74.9034 33.3737C74.8596 33.3064 74.8262 33.2366 74.8037 33.1653C74.7812 33.0939 74.7703 33.0216 74.7703 32.9488C74.7703 32.8754 74.7812 32.8036 74.8037 32.7317C74.8262 32.6604 74.8596 32.5911 74.9034 32.5233C74.9478 32.4561 75.0014 32.3923 75.0653 32.3316C75.1293 32.2709 75.2013 32.2148 75.2826 32.1632C75.3638 32.1116 75.4526 32.0655 75.5482 32.0251C75.6433 31.9846 75.7442 31.9502 75.8508 31.9224C75.9568 31.8945 76.0663 31.8733 76.1787 31.8591C76.2916 31.845 76.4052 31.8379 76.5204 31.8379C76.6351 31.8379 76.7492 31.845 76.8616 31.8591C76.9745 31.8733 77.084 31.8945 77.1901 31.9224C77.2961 31.9502 77.3969 31.9846 77.4926 32.0251C77.5883 32.0655 77.6764 32.1116 77.7577 32.1632C77.839 32.2148 77.9116 32.2709 77.9755 32.3316C78.0389 32.3923 78.0931 32.4561 78.1369 32.5233C78.1813 32.5911 78.2141 32.6604 78.2366 32.7317C78.2591 32.8036 78.27 32.8754 78.27 32.9488Z" fill="#523F89"/>
<path d="M58.401 38.7102C59.8607 37.963 61.3314 37.2305 62.813 36.5117C63.9356 35.9654 65.0628 35.4256 66.2067 34.9132C66.4551 34.8029 66.6966 34.6921 66.9536 34.5849L67.2803 34.4412C67.3339 34.4195 67.3898 34.3982 67.4434 34.374C67.5402 34.3305 67.1789 34.4498 67.342 34.4139C67.3921 34.4053 67.4411 34.3942 67.4895 34.381C67.5529 34.3608 67.2244 34.381 67.3535 34.3982C67.3823 34.4003 67.4111 34.4003 67.4405 34.3982C67.6411 34.3982 67.1933 34.3421 67.3714 34.3912C67.4273 34.4053 67.6186 34.4686 67.4371 34.4008C67.2555 34.3335 67.4371 34.4008 67.4809 34.4296L67.5546 34.4701C67.6854 34.5414 67.5039 34.4428 67.4699 34.4094C67.5564 34.4944 67.6693 34.5631 67.7586 34.6491C67.8082 34.6967 67.8485 34.7523 67.8992 34.7928C67.8387 34.7397 67.7621 34.6304 67.8503 34.7397L67.9188 34.8242C68.0168 34.9476 68.1067 35.0756 68.192 35.2061C68.3827 35.5081 68.5556 35.8182 68.7101 36.1359C68.7573 36.2305 68.6202 35.9436 68.6985 36.1146C68.7199 36.1576 68.7395 36.2021 68.7608 36.2466C68.8011 36.3367 68.842 36.4272 68.8812 36.5193C68.9631 36.707 69.0449 36.8977 69.1152 37.0929C69.7243 38.7056 70.2142 40.3451 70.5859 42.0124C70.8175 42.9938 70.9841 43.9868 71.2065 44.9697L71.2163 45.0172C71.2849 45.4163 71.8779 45.6718 72.2916 45.5539C72.7815 45.4103 72.978 45.0359 72.9025 44.6085C72.7538 43.747 72.5758 42.9032 72.3781 42.0569C72.0087 40.3653 71.5275 38.6985 70.9339 37.057C70.651 36.2583 70.2983 35.4838 69.8747 34.7341C69.5284 34.1397 69.0939 33.56 68.4646 33.1695C68.1574 32.9788 67.8163 32.8771 67.4405 32.864C66.9974 32.8513 66.6234 33.0147 66.2396 33.1796C65.1216 33.6521 64.0284 34.1686 62.9386 34.6906C61.1487 35.5521 59.3732 36.4318 57.6121 37.3297L57.517 37.3788C57.4657 37.4035 57.4179 37.4324 57.3729 37.4653C57.3286 37.4986 57.2876 37.5356 57.2513 37.5755C57.215 37.616 57.1839 37.659 57.1574 37.705C57.1309 37.7506 57.1096 37.7986 57.094 37.8477C57.0784 37.8973 57.0687 37.9478 57.0646 37.9989C57.0606 38.0505 57.0623 38.1016 57.0698 38.1527C57.0773 38.2033 57.0906 38.2534 57.1096 38.302C57.1286 38.3505 57.1528 38.3971 57.1822 38.4416C57.2116 38.4856 57.2461 38.5271 57.2848 38.5655C57.3239 38.6039 57.3672 38.6383 57.4138 38.6692C57.4605 38.7001 57.5107 38.7264 57.5637 38.7481C57.6161 38.7704 57.6714 38.7876 57.7279 38.7997C57.785 38.8124 57.8426 38.8194 57.9008 38.8215C57.9596 38.824 58.0178 38.821 58.0754 38.8129C58.133 38.8048 58.1895 38.7916 58.2443 38.7739C58.299 38.7557 58.3514 38.7334 58.401 38.7061V38.7102Z" fill="#523F89"/>
<path d="M74.7702 45.2456C74.7702 45.3185 74.7593 45.3908 74.7368 45.4621C74.7143 45.534 74.6809 45.6033 74.6371 45.6706C74.5933 45.7383 74.5392 45.8021 74.4752 45.8628C74.4112 45.9235 74.3392 45.9796 74.2579 46.0312C74.1767 46.0828 74.0879 46.1289 73.9923 46.1693C73.8972 46.2098 73.7963 46.2437 73.6897 46.272C73.5837 46.2998 73.4742 46.3206 73.3618 46.3352C73.2489 46.3494 73.1353 46.3565 73.0201 46.3565C72.9054 46.3565 72.7913 46.3494 72.6789 46.3352C72.566 46.3206 72.4565 46.2998 72.3505 46.272C72.2444 46.2437 72.1436 46.2098 72.0479 46.1693C71.9522 46.1289 71.8641 46.0828 71.7828 46.0312C71.7016 45.9796 71.629 45.9235 71.565 45.8628C71.5016 45.8021 71.4474 45.7383 71.4036 45.6706C71.3598 45.6033 71.3264 45.534 71.3039 45.4621C71.2815 45.3908 71.2705 45.3185 71.2705 45.2456C71.2705 45.1728 71.2815 45.1004 71.3039 45.0291C71.3264 44.9573 71.3598 44.888 71.4036 44.8207C71.4474 44.7534 71.5016 44.6892 71.565 44.6285C71.629 44.5678 71.7016 44.5116 71.7828 44.4605C71.8641 44.4089 71.9522 44.3629 72.0479 44.3219C72.1436 44.2815 72.2444 44.2476 72.3505 44.2197C72.4565 44.1914 72.566 44.1707 72.6789 44.1565C72.7913 44.1418 72.9054 44.1348 73.0201 44.1348C73.1353 44.1348 73.2489 44.1424 73.3618 44.1565C73.4742 44.1707 73.5837 44.1914 73.6897 44.2197C73.7963 44.2476 73.8972 44.2815 73.9923 44.3219C74.0879 44.3629 74.1767 44.4089 74.2579 44.4605C74.3392 44.5116 74.4112 44.5678 74.4752 44.6285C74.5392 44.6892 74.5933 44.7534 74.6371 44.8207C74.6809 44.888 74.7143 44.9573 74.7368 45.0291C74.7593 45.1004 74.7702 45.1728 74.7702 45.2456Z" fill="#523F89"/>
<path d="M48.2512 47.2265C49.8297 46.6468 51.415 46.0838 53.0078 45.5375C54.2088 45.1226 55.4144 44.7164 56.6303 44.3406C57.0792 44.1969 57.5339 44.078 57.9863 43.9516C58.0975 43.9202 57.7379 43.9516 57.8526 43.9678C57.8751 43.9688 57.8981 43.9688 57.9212 43.9678C57.9465 43.9688 57.9719 43.9688 57.9978 43.9678C58.0485 43.9592 57.7299 43.9131 57.8688 43.9546C57.9212 43.9703 58.101 44.028 57.9177 43.9546C57.7345 43.8813 57.9177 43.9546 57.9719 43.9875C57.9915 43.9991 58.0111 44.0118 58.0318 44.0219C58.1431 44.078 57.8457 43.8787 57.9391 43.9592C57.9829 43.9991 58.0318 44.0335 58.0762 44.0735C58.1206 44.114 58.1529 44.1539 58.1938 44.1929C57.9915 44.0022 58.1304 44.1195 58.1938 44.2116C58.2768 44.3229 58.3517 44.4382 58.4191 44.5571C58.4571 44.6218 58.4911 44.6866 58.5257 44.7524C58.5418 44.7827 58.5551 44.8141 58.5712 44.8429C58.6122 44.9218 58.4865 44.6578 58.5205 44.7397C58.5303 44.7625 58.5418 44.7842 58.5534 44.807C58.8502 45.4985 59.0755 46.2082 59.2282 46.9351C59.3244 47.353 59.4063 47.7733 59.48 48.1937C59.4979 48.2929 59.514 48.393 59.5307 48.4922C59.5388 48.5397 59.5451 48.5868 59.5532 48.6358C59.5613 48.6844 59.5959 48.9429 59.5532 48.6718C59.5826 48.8867 59.6155 49.1022 59.6448 49.3157C59.7538 50.1387 59.8419 50.9628 59.9094 51.7883C59.9912 52.7844 60.0304 53.7814 60.073 54.779C60.073 54.7931 60.073 54.8088 60.073 54.825C60.0701 54.8766 60.0736 54.9282 60.0828 54.9793C60.0926 55.0309 60.1076 55.0805 60.1283 55.129C60.1491 55.1776 60.1756 55.2241 60.2067 55.2681C60.2384 55.3122 60.2747 55.3526 60.3156 55.3901C60.3565 55.4275 60.4009 55.4609 60.4493 55.4907C60.4983 55.5201 60.5496 55.5454 60.6038 55.5656C60.6585 55.5858 60.7144 55.6015 60.7726 55.6116C60.8302 55.6222 60.889 55.6273 60.9478 55.6273C61.0072 55.6273 61.0654 55.6222 61.1236 55.6116C61.1812 55.6015 61.2377 55.5858 61.2918 55.5656C61.346 55.5454 61.3979 55.5201 61.4463 55.4907C61.4947 55.4609 61.5396 55.4275 61.5806 55.3901C61.6215 55.3526 61.6578 55.3122 61.6889 55.2681C61.7206 55.2241 61.7465 55.1776 61.7673 55.129C61.7886 55.0805 61.8036 55.0309 61.8128 54.9793C61.822 54.9282 61.8255 54.8766 61.8232 54.825C61.8036 53.964 61.7511 53.1142 61.6872 52.2603C61.5731 50.4969 61.3454 48.7446 61.0043 47.0039C60.8568 46.2264 60.6418 45.4636 60.3589 44.7149C60.1105 44.0897 59.7953 43.4235 59.2443 42.9475C58.9879 42.7188 58.683 42.5615 58.3309 42.475C57.9212 42.3991 57.5207 42.4274 57.13 42.561C55.9503 42.8984 54.7868 43.2788 53.6302 43.6734C51.6968 44.3269 49.7749 45.0038 47.8657 45.7039L47.7643 45.7413C47.3442 45.8961 46.9944 46.2563 47.1534 46.6868C47.305 47.0444 47.7988 47.3899 48.2512 47.2265Z" fill="#523F89"/>
<path d="M63.5991 55.5683C63.5075 56.1769 62.6563 56.573 61.6968 56.4668C60.7379 56.3605 60.0366 55.7722 60.1299 55.1637C60.2233 54.5551 61.0727 54.159 62.0305 54.2653C62.9877 54.3715 63.6954 54.9573 63.5991 55.5683Z" fill="#523F89"/>
<path d="M17.4346 13.1308C15.9299 12.3609 14.4154 11.6061 12.8906 10.8665C11.7467 10.3126 10.6028 9.7658 9.43927 9.24932C8.68261 8.91191 7.84931 8.42123 6.97394 8.70704C6.24149 8.94529 5.73494 9.49314 5.33961 10.0643C4.89242 10.7497 4.52706 11.467 4.24353 12.2167C3.60328 13.8607 3.09385 15.5346 2.71408 17.2394C2.47032 18.2571 2.24672 19.2785 2.06058 20.3059C2.06058 20.3221 2.06058 20.3377 2.05194 20.3534C1.98336 20.7495 2.16662 21.1987 2.66337 21.2994C3.08175 21.3823 3.66667 21.1871 3.73986 20.7627C3.88393 19.9361 4.06719 19.1136 4.24526 18.2941C4.60198 16.6455 5.06127 15.0191 5.62257 13.4151C5.76145 13.0291 5.91013 12.6462 6.07322 12.2673C6.1124 12.1767 6.15332 12.0847 6.19424 11.9946L6.25647 11.8626C6.33139 11.6987 6.19078 11.9901 6.24495 11.8838C6.32678 11.7204 6.40861 11.5555 6.49966 11.3947C6.65411 11.1089 6.83218 10.8352 7.03445 10.5737C7.08977 10.5018 7.28398 10.3182 7.05405 10.5423C7.10303 10.4947 7.14683 10.4416 7.19581 10.3986C7.28571 10.3111 7.39059 10.2408 7.4851 10.1578C7.44592 10.1938 7.27418 10.2853 7.39866 10.2196L7.46378 10.1836C7.58019 10.1204 7.72368 10.1234 7.43266 10.1836C7.47876 10.1735 7.52775 10.1563 7.57327 10.1432C7.61938 10.1305 7.73694 10.1189 7.54388 10.1432C7.35141 10.1674 7.47703 10.1432 7.52256 10.1432C7.56866 10.1432 7.7646 10.1619 7.56175 10.1432C7.35947 10.1245 7.56175 10.1563 7.62053 10.1674C7.75134 10.1948 7.47358 10.1073 7.50124 10.1219C7.55022 10.1462 7.60093 10.1669 7.65338 10.1852L8.01758 10.3384C9.12231 10.8134 10.2074 11.3274 11.2857 11.8454C13.0197 12.6795 14.7405 13.5334 16.4474 14.4065L16.5425 14.4541C16.592 14.4814 16.6439 14.5037 16.6992 14.5219C16.754 14.5396 16.8105 14.5527 16.8681 14.5608C16.9257 14.5689 16.9839 14.572 17.0421 14.5694C17.1009 14.5674 17.1585 14.5603 17.2156 14.5477C17.2721 14.5355 17.3268 14.5183 17.3798 14.4961C17.4328 14.4743 17.4824 14.448 17.5297 14.4172C17.5763 14.3863 17.6196 14.3519 17.6582 14.3135C17.6974 14.275 17.7314 14.234 17.7613 14.1895C17.7907 14.145 17.8149 14.0985 17.8339 14.0499C17.8529 14.0014 17.8662 13.9513 17.8737 13.9007C17.8812 13.8496 17.8829 13.7985 17.8789 13.7474C17.8748 13.6958 17.865 13.6457 17.8495 13.5962C17.8334 13.5466 17.8126 13.4985 17.7861 13.453C17.7596 13.407 17.7279 13.364 17.6916 13.3235C17.6553 13.2835 17.6149 13.2466 17.57 13.2137C17.5256 13.1803 17.4778 13.1515 17.4265 13.1267L17.4346 13.1308Z" fill="#523F89"/>
<mask id="mask1_302_23088" style="mask-type:luminance" maskUnits="userSpaceOnUse" x="0" y="19" width="4" height="4">
<path d="M0.184814 19.8398H3.6811V22.1708H0.184814V19.8398Z" fill="white"/>
</mask>
<g mask="url(#mask1_302_23088)">
<path d="M3.68114 20.9956C3.68114 21.0685 3.67019 21.1408 3.64772 21.2121C3.62524 21.284 3.59239 21.3533 3.54802 21.4206C3.50422 21.4883 3.45005 21.5521 3.38666 21.6128C3.3227 21.6735 3.25008 21.7296 3.16883 21.7812C3.08757 21.8328 2.9994 21.8789 2.90374 21.9193C2.80808 21.9598 2.70723 21.9937 2.60119 22.022C2.49516 22.0498 2.38567 22.0706 2.27271 22.0853C2.16034 22.0994 2.04624 22.1065 1.93156 22.1065C1.8163 22.1065 1.70277 22.0994 1.58982 22.0853C1.47745 22.0706 1.36796 22.0498 1.26192 22.022C1.15531 21.9937 1.05446 21.9598 0.959374 21.9193C0.863711 21.8789 0.774964 21.8328 0.693709 21.7812C0.612454 21.7296 0.540419 21.6735 0.476452 21.6128C0.412484 21.5521 0.358314 21.4883 0.314517 21.4206C0.27072 21.3533 0.237296 21.284 0.214821 21.2121C0.192346 21.1408 0.181396 21.0685 0.181396 20.9956C0.181396 20.9228 0.192346 20.8504 0.214821 20.7791C0.237296 20.7073 0.27072 20.638 0.314517 20.5707C0.358314 20.5034 0.412484 20.4392 0.476452 20.3785C0.540419 20.3178 0.612454 20.2616 0.693709 20.2105C0.774964 20.1589 0.863711 20.1129 0.959374 20.0719C1.05446 20.0315 1.15531 19.9976 1.26192 19.9697C1.36796 19.9414 1.47745 19.9207 1.58982 19.9065C1.70277 19.8918 1.8163 19.8848 1.93156 19.8848C2.04624 19.8848 2.16034 19.8918 2.27271 19.9065C2.38567 19.9207 2.49516 19.9414 2.60119 19.9697C2.70723 19.9976 2.80808 20.0315 2.90374 20.0719C2.9994 20.1129 3.08757 20.1589 3.16883 20.2105C3.25008 20.2616 3.3227 20.3178 3.38666 20.3785C3.45005 20.4392 3.50422 20.5034 3.54802 20.5707C3.59239 20.638 3.62524 20.7073 3.64772 20.7791C3.67019 20.8504 3.68114 20.9228 3.68114 20.9956Z" fill="#523F89"/>
</g>
<path d="M18.7956 24.9162C17.2921 24.1463 15.7782 23.3915 14.2528 22.652C13.1089 22.0981 11.9656 21.5497 10.8021 21.0332C10.0454 20.6973 9.21212 20.2066 8.33617 20.4919C7.6043 20.7287 7.09775 21.2786 6.70242 21.8497C6.25581 22.5351 5.89044 23.2529 5.60576 24.0021C4.96609 25.6456 4.45609 27.32 4.07689 29.0248C3.83313 30.0421 3.60953 31.0639 3.42282 32.0913L3.41302 32.1388C3.34444 32.5334 3.5277 32.9841 4.02618 33.0828C4.44283 33.1678 5.02775 32.971 5.10094 32.5461C5.24501 31.721 5.42769 30.899 5.60576 30.0795C5.96306 28.4309 6.42177 26.8046 6.98365 25.2005C7.12253 24.8145 7.27121 24.4311 7.4343 24.0522C7.47348 23.9606 7.5144 23.8701 7.55532 23.7795C7.57491 23.7355 7.59623 23.692 7.61755 23.648C7.69247 23.4826 7.55186 23.7755 7.60603 23.6692C7.68786 23.5043 7.76912 23.3404 7.86074 23.1801C8.01519 22.8938 8.19326 22.6196 8.39496 22.3576C8.45085 22.2872 8.64506 22.1021 8.41455 22.3277C8.46411 22.2786 8.50791 22.227 8.55689 22.184C8.64679 22.0965 8.75282 22.0262 8.84618 21.9428C8.80699 21.9772 8.63526 22.0707 8.76147 22.0045L8.82486 21.9675C8.94069 21.9058 9.08476 21.9084 8.79374 21.9675C8.83984 21.9589 8.88883 21.9402 8.93435 21.9271C8.97988 21.9144 9.09802 21.9043 8.90496 21.9271C8.71191 21.9503 8.83811 21.9271 8.88364 21.9271C8.92974 21.9271 9.12568 21.9443 8.92283 21.9271C8.72055 21.9099 8.92283 21.9402 8.98161 21.9514C9.11242 21.9772 8.83466 21.8896 8.86232 21.9058C8.9113 21.9301 8.96201 21.9508 9.01446 21.9686L9.38558 22.134C10.4897 22.609 11.5749 23.1224 12.6531 23.6404C14.3865 24.4731 16.1073 25.3264 17.8165 26.2006L17.9099 26.2496C17.9595 26.2764 18.0119 26.2992 18.0667 26.3169C18.1214 26.3351 18.1779 26.3483 18.2355 26.3564C18.2931 26.364 18.3513 26.367 18.4101 26.365C18.4683 26.3629 18.5259 26.3554 18.583 26.3432C18.6395 26.3311 18.6948 26.3139 18.7472 26.2916C18.8003 26.2699 18.8504 26.2431 18.8971 26.2127C18.9438 26.1818 18.987 26.1469 19.0262 26.109C19.0648 26.0706 19.0993 26.0291 19.1287 25.9846C19.1581 25.9406 19.1823 25.894 19.2013 25.8455C19.2204 25.7969 19.2336 25.7468 19.2411 25.6957C19.2486 25.6451 19.2503 25.594 19.2463 25.5424C19.2423 25.4914 19.2325 25.4408 19.2169 25.3912C19.2013 25.3416 19.18 25.2941 19.1535 25.248C19.127 25.2025 19.0959 25.1595 19.0596 25.119C19.0233 25.0786 18.9824 25.0421 18.938 25.0088C18.893 24.9759 18.8452 24.9465 18.7939 24.9223L18.7956 24.9162Z" fill="#523F89"/>
<path d="M5.04223 32.7788C5.04223 32.8517 5.03128 32.924 5.0088 32.9953C4.98633 33.0672 4.9529 33.1365 4.9091 33.2038C4.86531 33.271 4.81114 33.3353 4.74717 33.396C4.68378 33.4567 4.61117 33.5128 4.52991 33.5644C4.44866 33.616 4.35991 33.6621 4.26482 33.7025C4.16916 33.743 4.06831 33.7769 3.96228 33.8052C3.85567 33.833 3.74675 33.8538 3.6338 33.8685C3.52085 33.8826 3.40732 33.8897 3.29264 33.8897C3.17739 33.8897 3.06386 33.8826 2.95091 33.8685C2.83853 33.8538 2.72904 33.833 2.62243 33.8052C2.51639 33.7769 2.41554 33.743 2.31988 33.7025C2.2248 33.6621 2.13605 33.616 2.05479 33.5644C1.97354 33.5128 1.90093 33.4567 1.83754 33.396C1.77357 33.3353 1.7194 33.271 1.6756 33.2038C1.6318 33.1365 1.59838 33.0672 1.5759 32.9953C1.55343 32.924 1.54248 32.8517 1.54248 32.7788C1.54248 32.706 1.55343 32.6337 1.5759 32.5623C1.59838 32.4905 1.6318 32.4212 1.6756 32.3539C1.7194 32.2866 1.77357 32.2224 1.83754 32.1617C1.90093 32.101 1.97354 32.0448 2.05479 31.9932C2.13605 31.9421 2.2248 31.8956 2.31988 31.8551C2.41554 31.8147 2.51639 31.7808 2.62243 31.7524C2.72904 31.7246 2.83853 31.7039 2.95091 31.6897C3.06386 31.6751 3.17739 31.668 3.29264 31.668C3.40732 31.668 3.52085 31.6751 3.6338 31.6897C3.74675 31.7039 3.85567 31.7246 3.96228 31.7524C4.06831 31.7808 4.16916 31.8147 4.26482 31.8551C4.35991 31.8956 4.44866 31.9421 4.52991 31.9932C4.61117 32.0448 4.68378 32.101 4.74717 32.1617C4.81114 32.2224 4.86531 32.2866 4.9091 32.3539C4.9529 32.4212 4.98633 32.4905 5.0088 32.5623C5.03128 32.6337 5.04223 32.706 5.04223 32.7788Z" fill="#523F89"/>
<path d="M22.2954 37.2121C20.7902 36.4391 19.2752 35.6839 17.7515 34.9473C16.6076 34.3934 15.4637 33.8456 14.3001 33.3286C13.5441 32.9932 12.7119 32.502 11.8348 32.7863C11.1029 33.0246 10.5964 33.5739 10.2011 34.1455C9.7533 34.8305 9.38736 35.5483 9.10268 36.298C8.46301 37.9415 7.953 39.6159 7.57323 41.3201C7.33004 42.3364 7.10587 43.3598 6.91973 44.3872C6.91858 44.4023 6.91858 44.4175 6.91973 44.4327C6.84943 44.8288 7.03268 45.2795 7.53117 45.3786C7.94782 45.4616 8.53274 45.2668 8.60593 44.8419C8.75 44.0169 8.93268 43.1943 9.11248 42.3754C9.46919 40.7268 9.92791 39.1004 10.4886 37.4958C10.6275 37.1084 10.7762 36.7254 10.9393 36.3481C10.9785 36.256 11.0194 36.1659 11.0603 36.0754C11.0816 36.0309 11.1012 35.9864 11.1225 35.9434C11.1975 35.7785 11.0586 36.0708 11.111 35.9651C11.194 35.7997 11.2741 35.6363 11.3657 35.4739C11.5202 35.1881 11.6988 34.915 11.9017 34.6534C11.9576 34.5831 12.15 34.398 11.9213 34.6216C11.9702 34.5745 12.0129 34.5229 12.0619 34.4784C12.1518 34.3909 12.2578 34.3216 12.3512 34.2386C12.312 34.273 12.142 34.3651 12.2659 34.2988L12.3298 34.2629C12.4474 34.2012 12.5897 34.2027 12.2987 34.2629C12.3448 34.2543 12.395 34.2356 12.4411 34.2229C12.4866 34.2098 12.6042 34.1982 12.4099 34.2229C12.2157 34.2472 12.3431 34.2229 12.3886 34.2229C12.4342 34.2229 12.6307 34.2401 12.4278 34.2229C12.2255 34.2057 12.4278 34.2341 12.4883 34.2472C12.6174 34.273 12.3414 34.1855 12.3673 34.2012C12.4169 34.224 12.4676 34.2447 12.5194 34.2629L12.8836 34.4177C13.9901 34.8927 15.0735 35.4051 16.1517 35.9247C17.8858 36.7568 19.6071 37.6102 21.3152 38.4848L21.408 38.5334C21.4575 38.5576 21.5094 38.5769 21.563 38.592C21.6172 38.6072 21.6719 38.6173 21.7278 38.6234C21.7843 38.629 21.8402 38.63 21.8967 38.6259C21.9531 38.6224 22.0085 38.6138 22.0626 38.6006C22.1174 38.587 22.1698 38.5693 22.2205 38.5475C22.2707 38.5253 22.3185 38.499 22.3634 38.4686C22.4078 38.4383 22.4493 38.4049 22.4868 38.3674C22.5237 38.3305 22.5565 38.29 22.5853 38.2476C22.6136 38.2046 22.6372 38.16 22.6562 38.113C22.6746 38.066 22.6879 38.0184 22.696 37.9693C22.704 37.9198 22.7069 37.8707 22.704 37.8211C22.7011 37.7715 22.6931 37.7225 22.6792 37.6744C22.666 37.6264 22.647 37.5798 22.6233 37.5348C22.5997 37.4898 22.5709 37.4473 22.5381 37.4073C22.5046 37.3669 22.4672 37.3299 22.4263 37.296C22.3848 37.2626 22.3404 37.2323 22.292 37.206L22.2954 37.2121Z" fill="#523F89"/>
<path d="M8.54256 45.0757C8.54256 45.1486 8.53103 45.2204 8.50856 45.2922C8.48608 45.3635 8.45323 45.4334 8.40886 45.5006C8.36506 45.5679 8.31147 45.6316 8.2475 45.6924C8.18354 45.7531 8.11092 45.8092 8.02967 45.8608C7.94841 45.9124 7.86024 45.9584 7.76458 45.9989C7.66892 46.0394 7.56807 46.0738 7.46203 46.1016C7.356 46.1294 7.24651 46.1507 7.13355 46.1648C7.02118 46.179 6.90708 46.1861 6.7924 46.1861C6.67772 46.1861 6.56361 46.179 6.45066 46.1648C6.33829 46.1507 6.2288 46.1294 6.12276 46.1016C6.01672 46.0738 5.91588 46.0394 5.82021 45.9989C5.72455 45.9584 5.63638 45.9124 5.55513 45.8608C5.47387 45.8092 5.40126 45.7531 5.33729 45.6924C5.27332 45.6322 5.21973 45.5679 5.17536 45.5006C5.13156 45.4334 5.09814 45.3635 5.07624 45.2922C5.05376 45.2204 5.04224 45.1486 5.04224 45.0757C5.04224 45.0024 5.05376 44.9305 5.07624 44.8587C5.09814 44.7874 5.13156 44.7176 5.17536 44.6503C5.21973 44.583 5.27332 44.5193 5.33729 44.4586C5.40126 44.3979 5.47387 44.3417 5.55513 44.2901C5.63638 44.2385 5.72455 44.1925 5.82021 44.152C5.91588 44.1115 6.01672 44.0771 6.12276 44.0493C6.2288 44.0215 6.33829 44.0003 6.45066 43.9861C6.56361 43.9719 6.67772 43.9648 6.7924 43.9648C6.90708 43.9648 7.02118 43.9719 7.13355 43.9861C7.24651 44.0003 7.356 44.0215 7.46203 44.0493C7.56807 44.0771 7.66892 44.1115 7.76458 44.152C7.86024 44.1925 7.94841 44.2385 8.02967 44.2901C8.11092 44.3417 8.18354 44.3979 8.2475 44.4586C8.31147 44.5193 8.36506 44.583 8.40886 44.6503C8.45323 44.7176 8.48608 44.7874 8.50856 44.8587C8.53103 44.9305 8.54256 45.0024 8.54256 45.0757Z" fill="#523F89"/>
<path d="M32.0272 45.5721C30.4021 44.9752 28.7683 44.3955 27.1254 43.833C25.8967 43.4111 24.6647 42.9963 23.4199 42.6159C22.6027 42.369 21.7856 42.0579 20.969 42.4854C20.3576 42.8081 19.9703 43.3792 19.6977 43.9402C19.3502 44.6828 19.0892 45.4482 18.9151 46.2363C18.5261 47.982 18.2691 49.7424 18.1435 51.5175C18.057 52.5434 17.9608 53.5839 17.9637 54.6154C17.9637 54.63 17.9637 54.6457 17.9637 54.6614C17.9643 54.712 17.9706 54.7616 17.9821 54.8106C17.9937 54.8602 18.0104 54.9078 18.0328 54.9543C18.0547 55.0008 18.0818 55.0448 18.1135 55.0868C18.1458 55.1283 18.1815 55.1673 18.2224 55.2027C18.2628 55.2386 18.3066 55.2705 18.3544 55.2983C18.4017 55.3266 18.4518 55.3504 18.5048 55.3696C18.5573 55.3893 18.612 55.404 18.6679 55.4146C18.7244 55.4247 18.7809 55.4303 18.8379 55.4308C18.8955 55.4298 18.952 55.4237 19.0079 55.4131C19.0638 55.403 19.118 55.3878 19.1704 55.3681C19.2229 55.3484 19.273 55.3246 19.3202 55.2963C19.3681 55.2684 19.4119 55.2366 19.4522 55.2012C19.4926 55.1652 19.5289 55.1268 19.5611 55.0853C19.5928 55.0433 19.6199 54.9998 19.6424 54.9533C19.6649 54.9073 19.6822 54.8597 19.6943 54.8106C19.7064 54.7616 19.7127 54.7115 19.7138 54.6614C19.7317 53.8348 19.7824 53.0067 19.8429 52.1817C19.9017 51.385 19.9772 50.5887 20.0683 49.794C20.0965 49.573 20.1242 49.3534 20.1535 49.1324C20.1662 49.0317 20.1812 48.9315 20.1945 48.8309L20.2187 48.6705C20.2187 48.6331 20.255 48.4237 20.2337 48.5714C20.2123 48.7191 20.2337 48.5213 20.2452 48.4925C20.2561 48.4636 20.2596 48.3989 20.2677 48.3488C20.2855 48.237 20.3051 48.1237 20.3253 48.0104C20.3627 47.7934 20.4037 47.5799 20.4457 47.3629C20.5886 46.5985 20.7926 45.8473 21.0589 45.1088C21.1159 44.952 21.1793 44.7972 21.2479 44.6439C21.2479 44.6262 21.2663 44.608 21.2744 44.5893C21.3182 44.4886 21.2185 44.7011 21.2237 44.694C21.245 44.6611 21.2583 44.6237 21.2761 44.5893C21.3084 44.523 21.3447 44.4587 21.3822 44.394C21.4519 44.2711 21.5297 44.1527 21.6156 44.0379C21.6323 44.0151 21.6501 43.9934 21.668 43.9721L21.6974 43.9347C21.7562 43.8542 21.5948 44.0495 21.6058 44.0379C21.6536 43.9964 21.6928 43.9463 21.74 43.9033C21.7873 43.8603 21.8219 43.837 21.8611 43.8026C21.9688 43.7096 21.6732 43.9134 21.7677 43.8644C21.7942 43.8517 21.8184 43.833 21.8444 43.8198C21.8709 43.8072 21.9343 43.7814 21.9769 43.7581C21.7205 43.9018 21.7694 43.8229 21.8576 43.8057L21.9492 43.7854C22.0783 43.748 21.7418 43.7971 21.8023 43.8011C21.8265 43.8011 21.853 43.8011 21.8772 43.8011C21.902 43.8011 21.9233 43.8011 21.9458 43.8011C22.0962 43.7925 21.6847 43.7495 21.8317 43.787C22.0213 43.833 22.2091 43.8846 22.3953 43.9392C23.5651 44.2807 24.7171 44.6636 25.8674 45.0526C27.7397 45.6849 29.6034 46.3415 31.4573 47.0229L31.557 47.0604C31.9817 47.2152 32.5372 46.8924 32.6335 46.5237C32.7545 46.0684 32.4819 45.7386 32.0272 45.5721Z" fill="#523F89"/>
<path d="M16.2139 55.3945C16.305 56.0031 17.1567 56.3992 18.1157 56.2929C19.0746 56.1867 19.7759 55.5984 19.6826 54.9898C19.5898 54.3813 18.7398 53.9852 17.7826 54.0914C16.8248 54.1977 16.1171 54.7875 16.2139 55.3945Z" fill="#523F89"/>
<path d="M70.4372 26.4599C70.4372 25.52 69.4109 24.6935 68.3246 23.8765C69.117 22.9108 69.8143 21.9593 69.5826 21.1115C69.3077 20.1139 67.8324 19.4968 66.4177 18.8629C67.0447 17.4779 67.8555 16.0372 67.2821 15.0629C66.7801 14.2019 65.3423 13.9005 63.8895 13.602C64.1068 12.4441 64.2376 11.3332 63.6072 10.6604C62.8931 9.90113 61.3372 9.88545 59.7951 9.85206C59.6642 8.3871 59.6429 6.81438 58.6511 6.16132C57.7787 5.58717 56.3259 5.8659 54.8656 6.14716C54.4962 4.97609 54.0813 3.86118 53.1494 3.46661C52.1432 3.03613 50.7083 3.60977 49.2757 4.14497C48.4896 2.90511 47.7249 1.58077 46.5435 1.35971C45.5108 1.16748 44.3508 1.91666 43.1757 2.69012C42.2427 1.69408 41.3195 0.722834 40.2644 0.694C39.0565 0.662637 37.9552 1.78868 36.8557 2.82923C35.6092 2.00974 34.3702 1.15585 33.2758 1.35971C32.2656 1.54789 31.5603 2.54494 30.8854 3.60572C29.5421 3.03157 28.2057 2.45742 27.2036 2.82923C26.0602 3.25971 25.6125 4.7778 25.0892 6.17296C23.5828 5.88563 22.0666 5.57301 21.1682 6.16132C20.3724 6.68235 20.1972 7.79018 20.0946 8.95973C18.6026 8.94658 17.1239 8.94557 16.4035 9.67704C15.5864 10.5036 15.98 12.0723 16.2157 13.5519C14.6678 13.8716 13.0686 14.1615 12.5327 15.073C12.0768 15.849 12.4964 16.9199 13.0029 18.0217C11.7299 18.5827 10.5093 19.17 10.2546 20.0856C9.959 21.1413 11.0389 22.3372 11.9996 23.5062C10.7497 24.4405 9.37695 25.3718 9.37695 26.464C9.37695 27.4038 10.4033 28.2304 11.4884 29.0469C10.6972 30.0131 9.99991 30.9656 10.2316 31.8139C10.5065 32.818 11.9817 33.4266 13.3965 34.0609C12.7678 35.446 11.9587 36.8867 12.5327 37.861C13.034 38.7219 14.4718 39.0234 15.9229 39.3219C15.7074 40.4798 15.5766 41.5906 16.207 42.2634C16.921 43.0227 18.477 43.0384 20.0191 43.0728C20.1499 44.5368 20.1712 46.1095 21.163 46.7625C22.0355 47.3362 23.4883 47.058 24.9492 46.7767C25.318 47.9478 25.7335 49.0627 26.663 49.4573C27.6709 49.8877 29.1059 49.3136 30.5385 48.7784C31.3246 50.0182 32.0893 51.3431 33.2707 51.5642C34.3033 51.7564 35.4634 51.0072 36.6384 50.2337C37.5697 51.2308 38.4946 52.201 39.5486 52.2299C40.7577 52.2627 41.8589 51.1347 42.9585 50.0946C44.2056 50.9136 45.444 51.7675 46.5383 51.5642C47.5485 51.376 48.2545 50.3784 48.9293 49.3197C50.272 49.8933 51.609 50.4675 52.6106 50.0956C53.7539 49.6652 54.2017 48.1456 54.7232 46.7509C56.2313 47.0377 57.7475 47.3509 58.6448 46.7625C59.4407 46.2415 59.6153 45.1352 59.7184 43.9641C61.2098 43.9768 62.6886 43.9783 63.4095 43.2539C64.2261 42.4273 63.8325 40.8602 63.5974 39.379C65.1447 39.0593 66.7444 38.7695 67.2804 37.8579C67.7362 37.0829 67.3161 36.0125 66.8095 34.9093C68.0825 34.3478 69.3031 33.761 69.5578 32.8469C69.8523 31.7891 68.7735 30.5953 67.8128 29.4258C69.0645 28.4833 70.4372 27.5475 70.4372 26.4599Z" fill="#654C9C"/>
<path d="M31.0584 35.854C31.0584 35.9243 31.0532 35.9936 31.0428 36.0634C31.0325 36.1332 31.0175 36.202 30.9967 36.2708C30.9766 36.3391 30.9506 36.4069 30.9201 36.4742C30.8896 36.5409 30.8544 36.6067 30.8141 36.6714C30.7737 36.7357 30.7293 36.7989 30.6798 36.8606C30.6302 36.9224 30.5761 36.982 30.5179 37.0402C30.4591 37.0984 30.3968 37.1545 30.33 37.2087C30.2631 37.2628 30.1928 37.3144 30.1185 37.364C30.0442 37.4135 29.9664 37.4606 29.8851 37.5046C29.8038 37.5491 29.7197 37.5906 29.6321 37.6295C29.5451 37.6685 29.4546 37.7044 29.3618 37.7373C29.2696 37.7702 29.1745 37.8 29.0772 37.8268C28.9803 37.8536 28.8812 37.8774 28.7809 37.8976C28.6801 37.9179 28.5787 37.9346 28.4755 37.9482C28.3724 37.9619 28.2686 37.9725 28.1638 37.9791C28.0594 37.9862 27.9546 37.9892 27.8491 37.9892C27.7442 37.9892 27.6393 37.9862 27.535 37.9791C27.4301 37.9725 27.3264 37.9619 27.2233 37.9482C27.1201 37.9346 27.0181 37.9179 26.9178 37.8976C26.817 37.8774 26.7184 37.8536 26.6211 37.8268C26.5242 37.8 26.4292 37.7702 26.3364 37.7373C26.2436 37.7044 26.1537 37.6685 26.0667 37.6295C25.9791 37.5906 25.8949 37.5491 25.8137 37.5046C25.7324 37.4606 25.6546 37.4135 25.5803 37.364C25.506 37.3144 25.4351 37.2628 25.3688 37.2087C25.3019 37.1545 25.2397 37.0984 25.1809 37.0402C25.1227 36.982 25.0686 36.9224 25.019 36.8606C24.9694 36.7989 24.9245 36.7357 24.8847 36.6714C24.8444 36.6067 24.8087 36.5409 24.7787 36.4742C24.7481 36.4069 24.7222 36.3391 24.702 36.2708C24.6813 36.202 24.6657 36.1332 24.6559 36.0634C24.6456 35.9936 24.6404 35.9243 24.6404 35.854C24.6404 35.7842 24.6456 35.7144 24.6559 35.6451C24.6657 35.5753 24.6813 35.5059 24.702 35.4377C24.7222 35.3689 24.7481 35.3011 24.7787 35.2343C24.8087 35.1675 24.8444 35.1018 24.8847 35.037C24.9245 34.9723 24.9694 34.909 25.019 34.8473C25.0686 34.7861 25.1227 34.7259 25.1809 34.6677C25.2397 34.6096 25.3019 34.5534 25.3688 34.4993C25.4351 34.4457 25.506 34.3936 25.5803 34.344C25.6546 34.2949 25.7324 34.2479 25.8137 34.2034C25.8949 34.1594 25.9791 34.1174 26.0667 34.0789C26.1537 34.04 26.2436 34.0041 26.3364 33.9712C26.4292 33.9378 26.5242 33.9079 26.6211 33.8811C26.7184 33.8548 26.817 33.8311 26.9178 33.8108C27.0181 33.7906 27.1201 33.7734 27.2233 33.7597C27.3264 33.7461 27.4301 33.7359 27.535 33.7289C27.6393 33.7223 27.7442 33.7188 27.8491 33.7188C27.9546 33.7188 28.0594 33.7223 28.1638 33.7289C28.2686 33.7359 28.3724 33.7461 28.4755 33.7597C28.5787 33.7734 28.6801 33.7906 28.7809 33.8108C28.8812 33.8311 28.9803 33.8548 29.0772 33.8811C29.1745 33.9079 29.2696 33.9378 29.3618 33.9712C29.4546 34.0041 29.5451 34.04 29.6321 34.0789C29.7197 34.1174 29.8038 34.1594 29.8851 34.2034C29.9664 34.2479 30.0442 34.2949 30.1185 34.344C30.1928 34.3936 30.2631 34.4457 30.33 34.4993C30.3968 34.5534 30.4591 34.6096 30.5179 34.6677C30.5761 34.7259 30.6302 34.7861 30.6798 34.8473C30.7293 34.909 30.7737 34.9723 30.8141 35.037C30.8544 35.1018 30.8896 35.1675 30.9201 35.2343C30.9506 35.3011 30.9766 35.3689 30.9967 35.4377C31.0175 35.5059 31.0325 35.5753 31.0428 35.6451C31.0532 35.7144 31.0584 35.7842 31.0584 35.854Z" fill="#F69CAB"/>
<path d="M55.1727 36.0239C55.1727 36.0937 55.1676 36.1635 55.1572 36.2333C55.1468 36.3026 55.1313 36.3719 55.1111 36.4402C55.0903 36.509 55.065 36.5768 55.0344 36.6436C55.0039 36.7104 54.9682 36.7761 54.9284 36.8409C54.8881 36.9056 54.8431 36.9688 54.7936 37.0306C54.744 37.0923 54.6898 37.152 54.6316 37.2101C54.5734 37.2683 54.5106 37.3245 54.4443 37.3786C54.3775 37.4327 54.3066 37.4843 54.2328 37.5339C54.1585 37.583 54.0807 37.63 53.9994 37.6745C53.9182 37.719 53.8335 37.7605 53.7465 37.7995C53.6589 37.8379 53.569 37.8738 53.4762 37.9072C53.3834 37.9401 53.2883 37.9699 53.1915 37.9967C53.0941 38.0236 52.9956 38.0468 52.8947 38.0671C52.7944 38.0873 52.6924 38.1045 52.5893 38.1182C52.4861 38.1318 52.3824 38.1419 52.2781 38.149C52.1732 38.1556 52.0683 38.1591 51.9634 38.1591C51.8586 38.1591 51.7537 38.1556 51.6488 38.149C51.5445 38.1419 51.4402 38.1318 51.337 38.1182C51.2345 38.1045 51.1325 38.0873 51.0316 38.0671C50.9313 38.0468 50.8322 38.0236 50.7354 37.9967C50.638 37.9699 50.5435 37.9401 50.4507 37.9072C50.3579 37.8738 50.268 37.8379 50.1804 37.7995C50.0928 37.7605 50.0087 37.719 49.9275 37.6745C49.8462 37.63 49.7684 37.583 49.6941 37.5339C49.6197 37.4843 49.5494 37.4327 49.4826 37.3786C49.4163 37.3245 49.3535 37.2683 49.2953 37.2101C49.2365 37.152 49.1829 37.0923 49.1333 37.0306C49.0838 36.9688 49.0388 36.9056 48.9985 36.8409C48.9582 36.7761 48.923 36.7104 48.8925 36.6436C48.8619 36.5768 48.8366 36.509 48.8158 36.4402C48.7956 36.3719 48.7801 36.3026 48.7697 36.2333C48.7593 36.1635 48.7542 36.0937 48.7542 36.0239C48.7542 35.9541 48.7593 35.8843 48.7697 35.8145C48.7801 35.7452 48.7956 35.6759 48.8158 35.6071C48.8366 35.5388 48.8619 35.471 48.8925 35.4042C48.923 35.3369 48.9582 35.2712 48.9985 35.2064C49.0388 35.1422 49.0838 35.079 49.1333 35.0172C49.1829 34.9555 49.2365 34.8958 49.2953 34.8377C49.3535 34.7795 49.4163 34.7233 49.4826 34.6692C49.5494 34.6151 49.6197 34.5635 49.6941 34.5139C49.7684 34.4643 49.8462 34.4178 49.9275 34.3733C50.0087 34.3288 50.0928 34.2873 50.1804 34.2483C50.268 34.2094 50.3579 34.1735 50.4507 34.1406C50.5435 34.1077 50.638 34.0779 50.7354 34.0511C50.8322 34.0242 50.9313 34.001 51.0316 33.9802C51.1325 33.96 51.2345 33.9433 51.337 33.9296C51.4402 33.916 51.5445 33.9059 51.6488 33.8988C51.7537 33.8917 51.8586 33.8887 51.9634 33.8887C52.0683 33.8887 52.1732 33.8917 52.2781 33.8988C52.3824 33.9059 52.4861 33.916 52.5893 33.9296C52.6924 33.9433 52.7944 33.96 52.8947 33.9802C52.9956 34.001 53.0941 34.0242 53.1915 34.0511C53.2883 34.0779 53.3834 34.1077 53.4762 34.1406C53.569 34.1735 53.6589 34.2094 53.7465 34.2483C53.8335 34.2873 53.9182 34.3288 53.9994 34.3733C54.0807 34.4178 54.1585 34.4643 54.2328 34.5139C54.3066 34.5635 54.3775 34.6151 54.4443 34.6692C54.5106 34.7233 54.5734 34.7795 54.6316 34.8377C54.6898 34.8958 54.744 34.9555 54.7936 35.0172C54.8431 35.079 54.8881 35.1422 54.9284 35.2064C54.9682 35.2712 55.0039 35.3369 55.0344 35.4042C55.065 35.471 55.0903 35.5388 55.1111 35.6071C55.1313 35.6759 55.1468 35.7452 55.1572 35.8145C55.1676 35.8843 55.1727 35.9541 55.1727 36.0239Z" fill="#F69CAB"/>
<path d="M43.174 35.6877C43.7987 36.8643 41.9621 38.954 40.0811 39.0987C38.2007 39.2439 35.9849 37.4713 36.3687 36.2158C36.8199 34.7235 37.8181 36.19 39.6973 36.0438C41.576 35.8971 42.4375 34.2869 43.174 35.6877Z" fill="black"/>
<mask id="mask2_302_23088" style="mask-type:luminance" maskUnits="userSpaceOnUse" x="37" y="37" width="2" height="3">
<path d="M37.1699 37.1934H38.9403V39.1359H37.1699V37.1934Z" fill="white"/>
</mask>
<g mask="url(#mask2_302_23088)">
<mask id="mask3_302_23088" style="mask-type:luminance" maskUnits="userSpaceOnUse" x="36" y="35" width="8" height="5">
<path d="M43.1742 35.6896C43.7989 36.8662 41.9623 38.9559 40.0813 39.1006C38.2009 39.2458 35.9852 37.4733 36.369 36.2177C36.8202 34.7255 37.8183 36.1919 39.6975 36.0457C41.5762 35.899 42.4378 34.2889 43.1742 35.6896Z" fill="white"/>
</mask>
<g mask="url(#mask3_302_23088)">
<path d="M37.178 38.9791C37.2512 38.3691 37.6874 37.2243 38.168 37.2688C38.6481 37.3128 38.9846 38.533 38.9178 39.1425" fill="white"/>
</g>
</g>
<mask id="mask4_302_23088" style="mask-type:luminance" maskUnits="userSpaceOnUse" x="40" y="37" width="3" height="3">
<path d="M40.563 37.1934H42.4808V39.1359H40.563V37.1934Z" fill="white"/>
</mask>
<g mask="url(#mask4_302_23088)">
<mask id="mask5_302_23088" style="mask-type:luminance" maskUnits="userSpaceOnUse" x="36" y="35" width="8" height="5">
<path d="M43.174 35.6896C43.7987 36.8662 41.9621 38.9559 40.0811 39.1006C38.2007 39.2458 35.9849 37.4733 36.3687 36.2177C36.8199 34.7255 37.8181 36.1919 39.6973 36.0457C41.576 35.899 42.4375 34.2889 43.174 35.6896Z" fill="white"/>
</mask>
<g mask="url(#mask5_302_23088)">
<path d="M42.4278 38.9791C42.354 38.3691 41.9178 37.2243 41.4372 37.2688C40.9571 37.3128 40.6206 38.533 40.6874 39.1425" fill="white"/>
</g>
</g>
<path d="M38.8688 40.0074C39.1022 40.1698 39.3633 40.2836 39.6514 40.3489C39.7903 40.3807 39.9315 40.3974 40.075 40.3984C40.2185 40.3995 40.3602 40.3853 40.4997 40.3554C40.6391 40.3256 40.7723 40.2811 40.899 40.2224C41.0264 40.1632 41.1428 40.0919 41.2494 40.0074C41.2696 39.9892 41.2852 39.9685 41.2961 39.9452C41.307 39.9214 41.3128 39.8971 41.3128 39.8718C41.3128 39.8466 41.307 39.8218 41.2961 39.7985C41.2852 39.7752 41.2696 39.754 41.2494 39.7363C41.2287 39.7186 41.205 39.7054 41.1785 39.6958C41.1515 39.6867 41.1238 39.6816 41.095 39.6816C41.0662 39.6816 41.0385 39.6867 41.012 39.6958C40.9855 39.7054 40.9619 39.7186 40.9405 39.7363C40.8587 39.799 40.7688 39.8521 40.6714 39.8951C40.574 39.9381 40.472 39.97 40.3654 39.9902C40.2588 40.0104 40.151 40.0185 40.0421 40.0145C39.9332 40.0104 39.826 39.9948 39.7217 39.9669C39.5776 39.932 39.4411 39.8804 39.3131 39.8122C39.2693 39.7894 39.2267 39.7646 39.184 39.7388L39.1518 39.7176C39.1172 39.6973 39.1892 39.7449 39.1777 39.7363C39.157 39.7191 39.1333 39.7054 39.1062 39.6963C39.0797 39.6872 39.0521 39.6821 39.0233 39.6821C38.9944 39.6821 38.9668 39.6872 38.9403 39.6963C38.9138 39.7054 38.8896 39.7191 38.8688 39.7363C38.8486 39.754 38.8325 39.7747 38.8216 39.7985C38.8106 39.8218 38.8054 39.846 38.8054 39.8718C38.8054 39.8971 38.8106 39.9214 38.8216 39.9452C38.8325 39.9685 38.8486 39.9892 38.8688 40.0074Z" fill="#523F89"/>
<path d="M38.3477 27.5276C38.3477 30.1222 36.3867 31.2861 33.4275 31.2861C30.4688 31.2861 28.0796 29.9345 28.0796 27.3399C28.0796 27.1862 28.0882 27.0324 28.1055 26.8796C28.1228 26.7263 28.1482 26.5746 28.1827 26.4233C28.2167 26.2726 28.2594 26.1239 28.3101 25.9766C28.3608 25.8294 28.4196 25.6848 28.487 25.5426C28.5539 25.4005 28.6288 25.2614 28.7112 25.1258C28.7936 24.9902 28.8835 24.8587 28.9809 24.7307C29.0783 24.6027 29.1826 24.4793 29.2938 24.3604C29.405 24.2416 29.5226 24.1277 29.6459 24.019C29.7698 23.9102 29.8995 23.807 30.0349 23.7094C30.1703 23.6123 30.3109 23.5207 30.4567 23.4352C30.6025 23.3497 30.7524 23.2708 30.9068 23.1985C31.0613 23.1256 31.2192 23.0604 31.3811 23.0012C31.543 22.9425 31.7078 22.8909 31.8755 22.8464C32.0432 22.8014 32.2127 22.7644 32.3844 22.7341C32.5561 22.7042 32.729 22.682 32.9036 22.6668C33.0777 22.6516 33.2523 22.644 33.4275 22.6446C36.3803 22.6446 38.3477 24.9346 38.3477 27.5276Z" fill="white"/>
<path d="M41.1467 27.5276C41.1467 30.1222 43.1072 31.2861 46.0664 31.2861C49.0256 31.2861 51.4143 29.9345 51.4143 27.3399C51.4143 27.1862 51.4057 27.0324 51.3889 26.8796C51.3717 26.7263 51.3457 26.5746 51.3117 26.4233C51.2777 26.2726 51.2351 26.1239 51.1844 25.9766C51.1331 25.8294 51.0743 25.6848 51.0074 25.5426C50.94 25.4005 50.8657 25.2614 50.7827 25.1258C50.7003 24.9902 50.6104 24.8587 50.513 24.7307C50.4156 24.6027 50.3113 24.4793 50.2007 24.3604C50.0894 24.2416 49.9719 24.1277 49.848 24.019C49.7241 23.9102 49.5944 23.807 49.459 23.7094C49.3236 23.6123 49.1829 23.5207 49.0377 23.4352C48.8919 23.3497 48.7415 23.2708 48.5871 23.1985C48.4326 23.1256 48.2747 23.0604 48.1128 23.0012C47.9509 22.9425 47.7866 22.8909 47.6189 22.8464C47.4512 22.8014 47.2812 22.7644 47.1095 22.7341C46.9378 22.7042 46.7649 22.682 46.5908 22.6668C46.4162 22.6516 46.2416 22.644 46.0664 22.6446C43.1136 22.6446 41.1467 24.9346 41.1467 27.5276Z" fill="white"/>
<path d="M33.9357 30.5695C33.8222 30.5695 33.7081 30.565 33.5951 30.5549C33.4816 30.5453 33.3692 30.5306 33.2574 30.5109C33.1456 30.4916 33.0356 30.4674 32.9261 30.438C32.8172 30.4092 32.71 30.3753 32.6051 30.3373C32.4996 30.2989 32.397 30.2564 32.2962 30.2089C32.1959 30.1618 32.0985 30.1107 32.0034 30.0551C31.9089 29.9994 31.8173 29.9397 31.7297 29.8765C31.6415 29.8133 31.5574 29.746 31.4767 29.6752C31.396 29.6044 31.3194 29.5305 31.2474 29.4531C31.1748 29.3762 31.1073 29.2958 31.0439 29.2128C30.9805 29.1294 30.9223 29.0439 30.8682 28.9553C30.8146 28.8673 30.7662 28.7773 30.7224 28.6847C30.6786 28.5921 30.6405 28.498 30.6071 28.4024C30.5743 28.3068 30.5466 28.2097 30.5241 28.1116C30.5022 28.0134 30.4849 27.9148 30.474 27.8151C30.4631 27.716 30.4573 27.6158 30.4573 27.5162V26.9967C30.4544 26.895 30.4579 26.7938 30.4671 26.6926C30.4757 26.5915 30.4907 26.4908 30.5109 26.3911C30.5311 26.2915 30.557 26.1923 30.5887 26.0952C30.6204 25.9976 30.6573 25.9015 30.6999 25.8069C30.7425 25.7128 30.7898 25.6207 30.8428 25.5302C30.8958 25.4401 30.954 25.3526 31.0169 25.2676C31.0797 25.1821 31.1471 25.1002 31.2191 25.0208C31.2912 24.9419 31.3678 24.866 31.4485 24.7936C31.5297 24.7208 31.6139 24.652 31.7026 24.5872C31.7914 24.522 31.8836 24.4608 31.9787 24.4036C32.0743 24.347 32.1729 24.2939 32.2743 24.2458C32.3757 24.1972 32.48 24.1532 32.5866 24.1143C32.6927 24.0748 32.801 24.0399 32.9117 24.0101C33.0223 23.9802 33.1341 23.9554 33.2471 23.9352C33.3606 23.9155 33.4747 23.9003 33.5894 23.8902C33.704 23.8801 33.8193 23.875 33.9351 23.875C34.0504 23.875 34.1656 23.8801 34.2809 23.8902C34.3956 23.9003 34.5097 23.9155 34.6226 23.9352C34.7362 23.9554 34.848 23.9802 34.9586 24.0101C35.0687 24.0399 35.177 24.0748 35.2836 24.1143C35.3902 24.1532 35.494 24.1972 35.5954 24.2458C35.6968 24.2939 35.7954 24.347 35.891 24.4036C35.9867 24.4608 36.0789 24.522 36.1671 24.5872C36.2558 24.652 36.3405 24.7208 36.4212 24.7936C36.5019 24.866 36.5785 24.9419 36.6506 25.0208C36.7232 25.1002 36.7906 25.1821 36.8534 25.2676C36.9162 25.3526 36.9739 25.4401 37.0269 25.5302C37.0799 25.6207 37.1277 25.7128 37.1704 25.8069C37.2124 25.9015 37.2493 25.9976 37.281 26.0952C37.3127 26.1923 37.3386 26.2915 37.3594 26.3911C37.3796 26.4908 37.394 26.5915 37.4032 26.6926C37.4124 26.7938 37.4153 26.895 37.413 26.9967V27.5162C37.413 27.6158 37.4072 27.7155 37.3963 27.8151C37.3847 27.9148 37.368 28.0134 37.3461 28.1116C37.3237 28.2097 37.296 28.3068 37.2631 28.4024C37.2303 28.498 37.1917 28.5921 37.1485 28.6847C37.1047 28.7768 37.0563 28.8673 37.0021 28.9553C36.9485 29.0439 36.8903 29.1294 36.8269 29.2123C36.7635 29.2958 36.6961 29.3757 36.6235 29.4531C36.5514 29.5305 36.4748 29.6044 36.3947 29.6752C36.314 29.746 36.2299 29.8133 36.1417 29.8765C36.0535 29.9397 35.9625 29.9994 35.8674 30.0551C35.7729 30.1107 35.6755 30.1618 35.5746 30.2089C35.4744 30.2564 35.3718 30.2989 35.2663 30.3373C35.1615 30.3753 35.0543 30.4092 34.9454 30.438C34.8364 30.4674 34.7258 30.4916 34.614 30.5109C34.5022 30.5306 34.3898 30.5453 34.2769 30.5549C34.1633 30.565 34.0498 30.5695 33.9357 30.5695Z" fill="black"/>
<path d="M45.4079 30.5695C45.2943 30.5695 45.1808 30.565 45.0673 30.5549C44.9537 30.5453 44.8414 30.5306 44.7296 30.5109C44.6178 30.4916 44.5077 30.4674 44.3988 30.438C44.2899 30.4092 44.1827 30.3753 44.0772 30.3373C43.9723 30.2989 43.8692 30.2564 43.7689 30.2089C43.6686 30.1618 43.5713 30.1107 43.4762 30.0551C43.3817 29.9994 43.29 29.9397 43.2024 29.8765C43.1143 29.8133 43.0301 29.746 42.9495 29.6752C42.8688 29.6044 42.7927 29.5305 42.7201 29.4531C42.6481 29.3757 42.5801 29.2958 42.5172 29.2123C42.4539 29.1294 42.3951 29.0439 42.3415 28.9553C42.2879 28.8673 42.2395 28.7768 42.1957 28.6847C42.1519 28.5921 42.1138 28.498 42.0804 28.4024C42.0476 28.3068 42.0199 28.2097 41.998 28.1116C41.9755 28.0134 41.9588 27.9148 41.9479 27.8151C41.9364 27.7155 41.9312 27.6158 41.9312 27.5162V26.9967C41.9283 26.895 41.9317 26.7938 41.941 26.6926C41.9496 26.5915 41.9646 26.4908 41.9848 26.3911C42.0049 26.2915 42.0309 26.1923 42.0626 26.0952C42.0943 25.9976 42.1311 25.9015 42.1738 25.8069C42.2164 25.7128 42.2637 25.6207 42.3167 25.5302C42.3697 25.4401 42.4279 25.3526 42.4907 25.2676C42.5535 25.1821 42.621 25.1002 42.693 25.0208C42.765 24.9419 42.8417 24.866 42.9224 24.7936C43.0036 24.7208 43.0878 24.652 43.1765 24.5872C43.2653 24.522 43.3575 24.4608 43.4525 24.4036C43.5482 24.347 43.6467 24.2939 43.7482 24.2458C43.8496 24.1972 43.9539 24.1532 44.0605 24.1143C44.1666 24.0748 44.2749 24.0399 44.3855 24.0101C44.4962 23.9802 44.608 23.9554 44.7209 23.9352C44.8345 23.9155 44.9486 23.9003 45.0632 23.8902C45.1779 23.8801 45.2932 23.875 45.409 23.875C45.5243 23.875 45.6395 23.8801 45.7548 23.8902C45.8695 23.9003 45.9836 23.9155 46.0965 23.9352C46.21 23.9554 46.3218 23.9802 46.4325 24.0101C46.5426 24.0399 46.6509 24.0748 46.7575 24.1143C46.8641 24.1532 46.9678 24.1972 47.0693 24.2458C47.1707 24.2939 47.2692 24.347 47.3649 24.4036C47.4606 24.4608 47.5528 24.522 47.6409 24.5872C47.7297 24.652 47.8144 24.7208 47.8951 24.7936C47.9758 24.866 48.0524 24.9419 48.1244 25.0208C48.197 25.1002 48.2645 25.1821 48.3273 25.2676C48.3901 25.3526 48.4477 25.4401 48.5007 25.5302C48.5538 25.6207 48.6016 25.7128 48.6442 25.8069C48.6863 25.9015 48.7238 25.9976 48.7549 26.0952C48.7866 26.1923 48.8125 26.2915 48.8333 26.3911C48.8534 26.4908 48.8678 26.5915 48.8771 26.6926C48.8863 26.7938 48.8892 26.895 48.8869 26.9967V27.5162C48.8869 27.6158 48.8811 27.716 48.8701 27.8151C48.8586 27.9148 48.8419 28.0134 48.8194 28.1116C48.7975 28.2097 48.7699 28.3068 48.7364 28.4024C48.7036 28.498 48.665 28.5921 48.6218 28.6847C48.578 28.7773 48.529 28.8673 48.4754 28.9553C48.4218 29.0439 48.363 29.1294 48.3002 29.2128C48.2368 29.2958 48.1688 29.3762 48.0968 29.4531C48.0242 29.5305 47.9481 29.6044 47.8674 29.6752C47.7867 29.746 47.7026 29.8133 47.6144 29.8765C47.5263 29.9397 47.4352 29.9994 47.3401 30.0551C47.2456 30.1107 47.1476 30.1618 47.0474 30.2089C46.9471 30.2564 46.8439 30.2989 46.7391 30.3373C46.6336 30.3753 46.5264 30.4092 46.4175 30.438C46.3086 30.4674 46.1985 30.4916 46.0867 30.5109C45.9749 30.5306 45.8625 30.5453 45.749 30.5549C45.6355 30.565 45.522 30.5695 45.4079 30.5695Z" fill="black"/>
<mask id="mask6_302_23088" style="mask-type:luminance" maskUnits="userSpaceOnUse" x="28" y="27" width="11" height="5">
<path d="M28.0232 27.7383H38.3501V31.4599H28.0232V27.7383Z" fill="white"/>
</mask>
<g mask="url(#mask6_302_23088)">
<mask id="mask7_302_23088" style="mask-type:luminance" maskUnits="userSpaceOnUse" x="28" y="22" width="11" height="10">
<path d="M38.3477 27.6131C38.3477 30.2061 36.3867 31.3701 33.4275 31.3701C30.4688 31.3701 28.0796 30.0184 28.0796 27.4254C28.0796 27.1168 28.1142 26.8113 28.1827 26.5088C28.2507 26.2063 28.3522 25.9129 28.487 25.6281C28.6213 25.3428 28.7861 25.0722 28.9809 24.8157C29.1762 24.5592 29.3975 24.3225 29.6459 24.1039C29.8943 23.8859 30.1646 23.6912 30.4567 23.5202C30.7483 23.3487 31.0566 23.204 31.3811 23.0862C31.7055 22.9678 32.0398 22.8788 32.3844 22.8186C32.729 22.7584 33.0765 22.7285 33.4275 22.7285C36.3803 22.7285 38.3477 25.0185 38.3477 27.6131Z" fill="white"/>
</mask>
<g mask="url(#mask7_302_23088)">
<path d="M39.4162 31.6677C39.4162 33.8373 36.6743 35.5952 33.2921 35.5952C29.9099 35.5952 27.1663 33.8373 27.1663 31.6677C27.1663 29.4981 29.9082 27.7402 33.2921 27.7402C36.676 27.7402 39.4162 29.4981 39.4162 31.6677Z" fill="#523F89"/>
</g>
</g>
<mask id="mask8_302_23088" style="mask-type:luminance" maskUnits="userSpaceOnUse" x="41" y="27" width="11" height="5">
<path d="M41.05 27.7383H51.4801V31.4599H41.05V27.7383Z" fill="white"/>
</mask>
<g mask="url(#mask8_302_23088)">
<mask id="mask9_302_23088" style="mask-type:luminance" maskUnits="userSpaceOnUse" x="41" y="22" width="11" height="10">
<path d="M41.147 27.6131C41.147 30.2061 43.1075 31.3701 46.0667 31.3701C49.0259 31.3701 51.4145 30.0184 51.4145 27.4254C51.4145 27.1168 51.3805 26.8113 51.312 26.5088C51.2434 26.2063 51.142 25.9129 51.0077 25.6281C50.8734 25.3428 50.7086 25.0722 50.5132 24.8157C50.3185 24.5592 50.0966 24.322 49.8482 24.1039C49.5998 23.8859 49.3296 23.6912 49.038 23.5202C48.7458 23.3487 48.4375 23.204 48.113 23.0862C47.7886 22.9678 47.4544 22.8788 47.1097 22.8186C46.7657 22.7584 46.4176 22.7285 46.0667 22.7285C43.1138 22.7285 41.147 25.0185 41.147 27.6131Z" fill="white"/>
</mask>
<g mask="url(#mask9_302_23088)">
<path d="M52.449 31.6677C52.449 33.8373 49.707 35.5952 46.3231 35.5952C42.9392 35.5952 40.1973 33.8373 40.1973 31.6677C40.1973 29.4981 42.9409 27.7402 46.3231 27.7402C49.7053 27.7402 52.449 29.4981 52.449 31.6677Z" fill="#523F89"/>
</g>
</g>
</svg>
