<svg width="16" height="16" viewBox="0 0 16 16" fill="none" xmlns="http://www.w3.org/2000/svg">
<path d="M7.99329 11.3329C8.55995 11.3329 9.13329 11.1862 9.57995 10.8995L13.5933 8.27953C14.34 7.79287 14.7866 6.97287 14.7866 6.07953C14.7866 5.1862 14.34 4.3662 13.5933 3.87953L9.57329 1.2662C8.67995 0.686201 7.28662 0.686201 6.39995 1.27287L2.40662 3.89287C1.66662 4.37953 1.21996 5.19953 1.21996 6.0862C1.21996 6.97287 1.66662 7.79287 2.40662 8.27953L6.39995 10.8995C6.84662 11.1929 7.41995 11.3329 7.99329 11.3329ZM7.99329 1.83287C8.37329 1.83287 8.75329 1.91953 9.02662 2.1062L13.04 4.71953C13.5066 5.0262 13.78 5.51953 13.78 6.07953C13.78 6.63953 13.5133 7.13287 13.04 7.43953L9.02662 10.0595C8.47329 10.4195 7.49995 10.4195 6.94662 10.0595L2.95329 7.43953C2.48662 7.13287 2.21995 6.63953 2.21995 6.07953C2.21995 5.51953 2.48662 5.0262 2.95329 4.71953L6.94662 2.09953C7.22662 1.9262 7.60662 1.83287 7.99329 1.83287Z" fill="white"/>
<path d="M8.00004 15.1674C8.29338 15.1674 8.59338 15.1274 8.83338 15.0474L10.96 14.3407C11.9667 14.0074 12.76 12.9074 12.7534 11.8474L12.7467 8.7207C12.7467 8.44737 12.52 8.2207 12.2467 8.2207C11.9734 8.2207 11.7467 8.44737 11.7467 8.7207L11.7534 11.8474C11.7534 12.474 11.2334 13.194 10.64 13.394L8.51338 14.1007C8.24671 14.1874 7.75338 14.1874 7.48671 14.1007L5.36004 13.394C4.76671 13.194 4.24671 12.474 4.24671 11.854V8.7607C4.24671 8.48737 4.02004 8.2607 3.74671 8.2607C3.47338 8.2607 3.24671 8.48737 3.24671 8.7607V11.854C3.24671 12.914 4.03337 14.0074 5.04004 14.3474L7.16671 15.054C7.40671 15.1274 7.70671 15.1674 8.00004 15.1674Z" fill="white"/>
<path d="M1.7334 10.5C2.00673 10.5 2.2334 10.2733 2.2334 10V6C2.2334 5.72667 2.00673 5.5 1.7334 5.5C1.46007 5.5 1.2334 5.72667 1.2334 6V10C1.2334 10.2733 1.46007 10.5 1.7334 10.5Z" fill="white"/>
</svg>
