<svg width="16" height="16" viewBox="0 0 16 16" fill="none" xmlns="http://www.w3.org/2000/svg">
<path d="M14.6665 8.554V10.0007C14.6665 13.334 13.3332 14.6673 9.99984 14.6673H5.99984C2.6665 14.6673 1.33317 13.334 1.33317 10.0007V6.00065C1.33317 2.66732 2.6665 1.33398 5.99984 1.33398H9.99984C13.3332 1.33398 14.6665 2.66732 14.6665 6.00065" stroke="white" stroke-linecap="round" stroke-linejoin="round"/>
<path d="M9.25997 7.43359H11.0266C11.4466 7.43359 11.7866 7.77356 11.7866 8.19356V11.6069H9.25997V7.43359V7.43359Z" stroke="white" stroke-miterlimit="10" stroke-linecap="round" stroke-linejoin="round"/>
<path d="M7.49327 4.40039H8.50661C8.92661 4.40039 9.2666 4.7404 9.2666 5.1604V11.6004H6.73993V5.1604C6.73993 4.7404 7.07327 4.40039 7.49327 4.40039Z" stroke="white" stroke-miterlimit="10" stroke-linecap="round" stroke-linejoin="round"/>
<path d="M4.96674 8.56641H6.7334V11.5998H4.20673V9.32642C4.21339 8.90642 4.5534 8.56641 4.96674 8.56641Z" stroke="white" stroke-miterlimit="10" stroke-linecap="round" stroke-linejoin="round"/>
</svg>
