<svg width="84" height="40" viewBox="0 0 84 40" fill="none" xmlns="http://www.w3.org/2000/svg">
<path d="M19.0781 2.99927C19.2375 2.98612 19.3921 2.95912 19.5423 2.91825C19.6897 2.8845 19.8251 2.83333 19.948 2.76475C20.0709 2.69581 20.1746 2.61372 20.2581 2.51778C20.3604 2.38169 20.3992 2.23635 20.3748 2.08178C20.3743 2.06152 20.3685 2.04198 20.358 2.02315C20.3469 2.00467 20.332 1.98797 20.3128 1.9734C20.2936 1.95918 20.2716 1.94781 20.2461 1.93928C20.2211 1.93111 20.1947 1.92685 20.1674 1.92578C20.0646 1.92578 19.9432 1.99578 19.9566 2.08178C19.9595 2.11269 19.9595 2.14361 19.9566 2.17417V2.23528C19.9566 2.26442 19.9566 2.19726 19.9566 2.22747C19.9518 2.25092 19.9446 2.27366 19.9346 2.29605L19.9173 2.33265C19.9072 2.35539 19.9173 2.31737 19.9278 2.3163L19.9139 2.33656C19.9 2.35859 19.8832 2.37991 19.8645 2.39981C19.8645 2.4062 19.8265 2.43676 19.8525 2.4126C19.8779 2.38844 19.8371 2.42539 19.8299 2.43037C19.8117 2.44636 19.7915 2.46164 19.7704 2.47585L19.7325 2.49859C19.695 2.52418 19.7737 2.47727 19.7325 2.49859C19.683 2.52595 19.6312 2.55012 19.5769 2.57108L19.4977 2.5988C19.4329 2.61657 19.4809 2.5988 19.4977 2.5988L19.4516 2.61159C19.3599 2.63789 19.2654 2.65885 19.1689 2.67378L19.0661 2.6887H19.0901H19.0801C19.0508 2.68693 19.022 2.68941 18.9936 2.69652C18.9658 2.70327 18.9408 2.71429 18.9188 2.72886C18.8972 2.74378 18.8803 2.76119 18.8683 2.78109C18.8563 2.80135 18.8506 2.82231 18.8506 2.84399C18.8506 2.86602 18.8563 2.88698 18.8683 2.90688C18.8803 2.92714 18.8972 2.94455 18.9188 2.95912C18.9408 2.97404 18.9658 2.9847 18.9936 2.99181C19.022 2.99892 19.0508 3.0014 19.0801 2.99927H19.0781Z" fill="#F69CAB"/>
<path d="M18.9978 3.05184C19.3607 3.2217 19.8849 3.33327 20.2958 3.2089C20.5008 3.1453 20.6616 3.04296 20.7768 2.90224C20.7932 2.88448 20.8037 2.86493 20.8085 2.84397C20.8138 2.82265 20.8133 2.80168 20.8066 2.78072C20.8004 2.76011 20.7884 2.74092 20.7711 2.72351C20.7538 2.70645 20.7327 2.69224 20.7077 2.68158C20.6828 2.67056 20.6559 2.66381 20.6271 2.66132C20.5983 2.65883 20.5699 2.66026 20.5421 2.6663C20.5147 2.67234 20.4893 2.68229 20.4672 2.69615C20.4446 2.70965 20.4269 2.72599 20.4139 2.74518C20.4 2.76295 20.3846 2.77965 20.3678 2.79564C20.3918 2.77183 20.3453 2.81483 20.3405 2.81874L20.2891 2.85676L20.2613 2.87311C20.2819 2.86173 20.2819 2.86173 20.2613 2.87311L20.1624 2.9161C20.1417 2.9225 20.1432 2.9225 20.1624 2.9161L20.1312 2.92392L20.0712 2.93778L20.0116 2.94773H19.9804C19.9444 2.94773 19.9089 2.94773 19.8729 2.94773H19.8129C19.799 2.94773 19.7308 2.94027 19.7922 2.94773C19.7548 2.94773 19.7188 2.93884 19.6828 2.9328C19.6108 2.92143 19.5407 2.90615 19.472 2.88696L19.424 2.87311C19.3708 2.86173 19.4101 2.87311 19.424 2.87311C19.3967 2.86564 19.3693 2.85427 19.342 2.84539C19.3146 2.83651 19.2373 2.80737 19.1879 2.78427C19.1639 2.77396 19.1379 2.76721 19.1106 2.76437C19.0827 2.76153 19.0558 2.76259 19.029 2.76792C19.0016 2.7729 18.9771 2.78178 18.955 2.79422C18.9329 2.80666 18.9147 2.82158 18.9008 2.83935C18.8864 2.85712 18.8777 2.8763 18.8739 2.89656C18.8701 2.91717 18.8715 2.93707 18.8787 2.95697C18.8854 2.97687 18.8974 2.99534 18.9142 3.01169C18.931 3.02803 18.9512 3.04154 18.9752 3.05184H18.9978Z" fill="#F69CAB"/>
<path d="M4.54574 2.68835C4.50253 2.68835 4.62111 2.69617 4.5659 2.68835L4.48381 2.6784C4.39212 2.66419 4.30187 2.64535 4.21354 2.62261L4.13625 2.60093C4.10697 2.59347 4.16217 2.60982 4.16217 2.60875L4.14153 2.60236L4.09496 2.58956C4.04024 2.56966 3.98695 2.54728 3.93607 2.5224L3.89814 2.50357L3.87606 2.49078C3.87606 2.49078 3.91878 2.51743 3.8967 2.50215C3.87126 2.48723 3.84725 2.47123 3.82469 2.45418C3.80213 2.4389 3.78341 2.42113 3.76276 2.40443C3.7426 2.38808 3.79541 2.4389 3.77477 2.41616L3.76276 2.40443L3.72676 2.36783L3.70804 2.3362L3.69796 2.31986C3.69796 2.31098 3.71668 2.35895 3.69796 2.31986C3.68596 2.29392 3.67539 2.26762 3.66723 2.24097V2.22214C3.65859 2.19158 3.66723 2.26123 3.66723 2.2296V2.1827C3.66339 2.14787 3.66339 2.11269 3.66723 2.07752C3.66723 2.05726 3.66195 2.03736 3.65139 2.01817C3.64035 1.99934 3.62547 1.98264 3.60579 1.96771C3.58658 1.95315 3.56402 1.94213 3.5381 1.93396C3.51266 1.92614 3.48577 1.92188 3.45793 1.92188C3.43009 1.92259 3.4032 1.92685 3.37728 1.93538C3.35136 1.94391 3.32879 1.95563 3.30911 1.97091C3.28991 1.98584 3.27503 2.00289 3.26447 2.02244C3.2539 2.04163 3.2491 2.06188 3.2491 2.08285C3.22654 2.22392 3.25726 2.35824 3.34175 2.4858C3.4176 2.59418 3.52322 2.68373 3.65859 2.75444C3.86502 2.8646 4.09352 2.9378 4.34363 2.97369C4.4118 2.9847 4.48093 2.99323 4.55054 2.99892C4.5779 2.99821 4.6043 2.99394 4.62927 2.98577C4.65423 2.9776 4.67631 2.96623 4.69504 2.95166C4.71424 2.93709 4.72912 2.92039 4.7392 2.90155C4.74928 2.88272 4.75456 2.86318 4.75456 2.84292C4.75408 2.82267 4.74832 2.80312 4.73728 2.78465C4.72624 2.76581 4.71136 2.74911 4.69167 2.7349C4.67247 2.72033 4.64991 2.70931 4.62495 2.70114C4.5995 2.69332 4.5731 2.68906 4.54574 2.68835Z" fill="#F69CAB"/>
<path d="M4.41181 2.7834C4.36141 2.80579 4.30956 2.82604 4.25627 2.84452C4.23035 2.8534 4.20299 2.86477 4.17563 2.87224L4.13098 2.88361C4.06281 2.9028 3.9932 2.91807 3.92216 2.92945C3.88615 2.92945 3.84871 2.94082 3.8127 2.94437C3.87415 2.94437 3.80406 2.94437 3.79206 2.94437H3.73061C3.69461 2.94437 3.6586 2.94437 3.6226 2.94437H3.59188H3.60196L3.54195 2.93442L3.4805 2.92056L3.45122 2.91274C3.47714 2.92056 3.47858 2.92056 3.45122 2.91274L3.35185 2.86975C3.33121 2.85944 3.33313 2.85944 3.35185 2.86975L3.3264 2.8534C3.30816 2.84061 3.29088 2.82782 3.27504 2.81538C3.27504 2.81538 3.22175 2.76848 3.24576 2.79228C3.23039 2.77594 3.21503 2.75959 3.20111 2.74182C3.18671 2.72441 3.16847 2.70949 3.1459 2.69741C3.12382 2.68533 3.09934 2.67644 3.07245 2.67147C3.04557 2.66614 3.01869 2.66472 2.99084 2.6672C2.96348 2.66969 2.93756 2.67609 2.91356 2.68604C2.88955 2.6967 2.86939 2.7102 2.85259 2.72655C2.83579 2.74289 2.82427 2.76101 2.81706 2.78091C2.80986 2.80081 2.80842 2.82107 2.81178 2.84132C2.81562 2.86193 2.82427 2.88112 2.83819 2.89889C2.88235 2.95361 2.93564 3.003 2.99709 3.04742C3.05901 3.09219 3.12766 3.12986 3.20255 3.16113C3.27744 3.19275 3.35665 3.21621 3.44018 3.23255C3.52371 3.24854 3.6082 3.25636 3.69461 3.25636C3.96632 3.24996 4.22267 3.20022 4.46318 3.10676C4.51358 3.08971 4.56207 3.07016 4.60912 3.04849C4.63312 3.03889 4.65376 3.0261 4.67152 3.01082C4.68881 2.99518 4.70177 2.97777 4.71041 2.95858C4.71857 2.9394 4.72193 2.9195 4.72001 2.8996C4.71857 2.87934 4.71137 2.86015 4.69985 2.84168C4.68593 2.82355 4.66816 2.80827 4.64608 2.79548C4.624 2.78269 4.59952 2.77345 4.57215 2.76812C4.54527 2.76243 4.51791 2.76101 4.49006 2.76386C4.46222 2.76634 4.4363 2.77309 4.41181 2.7834Z" fill="#F69CAB"/>
<path d="M24.6317 19.1897C24.5837 19.1662 24.5343 19.1445 24.4829 19.125C24.5324 19.1453 24.5804 19.1669 24.6269 19.1886L24.6317 19.1897Z" fill="#F69CAB"/>
<path d="M83.5847 26.5851C83.3706 26.0084 82.7677 25.3837 82.0433 25.0998C80.4096 24.4662 78.4212 24.8031 77.4467 25.9867C77.2499 26.2277 77.0343 26.4583 76.8097 26.6864C76.2456 27.1928 75.6249 27.6576 74.9466 28.0804C74.3974 28.3739 73.8185 28.6308 73.2102 28.8508C72.662 29.0025 72.1003 29.1177 71.5247 29.1969C70.9669 29.2246 70.4091 29.2211 69.8517 29.1855C68.9099 29.0477 67.9934 28.8455 67.1029 28.5797C64.5188 27.7244 62.178 26.5304 59.7715 25.437C57.172 24.2594 54.4064 23.176 51.4334 22.612C50.6019 22.4596 49.7609 22.3455 48.9102 22.2699C48.0596 22.1945 47.206 22.1583 46.3491 22.1611C45.4927 22.164 44.6396 22.2059 43.7899 22.2873C42.9402 22.3683 42.1006 22.488 41.2711 22.6465C38.2246 23.2129 35.3184 24.2253 32.5096 25.248C29.5985 26.3076 26.747 27.4582 23.7759 28.4098C22.3189 28.8721 20.8115 29.2136 19.2547 29.4339C18.8227 29.4623 18.3896 29.4673 17.9566 29.4492C17.7953 29.4236 17.6379 29.392 17.4804 29.3565C17.357 29.3071 17.237 29.2538 17.1189 29.198C17.0368 29.1397 16.948 29.0789 16.8775 29.0167C16.7147 28.8266 16.5683 28.6298 16.4377 28.4265C16.1247 27.7745 15.9006 27.1061 15.7647 26.4217C15.4047 24.1024 15.5933 21.7439 15.9942 19.4314C16.275 17.9343 16.6389 16.4483 17.0868 14.9729C17.2802 14.3304 17.455 13.6613 17.7152 13.0238C17.7646 12.9361 17.804 12.8458 17.8333 12.7527C17.8899 12.6251 17.9264 12.4947 17.9427 12.3611C21.1625 3.49035 17.5025 1.13301 12.6904 0.930462C7.97769 0.736444 2.56746 4.82608 1.67215 9.56813C1.64575 9.62854 1.62462 9.68966 1.60878 9.75184C0.855573 12.7886 0.424962 15.8506 0.317429 18.9371C0.227178 20.8236 0.309268 22.7059 0.563698 24.5838C0.858453 26.642 1.31211 28.704 2.27654 30.6556C3.2597 32.6526 4.6485 34.5651 6.72907 36.0643C7.62149 36.7067 8.60417 37.2614 9.67758 37.7283C10.7505 38.1956 11.8834 38.5616 13.0759 38.8267C18.5557 40.0409 24.1835 38.638 29.0282 36.7398C33.5542 34.9655 37.6524 32.6437 42.2149 30.9253C42.6805 30.7505 43.1548 30.5859 43.631 30.4285C44.6046 30.1432 45.6074 29.9321 46.6381 29.7949C47.4768 29.7374 48.3154 29.7374 49.1541 29.7949C50.5386 29.9811 51.8808 30.2743 53.1803 30.6744C57.1072 31.9419 60.7767 33.6703 64.9331 34.537C66.8581 34.9375 68.9319 35.1887 70.9271 35.0366C72.1891 34.9403 73.4243 34.7829 74.6038 34.4382C75.7958 34.1084 76.9081 33.6692 77.9417 33.1202C80.1456 31.9039 82.0418 30.345 83.2506 28.5026C83.6462 27.8917 83.8348 27.2567 83.5847 26.5851Z" fill="#F69CAB"/>
<path d="M12.5977 4.82131C12.5977 6.37238 13.9937 7.06814 16.0896 7.06814C18.186 7.06814 19.8849 6.26364 19.8849 4.70866C19.8849 4.61663 19.8787 4.52495 19.8667 4.43327C19.8542 4.34159 19.836 4.25098 19.8119 4.16073C19.7875 4.07047 19.7572 3.98128 19.7212 3.89351C19.6852 3.80538 19.6434 3.71868 19.5959 3.63375C19.5484 3.54883 19.4951 3.46567 19.4365 3.38466C19.378 3.30364 19.3141 3.22475 19.245 3.14835C19.1764 3.07196 19.1019 2.99804 19.0232 2.92698C18.9445 2.85591 18.861 2.78768 18.7731 2.72265C18.6853 2.65763 18.5936 2.59615 18.4971 2.53788C18.4011 2.47924 18.3017 2.42452 18.198 2.37371C18.0948 2.32254 17.9882 2.27528 17.8788 2.23193C17.7693 2.18857 17.657 2.14913 17.5422 2.11395C17.427 2.07877 17.3104 2.04786 17.1913 2.02121C17.0723 1.99456 16.9523 1.97217 16.8303 1.9544C16.7084 1.93628 16.5855 1.92278 16.4616 1.91389C16.3383 1.90465 16.2139 1.90039 16.0896 1.90039C14.0023 1.90039 12.5977 3.27024 12.5977 4.82131Z" fill="white"/>
<path d="M12.3875 4.82304C12.3875 5.37062 12.5584 5.91785 13.0312 6.35385C13.2554 6.54822 13.5161 6.71062 13.8132 6.84067C14.1104 6.97108 14.4277 7.06205 14.7661 7.11428C16.2236 7.36764 18.0507 7.22195 19.1673 6.41994C20.342 5.57707 20.3319 4.16423 19.5096 3.17176C19.4035 3.04312 19.2849 2.92124 19.1534 2.80576C19.0223 2.69062 18.8797 2.58331 18.7266 2.48417C18.573 2.38503 18.4102 2.29513 18.2384 2.21411C18.0665 2.13345 17.887 2.06273 17.7007 2.00197C17.514 1.94156 17.3224 1.89146 17.1256 1.85273C16.9288 1.81364 16.7291 1.78592 16.5265 1.76958C16.3239 1.75323 16.1209 1.74826 15.9173 1.75465C15.7138 1.76105 15.5121 1.77881 15.3124 1.80831C13.4508 2.11106 12.4009 3.48872 12.3875 4.82304C12.3899 4.84258 12.3966 4.8607 12.4086 4.87811C12.4201 4.89552 12.4355 4.9108 12.4551 4.92395C12.4743 4.9371 12.4964 4.94741 12.5209 4.95416C12.5454 4.96126 12.5708 4.96482 12.5972 4.96482C12.6232 4.96482 12.6486 4.96126 12.6731 4.95416C12.6976 4.94741 12.7197 4.9371 12.7393 4.92395C12.7585 4.9108 12.7739 4.89552 12.7859 4.87811C12.7974 4.8607 12.8046 4.84258 12.807 4.82304C12.8171 3.76376 13.5228 2.65225 14.9029 2.22761C16.2831 1.80298 17.9139 2.18959 18.8418 3.01576C19.7429 3.81173 20.0079 5.09558 19.1452 5.96475C18.3094 6.80905 16.7065 6.9988 15.3892 6.88615C14.7042 6.82788 14.011 6.66051 13.5161 6.297C12.9851 5.90648 12.8037 5.36173 12.7984 4.82304C12.7873 4.7875 12.7629 4.75836 12.7245 4.73562C12.686 4.71288 12.6419 4.70151 12.5929 4.70151C12.5435 4.70151 12.4998 4.71288 12.4614 4.73562C12.423 4.75836 12.398 4.7875 12.3875 4.82304Z" fill="#F69CAB"/>
<path d="M16.7267 6.64463C16.6461 6.64499 16.5649 6.64179 16.4848 6.63611C16.4041 6.63042 16.324 6.62154 16.2447 6.60981C16.1651 6.59808 16.0868 6.58351 16.009 6.5661C15.9318 6.54869 15.8554 6.52879 15.781 6.50569C15.7061 6.48295 15.6332 6.45737 15.5616 6.42894C15.4901 6.40087 15.421 6.36995 15.3533 6.33655C15.2861 6.3035 15.2213 6.26762 15.1589 6.22959C15.096 6.19157 15.0364 6.15142 14.9788 6.10913C14.9217 6.06649 14.8675 6.02243 14.8161 5.97588C14.7647 5.92968 14.7167 5.88136 14.6721 5.83161C14.627 5.78186 14.5857 5.73034 14.5473 5.67739C14.5093 5.6248 14.4748 5.57043 14.4441 5.515C14.4129 5.45992 14.386 5.40342 14.3624 5.34586C14.3394 5.28865 14.3197 5.23073 14.3039 5.17174C14.2885 5.11311 14.2765 5.05376 14.2688 4.99407C14.2612 4.93437 14.2573 4.87467 14.2573 4.81497V4.5044C14.2554 4.44364 14.2573 4.38288 14.2631 4.32211C14.2693 4.26135 14.2794 4.20094 14.2938 4.14124C14.3077 4.08119 14.326 4.02185 14.348 3.96322C14.3701 3.90459 14.3965 3.84702 14.4263 3.79052C14.4565 3.73367 14.4901 3.67823 14.5276 3.62422C14.565 3.56985 14.6058 3.51726 14.6505 3.46609C14.6951 3.41492 14.7431 3.36553 14.794 3.31792C14.8454 3.2703 14.8996 3.22482 14.9572 3.18111C15.0144 3.13776 15.0744 3.09618 15.1377 3.05709C15.2006 3.01801 15.2659 2.98141 15.3341 2.94694C15.4018 2.91247 15.4719 2.88084 15.5439 2.85171C15.6164 2.82257 15.6903 2.79627 15.7661 2.77246C15.842 2.74901 15.9188 2.72805 15.9975 2.71028C16.0762 2.69216 16.1559 2.67723 16.2361 2.66515C16.3168 2.65307 16.3984 2.64419 16.48 2.63815C16.5616 2.63175 16.6437 2.62891 16.7262 2.62891C16.8083 2.62891 16.8904 2.63175 16.972 2.63815C17.0541 2.64419 17.1353 2.65307 17.2159 2.66515C17.2966 2.67723 17.3758 2.69216 17.4545 2.71028C17.5332 2.72805 17.6105 2.74901 17.6859 2.77246C17.7617 2.79627 17.8357 2.82257 17.9081 2.85171C17.9802 2.88084 18.0502 2.91247 18.1184 2.94694C18.1861 2.98141 18.2514 3.01801 18.3148 3.05709C18.3776 3.09618 18.4376 3.13776 18.4953 3.18111C18.5524 3.22482 18.6066 3.2703 18.658 3.31792C18.7094 3.36553 18.7569 3.41492 18.8015 3.46609C18.8462 3.51726 18.887 3.56985 18.9244 3.62422C18.9619 3.67823 18.996 3.73367 19.0257 3.79052C19.056 3.84702 19.0819 3.90459 19.104 3.96322C19.126 4.02185 19.1443 4.08119 19.1587 4.14124C19.1726 4.20094 19.1827 4.26135 19.1889 4.32211C19.1947 4.38288 19.1966 4.44364 19.1947 4.5044V4.81497C19.1947 4.87467 19.1909 4.93437 19.1832 4.99407C19.1755 5.05376 19.164 5.11275 19.1481 5.17174C19.1323 5.23037 19.1131 5.28829 19.0896 5.34586C19.066 5.40307 19.0392 5.45957 19.0084 5.515C18.9772 5.57008 18.9431 5.62444 18.9047 5.67704C18.8668 5.72998 18.8255 5.78151 18.7804 5.83125C18.7358 5.881 18.6878 5.92897 18.6364 5.97552C18.585 6.02172 18.5308 6.06614 18.4737 6.10842C18.4165 6.15106 18.3565 6.19122 18.2941 6.22924C18.2317 6.26726 18.1669 6.30279 18.0997 6.3362C18.0325 6.3696 17.9629 6.40051 17.8918 6.42859C17.8203 6.45701 17.7473 6.4826 17.6724 6.50534C17.5975 6.52844 17.5217 6.54869 17.4444 6.5661C17.3666 6.58351 17.2884 6.59808 17.2092 6.60945C17.1295 6.62118 17.0498 6.63006 16.9692 6.63611C16.8885 6.64179 16.8079 6.64463 16.7267 6.64463Z" fill="black"/>
<path d="M11.0514 4.61765C11.0514 6.17014 9.65591 6.8659 7.5595 6.8659C5.46357 6.8659 3.76465 6.05749 3.76465 4.50607C3.76465 4.41439 3.77137 4.32271 3.78385 4.23139C3.79585 4.14006 3.81457 4.0491 3.83906 3.9592C3.86354 3.86929 3.89378 3.7801 3.92979 3.69233C3.96627 3.60456 4.00804 3.51822 4.05604 3.43329C4.10357 3.34836 4.15685 3.26557 4.21542 3.18455C4.27399 3.10389 4.33784 3.025 4.40696 2.9486C4.47609 2.87256 4.55002 2.799 4.62923 2.72793C4.70796 2.65686 4.79101 2.58899 4.87886 2.52397C4.96671 2.45929 5.05888 2.39782 5.15489 2.33954C5.2509 2.28127 5.35028 2.22654 5.45397 2.17573C5.55718 2.12456 5.66327 2.07766 5.77273 2.0343C5.88218 1.99095 5.99451 1.95186 6.10925 1.91669C6.22398 1.88151 6.34063 1.85059 6.45921 1.82394C6.57826 1.79729 6.69828 1.7749 6.82021 1.75714C6.94214 1.73901 7.06456 1.72551 7.18793 1.71663C7.31179 1.70774 7.43564 1.70312 7.5595 1.70312C9.65591 1.70312 11.0514 3.06657 11.0514 4.61765Z" fill="white"/>
<path d="M10.8407 4.61632C10.8407 5.09177 10.702 5.57966 10.2896 5.95703C10.0894 6.12759 9.85754 6.26938 9.59351 6.38273C9.329 6.49573 9.04769 6.5739 8.74813 6.61761C7.45006 6.84041 5.80443 6.71746 4.80927 6.01282C3.7493 5.2666 3.78195 4.00798 4.50443 3.12601C5.26676 2.19964 6.81831 1.66236 8.27192 1.90683C9.93675 2.18969 10.8407 3.4277 10.858 4.61632C10.8709 4.64972 10.8964 4.67637 10.9338 4.69734C10.9713 4.71795 11.0135 4.72826 11.0601 4.72826C11.1067 4.72826 11.1489 4.71795 11.1863 4.69734C11.2238 4.67637 11.2487 4.64972 11.2622 4.61632C11.2502 3.42273 10.4331 2.20106 8.88351 1.73094C7.33341 1.26082 5.51495 1.68155 4.48235 2.60793C3.48191 3.50517 3.16507 4.93329 4.13959 5.91652C5.08002 6.87488 6.84183 7.12575 8.34729 6.98361C9.12498 6.91006 9.90747 6.71 10.4639 6.28537C11.0414 5.83799 11.2622 5.22609 11.2622 4.61632C11.2622 4.59571 11.2569 4.57581 11.2459 4.55662C11.2353 4.53779 11.2204 4.52073 11.2003 4.50617C11.1806 4.4916 11.158 4.48023 11.1321 4.47241C11.1062 4.46459 11.0793 4.46068 11.0514 4.46068C11.0236 4.46068 10.9967 4.46459 10.9708 4.47241C10.9449 4.48023 10.9223 4.4916 10.9026 4.50617C10.8829 4.52073 10.8676 4.53779 10.857 4.55662C10.846 4.57581 10.8407 4.59571 10.8407 4.61632Z" fill="#F69CAB"/>
<path d="M8.02703 6.43775C8.10768 6.43775 8.18833 6.43455 8.2685 6.42886C8.34867 6.42318 8.42836 6.41429 8.50757 6.40257C8.58678 6.3912 8.66502 6.37663 8.74231 6.35921C8.81912 6.34216 8.89497 6.3219 8.96986 6.29916C9.04427 6.27642 9.11724 6.25084 9.18829 6.22276C9.25934 6.19469 9.32894 6.16413 9.39567 6.13108C9.46288 6.09804 9.52769 6.06286 9.59009 6.02484C9.6525 5.98717 9.71251 5.94702 9.76964 5.90509C9.82676 5.8628 9.88101 5.81874 9.93237 5.7729C9.98374 5.7267 10.0317 5.67909 10.0769 5.62934C10.122 5.57995 10.1633 5.52878 10.2017 5.47619C10.2401 5.4236 10.2747 5.36994 10.3059 5.31486C10.3366 5.25978 10.3639 5.20364 10.3879 5.14643C10.4115 5.08958 10.4312 5.03165 10.4475 4.97338C10.4633 4.91475 10.4753 4.85576 10.484 4.79642C10.4921 4.73708 10.4964 4.67738 10.4964 4.61768V4.30107C10.4964 4.24102 10.4926 4.18132 10.4844 4.12198C10.4768 4.06228 10.4648 4.00329 10.4489 3.94466C10.4331 3.88603 10.4134 3.82811 10.3899 3.77054C10.3663 3.71333 10.339 3.65719 10.3083 3.60176C10.2771 3.54668 10.2425 3.49267 10.2046 3.43972C10.1666 3.38713 10.1249 3.33596 10.0798 3.28621C10.0351 3.23646 9.9871 3.18849 9.93574 3.1423C9.88437 3.0961 9.83012 3.05169 9.773 3.0094C9.71587 2.96711 9.65586 2.92696 9.59345 2.88894C9.53057 2.85092 9.46576 2.81538 9.39855 2.78234C9.33134 2.74893 9.26222 2.71837 9.19069 2.68995C9.11964 2.66187 9.04667 2.63629 8.97178 2.61355C8.89737 2.59045 8.82104 2.57055 8.74375 2.55314C8.66647 2.53573 8.58822 2.52116 8.50853 2.50943C8.42932 2.49806 8.34963 2.48918 8.26898 2.48314C8.18881 2.47745 8.10816 2.47461 8.02703 2.47461C7.94638 2.47461 7.86573 2.47745 7.78508 2.48314C7.70443 2.48918 7.62474 2.49806 7.54553 2.50943C7.46632 2.52116 7.38759 2.53573 7.3103 2.55314C7.23302 2.57055 7.15717 2.59045 7.08228 2.61355C7.00787 2.63629 6.93442 2.66187 6.86337 2.68995C6.79184 2.71837 6.72272 2.74893 6.65551 2.78234C6.5883 2.81538 6.52349 2.85092 6.46108 2.88894C6.3982 2.92696 6.33867 2.96711 6.28154 3.0094C6.22394 3.05169 6.16969 3.0961 6.1188 3.1423C6.06744 3.18849 6.01895 3.23646 5.97431 3.28621C5.92918 3.33596 5.8879 3.38713 5.84949 3.43972C5.81157 3.49267 5.777 3.54668 5.7458 3.60176C5.71508 3.65719 5.68771 3.71333 5.66419 3.77054C5.64067 3.82811 5.62098 3.88603 5.60514 3.94466C5.5893 4.00329 5.57778 4.06228 5.56962 4.12198C5.56146 4.18132 5.55762 4.24102 5.55762 4.30107V4.61768C5.5581 4.67738 5.56242 4.73708 5.57058 4.79642C5.57874 4.85576 5.59074 4.91475 5.60658 4.97338C5.6229 5.03165 5.64259 5.08958 5.66611 5.14643C5.69011 5.20364 5.71748 5.25978 5.74868 5.31486C5.7794 5.36994 5.81445 5.4236 5.85237 5.47619C5.89078 5.52878 5.93254 5.57995 5.97719 5.62934C6.02231 5.67909 6.07032 5.7267 6.12168 5.7729C6.17305 5.81874 6.2273 5.8628 6.28442 5.90509C6.34155 5.94702 6.40156 5.98717 6.46396 6.02484C6.52637 6.0625 6.59118 6.09804 6.65839 6.13108C6.7256 6.16413 6.79472 6.19469 6.86577 6.22276C6.93682 6.25084 7.00979 6.27642 7.0842 6.29916C7.15909 6.3219 7.23494 6.34216 7.31222 6.35921C7.38951 6.37663 7.46728 6.3912 7.54649 6.40257C7.6257 6.41429 7.70539 6.42318 7.78556 6.42886C7.86573 6.43455 7.94638 6.43775 8.02703 6.43775Z" fill="black"/>
<path d="M14.0912 8.46336C14.0912 8.51772 14.0879 8.57174 14.0807 8.62575C14.0735 8.67976 14.0624 8.73342 14.0485 8.78672C14.0341 8.84002 14.0163 8.89261 13.9947 8.94449C13.9736 8.99637 13.9486 9.04754 13.9208 9.09764C13.893 9.14775 13.8613 9.19678 13.8267 9.24475C13.7921 9.29273 13.7547 9.33928 13.7139 9.3844C13.6731 9.42953 13.6294 9.47288 13.5828 9.51481C13.5363 9.5571 13.4873 9.59725 13.4355 9.63563C13.3831 9.67401 13.3289 9.71025 13.2722 9.74472C13.2156 9.77919 13.1565 9.81153 13.0956 9.84173C13.0346 9.87193 12.9717 9.89965 12.9074 9.92524C12.8426 9.95082 12.7763 9.97392 12.7087 9.99488C12.641 10.0155 12.5718 10.034 12.5018 10.0496C12.4312 10.0652 12.3601 10.0784 12.2881 10.089C12.2161 10.0997 12.1441 10.1075 12.0707 10.1129C11.9977 10.1182 11.9247 10.121 11.8513 10.121C11.7778 10.121 11.7049 10.1182 11.6319 10.1129C11.5589 10.1075 11.4864 10.0997 11.4144 10.089C11.3424 10.0784 11.2714 10.0652 11.2013 10.0496C11.1307 10.034 11.0621 10.0155 10.9939 9.99488C10.9262 9.97392 10.86 9.95082 10.7951 9.92524C10.7308 9.89965 10.6679 9.87193 10.607 9.84173C10.546 9.81153 10.487 9.77919 10.4303 9.74472C10.3737 9.71025 10.3194 9.67401 10.2676 9.63563C10.2157 9.59725 10.1663 9.5571 10.1197 9.51481C10.0731 9.47288 10.0295 9.42953 9.98865 9.3844C9.94785 9.33928 9.9104 9.29273 9.87584 9.24475C9.84128 9.19678 9.81007 9.14775 9.78175 9.09764C9.7539 9.04754 9.72894 8.99637 9.70782 8.94449C9.68622 8.89261 9.66845 8.84002 9.65453 8.78672C9.64013 8.73342 9.62909 8.67976 9.62189 8.62575C9.61469 8.57174 9.61133 8.51772 9.61133 8.46336C9.61133 7.54835 10.6146 8.18832 11.8513 8.18832C13.0879 8.18832 14.0912 7.54835 14.0912 8.46336Z" fill="black"/>
<path d="M7.43131 7.91105C7.43131 8.36837 6.66562 8.73864 5.71847 8.73864C4.77179 8.73864 4.0061 8.36837 4.0061 7.91105C4.0061 7.45336 4.77179 7.08203 5.71847 7.08203C6.66562 7.08203 7.43131 7.4523 7.43131 7.91105Z" fill="#E58399"/>
<path d="M18.6264 8.18803C18.6264 8.64572 17.8607 9.01563 16.9135 9.01563C15.9664 9.01563 15.2012 8.64572 15.2012 8.18803C15.2012 7.73071 15.9649 7.35938 16.9135 7.35938C17.8626 7.35938 18.6264 7.72929 18.6264 8.18803Z" fill="#E58399"/>
<path d="M0.920403 14.6734C1.68897 15.0384 2.58668 15.2867 3.44454 15.5035C4.589 15.7824 5.75697 15.9914 6.94752 16.13C8.13806 16.2686 9.3358 16.335 10.5412 16.3297C12.4806 16.3254 14.399 16.1762 16.2971 15.8809C16.5626 15.8418 16.4493 15.5415 16.1857 15.582C13.1513 16.0418 10.0002 16.1726 6.93791 15.8137C5.19531 15.6261 3.52375 15.2597 1.92372 14.715C1.65345 14.6244 1.39182 14.5213 1.13931 14.4058C0.904561 14.2982 0.692376 14.5668 0.920403 14.6734Z" fill="#E58399"/>
<path d="M0.920382 22.9839C1.83537 23.3332 2.78732 23.6132 3.77672 23.8243C4.86165 24.0787 5.96962 24.2553 7.09967 24.3545C8.23021 24.4536 9.36314 24.4732 10.4985 24.4135C12.0697 24.3186 13.58 24.0421 15.0297 23.5834C15.2779 23.5049 15.0638 23.2362 14.8175 23.3148C10.7553 24.6036 6.02867 24.2866 2.02451 23.0269C1.71968 22.9306 1.41676 22.8318 1.12585 22.7153C0.894459 22.6204 0.682274 22.8891 0.920382 22.9839Z" fill="#E58399"/>
<path d="M4.47912 33.4088C5.40947 33.4706 6.3379 33.4543 7.26345 33.3594C8.29701 33.2763 9.30705 33.1121 10.2926 32.8665C11.2782 32.6214 12.2167 32.3005 13.1086 31.9046C14.3769 31.3258 15.471 30.6023 16.3898 29.7338C16.5607 29.5779 16.2592 29.3536 16.0931 29.5146C15.7168 29.8671 15.3078 30.1972 14.8661 30.5053C14.4245 30.8137 13.955 31.0966 13.4576 31.3542C12.9603 31.6115 12.4404 31.841 11.8979 32.0425C11.355 32.244 10.7957 32.4149 10.2192 32.556C8.6585 32.9426 7.05463 33.1341 5.40899 33.1302C5.09791 33.132 4.78828 33.122 4.47912 33.0997C4.21173 33.0755 4.21365 33.3836 4.47912 33.4088Z" fill="#E58399"/>
<path d="M22.5771 38.1657C22.9674 37.778 23.2122 37.2788 23.4124 36.83C23.988 35.5287 24.1147 34.1244 23.9947 32.7649C23.8752 31.5585 23.5967 30.3727 23.1589 29.2075C23.1508 29.1883 23.1378 29.1713 23.1205 29.1556C23.1032 29.1404 23.0826 29.1279 23.0586 29.1183C23.0351 29.1087 23.0096 29.103 22.9827 29.1006C22.9559 29.0984 22.929 29.0998 22.903 29.1052C22.8766 29.1105 22.8531 29.119 22.8315 29.1315C22.8099 29.1436 22.7922 29.1581 22.7782 29.1752C22.7643 29.1926 22.7552 29.2111 22.7509 29.231C22.7465 29.2505 22.7475 29.2704 22.7533 29.29C23.4162 31.0983 23.7912 32.993 23.5343 34.866C23.4042 35.8037 23.1148 36.7667 22.5339 37.6071C22.446 37.7475 22.3419 37.8814 22.2223 38.0086C22.0509 38.1685 22.4177 38.3256 22.5771 38.1657Z" fill="#E58399"/>
<path d="M31.2067 26.4584C31.7256 26.7868 32.1798 27.1592 32.5681 27.5749C33.0444 28.0603 33.439 28.5795 33.7529 29.1327C34.0664 29.6857 34.2901 30.2581 34.4245 30.8494C34.6218 31.7768 34.6036 32.7022 34.3693 33.625C34.3218 33.8201 34.7274 33.9036 34.7754 33.7071C34.8753 33.3226 34.9382 32.9345 34.9636 32.5433C34.9891 32.1524 34.9771 31.7616 34.9276 31.3718C34.8782 30.9819 34.7918 30.5964 34.6679 30.2155C34.5445 29.8345 34.3852 29.4621 34.1898 29.0983C33.6824 28.1722 32.9656 27.3457 32.0406 26.618C31.8725 26.4826 31.6935 26.3561 31.5029 26.2381C31.2989 26.1137 30.996 26.333 31.2067 26.4584Z" fill="#E58399"/>
<path d="M41.8107 22.9281C42.2461 23.3982 42.6398 23.8872 42.9907 24.3946C43.7132 25.4084 44.3214 26.4968 44.5797 27.6336C44.7506 28.2871 44.7285 28.9373 44.5149 29.5841C44.5072 29.6036 44.5058 29.6239 44.5091 29.6441C44.5125 29.6644 44.5211 29.6835 44.535 29.7013C44.5485 29.7194 44.5662 29.7344 44.5883 29.7472C44.6104 29.7596 44.6344 29.7688 44.6613 29.7742C44.6882 29.7795 44.7151 29.7809 44.7429 29.7784C44.7703 29.7759 44.7962 29.7695 44.8202 29.7596C44.8442 29.7496 44.8648 29.7365 44.8821 29.7201C44.8989 29.7042 44.9114 29.686 44.9191 29.6661C45.3487 28.4853 44.9978 27.2168 44.4597 26.0889C43.9854 25.1121 43.3786 24.1828 42.6393 23.3009C42.4905 23.1197 42.3383 22.9395 42.1736 22.7661C42.0095 22.5923 41.6547 22.7636 41.8107 22.9281Z" fill="#E58399"/>
<path d="M53.67 23.6142C53.9201 24.3512 54.0579 25.0999 54.0838 25.8596C54.1102 26.6197 54.0233 27.3723 53.8241 28.1178C53.622 28.7702 53.2701 29.3746 52.7689 29.9315C52.6168 30.0974 52.9797 30.252 53.1323 30.0871C54.7199 28.3573 54.7521 26.0522 54.237 24.0651C54.1904 23.8864 54.1409 23.708 54.0757 23.5317C54.0675 23.5125 54.0545 23.4955 54.0373 23.4799C54.02 23.4646 53.9993 23.4521 53.9753 23.4425C53.9518 23.433 53.9264 23.4269 53.8995 23.4248C53.8721 23.4226 53.8457 23.4241 53.8198 23.4294C53.7934 23.4347 53.7699 23.4433 53.7483 23.4553C53.7267 23.4674 53.7089 23.4823 53.6945 23.4994C53.6806 23.5168 53.6715 23.5353 53.6676 23.5548C53.6633 23.5747 53.6638 23.5946 53.67 23.6142Z" fill="#E58399"/>
<path d="M62.6931 27.4947C62.6931 27.5025 62.6931 27.5327 62.6931 27.5011C62.6931 27.4695 62.6931 27.548 62.7037 27.5658C62.719 27.6621 62.7325 27.7584 62.743 27.8561C62.7805 28.1816 62.8011 28.5099 62.8011 28.8383C62.8295 29.8009 62.6509 30.7418 62.2654 31.6615C62.0287 32.2176 61.6624 32.7222 61.1656 33.1749C60.9947 33.327 61.2889 33.5487 61.4618 33.3952C63.1247 31.9276 63.3681 29.781 63.1746 27.946C63.1559 27.7687 63.1333 27.591 63.0973 27.4151C63.058 27.2147 62.6537 27.3011 62.6931 27.4947Z" fill="#E58399"/>
<path d="M72.4978 29.3598C72.5132 29.373 72.5271 29.3865 72.5405 29.4007C72.6053 29.465 72.6673 29.5272 72.7287 29.5958C72.9279 29.8125 73.1084 30.0378 73.2697 30.2713C73.5194 30.611 73.7104 30.9681 73.8424 31.3423C73.9749 31.7164 74.045 32.097 74.0527 32.4836C74.047 33.0213 73.8756 33.5283 73.5391 34.0045C73.4157 34.1807 73.7767 34.3392 73.902 34.1605C74.9706 32.6396 74.3743 30.8757 73.1536 29.5069C73.0422 29.3793 72.9222 29.2564 72.794 29.1381C72.6226 28.9849 72.3279 29.2027 72.4978 29.3598Z" fill="#E58399"/>
<path d="M10.7687 10.7544C11.0169 10.8091 11.2699 10.8457 11.5277 10.8645C12.0068 10.9164 12.4705 10.8741 12.9184 10.738C12.9424 10.7273 12.9626 10.7138 12.9794 10.6975C12.9962 10.6812 13.0082 10.663 13.0154 10.6431C13.0226 10.6229 13.024 10.603 13.0202 10.5824C13.0164 10.5621 13.0077 10.5429 12.9938 10.5252C12.9789 10.5077 12.9607 10.4928 12.9386 10.4807C12.9165 10.4687 12.8925 10.4598 12.8656 10.4548C12.8392 10.4495 12.8119 10.448 12.7845 10.4505C12.7576 10.453 12.7317 10.4594 12.7077 10.4694C12.3179 10.576 11.9185 10.6033 11.509 10.5504C11.2978 10.5312 11.0904 10.4985 10.8873 10.4527C10.6218 10.3944 10.5119 10.7 10.7687 10.7544Z" fill="#E58399"/>
</svg>
