<svg width="262" height="244" viewBox="0 0 262 244" fill="none" xmlns="http://www.w3.org/2000/svg">
<path d="M160.028 24.4441C159.883 24.6102 159.739 24.7763 159.594 24.9424C159.208 25.3991 158.871 25.8144 158.485 25.939C158.244 26.0221 157.858 25.9804 157.425 25.8559C157.473 25.4406 157.569 24.9839 157.666 24.5271C157.907 22.9492 158.196 21.3714 158.196 19.7105C158.196 19.1291 158.196 18.5478 158.244 18.008C158.292 15.0598 158.389 12.0286 157.617 9.16343C156.701 5.63392 154.387 2.85188 151.109 1.31551C147.734 -0.262383 143.684 -0.428517 139.683 0.858713C139.49 0.94176 139.297 0.983284 139.056 1.06633C137.031 1.77223 135.151 2.85184 133.608 3.76536C126.039 8.29143 119.771 14.1878 114.95 21.2883C98.2204 45.7872 85.0104 69.165 74.5002 92.7919C73.9699 93.9961 73.5843 95.1587 73.3432 96.2799C72.8611 98.3561 74.5002 100.474 77.1036 101.18C78.791 101.636 80.3821 101.678 81.732 101.263C83.1301 100.806 84.2872 99.8924 85.1068 98.5221C87.6621 94.3282 89.5906 90.7988 91.1816 87.3939C101.065 66.2169 113.504 45.8288 125.508 26.1466C128.305 21.579 131.872 17.6342 136.452 14.0217C138.236 12.6099 139.683 11.6549 141.129 10.949C141.466 10.7829 141.852 10.6167 142.238 10.4922C143.54 10.0769 144.697 10.16 145.661 10.6583C146.77 11.2396 147.493 12.4023 147.638 13.8972C147.927 16.1394 147.686 18.4647 147.541 20.707C146.191 36.3614 140.743 52.1403 130.378 70.3277C130.088 70.8259 129.751 71.3657 129.413 71.864C128.594 73.1928 127.726 74.5215 127.34 76.0164C126.955 77.5527 127.967 79.6289 129.124 80.584C130.571 81.7881 132.595 82.0788 134.62 81.456C135.102 81.2899 135.536 81.0823 135.97 80.8331C137.127 80.1688 138.188 79.0891 138.911 77.9265C141.708 73.3174 144.986 67.8778 148.071 62.3551C156.798 46.8253 167.983 31.7938 181.289 17.8003C184.568 14.3539 187.605 12.2777 191.173 11.1566H191.221C193.342 10.4922 195.126 10.2846 196.958 11.4472C198.453 13.9802 198.019 16.8038 197.296 20.0011C196.283 24.5272 195.126 28.3058 193.68 31.6692C187.798 45.6211 181.723 59.7391 175.89 73.4419C173.431 79.2137 170.972 84.944 168.513 90.7158C168.369 91.0895 168.176 91.4632 168.031 91.8369C167.356 93.3733 166.681 94.9511 166.199 96.5705C165.91 97.6917 166.151 98.8544 166.922 99.8509C167.79 100.972 169.188 101.761 170.731 102.01C172.177 102.218 173.527 102.135 174.636 101.803C175.649 101.47 176.468 100.93 177.143 100.183C178.686 98.4391 180.084 96.6121 181.193 95.0757C184.375 90.6742 187.605 86.2311 190.739 81.9127C196.573 73.8571 202.647 65.5109 208.674 57.3308C212.29 52.431 215.713 48.2371 219.039 44.5415C220.582 42.839 222.51 40.9705 224.921 40.2231C225.789 39.9324 226.705 39.8079 227.669 39.8494C229.935 41.801 229.935 44.0018 229.935 46.4932C229.935 52.9293 227.862 59.4484 223.378 66.9642L220.003 72.653C212.965 84.5703 205.636 96.8613 198.501 108.986L198.405 109.152C197.344 110.979 196.235 112.848 195.946 114.841C195.753 116.377 197.199 118.37 198.597 119.159C199.899 119.865 202.165 120.073 203.611 119.616C203.901 119.533 204.094 119.408 204.335 119.284C206.552 117.872 208.433 116.045 210.216 114.26C210.409 114.052 210.65 113.844 210.843 113.637C213.784 110.73 216.773 107.782 219.666 104.917C224.15 100.432 228.826 95.7816 233.503 91.2555C236.154 88.681 239.095 86.3142 242.229 84.1965C242.759 83.8228 243.483 83.4906 244.447 83.2C244.977 83.0339 245.508 82.8677 246.038 82.7432C246.424 82.6186 246.857 82.5356 247.291 82.411C249.075 84.5288 248.593 86.5634 247.966 88.3074C247.773 88.8887 247.581 89.4285 247.388 90.0098C245.652 94.9096 243.82 99.9755 241.361 104.668C235.287 116.087 228.73 127.34 223.089 136.807C217.882 145.568 214.122 155.368 211.47 166.745C211.277 167.617 211.084 168.448 210.843 169.32C210.216 171.853 209.638 174.469 209.204 177.085C207.999 184.268 205.154 193.86 193.246 210.428C187.316 218.691 179.072 224.546 168.803 227.785C168.32 227.951 167.79 228.076 167.308 228.242C162.39 229.654 157.135 231.107 151.88 232.27C134.958 235.882 117.602 234.886 101.644 229.28C75.3199 220.062 57.9154 204.075 49.9122 181.777C47.6463 175.424 46.0553 168.946 44.8982 164.046C41.7645 150.634 36.3165 138.343 28.1687 126.467C24.3599 120.903 21.178 114.841 18.1407 109.028C17.8032 108.322 17.4174 107.657 17.0799 106.951C13.8498 100.764 12.4516 94.3283 12.9819 87.7675C13.223 84.9024 14.0426 82.0373 15.3925 79.7535C16.0193 78.6739 16.9836 77.885 18.1407 77.5113C20.0692 76.8884 22.335 77.4282 24.0707 78.8815C25.5652 80.1688 26.8188 81.4975 27.7348 82.8263C30.7721 87.0617 34.0506 91.2141 37.1844 95.2834C43.5001 103.339 50.0087 111.685 54.8781 120.613C57.2404 124.973 60.6153 126.924 65.8704 126.966C78.9358 127.09 91.7601 130.911 105.018 138.551C116.396 145.112 123.676 153.749 126.762 164.296C127.292 166.164 127.823 167.784 128.546 169.403C129.558 171.521 132.595 172.932 135.44 172.559C135.826 172.517 136.163 172.434 136.501 172.31C138.815 171.562 140.165 169.569 140.02 167.202C139.924 165.956 139.731 164.711 139.393 163.59C137.224 156.157 133.849 149.887 129.076 144.406C120.735 134.772 109.261 127.63 93.0135 121.858C84.6247 118.869 75.9466 117.831 67.5095 116.792L67.3167 116.751C64.9061 113.471 62.4955 110.232 60.1331 106.993C53.7691 98.3561 47.7427 90.2174 41.5234 81.9543C38.4861 77.968 35.6898 74.3969 32.1221 71.4488C26.8188 67.0888 19.8762 65.7186 13.4641 67.7532C9.22142 69.082 5.60563 71.9056 3.19504 75.6427C0.929088 79.2137 -0.131619 83.2415 0.0130167 87.8506C0.254076 96.6121 2.03791 103.962 5.31631 110.273C5.79843 111.145 6.23229 112.059 6.71441 112.931C9.65533 118.62 12.741 124.516 16.5497 129.956C24.2636 140.835 29.7115 153.25 33.1345 167.908C34.2916 172.849 35.738 178.621 37.7629 184.102C42.5841 197.141 50.2015 208.393 60.3742 217.529C70.4022 226.539 82.9855 233.515 97.7866 238.332C120.976 245.889 144.793 245.889 168.61 238.332C173.672 236.713 178.831 234.719 183.893 232.436C188.81 230.193 193.632 226.83 197.44 222.927C210.458 209.764 218.605 195.563 221.643 180.739C225.5 161.846 232.153 145.278 242.084 130.122C246.327 123.644 249.991 116.751 253.511 110.066C254.668 107.865 255.873 105.54 257.127 103.339C260.501 97.1104 262.092 90.0513 261.996 81.7051C261.948 78.3417 260.067 75.0199 257.078 73.0683C255.005 71.698 251.389 70.3276 246.134 71.5318C245.266 71.7394 244.399 71.9886 243.531 72.2378C240.204 73.2759 237.07 74.8537 233.358 77.2621C233.069 77.4697 232.78 77.7189 232.539 77.9265C232.201 78.2171 231.815 78.5494 231.478 78.6739C231.381 78.7155 231.189 78.7569 230.851 78.6324C231.333 77.7188 231.864 76.8469 232.394 75.9333C233.792 73.4834 235.238 70.9505 236.588 68.4591C240.927 60.5696 242.856 52.9708 242.47 45.2475C242.325 42.0917 241.795 39.5172 240.831 37.3164C237.842 30.5066 230.417 27.5584 222.318 29.9668C222.125 30.0083 221.932 30.0913 221.739 30.1328C219.039 31.0048 216.677 32.1675 214.941 33.4963C212.145 35.6555 209.541 38.1054 207.034 40.4307C206.359 41.0535 205.733 41.6764 205.058 42.2993C204.286 43.0051 203.756 43.7941 203.177 44.583C202.695 45.2474 202.213 45.9118 201.683 46.4516C202.117 44.7907 202.551 43.0882 203.081 41.4272C203.852 39.2265 204.672 36.9842 205.492 34.825C206.938 30.9633 208.433 26.9771 209.542 22.9908C210.458 19.7935 210.65 16.1394 210.168 12.3607C209.349 5.8 204.527 1.85526 196.572 1.14936C193.053 0.858693 189.485 1.27393 185.966 2.39506C185.05 2.68573 184.182 3.01798 183.266 3.39169C179.023 5.1772 175.215 7.83467 171.984 11.2396C169.14 14.2708 166.295 17.4266 163.547 20.4578C162.342 21.8696 161.185 23.1569 160.028 24.4441Z" fill="#D13AA0"/>
</svg>
